<svg width="315" height="313" viewBox="0 0 315 313" fill="none" xmlns="http://www.w3.org/2000/svg">
<path d="M309.395 286.249C307.824 284.684 204.366 181.715 211.009 188.279L109.604 87.0565C107.369 84.8285 21.5464 -0.737639 26.8612 4.56132C20.7612 -1.52044 10.675 -1.52044 4.57501 4.56132C-1.525 10.6431 -1.525 20.6991 4.57501 26.7808L20.278 42.4369C17.3186 48.5186 15.7483 55.4434 15.7483 62.609V224.107L104.108 188.881C109.906 186.532 116.489 187.917 121.079 192.313L143.668 215.014L174.772 196.408L197.662 219.229L149.345 248.193C143.245 251.806 135.393 250.843 130.199 245.845L106.161 221.759L16.4127 257.587C19.8553 280.107 39.484 297.329 62.8574 297.329H251.233C258.481 297.329 265.366 295.763 271.466 292.813L287.169 308.469C290.31 311.419 294.235 312.985 298.342 312.985C302.449 312.985 306.375 311.419 309.516 308.469C315.616 302.387 315.616 292.331 309.516 286.249H309.395ZM109.906 140.889C92.6327 140.889 78.5 126.799 78.5 109.577C78.5 106.747 78.802 104.097 79.5871 101.568L117.878 139.745C115.342 140.528 112.684 140.829 109.846 140.829L109.906 140.889ZM109.906 31.3572C109.906 22.7464 116.972 15.7012 125.609 15.7012H251.173C277.083 15.7012 298.282 36.8368 298.282 62.6693V187.857C298.282 196.468 291.216 203.513 282.579 203.513C273.942 203.513 266.876 196.468 266.876 187.857V62.609C266.876 53.9982 259.809 46.953 251.173 46.953H125.609C116.972 46.953 109.906 39.9078 109.906 31.297V31.3572Z" fill="#D6D6D6" style="fill:#D6D6D6;fill:color(display-p3 0.8400 0.8400 0.8400);fill-opacity:1;"/>
</svg>
