<svg width="284" height="165" viewBox="0 0 284 165" fill="none" xmlns="http://www.w3.org/2000/svg">
<g opacity="0.2">
<path fill-rule="evenodd" clip-rule="evenodd" d="M170.826 4.46635C170.938 4.46792 171.045 4.51323 171.124 4.59261C171.203 4.67198 171.248 4.77913 171.249 4.89115V12.0674H137.717C137.635 12.0714 137.555 12.0501 137.486 12.0064C137.417 11.9627 137.363 11.8988 137.332 11.8235L133.86 4.46635H170.826ZM142.357 75C131.2 75 122.123 65.924 122.123 54.766C122.123 43.6079 131.2 34.5318 142.357 34.5318C153.515 34.5318 162.592 43.6077 162.592 54.766C162.592 65.9242 153.515 75 142.357 75ZM175.715 51.3549V16.8066C175.714 16.2131 175.479 15.6442 175.059 15.2244C174.64 14.8046 174.071 14.5684 173.477 14.5674H137.717C137.162 14.5706 136.617 14.4143 136.148 14.1172C135.679 13.82 135.306 13.3944 135.072 12.8911L129.595 1.28298C129.421 0.89361 129.136 0.564227 128.776 0.336095C128.416 0.107963 127.996 -0.00877226 127.57 0.00051394H111.237C110.644 0.00163827 110.075 0.237978 109.656 0.657719C109.236 1.07746 109.001 1.64635 109 2.23966V51.3555C109 51.9489 109.236 52.5179 109.655 52.9376C110.075 53.3574 110.644 53.5936 111.237 53.5945H119.653C120.266 41.6006 130.215 32.0322 142.357 32.0322C154.5 32.0322 164.45 41.6005 165.062 53.5945H173.478C174.071 53.5936 174.64 53.3573 175.06 52.9376C175.479 52.5179 175.715 51.9489 175.716 51.3555L175.715 51.3549ZM152.29 50.6672L143.242 41.6178C143.007 41.3834 142.689 41.2518 142.357 41.2518C142.026 41.2518 141.707 41.3834 141.473 41.6178L132.425 50.6672C132.19 50.9015 132.059 51.2193 132.059 51.5507C132.059 51.8821 132.19 52.1999 132.424 52.4343C132.659 52.6687 132.976 52.8004 133.308 52.8005C133.639 52.8005 133.957 52.669 134.191 52.4347L141.107 45.5207V67.0295C141.105 67.1948 141.136 67.3588 141.198 67.5121C141.26 67.6653 141.352 67.8047 141.468 67.9222C141.585 68.0397 141.723 68.133 141.876 68.1967C142.028 68.2604 142.192 68.2932 142.357 68.2932C142.522 68.2932 142.686 68.2604 142.839 68.1967C142.991 68.133 143.13 68.0397 143.246 67.9222C143.362 67.8047 143.454 67.6653 143.516 67.5121C143.578 67.3588 143.609 67.1948 143.607 67.0295V45.5204L150.521 52.4344C150.756 52.669 151.074 52.8008 151.405 52.801C151.737 52.8011 152.055 52.6695 152.289 52.4351C152.524 52.2007 152.656 51.8828 152.656 51.5512C152.656 51.2196 152.524 50.9015 152.29 50.6669L152.29 50.6672Z" fill="url(#paint0_linear_1590_110525)" style=""/>
</g>
<path d="M3.83656 118.06C4.19656 117.433 4.7299 116.913 5.43656 116.5C6.15656 116.073 6.9899 115.86 7.93656 115.86C8.9099 115.86 9.7899 116.093 10.5766 116.56C11.3766 117.027 12.0032 117.687 12.4566 118.54C12.9099 119.38 13.1366 120.36 13.1366 121.48C13.1366 122.587 12.9099 123.573 12.4566 124.44C12.0032 125.307 11.3766 125.98 10.5766 126.46C9.7899 126.94 8.9099 127.18 7.93656 127.18C7.00323 127.18 6.17656 126.973 5.45656 126.56C4.7499 126.133 4.2099 125.607 3.83656 124.98V132.2H2.01656V116.04H3.83656V118.06ZM11.2766 121.48C11.2766 120.653 11.1099 119.933 10.7766 119.32C10.4432 118.707 9.9899 118.24 9.41656 117.92C8.85656 117.6 8.23656 117.44 7.55656 117.44C6.8899 117.44 6.2699 117.607 5.69656 117.94C5.13656 118.26 4.68323 118.733 4.33656 119.36C4.00323 119.973 3.83656 120.687 3.83656 121.5C3.83656 122.327 4.00323 123.053 4.33656 123.68C4.68323 124.293 5.13656 124.767 5.69656 125.1C6.2699 125.42 6.8899 125.58 7.55656 125.58C8.23656 125.58 8.85656 125.42 9.41656 125.1C9.9899 124.767 10.4432 124.293 10.7766 123.68C11.1099 123.053 11.2766 122.32 11.2766 121.48ZM14.8522 121.48C14.8522 120.36 15.0789 119.38 15.5322 118.54C15.9855 117.687 16.6055 117.027 17.3922 116.56C18.1922 116.093 19.0855 115.86 20.0722 115.86C20.9255 115.86 21.7189 116.06 22.4522 116.46C23.1855 116.847 23.7455 117.36 24.1322 118V112.2H25.9722V127H24.1322V124.94C23.7722 125.593 23.2389 126.133 22.5322 126.56C21.8255 126.973 20.9989 127.18 20.0522 127.18C19.0789 127.18 18.1922 126.94 17.3922 126.46C16.6055 125.98 15.9855 125.307 15.5322 124.44C15.0789 123.573 14.8522 122.587 14.8522 121.48ZM24.1322 121.5C24.1322 120.673 23.9655 119.953 23.6322 119.34C23.2989 118.727 22.8455 118.26 22.2722 117.94C21.7122 117.607 21.0922 117.44 20.4122 117.44C19.7322 117.44 19.1122 117.6 18.5522 117.92C17.9922 118.24 17.5455 118.707 17.2122 119.32C16.8789 119.933 16.7122 120.653 16.7122 121.48C16.7122 122.32 16.8789 123.053 17.2122 123.68C17.5455 124.293 17.9922 124.767 18.5522 125.1C19.1122 125.42 19.7322 125.58 20.4122 125.58C21.0922 125.58 21.7122 125.42 22.2722 125.1C22.8455 124.767 23.2989 124.293 23.6322 123.68C23.9655 123.053 24.1322 122.327 24.1322 121.5ZM33.5078 117.54H31.2078V127H29.3878V117.54H27.9678V116.04H29.3878V115.26C29.3878 114.033 29.7011 113.14 30.3278 112.58C30.9678 112.007 31.9878 111.72 33.3878 111.72V113.24C32.5878 113.24 32.0211 113.4 31.6878 113.72C31.3678 114.027 31.2078 114.54 31.2078 115.26V116.04H33.5078V117.54ZM37.5098 124.48L35.2698 129.86H34.0498L35.5098 124.48H37.5098ZM44.2467 121.48C44.2467 120.36 44.4734 119.38 44.9267 118.54C45.3801 117.687 46.0001 117.027 46.7867 116.56C47.5867 116.093 48.4801 115.86 49.4667 115.86C50.3201 115.86 51.1134 116.06 51.8467 116.46C52.5801 116.847 53.1401 117.36 53.5267 118V112.2H55.3667V127H53.5267V124.94C53.1667 125.593 52.6334 126.133 51.9267 126.56C51.2201 126.973 50.3934 127.18 49.4467 127.18C48.4734 127.18 47.5867 126.94 46.7867 126.46C46.0001 125.98 45.3801 125.307 44.9267 124.44C44.4734 123.573 44.2467 122.587 44.2467 121.48ZM53.5267 121.5C53.5267 120.673 53.3601 119.953 53.0267 119.34C52.6934 118.727 52.2401 118.26 51.6667 117.94C51.1067 117.607 50.4867 117.44 49.8067 117.44C49.1267 117.44 48.5067 117.6 47.9467 117.92C47.3867 118.24 46.9401 118.707 46.6067 119.32C46.2734 119.933 46.1067 120.653 46.1067 121.48C46.1067 122.32 46.2734 123.053 46.6067 123.68C46.9401 124.293 47.3867 124.767 47.9467 125.1C48.5067 125.42 49.1267 125.58 49.8067 125.58C50.4867 125.58 51.1067 125.42 51.6667 125.1C52.2401 124.767 52.6934 124.293 53.0267 123.68C53.3601 123.053 53.5267 122.327 53.5267 121.5ZM63.2223 127.18C62.1957 127.18 61.2623 126.947 60.4223 126.48C59.5957 126.013 58.9423 125.353 58.4623 124.5C57.9957 123.633 57.7623 122.633 57.7623 121.5C57.7623 120.38 58.0023 119.393 58.4823 118.54C58.9757 117.673 59.6423 117.013 60.4823 116.56C61.3223 116.093 62.2623 115.86 63.3023 115.86C64.3423 115.86 65.2823 116.093 66.1223 116.56C66.9623 117.013 67.6223 117.667 68.1023 118.52C68.5957 119.373 68.8423 120.367 68.8423 121.5C68.8423 122.633 68.589 123.633 68.0823 124.5C67.589 125.353 66.9157 126.013 66.0623 126.48C65.209 126.947 64.2623 127.18 63.2223 127.18ZM63.2223 125.58C63.8757 125.58 64.489 125.427 65.0623 125.12C65.6357 124.813 66.0957 124.353 66.4423 123.74C66.8023 123.127 66.9823 122.38 66.9823 121.5C66.9823 120.62 66.809 119.873 66.4623 119.26C66.1157 118.647 65.6623 118.193 65.1023 117.9C64.5423 117.593 63.9357 117.44 63.2823 117.44C62.6157 117.44 62.0023 117.593 61.4423 117.9C60.8957 118.193 60.4557 118.647 60.1223 119.26C59.789 119.873 59.6223 120.62 59.6223 121.5C59.6223 122.393 59.7823 123.147 60.1023 123.76C60.4357 124.373 60.8757 124.833 61.4223 125.14C61.969 125.433 62.569 125.58 63.2223 125.58ZM70.5553 121.5C70.5553 120.367 70.782 119.38 71.2353 118.54C71.6886 117.687 72.3153 117.027 73.1153 116.56C73.9286 116.093 74.8553 115.86 75.8953 115.86C77.242 115.86 78.3486 116.187 79.2153 116.84C80.0953 117.493 80.6753 118.4 80.9553 119.56H78.9953C78.8086 118.893 78.442 118.367 77.8953 117.98C77.362 117.593 76.6953 117.4 75.8953 117.4C74.8553 117.4 74.0153 117.76 73.3753 118.48C72.7353 119.187 72.4153 120.193 72.4153 121.5C72.4153 122.82 72.7353 123.84 73.3753 124.56C74.0153 125.28 74.8553 125.64 75.8953 125.64C76.6953 125.64 77.362 125.453 77.8953 125.08C78.4286 124.707 78.7953 124.173 78.9953 123.48H80.9553C80.662 124.6 80.0753 125.5 79.1953 126.18C78.3153 126.847 77.2153 127.18 75.8953 127.18C74.8553 127.18 73.9286 126.947 73.1153 126.48C72.3153 126.013 71.6886 125.353 71.2353 124.5C70.782 123.647 70.5553 122.647 70.5553 121.5ZM93.1758 117.54H90.8758V127H89.0558V117.54H87.6358V116.04H89.0558V115.26C89.0558 114.033 89.3691 113.14 89.9958 112.58C90.6358 112.007 91.6558 111.72 93.0558 111.72V113.24C92.2558 113.24 91.6891 113.4 91.3558 113.72C91.0358 114.027 90.8758 114.54 90.8758 115.26V116.04H93.1758V117.54ZM96.2378 114.26C95.8911 114.26 95.5978 114.14 95.3578 113.9C95.1178 113.66 94.9978 113.367 94.9978 113.02C94.9978 112.673 95.1178 112.38 95.3578 112.14C95.5978 111.9 95.8911 111.78 96.2378 111.78C96.5711 111.78 96.8511 111.9 97.0778 112.14C97.3178 112.38 97.4378 112.673 97.4378 113.02C97.4378 113.367 97.3178 113.66 97.0778 113.9C96.8511 114.14 96.5711 114.26 96.2378 114.26ZM97.1178 116.04V127H95.2978V116.04H97.1178ZM102.04 112.2V127H100.22V112.2H102.04ZM115.142 121.1C115.142 121.447 115.122 121.813 115.082 122.2H106.322C106.388 123.28 106.755 124.127 107.422 124.74C108.102 125.34 108.922 125.64 109.882 125.64C110.668 125.64 111.322 125.46 111.842 125.1C112.375 124.727 112.748 124.233 112.962 123.62H114.922C114.628 124.673 114.042 125.533 113.162 126.2C112.282 126.853 111.188 127.18 109.882 127.18C108.842 127.18 107.908 126.947 107.082 126.48C106.268 126.013 105.628 125.353 105.162 124.5C104.695 123.633 104.462 122.633 104.462 121.5C104.462 120.367 104.688 119.373 105.142 118.52C105.595 117.667 106.228 117.013 107.042 116.56C107.868 116.093 108.815 115.86 109.882 115.86C110.922 115.86 111.842 116.087 112.642 116.54C113.442 116.993 114.055 117.62 114.482 118.42C114.922 119.207 115.142 120.1 115.142 121.1ZM113.262 120.72C113.262 120.027 113.108 119.433 112.802 118.94C112.495 118.433 112.075 118.053 111.542 117.8C111.022 117.533 110.442 117.4 109.802 117.4C108.882 117.4 108.095 117.693 107.442 118.28C106.802 118.867 106.435 119.68 106.342 120.72H113.262ZM121.424 127.18C120.584 127.18 119.831 127.04 119.164 126.76C118.497 126.467 117.971 126.067 117.584 125.56C117.197 125.04 116.984 124.447 116.944 123.78H118.824C118.877 124.327 119.131 124.773 119.584 125.12C120.051 125.467 120.657 125.64 121.404 125.64C122.097 125.64 122.644 125.487 123.044 125.18C123.444 124.873 123.644 124.487 123.644 124.02C123.644 123.54 123.431 123.187 123.004 122.96C122.577 122.72 121.917 122.487 121.024 122.26C120.211 122.047 119.544 121.833 119.024 121.62C118.517 121.393 118.077 121.067 117.704 120.64C117.344 120.2 117.164 119.627 117.164 118.92C117.164 118.36 117.331 117.847 117.664 117.38C117.997 116.913 118.471 116.547 119.084 116.28C119.697 116 120.397 115.86 121.184 115.86C122.397 115.86 123.377 116.167 124.124 116.78C124.871 117.393 125.271 118.233 125.324 119.3H123.504C123.464 118.727 123.231 118.267 122.804 117.92C122.391 117.573 121.831 117.4 121.124 117.4C120.471 117.4 119.951 117.54 119.564 117.82C119.177 118.1 118.984 118.467 118.984 118.92C118.984 119.28 119.097 119.58 119.324 119.82C119.564 120.047 119.857 120.233 120.204 120.38C120.564 120.513 121.057 120.667 121.684 120.84C122.471 121.053 123.111 121.267 123.604 121.48C124.097 121.68 124.517 121.987 124.864 122.4C125.224 122.813 125.411 123.353 125.424 124.02C125.424 124.62 125.257 125.16 124.924 125.64C124.591 126.12 124.117 126.5 123.504 126.78C122.904 127.047 122.211 127.18 121.424 127.18ZM132.645 121.48C132.645 120.36 132.872 119.38 133.325 118.54C133.778 117.687 134.398 117.027 135.185 116.56C135.985 116.093 136.872 115.86 137.845 115.86C138.805 115.86 139.638 116.067 140.345 116.48C141.052 116.893 141.578 117.413 141.925 118.04V116.04H143.765V127H141.925V124.96C141.565 125.6 141.025 126.133 140.305 126.56C139.598 126.973 138.772 127.18 137.825 127.18C136.852 127.18 135.972 126.94 135.185 126.46C134.398 125.98 133.778 125.307 133.325 124.44C132.872 123.573 132.645 122.587 132.645 121.48ZM141.925 121.5C141.925 120.673 141.758 119.953 141.425 119.34C141.092 118.727 140.638 118.26 140.065 117.94C139.505 117.607 138.885 117.44 138.205 117.44C137.525 117.44 136.905 117.6 136.345 117.92C135.785 118.24 135.338 118.707 135.005 119.32C134.672 119.933 134.505 120.653 134.505 121.48C134.505 122.32 134.672 123.053 135.005 123.68C135.338 124.293 135.785 124.767 136.345 125.1C136.905 125.42 137.525 125.58 138.205 125.58C138.885 125.58 139.505 125.42 140.065 125.1C140.638 124.767 141.092 124.293 141.425 123.68C141.758 123.053 141.925 122.327 141.925 121.5ZM148.661 117.82C148.981 117.193 149.434 116.707 150.021 116.36C150.621 116.013 151.347 115.84 152.201 115.84V117.72H151.721C149.681 117.72 148.661 118.827 148.661 121.04V127H146.841V116.04H148.661V117.82ZM164.302 121.1C164.302 121.447 164.282 121.813 164.242 122.2H155.482C155.548 123.28 155.915 124.127 156.582 124.74C157.262 125.34 158.082 125.64 159.042 125.64C159.828 125.64 160.482 125.46 161.002 125.1C161.535 124.727 161.908 124.233 162.122 123.62H164.082C163.788 124.673 163.202 125.533 162.322 126.2C161.442 126.853 160.348 127.18 159.042 127.18C158.002 127.18 157.068 126.947 156.242 126.48C155.428 126.013 154.788 125.353 154.322 124.5C153.855 123.633 153.622 122.633 153.622 121.5C153.622 120.367 153.848 119.373 154.302 118.52C154.755 117.667 155.388 117.013 156.202 116.56C157.028 116.093 157.975 115.86 159.042 115.86C160.082 115.86 161.002 116.087 161.802 116.54C162.602 116.993 163.215 117.62 163.642 118.42C164.082 119.207 164.302 120.1 164.302 121.1ZM162.422 120.72C162.422 120.027 162.268 119.433 161.962 118.94C161.655 118.433 161.235 118.053 160.702 117.8C160.182 117.533 159.602 117.4 158.962 117.4C158.042 117.4 157.255 117.693 156.602 118.28C155.962 118.867 155.595 119.68 155.502 120.72H162.422ZM175.916 127.18C175.076 127.18 174.323 127.04 173.656 126.76C172.989 126.467 172.463 126.067 172.076 125.56C171.689 125.04 171.476 124.447 171.436 123.78H173.316C173.369 124.327 173.623 124.773 174.076 125.12C174.543 125.467 175.149 125.64 175.896 125.64C176.589 125.64 177.136 125.487 177.536 125.18C177.936 124.873 178.136 124.487 178.136 124.02C178.136 123.54 177.923 123.187 177.496 122.96C177.069 122.72 176.409 122.487 175.516 122.26C174.703 122.047 174.036 121.833 173.516 121.62C173.009 121.393 172.569 121.067 172.196 120.64C171.836 120.2 171.656 119.627 171.656 118.92C171.656 118.36 171.823 117.847 172.156 117.38C172.489 116.913 172.963 116.547 173.576 116.28C174.189 116 174.889 115.86 175.676 115.86C176.889 115.86 177.869 116.167 178.616 116.78C179.363 117.393 179.763 118.233 179.816 119.3H177.996C177.956 118.727 177.723 118.267 177.296 117.92C176.883 117.573 176.323 117.4 175.616 117.4C174.963 117.4 174.443 117.54 174.056 117.82C173.669 118.1 173.476 118.467 173.476 118.92C173.476 119.28 173.589 119.58 173.816 119.82C174.056 120.047 174.349 120.233 174.696 120.38C175.056 120.513 175.549 120.667 176.176 120.84C176.963 121.053 177.603 121.267 178.096 121.48C178.589 121.68 179.009 121.987 179.356 122.4C179.716 122.813 179.903 123.353 179.916 124.02C179.916 124.62 179.749 125.16 179.416 125.64C179.083 126.12 178.609 126.5 177.996 126.78C177.396 127.047 176.703 127.18 175.916 127.18ZM192.205 116.04V127H190.385V125.38C190.039 125.94 189.552 126.38 188.925 126.7C188.312 127.007 187.632 127.16 186.885 127.16C186.032 127.16 185.265 126.987 184.585 126.64C183.905 126.28 183.365 125.747 182.965 125.04C182.579 124.333 182.385 123.473 182.385 122.46V116.04H184.185V122.22C184.185 123.3 184.459 124.133 185.005 124.72C185.552 125.293 186.299 125.58 187.245 125.58C188.219 125.58 188.985 125.28 189.545 124.68C190.105 124.08 190.385 123.207 190.385 122.06V116.04H192.205ZM197.098 118.06C197.458 117.433 197.992 116.913 198.698 116.5C199.418 116.073 200.252 115.86 201.198 115.86C202.172 115.86 203.052 116.093 203.838 116.56C204.638 117.027 205.265 117.687 205.718 118.54C206.172 119.38 206.398 120.36 206.398 121.48C206.398 122.587 206.172 123.573 205.718 124.44C205.265 125.307 204.638 125.98 203.838 126.46C203.052 126.94 202.172 127.18 201.198 127.18C200.265 127.18 199.438 126.973 198.718 126.56C198.012 126.133 197.472 125.607 197.098 124.98V132.2H195.278V116.04H197.098V118.06ZM204.538 121.48C204.538 120.653 204.372 119.933 204.038 119.32C203.705 118.707 203.252 118.24 202.678 117.92C202.118 117.6 201.498 117.44 200.818 117.44C200.152 117.44 199.532 117.607 198.958 117.94C198.398 118.26 197.945 118.733 197.598 119.36C197.265 119.973 197.098 120.687 197.098 121.5C197.098 122.327 197.265 123.053 197.598 123.68C197.945 124.293 198.398 124.767 198.958 125.1C199.532 125.42 200.152 125.58 200.818 125.58C201.498 125.58 202.118 125.42 202.678 125.1C203.252 124.767 203.705 124.293 204.038 123.68C204.372 123.053 204.538 122.32 204.538 121.48ZM210.614 118.06C210.974 117.433 211.507 116.913 212.214 116.5C212.934 116.073 213.767 115.86 214.714 115.86C215.687 115.86 216.567 116.093 217.354 116.56C218.154 117.027 218.781 117.687 219.234 118.54C219.687 119.38 219.914 120.36 219.914 121.48C219.914 122.587 219.687 123.573 219.234 124.44C218.781 125.307 218.154 125.98 217.354 126.46C216.567 126.94 215.687 127.18 214.714 127.18C213.781 127.18 212.954 126.973 212.234 126.56C211.527 126.133 210.987 125.607 210.614 124.98V132.2H208.794V116.04H210.614V118.06ZM218.054 121.48C218.054 120.653 217.887 119.933 217.554 119.32C217.221 118.707 216.767 118.24 216.194 117.92C215.634 117.6 215.014 117.44 214.334 117.44C213.667 117.44 213.047 117.607 212.474 117.94C211.914 118.26 211.461 118.733 211.114 119.36C210.781 119.973 210.614 120.687 210.614 121.5C210.614 122.327 210.781 123.053 211.114 123.68C211.461 124.293 211.914 124.767 212.474 125.1C213.047 125.42 213.667 125.58 214.334 125.58C215.014 125.58 215.634 125.42 216.194 125.1C216.767 124.767 217.221 124.293 217.554 123.68C217.887 123.053 218.054 122.32 218.054 121.48ZM227.09 127.18C226.063 127.18 225.13 126.947 224.29 126.48C223.463 126.013 222.81 125.353 222.33 124.5C221.863 123.633 221.63 122.633 221.63 121.5C221.63 120.38 221.87 119.393 222.35 118.54C222.843 117.673 223.51 117.013 224.35 116.56C225.19 116.093 226.13 115.86 227.17 115.86C228.21 115.86 229.15 116.093 229.99 116.56C230.83 117.013 231.49 117.667 231.97 118.52C232.463 119.373 232.71 120.367 232.71 121.5C232.71 122.633 232.456 123.633 231.95 124.5C231.456 125.353 230.783 126.013 229.93 126.48C229.076 126.947 228.13 127.18 227.09 127.18ZM227.09 125.58C227.743 125.58 228.356 125.427 228.93 125.12C229.503 124.813 229.963 124.353 230.31 123.74C230.67 123.127 230.85 122.38 230.85 121.5C230.85 120.62 230.676 119.873 230.33 119.26C229.983 118.647 229.53 118.193 228.97 117.9C228.41 117.593 227.803 117.44 227.15 117.44C226.483 117.44 225.87 117.593 225.31 117.9C224.763 118.193 224.323 118.647 223.99 119.26C223.656 119.873 223.49 120.62 223.49 121.5C223.49 122.393 223.65 123.147 223.97 123.76C224.303 124.373 224.743 124.833 225.29 125.14C225.836 125.433 226.436 125.58 227.09 125.58ZM236.923 117.82C237.243 117.193 237.696 116.707 238.283 116.36C238.883 116.013 239.609 115.84 240.463 115.84V117.72H239.983C237.943 117.72 236.923 118.827 236.923 121.04V127H235.103V116.04H236.923V117.82ZM244.783 117.54V124C244.783 124.533 244.897 124.913 245.123 125.14C245.35 125.353 245.743 125.46 246.303 125.46H247.643V127H246.003C244.99 127 244.23 126.767 243.723 126.3C243.217 125.833 242.963 125.067 242.963 124V117.54H241.543V116.04H242.963V113.28H244.783V116.04H247.643V117.54H244.783ZM259.849 121.1C259.849 121.447 259.829 121.813 259.789 122.2H251.029C251.095 123.28 251.462 124.127 252.129 124.74C252.809 125.34 253.629 125.64 254.589 125.64C255.375 125.64 256.029 125.46 256.549 125.1C257.082 124.727 257.455 124.233 257.669 123.62H259.629C259.335 124.673 258.749 125.533 257.869 126.2C256.989 126.853 255.895 127.18 254.589 127.18C253.549 127.18 252.615 126.947 251.789 126.48C250.975 126.013 250.335 125.353 249.869 124.5C249.402 123.633 249.169 122.633 249.169 121.5C249.169 120.367 249.395 119.373 249.849 118.52C250.302 117.667 250.935 117.013 251.749 116.56C252.575 116.093 253.522 115.86 254.589 115.86C255.629 115.86 256.549 116.087 257.349 116.54C258.149 116.993 258.762 117.62 259.189 118.42C259.629 119.207 259.849 120.1 259.849 121.1ZM257.969 120.72C257.969 120.027 257.815 119.433 257.509 118.94C257.202 118.433 256.782 118.053 256.249 117.8C255.729 117.533 255.149 117.4 254.509 117.4C253.589 117.4 252.802 117.693 252.149 118.28C251.509 118.867 251.142 119.68 251.049 120.72H257.969ZM261.571 121.48C261.571 120.36 261.798 119.38 262.251 118.54C262.704 117.687 263.324 117.027 264.111 116.56C264.911 116.093 265.804 115.86 266.791 115.86C267.644 115.86 268.438 116.06 269.171 116.46C269.904 116.847 270.464 117.36 270.851 118V112.2H272.691V127H270.851V124.94C270.491 125.593 269.958 126.133 269.251 126.56C268.544 126.973 267.718 127.18 266.771 127.18C265.798 127.18 264.911 126.94 264.111 126.46C263.324 125.98 262.704 125.307 262.251 124.44C261.798 123.573 261.571 122.587 261.571 121.48ZM270.851 121.5C270.851 120.673 270.684 119.953 270.351 119.34C270.018 118.727 269.564 118.26 268.991 117.94C268.431 117.607 267.811 117.44 267.131 117.44C266.451 117.44 265.831 117.6 265.271 117.92C264.711 118.24 264.264 118.707 263.931 119.32C263.598 119.933 263.431 120.653 263.431 121.48C263.431 122.32 263.598 123.053 263.931 123.68C264.264 124.293 264.711 124.767 265.271 125.1C265.831 125.42 266.451 125.58 267.131 125.58C267.811 125.58 268.431 125.42 268.991 125.1C269.564 124.767 270.018 124.293 270.351 123.68C270.684 123.053 270.851 122.327 270.851 121.5ZM277.647 124.48L275.407 129.86H274.187L275.647 124.48H277.647ZM19.7545 151.48C19.7545 150.36 19.9812 149.38 20.4345 148.54C20.8879 147.687 21.5079 147.027 22.2945 146.56C23.0945 146.093 23.9879 145.86 24.9745 145.86C25.8279 145.86 26.6212 146.06 27.3545 146.46C28.0879 146.847 28.6479 147.36 29.0345 148V142.2H30.8745V157H29.0345V154.94C28.6745 155.593 28.1412 156.133 27.4345 156.56C26.7279 156.973 25.9012 157.18 24.9545 157.18C23.9812 157.18 23.0945 156.94 22.2945 156.46C21.5079 155.98 20.8879 155.307 20.4345 154.44C19.9812 153.573 19.7545 152.587 19.7545 151.48ZM29.0345 151.5C29.0345 150.673 28.8679 149.953 28.5345 149.34C28.2012 148.727 27.7479 148.26 27.1745 147.94C26.6145 147.607 25.9945 147.44 25.3145 147.44C24.6345 147.44 24.0145 147.6 23.4545 147.92C22.8945 148.24 22.4479 148.707 22.1145 149.32C21.7812 149.933 21.6145 150.653 21.6145 151.48C21.6145 152.32 21.7812 153.053 22.1145 153.68C22.4479 154.293 22.8945 154.767 23.4545 155.1C24.0145 155.42 24.6345 155.58 25.3145 155.58C25.9945 155.58 26.6145 155.42 27.1745 155.1C27.7479 154.767 28.2012 154.293 28.5345 153.68C28.8679 153.053 29.0345 152.327 29.0345 151.5ZM35.7702 147.82C36.0902 147.193 36.5435 146.707 37.1302 146.36C37.7302 146.013 38.4568 145.84 39.3102 145.84V147.72H38.8302C36.7902 147.72 35.7702 148.827 35.7702 151.04V157H33.9502V146.04H35.7702V147.82ZM40.7311 151.48C40.7311 150.36 40.9578 149.38 41.4111 148.54C41.8644 147.687 42.4844 147.027 43.2711 146.56C44.0711 146.093 44.9578 145.86 45.9311 145.86C46.8911 145.86 47.7244 146.067 48.4311 146.48C49.1378 146.893 49.6644 147.413 50.0111 148.04V146.04H51.8511V157H50.0111V154.96C49.6511 155.6 49.1111 156.133 48.3911 156.56C47.6844 156.973 46.8578 157.18 45.9111 157.18C44.9378 157.18 44.0578 156.94 43.2711 156.46C42.4844 155.98 41.8644 155.307 41.4111 154.44C40.9578 153.573 40.7311 152.587 40.7311 151.48ZM50.0111 151.5C50.0111 150.673 49.8444 149.953 49.5111 149.34C49.1778 148.727 48.7244 148.26 48.1511 147.94C47.5911 147.607 46.9711 147.44 46.2911 147.44C45.6111 147.44 44.9911 147.6 44.4311 147.92C43.8711 148.24 43.4244 148.707 43.0911 149.32C42.7578 149.933 42.5911 150.653 42.5911 151.48C42.5911 152.32 42.7578 153.053 43.0911 153.68C43.4244 154.293 43.8711 154.767 44.4311 155.1C44.9911 155.42 45.6111 155.58 46.2911 155.58C46.9711 155.58 47.5911 155.42 48.1511 155.1C48.7244 154.767 49.1778 154.293 49.5111 153.68C49.8444 153.053 50.0111 152.327 50.0111 151.5ZM59.4467 145.86C60.3934 145.86 61.2201 146.067 61.9267 146.48C62.6467 146.893 63.1801 147.413 63.5267 148.04V146.04H65.3667V157.24C65.3667 158.24 65.1534 159.127 64.7267 159.9C64.3001 160.687 63.6867 161.3 62.8867 161.74C62.1001 162.18 61.1801 162.4 60.1267 162.4C58.6867 162.4 57.4867 162.06 56.5267 161.38C55.5667 160.7 55.0001 159.773 54.8267 158.6H56.6267C56.8267 159.267 57.2401 159.8 57.8667 160.2C58.4934 160.613 59.2467 160.82 60.1267 160.82C61.1267 160.82 61.9401 160.507 62.5667 159.88C63.2067 159.253 63.5267 158.373 63.5267 157.24V154.94C63.1667 155.58 62.6334 156.113 61.9267 156.54C61.2201 156.967 60.3934 157.18 59.4467 157.18C58.4734 157.18 57.5867 156.94 56.7867 156.46C56.0001 155.98 55.3801 155.307 54.9267 154.44C54.4734 153.573 54.2467 152.587 54.2467 151.48C54.2467 150.36 54.4734 149.38 54.9267 148.54C55.3801 147.687 56.0001 147.027 56.7867 146.56C57.5867 146.093 58.4734 145.86 59.4467 145.86ZM63.5267 151.5C63.5267 150.673 63.3601 149.953 63.0267 149.34C62.6934 148.727 62.2401 148.26 61.6667 147.94C61.1067 147.607 60.4867 147.44 59.8067 147.44C59.1267 147.44 58.5067 147.6 57.9467 147.92C57.3867 148.24 56.9401 148.707 56.6067 149.32C56.2734 149.933 56.1067 150.653 56.1067 151.48C56.1067 152.32 56.2734 153.053 56.6067 153.68C56.9401 154.293 57.3867 154.767 57.9467 155.1C58.5067 155.42 59.1267 155.58 59.8067 155.58C60.4867 155.58 61.1067 155.42 61.6667 155.1C62.2401 154.767 62.6934 154.293 63.0267 153.68C63.3601 153.053 63.5267 152.327 63.5267 151.5ZM78.5544 157.18C77.5277 157.18 76.5944 156.947 75.7544 156.48C74.9277 156.013 74.2744 155.353 73.7944 154.5C73.3277 153.633 73.0944 152.633 73.0944 151.5C73.0944 150.38 73.3344 149.393 73.8144 148.54C74.3077 147.673 74.9744 147.013 75.8144 146.56C76.6544 146.093 77.5944 145.86 78.6344 145.86C79.6744 145.86 80.6144 146.093 81.4544 146.56C82.2944 147.013 82.9544 147.667 83.4344 148.52C83.9277 149.373 84.1744 150.367 84.1744 151.5C84.1744 152.633 83.921 153.633 83.4144 154.5C82.921 155.353 82.2477 156.013 81.3944 156.48C80.541 156.947 79.5944 157.18 78.5544 157.18ZM78.5544 155.58C79.2077 155.58 79.821 155.427 80.3944 155.12C80.9677 154.813 81.4277 154.353 81.7744 153.74C82.1344 153.127 82.3144 152.38 82.3144 151.5C82.3144 150.62 82.141 149.873 81.7944 149.26C81.4477 148.647 80.9944 148.193 80.4344 147.9C79.8744 147.593 79.2677 147.44 78.6144 147.44C77.9477 147.44 77.3344 147.593 76.7744 147.9C76.2277 148.193 75.7877 148.647 75.4544 149.26C75.121 149.873 74.9544 150.62 74.9544 151.5C74.9544 152.393 75.1144 153.147 75.4344 153.76C75.7677 154.373 76.2077 154.833 76.7544 155.14C77.301 155.433 77.901 155.58 78.5544 155.58ZM88.3873 147.82C88.7073 147.193 89.1607 146.707 89.7473 146.36C90.3473 146.013 91.074 145.84 91.9273 145.84V147.72H91.4473C89.4073 147.72 88.3873 148.827 88.3873 151.04V157H86.5673V146.04H88.3873V147.82ZM101.18 148.08C101.554 147.427 102.1 146.893 102.82 146.48C103.54 146.067 104.36 145.86 105.28 145.86C106.267 145.86 107.154 146.093 107.94 146.56C108.727 147.027 109.347 147.687 109.8 148.54C110.254 149.38 110.48 150.36 110.48 151.48C110.48 152.587 110.254 153.573 109.8 154.44C109.347 155.307 108.72 155.98 107.92 156.46C107.134 156.94 106.254 157.18 105.28 157.18C104.334 157.18 103.5 156.973 102.78 156.56C102.074 156.147 101.54 155.62 101.18 154.98V157H99.3603V142.2H101.18V148.08ZM108.62 151.48C108.62 150.653 108.454 149.933 108.12 149.32C107.787 148.707 107.334 148.24 106.76 147.92C106.2 147.6 105.58 147.44 104.9 147.44C104.234 147.44 103.614 147.607 103.04 147.94C102.48 148.26 102.027 148.733 101.68 149.36C101.347 149.973 101.18 150.687 101.18 151.5C101.18 152.327 101.347 153.053 101.68 153.68C102.027 154.293 102.48 154.767 103.04 155.1C103.614 155.42 104.234 155.58 104.9 155.58C105.58 155.58 106.2 155.42 106.76 155.1C107.334 154.767 107.787 154.293 108.12 153.68C108.454 153.053 108.62 152.32 108.62 151.48ZM114.696 147.82C115.016 147.193 115.469 146.707 116.056 146.36C116.656 146.013 117.383 145.84 118.236 145.84V147.72H117.756C115.716 147.72 114.696 148.827 114.696 151.04V157H112.876V146.04H114.696V147.82ZM125.117 157.18C124.09 157.18 123.157 156.947 122.317 156.48C121.49 156.013 120.837 155.353 120.357 154.5C119.89 153.633 119.657 152.633 119.657 151.5C119.657 150.38 119.897 149.393 120.377 148.54C120.87 147.673 121.537 147.013 122.377 146.56C123.217 146.093 124.157 145.86 125.197 145.86C126.237 145.86 127.177 146.093 128.017 146.56C128.857 147.013 129.517 147.667 129.997 148.52C130.49 149.373 130.737 150.367 130.737 151.5C130.737 152.633 130.484 153.633 129.977 154.5C129.484 155.353 128.81 156.013 127.957 156.48C127.104 156.947 126.157 157.18 125.117 157.18ZM125.117 155.58C125.77 155.58 126.384 155.427 126.957 155.12C127.53 154.813 127.99 154.353 128.337 153.74C128.697 153.127 128.877 152.38 128.877 151.5C128.877 150.62 128.704 149.873 128.357 149.26C128.01 148.647 127.557 148.193 126.997 147.9C126.437 147.593 125.83 147.44 125.177 147.44C124.51 147.44 123.897 147.593 123.337 147.9C122.79 148.193 122.35 148.647 122.017 149.26C121.684 149.873 121.517 150.62 121.517 151.5C121.517 152.393 121.677 153.147 121.997 153.76C122.33 154.373 122.77 154.833 123.317 155.14C123.864 155.433 124.464 155.58 125.117 155.58ZM147.73 146.04L144.31 157H142.43L139.79 148.3L137.15 157H135.27L131.83 146.04H133.69L136.21 155.24L138.93 146.04H140.79L143.45 155.26L145.93 146.04H147.73ZM153.416 157.18C152.576 157.18 151.823 157.04 151.156 156.76C150.489 156.467 149.963 156.067 149.576 155.56C149.189 155.04 148.976 154.447 148.936 153.78H150.816C150.869 154.327 151.123 154.773 151.576 155.12C152.043 155.467 152.649 155.64 153.396 155.64C154.089 155.64 154.636 155.487 155.036 155.18C155.436 154.873 155.636 154.487 155.636 154.02C155.636 153.54 155.423 153.187 154.996 152.96C154.569 152.72 153.909 152.487 153.016 152.26C152.203 152.047 151.536 151.833 151.016 151.62C150.509 151.393 150.069 151.067 149.696 150.64C149.336 150.2 149.156 149.627 149.156 148.92C149.156 148.36 149.323 147.847 149.656 147.38C149.989 146.913 150.463 146.547 151.076 146.28C151.689 146 152.389 145.86 153.176 145.86C154.389 145.86 155.369 146.167 156.116 146.78C156.863 147.393 157.263 148.233 157.316 149.3H155.496C155.456 148.727 155.223 148.267 154.796 147.92C154.383 147.573 153.823 147.4 153.116 147.4C152.463 147.4 151.943 147.54 151.556 147.82C151.169 148.1 150.976 148.467 150.976 148.92C150.976 149.28 151.089 149.58 151.316 149.82C151.556 150.047 151.849 150.233 152.196 150.38C152.556 150.513 153.049 150.667 153.676 150.84C154.463 151.053 155.103 151.267 155.596 151.48C156.089 151.68 156.509 151.987 156.856 152.4C157.216 152.813 157.403 153.353 157.416 154.02C157.416 154.62 157.249 155.16 156.916 155.64C156.583 156.12 156.109 156.5 155.496 156.78C154.896 157.047 154.203 157.18 153.416 157.18ZM169.985 151.1C169.985 151.447 169.965 151.813 169.925 152.2H161.165C161.232 153.28 161.599 154.127 162.265 154.74C162.945 155.34 163.765 155.64 164.725 155.64C165.512 155.64 166.165 155.46 166.685 155.1C167.219 154.727 167.592 154.233 167.805 153.62H169.765C169.472 154.673 168.885 155.533 168.005 156.2C167.125 156.853 166.032 157.18 164.725 157.18C163.685 157.18 162.752 156.947 161.925 156.48C161.112 156.013 160.472 155.353 160.005 154.5C159.539 153.633 159.305 152.633 159.305 151.5C159.305 150.367 159.532 149.373 159.985 148.52C160.439 147.667 161.072 147.013 161.885 146.56C162.712 146.093 163.659 145.86 164.725 145.86C165.765 145.86 166.685 146.087 167.485 146.54C168.285 146.993 168.899 147.62 169.325 148.42C169.765 149.207 169.985 150.1 169.985 151.1ZM168.105 150.72C168.105 150.027 167.952 149.433 167.645 148.94C167.339 148.433 166.919 148.053 166.385 147.8C165.865 147.533 165.285 147.4 164.645 147.4C163.725 147.4 162.939 147.693 162.285 148.28C161.645 148.867 161.279 149.68 161.185 150.72H168.105ZM187.16 146.04L180.56 162.16H178.68L180.84 156.88L176.42 146.04H178.44L181.88 154.92L185.28 146.04H187.16ZM193.769 157.18C192.743 157.18 191.809 156.947 190.969 156.48C190.143 156.013 189.489 155.353 189.009 154.5C188.543 153.633 188.309 152.633 188.309 151.5C188.309 150.38 188.549 149.393 189.029 148.54C189.523 147.673 190.189 147.013 191.029 146.56C191.869 146.093 192.809 145.86 193.849 145.86C194.889 145.86 195.829 146.093 196.669 146.56C197.509 147.013 198.169 147.667 198.649 148.52C199.143 149.373 199.389 150.367 199.389 151.5C199.389 152.633 199.136 153.633 198.629 154.5C198.136 155.353 197.463 156.013 196.609 156.48C195.756 156.947 194.809 157.18 193.769 157.18ZM193.769 155.58C194.423 155.58 195.036 155.427 195.609 155.12C196.183 154.813 196.643 154.353 196.989 153.74C197.349 153.127 197.529 152.38 197.529 151.5C197.529 150.62 197.356 149.873 197.009 149.26C196.663 148.647 196.209 148.193 195.649 147.9C195.089 147.593 194.483 147.44 193.829 147.44C193.163 147.44 192.549 147.593 191.989 147.9C191.443 148.193 191.003 148.647 190.669 149.26C190.336 149.873 190.169 150.62 190.169 151.5C190.169 152.393 190.329 153.147 190.649 153.76C190.983 154.373 191.423 154.833 191.969 155.14C192.516 155.433 193.116 155.58 193.769 155.58ZM211.502 146.04V157H209.682V155.38C209.336 155.94 208.849 156.38 208.222 156.7C207.609 157.007 206.929 157.16 206.182 157.16C205.329 157.16 204.562 156.987 203.882 156.64C203.202 156.28 202.662 155.747 202.262 155.04C201.876 154.333 201.682 153.473 201.682 152.46V146.04H203.482V152.22C203.482 153.3 203.756 154.133 204.302 154.72C204.849 155.293 205.596 155.58 206.542 155.58C207.516 155.58 208.282 155.28 208.842 154.68C209.402 154.08 209.682 153.207 209.682 152.06V146.04H211.502ZM216.395 147.82C216.715 147.193 217.168 146.707 217.755 146.36C218.355 146.013 219.082 145.84 219.935 145.84V147.72H219.455C217.415 147.72 216.395 148.827 216.395 151.04V157H214.575V146.04H216.395V147.82ZM231.828 147.54H229.528V157H227.708V147.54H226.288V146.04H227.708V145.26C227.708 144.033 228.021 143.14 228.648 142.58C229.288 142.007 230.308 141.72 231.708 141.72V143.24C230.908 143.24 230.341 143.4 230.008 143.72C229.688 144.027 229.528 144.54 229.528 145.26V146.04H231.828V147.54ZM234.89 144.26C234.543 144.26 234.25 144.14 234.01 143.9C233.77 143.66 233.65 143.367 233.65 143.02C233.65 142.673 233.77 142.38 234.01 142.14C234.25 141.9 234.543 141.78 234.89 141.78C235.223 141.78 235.503 141.9 235.73 142.14C235.97 142.38 236.09 142.673 236.09 143.02C236.09 143.367 235.97 143.66 235.73 143.9C235.503 144.14 235.223 144.26 234.89 144.26ZM235.77 146.04V157H233.95V146.04H235.77ZM240.692 142.2V157H238.872V142.2H240.692ZM253.794 151.1C253.794 151.447 253.774 151.813 253.734 152.2H244.974C245.041 153.28 245.407 154.127 246.074 154.74C246.754 155.34 247.574 155.64 248.534 155.64C249.321 155.64 249.974 155.46 250.494 155.1C251.027 154.727 251.401 154.233 251.614 153.62H253.574C253.281 154.673 252.694 155.533 251.814 156.2C250.934 156.853 249.841 157.18 248.534 157.18C247.494 157.18 246.561 156.947 245.734 156.48C244.921 156.013 244.281 155.353 243.814 154.5C243.347 153.633 243.114 152.633 243.114 151.5C243.114 150.367 243.341 149.373 243.794 148.52C244.247 147.667 244.881 147.013 245.694 146.56C246.521 146.093 247.467 145.86 248.534 145.86C249.574 145.86 250.494 146.087 251.294 146.54C252.094 146.993 252.707 147.62 253.134 148.42C253.574 149.207 253.794 150.1 253.794 151.1ZM251.914 150.72C251.914 150.027 251.761 149.433 251.454 148.94C251.147 148.433 250.727 148.053 250.194 147.8C249.674 147.533 249.094 147.4 248.454 147.4C247.534 147.4 246.747 147.693 246.094 148.28C245.454 148.867 245.087 149.68 244.994 150.72H251.914ZM260.076 157.18C259.236 157.18 258.483 157.04 257.816 156.76C257.15 156.467 256.623 156.067 256.236 155.56C255.85 155.04 255.636 154.447 255.596 153.78H257.476C257.53 154.327 257.783 154.773 258.236 155.12C258.703 155.467 259.31 155.64 260.056 155.64C260.75 155.64 261.296 155.487 261.696 155.18C262.096 154.873 262.296 154.487 262.296 154.02C262.296 153.54 262.083 153.187 261.656 152.96C261.23 152.72 260.57 152.487 259.676 152.26C258.863 152.047 258.196 151.833 257.676 151.62C257.17 151.393 256.73 151.067 256.356 150.64C255.996 150.2 255.816 149.627 255.816 148.92C255.816 148.36 255.983 147.847 256.316 147.38C256.65 146.913 257.123 146.547 257.736 146.28C258.35 146 259.05 145.86 259.836 145.86C261.05 145.86 262.03 146.167 262.776 146.78C263.523 147.393 263.923 148.233 263.976 149.3H262.156C262.116 148.727 261.883 148.267 261.456 147.92C261.043 147.573 260.483 147.4 259.776 147.4C259.123 147.4 258.603 147.54 258.216 147.82C257.83 148.1 257.636 148.467 257.636 148.92C257.636 149.28 257.75 149.58 257.976 149.82C258.216 150.047 258.51 150.233 258.856 150.38C259.216 150.513 259.71 150.667 260.336 150.84C261.123 151.053 261.763 151.267 262.256 151.48C262.75 151.68 263.17 151.987 263.516 152.4C263.876 152.813 264.063 153.353 264.076 154.02C264.076 154.62 263.91 155.16 263.576 155.64C263.243 156.12 262.77 156.5 262.156 156.78C261.556 157.047 260.863 157.18 260.076 157.18Z" fill="#B3B3B3" style="fill:#B3B3B3;fill:color(display-p3 0.7020 0.7020 0.7020);fill-opacity:1;"/>
<defs>
<linearGradient id="paint0_linear_1590_110525" x1="113.3" y1="54.5454" x2="168.494" y2="1.83815" gradientUnits="userSpaceOnUse">
<stop stop-color="#0A66C2" style="stop-color:#0A66C2;stop-color:color(display-p3 0.0392 0.4000 0.7608);stop-opacity:1;"/>
<stop offset="1" stop-color="#45A2E0" style="stop-color:#45A2E0;stop-color:color(display-p3 0.2706 0.6353 0.8784);stop-opacity:1;"/>
</linearGradient>
</defs>
</svg>
