<svg width="14" height="17" viewBox="0 0 14 17" fill="none" xmlns="http://www.w3.org/2000/svg">
<g clip-path="url(#clip0_6934_94496)">
<path d="M12.6211 7.08429C12.4605 7.08429 12.3092 7.02366 12.1949 6.9115L6.60818 1.42474L1.01837 6.9115C0.780567 7.13885 0.397618 7.13279 0.169084 6.89634C-0.0563614 6.66899 -0.0563614 6.30523 0.169084 6.07484L6.182 0.172787C6.41671 -0.0575958 6.79657 -0.0575958 7.03128 0.172787L13.0473 6.07787C13.282 6.30826 13.282 6.68111 13.0473 6.9115C12.933 7.02366 12.7817 7.08429 12.6211 7.08429Z" fill="#0A66C2" style="fill:#0A66C2;fill:color(display-p3 0.0392 0.4000 0.7608);fill-opacity:1;"/>
<path d="M6.60808 14.7597C6.27454 14.7597 6.00586 14.496 6.00586 14.1686V0.591115C6.00586 0.263728 6.27454 0 6.60808 0C6.94161 0 7.21029 0.263728 7.21029 0.591115V14.1686C7.21029 14.496 6.94161 14.7597 6.60808 14.7597Z" fill="#0A66C2" style="fill:#0A66C2;fill:color(display-p3 0.0392 0.4000 0.7608);fill-opacity:1;"/>
<path d="M6.60808 16.5299C6.94067 16.5299 7.21029 16.2652 7.21029 15.9388C7.21029 15.6123 6.94067 15.3477 6.60808 15.3477C6.27548 15.3477 6.00586 15.6123 6.00586 15.9388C6.00586 16.2652 6.27548 16.5299 6.60808 16.5299Z" fill="#0A66C2" style="fill:#0A66C2;fill:color(display-p3 0.0392 0.4000 0.7608);fill-opacity:1;"/>
</g>
<defs>
<clipPath id="clip0_6934_94496">
<rect width="13.2241" height="16.53" fill="white" style="fill:white;fill-opacity:1;"/>
</clipPath>
</defs>
</svg>
