<svg width="44" height="35" viewBox="0 0 44 35" fill="none" xmlns="http://www.w3.org/2000/svg">
<path fill-rule="evenodd" clip-rule="evenodd" d="M26.891 7.02783L29.7311 2.13035C29.8 2.0134 29.9125 1.92833 30.0442 1.89368C30.1758 1.85903 30.3159 1.87762 30.4338 1.9454C30.5517 2.01318 30.6379 2.12464 30.6736 2.25546C30.7093 2.38628 30.6915 2.52584 30.6242 2.64368L27.7838 7.54117C27.7386 7.61929 27.6734 7.68416 27.595 7.72922C27.5165 7.77429 27.4275 7.79795 27.3369 7.79784C27.2467 7.79811 27.1579 7.77449 27.0799 7.72939C27.0212 7.69571 26.9697 7.65084 26.9284 7.59735C26.8871 7.54385 26.8568 7.48278 26.8393 7.41762C26.8217 7.35247 26.8172 7.28451 26.8261 7.21762C26.8349 7.15074 26.8569 7.08625 26.8908 7.02783H26.891ZM13.5306 3.21802C13.4633 3.10018 13.4455 2.96062 13.4812 2.8298C13.5169 2.69898 13.6031 2.58752 13.721 2.51974C13.8389 2.45196 13.979 2.43337 14.1106 2.46802C14.2423 2.50266 14.3548 2.58774 14.4236 2.70468L17.2638 7.60208C17.2977 7.6605 17.3197 7.72499 17.3285 7.79187C17.3374 7.85876 17.3329 7.92672 17.3153 7.99188C17.2978 8.05703 17.2675 8.1181 17.2262 8.1716C17.1849 8.22509 17.1334 8.26996 17.0747 8.30364C17.0161 8.33744 16.9514 8.35939 16.8843 8.36822C16.8172 8.37706 16.749 8.3726 16.6836 8.35511C16.6182 8.33762 16.5569 8.30744 16.5032 8.26631C16.4496 8.22518 16.4046 8.1739 16.371 8.11542L13.5306 3.21802ZM21.4844 6.16859V0.513336C21.4844 0.377191 21.5387 0.246622 21.6354 0.150353C21.7321 0.0540834 21.8633 0 22 0C22.1368 0 22.2679 0.0540834 22.3647 0.150353C22.4614 0.246622 22.5157 0.377191 22.5157 0.513336V6.16859C22.5157 6.30474 22.4614 6.43531 22.3647 6.53158C22.2679 6.62785 22.1368 6.68193 22 6.68193C21.8633 6.68193 21.7321 6.62785 21.6354 6.53158C21.5387 6.43531 21.4844 6.30474 21.4844 6.16859ZM31.6033 19.7378L26.5071 16.8095C26.1535 16.5995 25.7605 16.464 25.3523 16.4112C24.944 16.3585 24.5293 16.3896 24.1336 16.5027C22.6279 16.9108 21.1377 17.3583 19.7067 17.8325C19.6844 17.8399 19.6626 17.8488 19.6415 17.8591C17.9469 18.6909 16.6241 18.4004 15.5183 16.9382C17.6178 15.7464 19.5592 14.2975 21.297 12.6253C22.2431 12.0636 23.3175 11.7516 24.4185 11.7189C25.5195 11.6862 26.6107 11.9339 27.5886 12.4385C28.7327 13.1323 30.4746 12.8925 32.9069 11.7064L36.114 19.7776L32.7511 21.2751C32.6751 20.9544 32.5341 20.6527 32.3367 20.3883C32.1392 20.124 31.8896 19.9026 31.6031 19.7378H31.6033ZM31.5996 22.5314C31.7849 22.2112 31.8351 21.8309 31.7391 21.4739C31.6431 21.117 31.4088 20.8125 31.0876 20.6273L25.9922 17.6988C25.7563 17.557 25.4934 17.4655 25.2201 17.4301C24.9469 17.3948 24.6692 17.4163 24.4047 17.4935C22.9283 17.8929 21.4689 18.3309 20.0654 18.7958C17.7555 19.9149 15.7745 19.3079 14.3377 17.0394C14.3002 16.9802 14.2753 16.914 14.2645 16.8448C14.2537 16.7756 14.2572 16.7049 14.2748 16.6372C14.2924 16.5694 14.3238 16.5059 14.3669 16.4506C14.4101 16.3954 14.4642 16.3495 14.5258 16.3158C16.7504 15.1079 18.8001 13.6053 20.619 11.849C20.6326 11.836 20.647 11.8237 20.662 11.8123C19.3157 11.3817 17.7772 11.4187 16.0728 11.9285C14.9392 12.2805 13.7139 12.1935 12.642 11.6847C12.2443 11.5015 11.8104 11.3016 11.3403 11.0851L7.94024 19.6409L8.41532 19.8334C8.65689 19.9302 8.86582 20.0934 9.01771 20.304C9.16959 20.5146 9.25817 20.7638 9.27309 21.0227C9.28082 21.155 9.30317 21.3467 9.32904 21.5683C9.5757 21.3869 9.85448 21.2533 10.1508 21.1747C10.7058 21.0249 11.2963 21.0767 11.8165 21.3207C12.3368 21.5647 12.7528 21.985 12.9902 22.5065C13.3081 22.0528 13.7726 21.7212 14.3062 21.5669C14.8398 21.4127 15.4104 21.4451 15.923 21.6588C16.4355 21.8724 16.8591 22.2545 17.1231 22.7412C17.3872 23.228 17.4757 23.7901 17.3741 24.3339C17.9281 24.2408 18.4973 24.3435 18.9834 24.6241C19.4023 24.8656 19.7394 25.226 19.9517 25.6591C20.164 26.0923 20.2418 26.5786 20.1753 27.056C20.7443 26.9494 21.3328 27.0496 21.8339 27.3383C21.932 27.3947 22.0259 27.4579 22.1149 27.5276L24.4843 28.8651L24.4859 28.8622C24.5152 28.8793 24.5427 28.8964 24.5711 28.9143L24.8532 29.0733C25.1756 29.2566 25.5575 29.306 25.9163 29.2109C26.275 29.1158 26.5816 28.8838 26.7697 28.5652C26.9537 28.2447 27.0031 27.8649 26.9072 27.5083C26.8114 27.1517 26.5779 26.8472 26.2577 26.6611L23.6037 25.1359C23.4862 25.0674 23.4008 24.9554 23.3659 24.8243C23.3311 24.6933 23.3498 24.5538 23.4179 24.4364C23.486 24.319 23.598 24.2332 23.7294 24.1977C23.8608 24.1622 24.0009 24.1798 24.1193 24.2468L26.773 25.7715C26.773 25.7715 26.7738 25.7715 26.7738 25.7724L27.4382 26.1541C27.7599 26.339 28.1421 26.3891 28.5008 26.2934C28.8596 26.1977 29.1654 25.964 29.3511 25.6438C29.5368 25.3236 29.5871 24.9431 29.4909 24.586C29.3948 24.2288 29.1601 23.9243 28.8385 23.7395L25.8527 22.0232C25.7936 21.9897 25.7417 21.9449 25.7001 21.8914C25.6584 21.8379 25.6278 21.7767 25.61 21.7114C25.5921 21.6461 25.5875 21.5779 25.5962 21.5107C25.605 21.4436 25.627 21.3789 25.661 21.3202C25.695 21.2616 25.7404 21.2102 25.7944 21.1691C25.8484 21.128 25.91 21.0979 25.9758 21.0806C26.0415 21.0633 26.1101 21.0591 26.1774 21.0683C26.2448 21.0775 26.3097 21.0998 26.3684 21.1341L29.3536 22.8501L29.6864 23.0414C30.0085 23.2246 30.3902 23.2738 30.7485 23.1782C31.1068 23.0826 31.4127 22.8499 31.5995 22.5308L31.5996 22.5314ZM24.4829 31.6561C24.297 31.9758 23.9913 32.2091 23.6328 32.3048C23.2743 32.4004 22.8924 32.3506 22.5708 32.1663L22.0243 31.8523L22.7243 30.6452C22.973 30.2168 23.0831 29.7226 23.0397 29.2298L24.0188 29.7823C24.3238 29.9748 24.5424 30.2772 24.6289 30.6263C24.7154 30.9755 24.6631 31.3444 24.4828 31.656L24.4829 31.6561ZM20.5503 32.3405C20.3606 32.6526 20.0555 32.8782 19.7007 32.969C19.3458 33.0598 18.9693 33.0085 18.6519 32.8263C18.3346 32.644 18.1016 32.3451 18.0029 31.9938C17.9042 31.6425 17.9478 31.2667 18.1241 30.947L19.4064 28.7362C19.4984 28.5777 19.6209 28.4388 19.7668 28.3275C19.9127 28.2161 20.0793 28.1344 20.2569 28.0871C20.4346 28.0398 20.6198 28.0278 20.8021 28.0518C20.9844 28.0758 21.1602 28.1353 21.3194 28.2269C21.4786 28.3185 21.6181 28.4404 21.73 28.5857C21.8419 28.731 21.9239 28.8968 21.9714 29.0737C22.0189 29.2505 22.031 29.4349 22.0069 29.6164C21.9828 29.7979 21.923 29.9729 21.831 30.1314L20.5505 32.341L20.5503 32.3405ZM16.3805 31.0802C16.1131 31.1523 15.8303 31.1436 15.5678 31.0554C15.3054 30.9671 15.0752 30.8032 14.9065 30.5845C14.7378 30.3658 14.6382 30.1021 14.6203 29.8269C14.6023 29.5517 14.667 29.2774 14.8059 29.0388L16.5548 26.0233C16.7406 25.7031 17.0465 25.4695 17.4053 25.3739C17.7641 25.2782 18.1463 25.3284 18.468 25.5133C18.7896 25.6983 19.0243 26.0028 19.1204 26.36C19.2164 26.7172 19.166 27.0978 18.9803 27.418L18.5128 28.2243L17.2314 30.4339C17.1396 30.5924 17.0172 30.7312 16.8711 30.8423C16.7251 30.9534 16.5583 31.0345 16.3806 31.0809L16.3805 31.0802ZM13.0623 29.1733C12.7949 29.2453 12.512 29.2367 12.2496 29.1484C11.9872 29.0601 11.757 28.8963 11.5882 28.6776C11.4195 28.4589 11.3197 28.1953 11.3017 27.9201C11.2837 27.6449 11.3481 27.3706 11.4869 27.132L12.8851 24.721C12.8851 24.721 12.8859 24.721 12.8859 24.7202L13.7701 23.1947C13.9588 22.8804 14.2641 22.6526 14.62 22.5605C14.976 22.4684 15.3541 22.5194 15.6726 22.7024C15.9912 22.8854 16.2246 23.1858 16.3226 23.5387C16.4206 23.8916 16.3752 24.2687 16.1963 24.5886L13.9131 28.5259C13.8213 28.6845 13.6989 28.8234 13.5528 28.9345C13.4068 29.0456 13.24 29.1268 13.0623 29.1733ZM8.68088 27.1285C8.3607 26.9424 8.12729 26.6379 8.03141 26.2813C7.93552 25.9248 7.98492 25.5449 8.16884 25.2244L9.567 22.8134C9.65894 22.6549 9.78135 22.5159 9.92724 22.4045C10.0731 22.293 10.2396 22.2113 10.4173 22.1639C10.5949 22.1165 10.7801 22.1044 10.9625 22.1283C11.1448 22.1522 11.3206 22.2116 11.4799 22.3031C11.6391 22.3946 11.7787 22.5165 11.8907 22.6617C12.0026 22.807 12.0847 22.9727 12.1323 23.1496C12.1799 23.3264 12.1921 23.5108 12.1681 23.6923C12.1441 23.8738 12.0844 24.0489 11.9925 24.2074L10.5939 26.6184C10.4079 26.9382 10.102 27.1716 9.74335 27.2672C9.38471 27.3629 9.00261 27.313 8.68088 27.1285ZM39.8419 7.26149C39.7069 6.92249 39.4423 6.65069 39.1062 6.50576C38.7701 6.36085 38.3899 6.35466 38.0493 6.48857L33.0949 8.43993C32.7545 8.57444 32.4815 8.83782 32.3358 9.17234C32.1902 9.50687 32.1837 9.88525 32.3177 10.2245L32.5257 10.7471C30.4453 11.7718 28.9214 12.0531 28.1142 11.5555C28.1041 11.5487 28.0935 11.5426 28.0826 11.537C27.1338 11.0446 26.0904 10.7596 25.022 10.7012C23.9537 10.6428 22.8851 10.8123 21.8879 11.1983C20.1281 10.3436 18.0732 10.258 15.7763 10.9449C14.8847 11.227 13.9185 11.1585 13.076 10.7536C12.6617 10.5627 12.2082 10.3537 11.7155 10.1268C11.8188 9.79574 11.7927 9.43801 11.6425 9.12524C11.4922 8.81246 11.2288 8.5677 10.9051 8.43993L5.95065 6.48857C5.60995 6.35478 5.22984 6.36102 4.89376 6.50593C4.55768 6.65083 4.29307 6.92257 4.15802 7.26149L0.0964085 17.4849C-0.0379133 17.8241 -0.0316576 18.2024 0.113804 18.5369C0.259265 18.8715 0.532058 19.1349 0.872361 19.2695L5.82784 21.2204C6.14268 21.3441 6.49222 21.3485 6.81006 21.2326C7.12791 21.1167 7.39192 20.8886 7.55197 20.5916L8.02627 20.7846C8.0884 20.8076 8.14224 20.8486 8.18093 20.9022C8.21962 20.9558 8.24141 21.0196 8.24353 21.0856C8.2541 21.2523 8.27876 21.4686 8.30919 21.7187C8.34356 22.0158 8.38541 22.3766 8.413 22.7499L7.27584 24.7108C7.02227 25.1473 6.91201 25.6517 6.96045 26.1536C7.0089 26.6555 7.21363 27.1298 7.54605 27.5102C7.87847 27.8907 8.32195 28.1582 8.81455 28.2755C9.30714 28.3927 9.82422 28.3538 10.2935 28.1643C10.3402 28.5041 10.4591 28.8301 10.6424 29.1205C10.8257 29.4109 11.0691 29.6591 11.3563 29.8484C11.6436 30.0377 11.9681 30.1639 12.3082 30.2185C12.6483 30.273 12.9962 30.2548 13.3287 30.1648C13.425 30.1391 13.5197 30.1077 13.6123 30.0707C13.6921 30.6479 13.9788 31.177 14.4195 31.5604C14.8602 31.9437 15.4253 32.1555 16.0106 32.1568C16.3262 32.1569 16.6389 32.0961 16.9312 31.9776C16.9452 32.0762 16.965 32.1739 16.9904 32.2702C17.1146 32.7326 17.3738 33.1479 17.7351 33.4636C18.0965 33.7793 18.5438 33.9812 19.0204 34.0438C19.4971 34.1063 19.9817 34.0267 20.4129 33.815C20.844 33.6033 21.2025 33.2691 21.4428 32.8546L21.5085 32.7415L22.055 33.0556C22.4752 33.2977 22.9586 33.4088 23.4429 33.3748C23.9272 33.3407 24.3902 33.163 24.7721 32.8645C25.1539 32.566 25.4372 32.1605 25.5854 31.7002C25.7335 31.2399 25.7397 30.746 25.6032 30.2821C25.9619 30.2768 26.315 30.1922 26.6368 30.0344C26.9586 29.8766 27.2411 29.6495 27.4639 29.3696C27.6868 29.0898 27.8443 28.7641 27.9252 28.4161C28.006 28.0682 28.0082 27.7067 27.9314 27.3578C27.9992 27.3635 28.0665 27.3676 28.1341 27.3676C28.5074 27.3687 28.8759 27.284 29.211 27.1202C29.546 26.9564 29.8386 26.7179 30.066 26.4231C30.2934 26.1284 30.4495 25.7855 30.5221 25.421C30.5947 25.0564 30.5818 24.6801 30.4846 24.3214C30.4785 24.2975 30.4708 24.2749 30.4643 24.2519C30.6506 24.2456 30.8356 24.2183 31.0157 24.1704C31.3245 24.0892 31.614 23.9479 31.8677 23.7547C32.1213 23.5615 32.3339 23.3201 32.4933 23.0446C32.6098 22.8429 32.6967 22.6256 32.7511 22.3993L36.5249 20.7183C36.7017 20.9754 36.961 21.165 37.2602 21.2562C37.5594 21.3474 37.8809 21.3348 38.172 21.2204L43.1275 19.2691C43.4679 19.1347 43.7408 18.8712 43.8863 18.5366C44.0318 18.202 44.0379 17.8236 43.9033 17.4845L39.8419 7.26149ZM38.7308 19.0971C38.4534 19.0971 38.1823 19.0151 37.9518 18.8617C37.7212 18.7083 37.5415 18.4902 37.4355 18.2351C37.3294 17.98 37.3017 17.6993 37.3558 17.4285C37.41 17.1577 37.5436 16.909 37.7397 16.7138C37.9358 16.5186 38.1857 16.3857 38.4577 16.3319C38.7297 16.2781 39.0117 16.3057 39.2679 16.4114C39.5241 16.5171 39.7431 16.6961 39.8971 16.9256C40.0512 17.1552 40.1334 17.4251 40.1334 17.7012C40.133 18.0714 39.9851 18.4263 39.7221 18.688C39.4591 18.9497 39.1026 19.0968 38.7308 19.0971ZM39.1021 17.7012C39.1022 17.7743 39.0805 17.8459 39.0397 17.9067C38.999 17.9676 38.941 18.015 38.8732 18.0431C38.8053 18.0711 38.7306 18.0785 38.6586 18.0643C38.5865 18.0501 38.5203 18.0149 38.4683 17.9632C38.4164 17.9115 38.3809 17.8456 38.3666 17.7739C38.3522 17.7022 38.3595 17.6278 38.3876 17.5603C38.4157 17.4927 38.4633 17.4349 38.5244 17.3943C38.5855 17.3536 38.6573 17.3319 38.7308 17.3319C38.8292 17.332 38.9235 17.3709 38.9932 17.4401C39.0628 17.5093 39.102 17.6032 39.1021 17.7012ZM5.08798 19.0971C4.81064 19.0971 4.53956 19.0151 4.309 18.8617C4.07844 18.7083 3.89876 18.4902 3.79267 18.2351C3.68659 17.98 3.65888 17.6993 3.71303 17.4285C3.76719 17.1577 3.90078 16.909 4.09691 16.7138C4.29305 16.5186 4.54292 16.3857 4.81493 16.3319C5.08694 16.2781 5.36888 16.3057 5.62509 16.4114C5.88131 16.5171 6.10029 16.6961 6.25435 16.9256C6.4084 17.1552 6.49062 17.4251 6.49061 17.7012C6.49015 18.0714 6.34222 18.4262 6.07926 18.6879C5.8163 18.9496 5.4598 19.0968 5.08798 19.0971ZM5.08798 18.0705C5.01464 18.0704 4.94297 18.0487 4.88203 18.008C4.82109 17.9674 4.77361 17.9097 4.7456 17.8422C4.7176 17.7747 4.71031 17.7005 4.72467 17.6289C4.73903 17.5573 4.77439 17.4915 4.82628 17.4399C4.87817 17.3883 4.94427 17.3532 5.0162 17.339C5.08814 17.3248 5.1627 17.3321 5.23045 17.3601C5.2982 17.3881 5.35611 17.4354 5.39685 17.4961C5.43758 17.5568 5.45933 17.6282 5.45933 17.7012C5.45934 17.7497 5.44974 17.7978 5.43107 17.8426C5.41241 17.8875 5.38505 17.9282 5.35056 17.9625C5.31607 17.9968 5.27513 18.024 5.23007 18.0425C5.18501 18.061 5.13673 18.0705 5.08798 18.0705Z" fill="url(#paint0_linear_6934_94520)" style=""/>
<defs>
<linearGradient id="paint0_linear_6934_94520" x1="-0.00113344" y1="17.0322" x2="44.0011" y2="17.0322" gradientUnits="userSpaceOnUse">
<stop stop-color="#00B8D1" style="stop-color:#00B8D1;stop-color:color(display-p3 0.0000 0.7216 0.8196);stop-opacity:1;"/>
<stop offset="1" stop-color="#5B51A2" style="stop-color:#5B51A2;stop-color:color(display-p3 0.3569 0.3176 0.6353);stop-opacity:1;"/>
</linearGradient>
</defs>
</svg>
