<svg width="44" height="40" viewBox="0 0 44 40" fill="none" xmlns="http://www.w3.org/2000/svg">
<path d="M42.625 11.2725V34.1922C42.625 34.8527 42.0886 35.3901 41.4294 35.3901H13.4521C9.73293 35.3901 7.43083 32.1888 7.43083 29.2227C7.43083 29.0077 7.3302 28.805 7.15891 28.6751C6.98755 28.545 6.76522 28.5027 6.55819 28.5606L1.375 30.0097V11.2725H42.625Z" fill="#FDFDFD" style="fill:#FDFDFD;fill:color(display-p3 0.9922 0.9922 0.9922);fill-opacity:1;"/>
<path d="M18.2496 15.6798C18.4484 15.4889 18.7416 15.435 18.9955 15.5431C19.2489 15.651 19.4135 15.9 19.4135 16.1756V18.818H26.1801C30.1657 18.818 33.4083 22.0617 33.4083 26.0486V30.4846C33.4083 30.8296 33.1526 31.1212 32.8105 31.1662C32.7802 31.1702 32.7501 31.1721 32.7202 31.1721C32.4131 31.1721 32.138 30.9662 32.0567 30.6624C31.5559 28.7926 29.9771 27.8445 27.364 27.8445H19.4135V30.4846C19.4135 30.7601 19.249 31.009 18.9955 31.117C18.742 31.225 18.4486 31.1713 18.2498 30.9805L14.525 27.4041L10.8028 23.8257C10.6679 23.696 10.5917 23.517 10.5917 23.3299C10.5917 23.1429 10.668 22.9639 10.8029 22.8343L18.2496 15.6798ZM15.4776 26.4126L18.0385 28.8714V27.157C18.0385 26.7773 18.3463 26.4695 18.726 26.4695H27.364C29.6515 26.4695 31.1087 27.1104 32.0333 27.98V26.0486C32.0333 22.8198 29.4076 20.193 26.1801 20.193H18.726C18.3463 20.193 18.0385 19.8853 18.0385 19.5055V17.7895L12.2714 23.3302L15.4776 26.4126ZM2.57049 3.24229H6.68189V1.59613C6.68189 0.701095 7.6173 0 8.81153 0C10.0057 0 10.9411 0.701095 10.9411 1.59613V3.24229H15.4734V1.59613C15.4734 0.701095 16.4088 0 17.603 0C18.7972 0 19.7327 0.701095 19.7327 1.59613V3.24229H24.2674V1.59613C24.2674 0.701095 25.2028 0 26.3969 0C27.5912 0 28.5266 0.701095 28.5266 1.59613V3.24229H33.0589V1.59613C33.0589 0.701095 33.9943 0 35.1884 0C36.3826 0 37.3181 0.701095 37.3181 1.59613V3.24229H41.4294C42.8468 3.24229 44 4.39544 44 5.81282V37.3614C44 38.7788 42.8468 39.9319 41.4294 39.9319H2.57049C1.1531 39.9319 0 38.7787 0 37.3614V5.81282C0 4.39544 1.15311 3.24229 2.57049 3.24229ZM6.55819 28.5606C6.76523 28.5026 6.98755 28.545 7.15891 28.675C7.3302 28.805 7.43083 29.0076 7.43083 29.2227C7.43083 32.1888 9.73293 35.3901 13.4521 35.3901H41.4294C42.0886 35.3901 42.625 34.8527 42.625 34.1921V11.2724H1.375V30.0096L6.55819 28.5606ZM2.42136 31.1448L7.51006 34.1632C7.7395 34.299 7.96751 34.4227 8.19562 34.5348C8.13612 34.4723 8.07745 34.4085 8.0198 34.3436C6.97226 33.1641 6.29962 31.6597 6.11054 30.1135L2.42136 31.1448ZM9.56609 1.62143C9.50978 1.54058 9.24164 1.37499 8.81153 1.37499C8.3821 1.37499 8.11371 1.54078 8.05689 1.62198V3.24228H9.56608L9.56609 1.62143ZM18.3576 1.62143C18.3013 1.54058 18.0331 1.37499 17.603 1.37499C17.1736 1.37499 16.9052 1.54082 16.8484 1.62198V3.24228H18.3576L18.3576 1.62143ZM27.1516 1.62198C27.0947 1.54079 26.8263 1.375 26.3969 1.375C25.9668 1.375 25.6987 1.54058 25.6423 1.62144V3.24229H27.1515L27.1516 1.62198ZM35.943 1.62143C35.8867 1.54058 35.6186 1.37499 35.1884 1.37499C34.7583 1.37499 34.4901 1.54058 34.4338 1.62143V3.24228H35.943V1.62143ZM41.4294 4.61729H37.318V5.70565C37.318 6.60204 36.3826 7.30418 35.1884 7.30418C34.8087 7.30418 34.5009 6.9964 34.5009 6.61668C34.5009 6.23697 34.8087 5.92918 35.1884 5.92918C35.6193 5.92918 35.8873 5.76214 35.943 5.68077V4.61729H28.5265V5.70565C28.5265 6.60204 27.5911 7.30418 26.3969 7.30418C26.0172 7.30418 25.7094 6.9964 25.7094 6.61668C25.7094 6.23697 26.0172 5.92918 26.3969 5.92918C26.8271 5.92918 27.0953 5.76188 27.1516 5.68026V4.61729H19.7326V5.70565C19.7326 6.60204 18.7972 7.30418 17.603 7.30418C17.2233 7.30418 16.9155 6.9964 16.9155 6.61668C16.9155 6.23697 17.2233 5.92918 17.603 5.92918C18.0339 5.92918 18.3019 5.76214 18.3576 5.68077V4.61729H10.9411V5.70565C10.9411 6.60204 10.0057 7.30418 8.81152 7.30418C8.43185 7.30418 8.12402 6.9964 8.12402 6.61668C8.12402 6.23697 8.43185 5.92918 8.81152 5.92918C9.24239 5.92918 9.51035 5.76214 9.56608 5.68077V4.61729H2.57049C1.91127 4.61729 1.375 5.1536 1.375 5.81282V9.89741H42.625V5.81282C42.625 5.1536 42.0886 4.61729 41.4294 4.61729ZM2.57049 38.5569H41.4294C42.0886 38.5569 42.625 38.0206 42.625 37.3614V36.4695C42.2677 36.6582 41.8608 36.7651 41.4294 36.7651H11.9832C10.0893 36.7651 8.44537 36.3143 6.8092 35.3462L1.375 32.1229V37.3614C1.375 38.0206 1.91127 38.5569 2.57049 38.5569Z" fill="#212121" style="fill:#212121;fill:color(display-p3 0.1294 0.1294 0.1294);fill-opacity:1;"/>
<path d="M18.7259 26.4696C18.3462 26.4696 18.0384 26.7774 18.0384 27.1571V28.8715L15.4775 26.4127L12.2713 23.3303L18.0384 17.7896V19.5056C18.0384 19.8853 18.3462 20.1931 18.7259 20.1931H26.1801C29.4075 20.1931 32.0332 22.8199 32.0332 26.0487V27.9801C31.1086 27.1105 29.6514 26.4696 27.364 26.4696H18.7259Z" fill="#174461" style="fill:#174461;fill:color(display-p3 0.0902 0.2667 0.3804);fill-opacity:1;"/>
<path d="M2.57048 4.61719H9.56608V5.68066C9.51036 5.76203 9.24239 5.92908 8.81152 5.92908C8.43185 5.92908 8.12402 6.23686 8.12402 6.61658C8.12402 6.99629 8.43185 7.30408 8.81152 7.30408C10.0057 7.30408 10.9411 6.60193 10.9411 5.70554V4.61719H18.3576V5.68066C18.3019 5.76203 18.0339 5.92908 17.603 5.92908C17.2233 5.92908 16.9155 6.23686 16.9155 6.61658C16.9155 6.99629 17.2233 7.30408 17.603 7.30408C18.7972 7.30408 19.7326 6.60193 19.7326 5.70554V4.61719H27.1515V5.68016C27.0953 5.76177 26.8271 5.92908 26.3969 5.92908C26.0172 5.92908 25.7094 6.23686 25.7094 6.61658C25.7094 6.99629 26.0172 7.30408 26.3969 7.30408C27.5911 7.30408 28.5265 6.60193 28.5265 5.70554V4.61719H35.943V5.68066C35.8873 5.76203 35.6193 5.92908 35.1884 5.92908C34.8087 5.92908 34.5009 6.23686 34.5009 6.61658C34.5009 6.99629 34.8087 7.30408 35.1884 7.30408C36.3826 7.30408 37.318 6.60193 37.318 5.70554V4.61719H41.4294C42.0886 4.61719 42.625 5.1535 42.625 5.81272V9.89731H1.375V5.81272C1.375 5.1535 1.91127 4.61719 2.57048 4.61719Z" fill="#0A66C2" style="fill:#0A66C2;fill:color(display-p3 0.0392 0.4000 0.7608);fill-opacity:1;"/>
<path d="M6.11024 30.1135C6.29932 31.6598 6.97196 33.1642 8.01949 34.3436C8.07715 34.4086 8.13581 34.4724 8.19531 34.5349C7.96721 34.4227 7.73919 34.299 7.50975 34.1632L2.42105 31.1449L6.11024 30.1135Z" fill="#E3E6EA" style="fill:#E3E6EA;fill:color(display-p3 0.8902 0.9020 0.9176);fill-opacity:1;"/>
<path d="M11.9832 36.765H41.4294C41.8608 36.765 42.2677 36.6581 42.625 36.4694V37.3613C42.625 38.0205 42.0886 38.5568 41.4294 38.5568H2.57048C1.91127 38.5568 1.375 38.0205 1.375 37.3613V32.1228L6.80921 35.3461C8.44537 36.3143 10.0893 36.765 11.9832 36.765Z" fill="#CED4DF" style="fill:#CED4DF;fill:color(display-p3 0.8078 0.8314 0.8745);fill-opacity:1;"/>
</svg>
