<svg width="64" height="64" viewBox="0 0 64 64" fill="none" xmlns="http://www.w3.org/2000/svg">
<path d="M48 48C56.8366 39.1634 56.8366 24.8366 48 16C39.1634 7.16344 24.8366 7.16344 16 16C7.16344 24.8366 7.16344 39.1634 16 48C24.8366 56.8366 39.1634 56.8366 48 48Z" fill="#46CC6B" style="fill:#46CC6B;fill:color(display-p3 0.2745 0.8000 0.4196);fill-opacity:1;"/>
<path fill-rule="evenodd" clip-rule="evenodd" d="M54.31 35.8391C52.6998 45.2611 45.2658 52.6947 35.8441 54.3051L23.6611 42.122C20.7458 39.7161 18.8877 36.0751 18.8877 32C18.8877 24.7554 24.7604 18.8827 32.005 18.8827C36.0801 18.8827 39.7211 20.7409 42.127 23.6561L54.31 35.8391Z" fill="#179C5F" style="fill:#179C5F;fill:color(display-p3 0.0902 0.6118 0.3725);fill-opacity:1;"/>
<path fill-rule="evenodd" clip-rule="evenodd" d="M25.8651 32.7789L29.6008 36.2095C30.1458 36.7112 30.9893 36.6845 31.5017 36.1561L38.1664 29.775C38.7085 29.2538 38.7249 28.3913 38.2035 27.8489C37.682 27.3074 36.8201 27.2904 36.278 27.8117L30.505 33.339L27.7106 30.7729C27.157 30.2636 26.2945 30.2993 25.7848 30.8535C25.2752 31.4071 25.3112 32.269 25.8651 32.7789ZM32.005 18.8827C39.2496 18.8827 45.1223 24.7554 45.1223 32C45.1223 39.2446 39.2496 45.1173 32.005 45.1173C24.7604 45.1173 18.8877 39.2446 18.8877 32C18.8877 24.7554 24.7604 18.8827 32.005 18.8827Z" fill="white" style="fill:white;fill-opacity:1;"/>
</svg>
