<svg width="45" height="44" viewBox="0 0 45 44" fill="none" xmlns="http://www.w3.org/2000/svg">
<path d="M26.2387 22.4314H18.5059C17.6942 22.4327 16.9163 22.7561 16.3428 23.3304C15.7694 23.9048 15.4473 24.6833 15.4473 25.495C15.4473 26.3066 15.7694 27.0851 16.3428 27.6595C16.9163 28.2339 17.6942 28.5572 18.5059 28.5585H26.2387C27.0457 28.5502 27.8168 28.2237 28.3845 27.6501C28.9523 27.0765 29.2707 26.302 29.2707 25.495C29.2707 24.6879 28.9523 23.9134 28.3845 23.3398C27.8168 22.7662 27.0457 22.4397 26.2387 22.4314Z" fill="#0A66C2" style="fill:#0A66C2;fill:color(display-p3 0.0392 0.4000 0.7608);fill-opacity:1;"/>
<path d="M10.7893 37.8809H3.06449C2.66229 37.8802 2.2639 37.9589 1.89213 38.1123C1.52036 38.2658 1.1825 38.4911 0.897868 38.7752C0.613239 39.0594 0.387433 39.3969 0.233367 39.7684C0.0793011 40.14 0 40.5382 0 40.9404C0 41.3426 0.0793011 41.7409 0.233367 42.1124C0.387433 42.4839 0.613239 42.8214 0.897868 43.1056C1.1825 43.3897 1.52036 43.615 1.89213 43.7685C2.2639 43.9219 2.66229 44.0006 3.06449 43.9999H10.7893C14.8235 43.9035 14.8267 37.978 10.7893 37.8809Z" fill="#0A66C2" style="fill:#0A66C2;fill:color(display-p3 0.0392 0.4000 0.7608);fill-opacity:1;"/>
<path d="M3.06549 36.2833H10.7903C14.8277 36.1815 14.8228 30.2568 10.7903 30.1562H3.06549C2.25299 30.1562 1.47377 30.479 0.899242 31.0535C0.324718 31.6281 0.00195313 32.4073 0.00195312 33.2198C0.00195313 34.0323 0.324718 34.8115 0.899242 35.386C1.47377 35.9606 2.25299 36.2833 3.06549 36.2833Z" fill="#0A66C2" style="fill:#0A66C2;fill:color(display-p3 0.0392 0.4000 0.7608);fill-opacity:1;"/>
<path d="M26.2397 30.1562H18.5069C17.6944 30.1562 16.9152 30.479 16.3406 31.0535C15.7661 31.6281 15.4434 32.4073 15.4434 33.2198C15.4434 34.0323 15.7661 34.8115 16.3406 35.386C16.9152 35.9606 17.6944 36.2833 18.5069 36.2833H26.2397C27.0466 36.2749 27.8176 35.9484 28.3853 35.3748C28.9529 34.8012 29.2713 34.0268 29.2713 33.2198C29.2713 32.4128 28.9529 31.6384 28.3853 31.0648C27.8176 30.4912 27.0466 30.1647 26.2397 30.1562Z" fill="#0A66C2" style="fill:#0A66C2;fill:color(display-p3 0.0392 0.4000 0.7608);fill-opacity:1;"/>
<path d="M26.2385 37.8809H18.5058C17.6952 37.8822 16.9183 38.2051 16.3455 38.7787C15.7728 39.3524 15.4512 40.1298 15.4512 40.9404C15.4512 41.751 15.7728 42.5284 16.3455 43.1021C16.9183 43.6757 17.6952 43.9986 18.5058 43.9999H26.2385C30.2713 43.8986 30.2746 37.9829 26.2385 37.8809Z" fill="#0A66C2" style="fill:#0A66C2;fill:color(display-p3 0.0392 0.4000 0.7608);fill-opacity:1;"/>
<path d="M41.6799 37.8809H33.9551C33.5529 37.8802 33.1545 37.9589 32.7828 38.1123C32.411 38.2658 32.0731 38.4911 31.7885 38.7752C31.5039 39.0594 31.2781 39.3969 31.124 39.7684C30.9699 40.14 30.8906 40.5382 30.8906 40.9404C30.8906 41.3426 30.9699 41.7409 31.124 42.1124C31.2781 42.4839 31.5039 42.8214 31.7885 43.1056C32.0731 43.3897 32.411 43.615 32.7828 43.7685C33.1545 43.9219 33.5529 44.0006 33.9551 43.9999H41.6799C45.7127 43.8986 45.716 37.9829 41.6799 37.8809Z" fill="#0A66C2" style="fill:#0A66C2;fill:color(display-p3 0.0392 0.4000 0.7608);fill-opacity:1;"/>
<path d="M41.6809 30.1562H33.9561C33.1436 30.1562 32.3644 30.479 31.7899 31.0535C31.2153 31.6281 30.8926 32.4073 30.8926 33.2198C30.8926 34.0323 31.2153 34.8115 31.7899 35.386C32.3644 35.9606 33.1436 36.2833 33.9561 36.2833H41.6809C42.4878 36.2749 43.2589 35.9484 43.8265 35.3748C44.3942 34.8012 44.7126 34.0268 44.7126 33.2198C44.7126 32.4128 44.3942 31.6384 43.8265 31.0648C43.2589 30.4912 42.4878 30.1647 41.6809 30.1562Z" fill="#0A66C2" style="fill:#0A66C2;fill:color(display-p3 0.0392 0.4000 0.7608);fill-opacity:1;"/>
<path d="M30.8965 25.491C30.8957 25.8934 30.9742 26.2919 31.1276 26.664C31.281 27.036 31.5062 27.3741 31.7904 27.659C32.0745 27.9439 32.4121 28.17 32.7837 28.3243C33.1553 28.4787 33.5537 28.5583 33.9561 28.5585H41.6808C42.4879 28.5502 43.259 28.2237 43.8267 27.6501C44.3944 27.0765 44.7129 26.302 44.7129 25.4949C44.7129 24.6879 44.3944 23.9134 43.8267 23.3398C43.259 22.7662 42.4878 22.4397 41.6808 22.4314H33.9561C33.1447 22.4315 32.3665 22.7538 31.7927 23.3276C31.2189 23.9014 30.8966 24.6795 30.8965 25.491Z" fill="#0A66C2" style="fill:#0A66C2;fill:color(display-p3 0.0392 0.4000 0.7608);fill-opacity:1;"/>
<path d="M39.4444 9.92955C39.4421 7.29814 38.3964 4.77502 36.5364 2.91359C34.6765 1.05215 32.1542 0.00434943 29.5228 0C16.3498 0.543673 16.3537 19.3174 29.5229 19.8591C32.1543 19.8547 34.6766 18.8069 36.5365 16.9455C38.3964 15.0841 39.4421 12.5609 39.4444 9.92955ZM33.8924 6.63034C33.8883 6.83947 33.8023 7.03864 33.6529 7.18507C33.5036 7.33151 33.3027 7.41352 33.0936 7.41351C32.8844 7.4135 32.6836 7.33146 32.5342 7.18501C32.3849 7.03856 32.2989 6.83939 32.2948 6.63026V5.96725H27.8772L31.2723 9.36232C31.422 9.51315 31.5059 9.71702 31.5059 9.92951C31.5059 10.142 31.422 10.3459 31.2723 10.4967L27.8772 13.8918H32.2948V12.9092C32.2985 12.6998 32.3843 12.5002 32.5337 12.3534C32.6831 12.2066 32.8842 12.1244 33.0936 12.1244C33.3031 12.1244 33.5042 12.2066 33.6536 12.3534C33.803 12.5002 33.8888 12.6999 33.8925 12.9093V14.6907C33.8928 14.7957 33.8724 14.8997 33.8324 14.9968C33.7924 15.0939 33.7335 15.1821 33.6593 15.2563C33.585 15.3306 33.4968 15.3894 33.3997 15.4294C33.3027 15.4694 33.1986 15.4899 33.0936 15.4895H25.9439C25.7874 15.4878 25.6347 15.44 25.5051 15.3522C25.3754 15.2644 25.2745 15.1403 25.2149 14.9955C25.1553 14.8507 25.1396 14.6915 25.1698 14.5379C25.2001 14.3842 25.2748 14.2429 25.3849 14.1314L29.5787 9.92955L25.3848 5.72765C25.2748 5.6162 25.2 5.47483 25.1698 5.32117C25.1396 5.16751 25.1553 5.00836 25.2149 4.86356C25.2746 4.71876 25.3755 4.59471 25.5051 4.50687C25.6348 4.41904 25.7874 4.3713 25.944 4.36962H33.0936C33.1986 4.36926 33.3027 4.38967 33.3997 4.42969C33.4968 4.46971 33.585 4.52854 33.6593 4.60279C33.7335 4.67705 33.7924 4.76526 33.8324 4.86234C33.8724 4.95943 33.8928 5.06348 33.8924 5.16849V6.63034Z" fill="#174461" style="fill:#174461;fill:color(display-p3 0.0902 0.2667 0.3804);fill-opacity:1;"/>
</svg>
