<svg width="21" height="26" viewBox="0 0 21 26" fill="none" xmlns="http://www.w3.org/2000/svg">
<g clip-path="url(#clip0_667_192077)">
<path d="M0.833447 8.45557C0.742676 8.3647 0.616699 8.3125 0.488281 8.3125C0.359863 8.3125 0.233936 8.36475 0.143066 8.45557C0.0521973 8.54639 0 8.67236 0 8.80078C0 8.9292 0.0521973 9.05518 0.143066 9.14595C0.233887 9.23682 0.359863 9.28906 0.488281 9.28906C0.616699 9.28906 0.742676 9.23682 0.833447 9.14595C0.924316 9.05518 0.976562 8.9292 0.976562 8.80078C0.976562 8.67236 0.924316 8.54639 0.833447 8.45557Z" fill="#3E3E3E" style="fill:#3E3E3E;fill:color(display-p3 0.2431 0.2431 0.2431);fill-opacity:1;"/>
<path d="M19.2383 0.158203H9.35874C9.08911 0.158203 8.87046 0.376855 8.87046 0.646484C8.87046 0.916113 9.08911 1.13477 9.35874 1.13477H19.2383C19.5075 1.13477 19.7266 1.35381 19.7266 1.62305V23.6934C19.7266 23.9626 19.5075 24.1816 19.2383 24.1816H1.46484C1.19561 24.1816 0.976562 23.9626 0.976562 23.6934V10.6237C0.976562 10.3541 0.75791 10.1354 0.488281 10.1354C0.218652 10.1354 0 10.3541 0 10.6237V23.6934C0 24.5011 0.657129 25.1582 1.46484 25.1582H19.2383C20.046 25.1582 20.7031 24.5011 20.7031 23.6934V1.62305C20.7031 0.815332 20.046 0.158203 19.2383 0.158203Z" fill="#3E3E3E" style="fill:#3E3E3E;fill:color(display-p3 0.2431 0.2431 0.2431);fill-opacity:1;"/>
<path d="M10.3518 2.11133C10.0195 2.11133 9.68565 2.13672 9.35938 2.18672C9.09283 2.22764 8.90987 2.47681 8.95074 2.74336C8.99161 3.00991 9.24093 3.19263 9.50738 3.152C9.78487 3.10942 10.069 3.08789 10.3518 3.08789C13.3942 3.08789 15.8694 5.56309 15.8694 8.60552C15.8694 9.95659 15.381 11.1955 14.5718 12.1558C14.2138 11.5401 13.7247 11.009 13.1311 10.597C12.7847 10.3566 12.4125 10.1647 12.0228 10.0227C12.4675 9.58794 12.7443 8.98213 12.7443 8.3126V7.83652C12.7443 6.51719 11.6711 5.4439 10.3518 5.4439C9.03248 5.4439 7.95919 6.51719 7.95919 7.83652V8.3126C7.95919 8.98213 8.23595 9.58794 8.68072 10.0227C8.29112 10.1647 7.9189 10.3566 7.57242 10.597C6.97598 11.011 6.48497 11.5451 6.12647 12.1645C5.50992 11.4318 5.07896 10.5307 4.91036 9.52534C4.86578 9.25947 4.61378 9.08008 4.34806 9.12456C4.08209 9.16914 3.90265 9.4209 3.94723 9.68687C4.1983 11.1839 4.9755 12.5542 6.1357 13.5453C7.30909 14.5477 8.8064 15.0998 10.3517 15.0998C13.9326 15.0998 16.8459 12.1865 16.8459 8.60557C16.8459 5.02466 13.9327 2.11133 10.3518 2.11133ZM8.93575 7.83647C8.93575 7.05566 9.571 6.42041 10.3518 6.42041C11.1325 6.42041 11.7678 7.05566 11.7678 7.83647V8.31255C11.7678 9.09331 11.1325 9.72856 10.3518 9.72856C9.571 9.72856 8.93575 9.09331 8.93575 8.31255V7.83647ZM10.3518 14.1231C9.02979 14.1231 7.80763 13.6615 6.85108 12.8789C7.50675 11.5482 8.84713 10.7051 10.3518 10.7051C11.8533 10.7051 13.1911 11.5448 13.8483 12.8706C12.8958 13.6529 11.6776 14.1231 10.3518 14.1231Z" fill="#3E3E3E" style="fill:#3E3E3E;fill:color(display-p3 0.2431 0.2431 0.2431);fill-opacity:1;"/>
<path d="M14.8613 19.5918H7.92767C7.65804 19.5918 7.43939 19.8104 7.43939 20.0801C7.43939 20.3497 7.65804 20.5684 7.92767 20.5684H14.8613C15.1309 20.5684 15.3495 20.3497 15.3495 20.0801C15.3495 19.8104 15.1309 19.5918 14.8613 19.5918Z" fill="#3E3E3E" style="fill:#3E3E3E;fill:color(display-p3 0.2431 0.2431 0.2431);fill-opacity:1;"/>
<path d="M6.18677 17.0005C6.09595 16.9096 5.96997 16.8574 5.84155 16.8574C5.71313 16.8574 5.58716 16.9097 5.49634 17.0005C5.40552 17.0913 5.35327 17.2173 5.35327 17.3457C5.35327 17.4746 5.40557 17.6001 5.49634 17.6909C5.58716 17.7817 5.71313 17.834 5.84155 17.834C5.96997 17.834 6.09595 17.7817 6.18677 17.6909C6.27808 17.6001 6.32983 17.4741 6.32983 17.3457C6.32983 17.2173 6.27808 17.0913 6.18677 17.0005Z" fill="#3E3E3E" style="fill:#3E3E3E;fill:color(display-p3 0.2431 0.2431 0.2431);fill-opacity:1;"/>
<path d="M6.18677 19.7349C6.09595 19.644 5.97046 19.5918 5.84155 19.5918C5.71313 19.5918 5.58716 19.644 5.49634 19.7349C5.40552 19.8257 5.35327 19.9517 5.35327 20.0801C5.35327 20.2089 5.40557 20.3345 5.49634 20.4252C5.58716 20.5161 5.71313 20.5684 5.84155 20.5684C5.96997 20.5684 6.09595 20.5161 6.18677 20.4252C6.27808 20.3345 6.32983 20.209 6.32983 20.0801C6.32983 19.9517 6.27808 19.8257 6.18677 19.7349Z" fill="#3E3E3E" style="fill:#3E3E3E;fill:color(display-p3 0.2431 0.2431 0.2431);fill-opacity:1;"/>
<path d="M14.8613 16.8574H7.92767C7.65804 16.8574 7.43939 17.0761 7.43939 17.3457C7.43939 17.6153 7.65804 17.834 7.92767 17.834H14.8613C15.1309 17.834 15.3495 17.6153 15.3495 17.3457C15.3495 17.0761 15.1309 16.8574 14.8613 16.8574Z" fill="#3E3E3E" style="fill:#3E3E3E;fill:color(display-p3 0.2431 0.2431 0.2431);fill-opacity:1;"/>
<path d="M5.74364 2.97207C5.55287 2.78145 5.24379 2.78145 5.05306 2.97207L3.46293 4.56221L2.91952 4.0188C2.72875 3.82817 2.41967 3.82817 2.22894 4.0188C2.03827 4.20952 2.03827 4.5187 2.22894 4.70938L3.11761 5.59805C3.21298 5.69336 3.33788 5.74106 3.46288 5.74106C3.58788 5.74106 3.71278 5.69336 3.80819 5.5981L5.74364 3.66265C5.93431 3.47192 5.93431 3.16274 5.74364 2.97207Z" fill="#3E3E3E" style="fill:#3E3E3E;fill:color(display-p3 0.2431 0.2431 0.2431);fill-opacity:1;"/>
<path d="M4.00391 0.158203C1.79614 0.158203 0 1.95435 0 4.16211C0 6.36987 1.79614 8.16602 4.00391 8.16602C6.21167 8.16602 8.00781 6.36987 8.00781 4.16211C8.00781 1.95435 6.21167 0.158203 4.00391 0.158203ZM4.00391 7.18945C2.33462 7.18945 0.976562 5.8314 0.976562 4.16211C0.976562 2.49282 2.33462 1.13477 4.00391 1.13477C5.67319 1.13477 7.03125 2.49282 7.03125 4.16211C7.03125 5.8314 5.67319 7.18945 4.00391 7.18945Z" fill="#3E3E3E" style="fill:#3E3E3E;fill:color(display-p3 0.2431 0.2431 0.2431);fill-opacity:1;"/>
</g>
<defs>
<clipPath id="clip0_667_192077">
<rect width="20.7031" height="25" fill="white" style="fill:white;fill-opacity:1;" transform="translate(0 0.158203)"/>
</clipPath>
</defs>
</svg>
