<svg width="25" height="26" viewBox="0 0 25 26" fill="none" xmlns="http://www.w3.org/2000/svg">
<g clip-path="url(#clip0_667_192134)">
<path d="M2.51116 12.4601H9.20759C9.87336 12.4593 10.5116 12.1993 10.9824 11.737C11.4532 11.2747 11.718 10.6479 11.7188 9.9941V3.41813C11.718 2.76434 11.4532 2.13754 10.9824 1.67524C10.5116 1.21293 9.87336 0.952888 9.20759 0.952148H2.51116C1.84539 0.952888 1.2071 1.21293 0.736334 1.67524C0.265563 2.13754 0.00075326 2.76434 0 3.41813V9.9941C0.00075326 10.6479 0.265563 11.2747 0.736334 11.737C1.2071 12.1993 1.84539 12.4593 2.51116 12.4601ZM1.67411 3.41813C1.67411 3.20013 1.7623 2.99105 1.91927 2.8369C2.07625 2.68274 2.28916 2.59614 2.51116 2.59614H9.20759C9.42959 2.59614 9.6425 2.68274 9.79948 2.8369C9.95645 2.99105 10.0446 3.20013 10.0446 3.41813V9.9941C10.0446 10.2121 9.95645 10.4212 9.79948 10.5753C9.6425 10.7295 9.42959 10.8161 9.20759 10.8161H2.51116C2.28916 10.8161 2.07625 10.7295 1.91927 10.5753C1.7623 10.4212 1.67411 10.2121 1.67411 9.9941V3.41813Z" fill="#091316" style="fill:#091316;fill:color(display-p3 0.0353 0.0745 0.0863);fill-opacity:1;"/>
<path d="M2.51116 25.9523H9.20759C9.87336 25.9515 10.5116 25.6915 10.9824 25.2292C11.4532 24.7669 11.718 24.1401 11.7188 23.4863V16.9103C11.718 16.2565 11.4532 15.6297 10.9824 15.1674C10.5116 14.7051 9.87336 14.4451 9.20759 14.4443H2.51116C1.84539 14.4451 1.2071 14.7051 0.736334 15.1674C0.265563 15.6297 0.00075326 16.2565 0 16.9103V23.4863C0.00075326 24.1401 0.265563 24.7669 0.736334 25.2292C1.2071 25.6915 1.84539 25.9515 2.51116 25.9523ZM1.67411 16.9103C1.67411 16.6923 1.7623 16.4832 1.91927 16.3291C2.07625 16.1749 2.28916 16.0883 2.51116 16.0883H9.20759C9.42959 16.0883 9.6425 16.1749 9.79948 16.3291C9.95645 16.4832 10.0446 16.6923 10.0446 16.9103V23.4863C10.0446 23.7043 9.95645 23.9134 9.79948 24.0675C9.6425 24.2217 9.42959 24.3083 9.20759 24.3083H2.51116C2.28916 24.3083 2.07625 24.2217 1.91927 24.0675C1.7623 23.9134 1.67411 23.7043 1.67411 23.4863V16.9103Z" fill="#091316" style="fill:#091316;fill:color(display-p3 0.0353 0.0745 0.0863);fill-opacity:1;"/>
<path d="M22.4888 0.952148H15.7924C15.1266 0.952888 14.4884 1.21293 14.0176 1.67524C13.5468 2.13754 13.282 2.76434 13.2812 3.41813V9.9941C13.282 10.6479 13.5468 11.2747 14.0176 11.737C14.4884 12.1993 15.1266 12.4593 15.7924 12.4601H22.4888C23.1546 12.4593 23.7929 12.1993 24.2637 11.737C24.7344 11.2747 24.9992 10.6479 25 9.9941V3.41813C24.9992 2.76434 24.7344 2.13754 24.2637 1.67524C23.7929 1.21293 23.1546 0.952888 22.4888 0.952148ZM23.3259 9.9941C23.3259 10.2121 23.2377 10.4212 23.0807 10.5753C22.9237 10.7295 22.7108 10.8161 22.4888 10.8161H15.7924C15.5704 10.8161 15.3575 10.7295 15.2005 10.5753C15.0435 10.4212 14.9554 10.2121 14.9554 9.9941V3.41813C14.9554 3.20013 15.0435 2.99105 15.2005 2.8369C15.3575 2.68274 15.5704 2.59614 15.7924 2.59614H22.4888C22.7108 2.59614 22.9237 2.68274 23.0807 2.8369C23.2377 2.99105 23.3259 3.20013 23.3259 3.41813V9.9941Z" fill="#091316" style="fill:#091316;fill:color(display-p3 0.0353 0.0745 0.0863);fill-opacity:1;"/>
<path d="M19.1406 14.4443C17.9818 14.4443 16.8489 14.7818 15.8853 15.4141C14.9218 16.0463 14.1708 16.945 13.7273 17.9964C13.2838 19.0478 13.1678 20.2047 13.3938 21.3208C13.6199 22.437 14.178 23.4623 14.9974 24.267C15.8169 25.0717 16.8609 25.6197 17.9975 25.8417C19.1341 26.0637 20.3123 25.9498 21.3829 25.5143C22.4536 25.0788 23.3687 24.3413 24.0125 23.395C24.6564 22.4488 25 21.3363 25 20.1983C24.9981 18.6728 24.3802 17.2103 23.2818 16.1317C22.1833 15.053 20.6941 14.4462 19.1406 14.4443ZM19.1406 24.3083C18.3129 24.3083 17.5037 24.0672 16.8154 23.6156C16.1272 23.164 15.5907 22.5221 15.2739 21.7711C14.9572 21.0201 14.8743 20.1937 15.0358 19.3965C15.1973 18.5992 15.5959 17.8669 16.1812 17.2921C16.7665 16.7173 17.5123 16.3259 18.3241 16.1673C19.136 16.0087 19.9775 16.0901 20.7423 16.4012C21.507 16.7123 22.1607 17.239 22.6205 17.9149C23.0804 18.5908 23.3259 19.3854 23.3259 20.1983C23.3246 21.2879 22.8832 22.3326 22.0986 23.1031C21.314 23.8735 20.2502 24.307 19.1406 24.3083Z" fill="#091316" style="fill:#091316;fill:color(display-p3 0.0353 0.0745 0.0863);fill-opacity:1;"/>
</g>
<defs>
<clipPath id="clip0_667_192134">
<rect width="25" height="25" fill="white" style="fill:white;fill-opacity:1;" transform="translate(0 0.952148)"/>
</clipPath>
</defs>
</svg>
