<svg width="25" height="26" viewBox="0 0 25 26" fill="none" xmlns="http://www.w3.org/2000/svg">
<g clip-path="url(#clip0_667_192159)">
<path d="M14.3599 21.1081L11.3057 21.9702L11.8415 18.8452L22.0223 7.3689C22.6653 6.66847 23.737 6.61459 24.4336 7.20727C25.1302 7.85382 25.1838 8.93141 24.5943 9.63184L14.3599 21.1081Z" stroke="#091316" style="stroke:#091316;stroke:color(display-p3 0.0353 0.0745 0.0863);stroke-opacity:1;" stroke-miterlimit="10" stroke-linecap="round" stroke-linejoin="round"/>
<path d="M12.5918 17.9287L15.1102 20.1916" stroke="#091316" style="stroke:#091316;stroke:color(display-p3 0.0353 0.0745 0.0863);stroke-opacity:1;" stroke-miterlimit="10" stroke-linecap="round" stroke-linejoin="round"/>
<path d="M13.6641 16.7432L16.1825 19.0061" stroke="#091316" style="stroke:#091316;stroke:color(display-p3 0.0353 0.0745 0.0863);stroke-opacity:1;" stroke-miterlimit="10" stroke-linecap="round" stroke-linejoin="round"/>
<path d="M22.9335 11.4094L20.415 9.14648" stroke="#091316" style="stroke:#091316;stroke:color(display-p3 0.0353 0.0745 0.0863);stroke-opacity:1;" stroke-miterlimit="10" stroke-linecap="round" stroke-linejoin="round"/>
<path d="M21.7547 12.7571L19.2363 10.4941" stroke="#091316" style="stroke:#091316;stroke:color(display-p3 0.0353 0.0745 0.0863);stroke-opacity:1;" stroke-miterlimit="10" stroke-linecap="round" stroke-linejoin="round"/>
<path d="M20.6832 13.9418V24.0711C20.6832 24.9871 19.9866 25.6875 19.0757 25.6875H1.6075C0.750167 25.6875 0 24.9871 0 24.0711V2.30388C0 1.44181 0.696584 0.6875 1.6075 0.6875H19.0757C19.933 0.6875 20.6832 1.38793 20.6832 2.30388V8.87715" stroke="#091316" style="stroke:#091316;stroke:color(display-p3 0.0353 0.0745 0.0863);stroke-opacity:1;" stroke-miterlimit="10" stroke-linecap="round" stroke-linejoin="round"/>
<path d="M12.2168 13.1875H14.0386" stroke="#091316" style="stroke:#091316;stroke:color(display-p3 0.0353 0.0745 0.0863);stroke-opacity:1;" stroke-miterlimit="10" stroke-linecap="round" stroke-linejoin="round"/>
<path d="M2.67969 13.1875H3.2691" stroke="#091316" style="stroke:#091316;stroke:color(display-p3 0.0353 0.0745 0.0863);stroke-opacity:1;" stroke-miterlimit="10" stroke-linecap="round" stroke-linejoin="round"/>
<path d="M2.73242 16.3125H11.145" stroke="#091316" style="stroke:#091316;stroke:color(display-p3 0.0353 0.0745 0.0863);stroke-opacity:1;" stroke-miterlimit="10" stroke-linecap="round" stroke-linejoin="round"/>
<path d="M2.73242 19.3838H9.16243" stroke="#091316" style="stroke:#091316;stroke:color(display-p3 0.0353 0.0745 0.0863);stroke-opacity:1;" stroke-miterlimit="10" stroke-linecap="round" stroke-linejoin="round"/>
<path d="M13.9854 22.5088H18.0041" stroke="#091316" style="stroke:#091316;stroke:color(display-p3 0.0353 0.0745 0.0863);stroke-opacity:1;" stroke-miterlimit="10" stroke-linecap="round" stroke-linejoin="round"/>
<path d="M2.73242 22.5088H9.5911" stroke="#091316" style="stroke:#091316;stroke:color(display-p3 0.0353 0.0745 0.0863);stroke-opacity:1;" stroke-miterlimit="10" stroke-linecap="round" stroke-linejoin="round"/>
<path d="M15.4316 3.91992H18.0036" stroke="#091316" style="stroke:#091316;stroke:color(display-p3 0.0353 0.0745 0.0863);stroke-opacity:1;" stroke-miterlimit="10" stroke-linecap="round" stroke-linejoin="round"/>
<path d="M12.5918 3.91992H13.2884" stroke="#091316" style="stroke:#091316;stroke:color(display-p3 0.0353 0.0745 0.0863);stroke-opacity:1;" stroke-miterlimit="10" stroke-linecap="round" stroke-linejoin="round"/>
<path d="M14.3604 6.99121H18.004" stroke="#091316" style="stroke:#091316;stroke:color(display-p3 0.0353 0.0745 0.0863);stroke-opacity:1;" stroke-miterlimit="10" stroke-linecap="round" stroke-linejoin="round"/>
<path d="M13.5566 10.1162H18.0041" stroke="#091316" style="stroke:#091316;stroke:color(display-p3 0.0353 0.0745 0.0863);stroke-opacity:1;" stroke-miterlimit="10" stroke-linecap="round" stroke-linejoin="round"/>
<path d="M11.0914 9.41561C10.9843 9.90053 10.8235 10.3316 10.5556 10.7626L11.2522 11.6785L10.4484 12.4867L9.53751 11.7863C9.16243 12.0557 8.68018 12.2173 8.19793 12.3251L8.03718 13.4566H6.91193L6.75118 12.3251C6.26893 12.2173 5.84026 12.0557 5.41159 11.7863L4.50067 12.4867L3.69692 11.6785L4.39351 10.7626C4.12559 10.3854 3.96484 9.90053 3.85767 9.41561L2.73242 9.25397V8.12251L3.85767 7.96087C3.96484 7.47596 4.12559 7.04492 4.39351 6.61389L3.69692 5.69794L4.50067 4.88975L5.41159 5.59018C5.78668 5.32078 6.26893 5.15915 6.75118 5.05139L6.91193 3.91992H8.03718L8.19793 5.05139C8.68018 5.15915 9.10885 5.32078 9.53751 5.59018L10.4484 4.88975L11.2522 5.69794L10.5556 6.61389C10.8235 6.99104 10.9843 7.47596 11.0914 7.96087L12.2167 8.12251V9.25397L11.0914 9.41561Z" stroke="#091316" style="stroke:#091316;stroke:color(display-p3 0.0353 0.0745 0.0863);stroke-opacity:1;" stroke-miterlimit="10" stroke-linecap="round" stroke-linejoin="round"/>
<path d="M7.44726 9.90032C8.12791 9.90032 8.67968 9.3455 8.67968 8.6611C8.67968 7.97669 8.12791 7.42188 7.44726 7.42188C6.76662 7.42188 6.21484 7.97669 6.21484 8.6611C6.21484 9.3455 6.76662 9.90032 7.44726 9.90032Z" stroke="#091316" style="stroke:#091316;stroke:color(display-p3 0.0353 0.0745 0.0863);stroke-opacity:1;" stroke-miterlimit="10" stroke-linecap="round" stroke-linejoin="round"/>
</g>
<defs>
<clipPath id="clip0_667_192159">
<rect width="24.9996" height="25" fill="white" style="fill:white;fill-opacity:1;" transform="translate(0 0.6875)"/>
</clipPath>
</defs>
</svg>
