<svg width="27" height="27" viewBox="0 0 27 27" fill="none" xmlns="http://www.w3.org/2000/svg">
<path d="M13.5093 3.43091C13.8026 3.43091 14.0404 3.19313 14.0404 2.89982V0.531089C14.0404 0.23778 13.8026 0 13.5093 0C13.216 0 12.9782 0.23778 12.9782 0.531089V2.89982C12.9783 3.19313 13.216 3.43091 13.5093 3.43091Z" fill="#091316" style="fill:#091316;fill:color(display-p3 0.0353 0.0745 0.0863);fill-opacity:1;"/>
<path d="M26.4911 18.2451L25.5529 17.3095C25.2192 16.9762 24.7743 16.7925 24.3004 16.7925C23.9973 16.7925 23.7064 16.8679 23.4485 17.0092L21.6806 15.2434L21.7667 15.1573C22.4839 14.4387 22.4837 13.2709 21.7666 12.5546C21.5104 12.2979 21.1907 12.1267 20.8421 12.0547C20.8901 11.8891 20.9154 11.7156 20.9154 11.538C20.9154 11.0447 20.7238 10.5821 20.3769 10.2366C20.1206 9.97993 19.8009 9.80875 19.4524 9.73672C19.5004 9.57108 19.5256 9.39763 19.5256 9.22002C19.5256 8.72664 19.334 8.26411 18.9865 7.91811C18.7241 7.65602 18.4015 7.49012 18.0628 7.41951C18.244 6.79476 18.0892 6.09187 17.5977 5.59954C17.1886 5.19216 16.6335 5.01708 16.0985 5.07383L12.595 4.41069C12.0607 4.30934 11.3935 4.24231 10.9723 4.62648C10.9457 4.65074 10.9186 4.67864 10.8919 4.7097C10.2389 4.47165 9.47718 4.6134 8.95421 5.13579C8.60727 5.48231 8.41616 5.94468 8.41616 6.43775C8.41616 6.61536 8.44131 6.78881 8.48925 6.9545C8.1411 7.02648 7.82179 7.19744 7.56639 7.45331C7.21877 7.79951 7.02708 8.26136 7.02671 8.75385C7.02655 8.93188 7.05181 9.10591 7.10001 9.27202C6.7517 9.34384 6.43218 9.51449 6.176 9.77036C5.82837 10.1176 5.63694 10.5803 5.63694 11.0731C5.63694 11.4505 5.74964 11.8101 5.95847 12.1139C5.69479 12.2033 5.45327 12.352 5.25103 12.5541C4.53332 13.2709 4.53305 14.4387 5.25151 15.1585L5.33731 15.2439L3.56912 17.0089C2.912 16.6995 2.10236 16.8154 1.56009 17.357L0.621316 18.2931C0.287401 18.6266 0.103568 19.0715 0.103516 19.5457C0.103516 20.02 0.287401 20.4649 0.621316 20.7985L1.79292 21.9686C2.00043 22.1759 2.33672 22.1757 2.54396 21.9682C2.75126 21.7607 2.75105 21.4244 2.54354 21.2172L1.37194 20.047C1.23894 19.9142 1.16569 19.7361 1.16569 19.5458C1.16569 19.3554 1.23894 19.1775 1.37162 19.0449L2.31045 18.1087C2.54502 17.8744 2.90403 17.8395 3.17667 18.0025C3.19587 18.0314 3.21807 18.0588 3.24348 18.0843C3.28899 18.1299 3.34094 18.1648 3.3961 18.1904L8.77992 23.5663C8.8055 23.6221 8.84062 23.6745 8.88644 23.7204C8.93106 23.7651 8.98195 23.7996 9.03595 23.8251C9.1498 23.9538 9.21271 24.1182 9.21271 24.2936C9.21271 24.484 9.13946 24.6619 9.00647 24.7948L8.06858 25.7316C7.79146 26.0075 7.34069 26.0074 7.06441 25.7324L5.89281 24.5607C5.68541 24.3533 5.34917 24.3533 5.14177 24.5607C4.93436 24.7681 4.93436 25.1043 5.14177 25.3117L6.31421 26.4843C6.65931 26.828 7.11251 26.9997 7.56592 26.9997C8.01944 26.9997 8.47316 26.8277 8.81868 26.4837L9.75714 25.5464C10.0911 25.2128 10.2749 24.7679 10.2749 24.2936C10.2749 23.9551 10.1808 23.6318 10.0058 23.3531L11.9958 21.3655C11.9979 21.3634 12 21.3612 12.0022 21.359C12.23 21.1235 12.8646 21.1675 13.4782 21.2102C13.9143 21.2405 14.4004 21.2742 14.8753 21.2194L17.0545 23.3961C16.9133 23.6535 16.838 23.944 16.838 24.2466C16.838 24.7204 17.0218 25.165 17.3558 25.4986L18.2943 26.4359C18.628 26.7693 19.0728 26.9529 19.5468 26.9529C20.0207 26.9529 20.4655 26.7693 20.7993 26.4359L26.4915 20.7506C26.8254 20.4171 27.0093 19.9723 27.0093 19.498C27.0092 19.0237 26.8253 18.5789 26.4911 18.2451ZM12.3973 5.45431L14.7011 5.89037L13.3222 7.26879C13.1088 7.16628 12.8165 6.97506 12.4957 6.66825C12.0567 6.24828 11.7427 5.76338 11.7141 5.46095C11.7141 5.46079 11.7141 5.46063 11.7141 5.46048C11.7141 5.46042 11.714 5.46037 11.714 5.46032C11.712 5.43859 11.7114 5.42124 11.7117 5.40801C11.7811 5.39113 11.9656 5.37241 12.3973 5.45431ZM9.70478 5.88731C9.97383 5.61852 10.3918 5.58751 10.6958 5.79339C10.8681 6.51575 11.4843 7.17044 11.7615 7.4357C11.967 7.63229 12.6262 8.22171 13.2916 8.38371C13.3816 8.51275 13.4306 8.66657 13.4306 8.82889C13.4306 9.03798 13.3502 9.23347 13.2037 9.37986C13.0575 9.52625 12.8617 9.60683 12.6523 9.60683C12.4428 9.60683 12.2469 9.52625 12.1001 9.37918L12.1001 9.37912L12.0998 9.37886L9.70473 6.98809C9.5587 6.84228 9.47828 6.64679 9.47828 6.43775C9.47834 6.22866 9.55876 6.03317 9.70478 5.88731ZM8.31702 8.20483C8.46314 8.05849 8.65874 7.97786 8.86788 7.97786C9.07729 7.97786 9.27351 8.05865 9.42059 8.20557L11.3492 10.1303C11.6529 10.4345 11.6529 10.9295 11.3503 11.2326C11.2033 11.3789 11.0068 11.4595 10.797 11.4595C10.5872 11.4595 10.3907 11.3789 10.2444 11.2332L10.2444 11.2332L8.78124 9.77036C8.77897 9.76809 8.77649 9.76598 8.77417 9.76366L8.31644 9.30614C8.16957 9.15943 8.08873 8.96358 8.08889 8.75464C8.0891 8.54639 8.16968 8.35154 8.31702 8.20483ZM6.92662 10.5219C7.07285 10.3759 7.26887 10.2954 7.47864 10.2954C7.68668 10.2954 7.88101 10.3747 8.02661 10.5182L9.49421 11.9851C9.64055 12.1309 9.72118 12.3261 9.72118 12.535C9.72118 12.7437 9.64055 12.939 9.49363 13.0854C9.34745 13.2313 9.15165 13.3117 8.94224 13.3117C8.73251 13.3117 8.53608 13.2311 8.38969 13.0854L7.85765 12.554C7.85754 12.5538 7.85738 12.5537 7.85728 12.5536L6.92667 11.6241C6.77997 11.4775 6.69918 11.2818 6.69918 11.073C6.69918 10.8642 6.77996 10.6684 6.92662 10.5219ZM6.00166 13.3055C6.14852 13.1588 6.3448 13.078 6.55431 13.078C6.76378 13.078 6.96 13.1588 7.10681 13.3054L7.63959 13.8375C7.78598 13.9833 7.86656 14.1785 7.86656 14.3874C7.86656 14.5962 7.78593 14.7914 7.63848 14.9383C7.49236 15.0847 7.29655 15.1653 7.08709 15.1653C6.87758 15.1653 6.68177 15.0847 6.53459 14.9373L6.46788 14.8708C6.46699 14.8699 6.4663 14.869 6.46546 14.8682C6.46445 14.8672 6.4634 14.8664 6.4624 14.8654L6.00218 14.407C5.69849 14.1027 5.69822 13.6086 6.00166 13.3055ZM16.8246 19.3414C16.6173 19.1338 16.281 19.1337 16.0735 19.3409L15.601 19.8129C15.152 20.2618 14.3385 20.2053 13.5518 20.1507C12.6974 20.0913 11.8139 20.0301 11.2423 20.617L9.28607 22.5708L4.39426 17.6862L6.12542 15.9581C6.41156 16.1335 6.74173 16.2275 7.0872 16.2275C7.58074 16.2275 8.04354 16.0362 8.38921 15.6899C8.73721 15.3433 8.92889 14.8808 8.92889 14.3874C8.92889 14.3828 8.92858 14.3783 8.92858 14.3737C8.93317 14.3738 8.93775 14.374 8.94234 14.374C9.4352 14.374 9.89763 14.1833 10.2438 13.8376C10.5918 13.491 10.7835 13.0284 10.7835 12.5351C10.7835 12.5305 10.7831 12.5259 10.7831 12.5214C10.7878 12.5214 10.7924 12.5217 10.7971 12.5217C11.2898 12.5217 11.7525 12.3311 12.101 11.9841C12.4627 11.6218 12.6417 11.1447 12.6382 10.6687C12.643 10.6687 12.6477 10.669 12.6525 10.669C13.146 10.669 13.6088 10.4777 13.955 10.1309C14.3019 9.78434 14.493 9.32196 14.493 8.82889C14.493 8.48406 14.3993 8.15442 14.2244 7.86886L15.7418 6.35216C15.8548 6.23958 15.9943 6.16891 16.1404 6.13975C16.1562 6.13806 16.1718 6.13553 16.1873 6.13247C16.4217 6.10015 16.6679 6.1725 16.8472 6.35106C17.1509 6.65528 17.1509 7.15025 16.8483 7.45337L16.3862 7.91358C16.3847 7.91511 16.3831 7.91648 16.3815 7.91801L15.8493 8.44936C15.6417 8.65661 15.6415 8.9929 15.8488 9.20041C16.0562 9.40797 16.3924 9.40813 16.5999 9.20088L17.0638 8.73756C17.0639 8.73745 17.064 8.73734 17.0641 8.73724L17.1343 8.66737C17.4388 8.36562 17.9322 8.36625 18.2364 8.67005C18.3828 8.81581 18.4634 9.01109 18.4634 9.21992C18.4634 9.42869 18.3828 9.62397 18.2353 9.77089L17.7705 10.2366C17.7705 10.2366 17.7704 10.2367 17.7704 10.2368L17.2382 10.7668C17.0303 10.9738 17.0296 11.3101 17.2366 11.5179C17.4436 11.7257 17.7799 11.7263 17.9877 11.5194L18.5223 10.9869C18.6684 10.8406 18.8642 10.76 19.0737 10.76C19.2832 10.76 19.4791 10.8406 19.6262 10.988C19.7726 11.1338 19.8532 11.3291 19.8532 11.5379C19.8532 11.7467 19.7726 11.942 19.6254 12.0886L18.6989 13.0155C18.4915 13.2229 18.4916 13.5592 18.699 13.7665C18.8027 13.8702 18.9385 13.922 19.0744 13.922C19.2104 13.922 19.3463 13.8701 19.45 13.7664L19.9041 13.3121C19.9067 13.3096 19.9095 13.3075 19.9121 13.3049C20.0582 13.1585 20.254 13.0779 20.4635 13.0779C20.673 13.0779 20.8688 13.1585 21.0154 13.3054C21.3188 13.6085 21.3185 14.1026 21.0154 14.4062L20.5537 14.8674C20.5536 14.8676 20.5534 14.8677 20.5532 14.8679C20.5531 14.868 20.5529 14.8683 20.5527 14.8684L19.8199 15.6003C19.6124 15.8076 19.6122 16.1439 19.8195 16.3514C19.9232 16.4552 20.0592 16.5072 20.1952 16.5072C20.331 16.5072 20.4669 16.4554 20.5706 16.3519L20.929 15.9939L22.6469 17.7098L17.7555 22.5952L16.003 20.8448C16.1251 20.7662 16.2421 20.6738 16.3518 20.5641L16.824 20.0924C17.0317 19.8852 17.0319 19.5489 16.8246 19.3414ZM25.7408 19.9991L20.0486 25.6844C19.9154 25.8174 19.7372 25.8907 19.5467 25.8907C19.3562 25.8907 19.178 25.8174 19.0448 25.6844L18.1063 24.747C17.9733 24.6142 17.9 24.4365 17.9 24.2466C17.9 24.0568 17.9733 23.8791 18.1063 23.7462L23.7985 18.0609C23.9317 17.9279 24.1099 17.8546 24.3004 17.8546C24.4909 17.8546 24.6691 17.9279 24.8027 18.0612L25.7409 18.9968C25.8739 19.1296 25.9471 19.3076 25.9471 19.4979C25.9471 19.6883 25.8738 19.8663 25.7408 19.9991Z" fill="#091316" style="fill:#091316;fill:color(display-p3 0.0353 0.0745 0.0863);fill-opacity:1;"/>
<path d="M6.4572 2.98297C6.56088 3.08644 6.69662 3.13812 6.83235 3.13812C6.96841 3.13812 7.10452 3.08612 7.20825 2.98218C7.41544 2.77456 7.41512 2.43833 7.20751 2.23114L5.27226 0.299736C5.06469 0.0925419 4.72841 0.0928055 4.52121 0.300474C4.31402 0.50809 4.31434 0.844325 4.52195 1.05152L6.4572 2.98297Z" fill="#091316" style="fill:#091316;fill:color(display-p3 0.0353 0.0745 0.0863);fill-opacity:1;"/>
<path d="M20.1863 3.1381C20.3221 3.1381 20.4579 3.08631 20.5616 2.98279L22.4954 1.05134C22.7029 0.844094 22.7031 0.507806 22.4958 0.300296C22.2885 0.0927856 21.9523 0.0925747 21.7448 0.299874L19.811 2.23133C19.6035 2.43857 19.6033 2.77486 19.8106 2.98237C19.9143 3.08621 20.0503 3.1381 20.1863 3.1381Z" fill="#091316" style="fill:#091316;fill:color(display-p3 0.0353 0.0745 0.0863);fill-opacity:1;"/>
<path d="M3.36909 22.8443C3.16348 23.0535 3.16633 23.3898 3.37553 23.5954L3.37705 23.5968C3.48026 23.6983 3.61425 23.7488 3.7482 23.7488C3.88568 23.7488 4.02316 23.6956 4.12731 23.5897C4.33292 23.3805 4.32928 23.0435 4.12014 22.8379C3.91104 22.6323 3.57481 22.6352 3.36909 22.8443Z" fill="#091316" style="fill:#091316;fill:color(display-p3 0.0353 0.0745 0.0863);fill-opacity:1;"/>
<path d="M18.1235 18.5762C18.2043 18.5762 18.2862 18.5578 18.3632 18.5191C18.6251 18.387 18.7303 18.0676 18.5982 17.8057C18.4661 17.5438 18.1467 17.4386 17.8849 17.5707L17.8819 17.5722C17.62 17.7043 17.5163 18.0229 17.6484 18.2848C17.7416 18.4698 17.9291 18.5762 18.1235 18.5762Z" fill="#091316" style="fill:#091316;fill:color(display-p3 0.0353 0.0745 0.0863);fill-opacity:1;"/>
</svg>
