<svg width="25" height="26" viewBox="0 0 25 26" fill="none" xmlns="http://www.w3.org/2000/svg">
<g clip-path="url(#clip0_667_192108)">
<path d="M18.3837 22.8038C17.3446 22.8038 16.4983 21.9479 16.4983 20.897C16.4983 19.8462 17.3446 18.9902 18.3837 18.9902C19.4228 18.9902 20.2692 19.8462 20.2692 20.897C20.2692 21.9479 19.4228 22.8038 18.3837 22.8038ZM18.3837 20.2614C18.0377 20.2614 17.7553 20.547 17.7553 20.897C17.7553 21.247 18.0377 21.5326 18.3837 21.5326C18.7298 21.5326 19.0122 21.247 19.0122 20.897C19.0122 20.547 18.7298 20.2614 18.3837 20.2614Z" fill="#091316" style="fill:#091316;fill:color(display-p3 0.0353 0.0745 0.0863);fill-opacity:1;"/>
<path d="M24.7745 8.21417L23.4606 9.32264C23.2821 9.47349 23.0231 9.47349 22.8447 9.32264L21.5307 8.21417C21.2642 7.98959 21.2282 7.58874 21.4503 7.31925C21.6723 7.04976 22.0695 7.01332 22.336 7.23874L23.1522 7.92773L23.9684 7.23874C24.2349 7.01332 24.6312 7.04976 24.8541 7.31925C25.0762 7.58874 25.041 7.98959 24.7745 8.21417Z" fill="#091316" style="fill:#091316;fill:color(display-p3 0.0353 0.0745 0.0863);fill-opacity:1;"/>
<path d="M19.1724 11.3405C19.5195 11.3405 19.8009 11.056 19.8009 10.7049C19.8009 10.3539 19.5195 10.0693 19.1724 10.0693C18.8253 10.0693 18.5439 10.3539 18.5439 10.7049C18.5439 11.056 18.8253 11.3405 19.1724 11.3405Z" fill="#091316" style="fill:#091316;fill:color(display-p3 0.0353 0.0745 0.0863);fill-opacity:1;"/>
<path d="M19.1724 13.7722C19.5195 13.7722 19.8009 13.4876 19.8009 13.1366C19.8009 12.7855 19.5195 12.501 19.1724 12.501C18.8253 12.501 18.5439 12.7855 18.5439 13.1366C18.5439 13.4876 18.8253 13.7722 19.1724 13.7722Z" fill="#091316" style="fill:#091316;fill:color(display-p3 0.0353 0.0745 0.0863);fill-opacity:1;"/>
<path d="M23.7816 8.40763H22.5246C22.5246 5.4873 20.1749 3.11103 17.2873 3.11103H16.2398C15.8929 3.11103 15.6113 2.82628 15.6113 2.47544C15.6113 2.12459 15.8929 1.83984 16.2398 1.83984H17.2873C20.868 1.83984 23.7816 4.78645 23.7816 8.40763Z" fill="#091316" style="fill:#091316;fill:color(display-p3 0.0353 0.0745 0.0863);fill-opacity:1;"/>
<path d="M8.67286 13.0524C6.01563 13.0524 3.85449 10.8668 3.85449 8.17952C3.85449 5.49223 6.01563 3.30664 8.67286 3.30664C11.3301 3.30664 13.4912 5.49223 13.4912 8.17952C13.4912 10.8668 11.3301 13.0524 8.67286 13.0524ZM8.67286 4.57783C6.70864 4.57783 5.11146 6.19308 5.11146 8.17952C5.11146 10.166 6.70864 11.7812 8.67286 11.7812C10.6371 11.7812 12.2343 10.166 12.2343 8.17952C12.2343 6.19308 10.6371 4.57783 8.67286 4.57783Z" fill="#091316" style="fill:#091316;fill:color(display-p3 0.0353 0.0745 0.0863);fill-opacity:1;"/>
<path d="M14.3424 5.96549C13.4441 3.61549 11.1656 2.03583 8.67265 2.03583C6.19727 2.03583 3.99004 3.53244 3.05067 5.84854L1.88672 5.36549C3.02218 2.57058 5.68527 0.764648 8.67349 0.764648C11.681 0.764648 14.4304 2.67058 15.5147 5.50702L14.3424 5.96549Z" fill="#091316" style="fill:#091316;fill:color(display-p3 0.0353 0.0745 0.0863);fill-opacity:1;"/>
<path d="M14.5388 11.5844C13.2676 11.5844 12.2344 10.5395 12.2344 9.25393V7.55902C12.2344 6.27343 13.2676 5.22852 14.5388 5.22852C15.81 5.22852 16.8432 6.27343 16.8432 7.55902V9.25393C16.8432 10.5395 15.81 11.5844 14.5388 11.5844ZM14.5388 6.4997C13.9614 6.4997 13.4913 6.97512 13.4913 7.55902V9.25393C13.4913 9.83783 13.9614 10.3133 14.5388 10.3133C15.1162 10.3133 15.5863 9.83783 15.5863 9.25393V7.55902C15.5863 6.97512 15.1162 6.4997 14.5388 6.4997Z" fill="#091316" style="fill:#091316;fill:color(display-p3 0.0353 0.0745 0.0863);fill-opacity:1;"/>
<path d="M2.80724 11.5844C1.53603 11.5844 0.502808 10.5395 0.502808 9.25393V7.55902C0.502808 6.27343 1.53603 5.22852 2.80724 5.22852C4.07845 5.22852 5.11168 6.27343 5.11168 7.55902V9.25393C5.11168 10.5395 4.07845 11.5844 2.80724 11.5844ZM2.80724 6.4997C2.22988 6.4997 1.75977 6.97512 1.75977 7.55902V9.25393C1.75977 9.83783 2.22988 10.3133 2.80724 10.3133C3.38461 10.3133 3.85471 9.83783 3.85471 9.25393V7.55902C3.85471 6.97512 3.38461 6.4997 2.80724 6.4997Z" fill="#091316" style="fill:#091316;fill:color(display-p3 0.0353 0.0745 0.0863);fill-opacity:1;"/>
<path d="M21.5137 25.7651H13.2026C12.508 25.7651 11.8577 25.4532 11.4178 24.9092C10.9778 24.3651 10.806 23.6583 10.9443 22.9702L11.9398 18.0244C12.1577 16.9439 13.108 16.1592 14.1982 16.1592H22.5092C23.2039 16.1592 23.8542 16.471 24.2941 17.0151C24.734 17.5592 24.9058 18.266 24.7676 18.9541L23.772 23.899C23.5542 24.9804 22.6039 25.7651 21.5137 25.7651ZM14.1982 17.4304C13.7021 17.4304 13.2705 17.7871 13.1716 18.2778L12.1761 23.2236C12.1133 23.5363 12.192 23.8575 12.3915 24.1049C12.5909 24.3524 12.8867 24.4939 13.2026 24.4939H21.5137C22.0098 24.4939 22.4413 24.1371 22.5402 23.6456L23.5357 18.7007C23.5986 18.388 23.5198 18.0668 23.3204 17.8193C23.1209 17.5719 22.8251 17.4304 22.5092 17.4304H14.1982Z" fill="#091316" style="fill:#091316;fill:color(display-p3 0.0353 0.0745 0.0863);fill-opacity:1;"/>
<path d="M13.2011 25.7643H8.08356C7.73664 25.7643 7.45508 25.4796 7.45508 25.1288C7.45508 24.7779 7.73664 24.4932 8.08356 24.4932H13.2011V25.7643Z" fill="#091316" style="fill:#091316;fill:color(display-p3 0.0353 0.0745 0.0863);fill-opacity:1;"/>
<path d="M4.86207 25.7642H3.14255C2.24256 25.7642 1.38363 25.3727 0.786994 24.6888C0.190355 24.0058 -0.0878535 23.0956 0.0244354 22.1922L0.414932 19.0371C0.497892 18.3651 0.865764 17.7634 1.42302 17.388L5.36737 14.7287C7.36846 13.3795 9.97625 13.3795 11.9773 14.7287L12.2941 14.9422C12.5832 15.1371 12.6611 15.5312 12.4684 15.8236C12.2757 16.1159 11.886 16.1948 11.5969 15.9998L11.2801 15.7863C9.70055 14.7219 7.64332 14.721 6.06373 15.7863L2.11854 18.4456C1.86547 18.6159 1.69871 18.8888 1.661 19.1939L1.27051 22.349C1.20347 22.8914 1.37023 23.4371 1.72804 23.8481C2.0867 24.2575 2.60121 24.4931 3.14171 24.4931H4.86124C5.04978 24.4931 5.21738 24.4032 5.32212 24.2448C5.42687 24.0871 5.44614 23.8956 5.37575 23.7193L4.06181 20.4532C3.93108 20.1278 4.08527 19.7575 4.40705 19.6253C4.728 19.4931 5.09503 19.6498 5.22492 19.9744L6.53887 23.2414C6.7668 23.8075 6.70143 24.4481 6.36373 24.9549C6.02686 25.4617 5.46458 25.7642 4.8604 25.7642H4.86207Z" fill="#091316" style="fill:#091316;fill:color(display-p3 0.0353 0.0745 0.0863);fill-opacity:1;"/>
<path d="M8.67391 18.6514C7.70437 18.6514 6.83539 18.1463 6.34769 17.2988L5.16614 15.2454L6.25299 14.6064L7.43454 16.6598C7.69431 17.1107 8.15688 17.3802 8.67391 17.3802C9.19094 17.3802 9.6535 17.1115 9.91328 16.6598L11.094 14.6064L12.1808 15.2454L11.0001 17.2988C10.5124 18.1463 9.64261 18.6514 8.67391 18.6514Z" fill="#091316" style="fill:#091316;fill:color(display-p3 0.0353 0.0745 0.0863);fill-opacity:1;"/>
</g>
<defs>
<clipPath id="clip0_667_192108">
<rect width="25" height="25" fill="white" style="fill:white;fill-opacity:1;" transform="translate(0 0.764648)"/>
</clipPath>
</defs>
</svg>
