<svg width="28" height="26" viewBox="0 0 28 26" fill="none" xmlns="http://www.w3.org/2000/svg">
<g clip-path="url(#clip0_667_192106)">
<path d="M26.6 4.7946H20.5333V2.94274C20.5317 1.66485 19.4881 0.629512 18.2 0.62793H9.8C8.51188 0.629512 7.46826 1.66485 7.46667 2.94274V4.7946H1.4C0.626855 4.7946 0 5.41648 0 6.18349V16.4889C0.00296224 17.0762 0.375977 17.5986 0.933333 17.796V24.239C0.933333 25.006 1.56019 25.6279 2.33333 25.6279H25.6667C26.4398 25.6279 27.0667 25.006 27.0667 24.239V17.7964C27.624 17.5989 27.9973 17.0762 28 16.4889V6.18349C28 5.41648 27.3731 4.7946 26.6 4.7946ZM8.4 2.94274C8.4 2.17574 9.02686 1.55386 9.8 1.55386H18.2C18.9731 1.55386 19.6 2.17574 19.6 2.94274V4.7946H18.6667V2.94274C18.6667 2.68707 18.4577 2.47978 18.2 2.47978H9.8C9.54228 2.47978 9.33333 2.68707 9.33333 2.94274V4.7946H8.4V2.94274ZM17.7333 4.7946H10.2667V3.40571H17.7333V4.7946ZM26.1333 24.239C26.1333 24.4947 25.9244 24.702 25.6667 24.702H2.33333C2.07562 24.702 1.86667 24.4947 1.86667 24.239V17.9551L12.1333 19.3598V20.5353C12.1333 21.3023 12.7602 21.9242 13.5333 21.9242H14.4667C15.2398 21.9242 15.8667 21.3023 15.8667 20.5353V19.3598L26.1333 17.9551V24.239ZM14.9333 20.5353C14.9333 20.791 14.7244 20.9983 14.4667 20.9983H13.5333C13.2756 20.9983 13.0667 20.791 13.0667 20.5353V17.7576C13.0667 17.5019 13.2756 17.2946 13.5333 17.2946H14.4667C14.7244 17.2946 14.9333 17.5019 14.9333 17.7576V20.5353ZM27.0667 16.4889C27.0669 16.7197 26.8958 16.9155 26.6654 16.9478L26.536 16.9655L15.8667 18.4251V17.7576C15.8667 16.9906 15.2398 16.3687 14.4667 16.3687H13.5333C12.7602 16.3687 12.1333 16.9906 12.1333 17.7576V18.4251L1.33506 16.9478C1.10469 16.9157 0.933105 16.72 0.933333 16.4889V6.18349C0.933333 5.92782 1.14229 5.72052 1.4 5.72052H26.6C26.8577 5.72052 27.0667 5.92782 27.0667 6.18349V16.4889Z" fill="#091316" style="fill:#091316;fill:color(display-p3 0.0353 0.0745 0.0863);fill-opacity:1;"/>
</g>
<defs>
<clipPath id="clip0_667_192106">
<rect width="28" height="25" fill="white" style="fill:white;fill-opacity:1;" transform="translate(0 0.62793)"/>
</clipPath>
</defs>
</svg>
