<svg width="25" height="26" viewBox="0 0 25 26" fill="none" xmlns="http://www.w3.org/2000/svg">
<g clip-path="url(#clip0_667_192123)">
<path d="M24.2676 3.42969H20.483C20.1427 1.76016 18.6631 0.5 16.8945 0.5C15.126 0.5 13.6464 1.76016 13.3061 3.42969H0.732422C0.32793 3.42969 0 3.75762 0 4.16211C0 4.5666 0.32793 4.89453 0.732422 4.89453H13.3061C13.6463 6.56406 15.126 7.82422 16.8945 7.82422C18.6631 7.82422 20.1427 6.56406 20.483 4.89453H24.2676C24.6721 4.89453 25 4.5666 25 4.16211C25 3.75762 24.6721 3.42969 24.2676 3.42969ZM16.8945 6.35938C15.6832 6.35938 14.6976 5.37402 14.6973 4.16274C14.6973 4.16255 14.6973 4.16235 14.6973 4.16211C14.6973 4.16187 14.6973 4.16167 14.6973 4.16147C14.6976 2.9502 15.6832 1.96484 16.8945 1.96484C18.1061 1.96484 19.0918 2.95054 19.0918 4.16211C19.0918 5.37368 18.1061 6.35938 16.8945 6.35938Z" fill="#091316" style="fill:#091316;fill:color(display-p3 0.0353 0.0745 0.0863);fill-opacity:1;"/>
<path d="M24.2676 12.2676H11.6939C11.3537 10.598 9.87402 9.33789 8.10547 9.33789C6.33691 9.33789 4.85732 10.598 4.51704 12.2676H0.732422C0.32793 12.2676 0 12.5955 0 13C0 13.4045 0.32793 13.7324 0.732422 13.7324H4.51704C4.85728 15.402 6.33691 16.6621 8.10547 16.6621C9.87402 16.6621 11.3536 15.402 11.6939 13.7324H24.2676C24.6721 13.7324 25 13.4045 25 13C25 12.5955 24.6721 12.2676 24.2676 12.2676ZM8.10547 15.1973C6.89409 15.1973 5.90855 14.2119 5.9082 13.0006C5.9082 13.0004 5.90825 13.0002 5.90825 13C5.90825 12.9998 5.9082 12.9996 5.9082 12.9994C5.90855 11.7881 6.89409 10.8027 8.10547 10.8027C9.31704 10.8027 10.3027 11.7884 10.3027 13C10.3027 14.2116 9.31704 15.1973 8.10547 15.1973Z" fill="#091316" style="fill:#091316;fill:color(display-p3 0.0353 0.0745 0.0863);fill-opacity:1;"/>
<path d="M24.2676 21.1055H20.483C20.1427 19.4359 18.6631 18.1758 16.8945 18.1758C15.126 18.1758 13.6464 19.4359 13.3061 21.1055H0.732422C0.32793 21.1055 0 21.4334 0 21.8379C0 22.2424 0.32793 22.5703 0.732422 22.5703H13.3061C13.6463 24.2398 15.126 25.5 16.8945 25.5C18.6631 25.5 20.1427 24.2398 20.483 22.5703H24.2676C24.6721 22.5703 25 22.2424 25 21.8379C25 21.4334 24.6721 21.1055 24.2676 21.1055ZM16.8945 24.0352C15.6832 24.0352 14.6976 23.0498 14.6973 21.8385C14.6973 21.8383 14.6973 21.8381 14.6973 21.8379C14.6973 21.8376 14.6973 21.8375 14.6973 21.8373C14.6976 20.626 15.6832 19.6406 16.8945 19.6406C18.1061 19.6406 19.0918 20.6263 19.0918 21.8379C19.0918 23.0495 18.1061 24.0352 16.8945 24.0352Z" fill="#091316" style="fill:#091316;fill:color(display-p3 0.0353 0.0745 0.0863);fill-opacity:1;"/>
</g>
<defs>
<clipPath id="clip0_667_192123">
<rect width="25" height="25" fill="white" style="fill:white;fill-opacity:1;" transform="translate(0 0.5)"/>
</clipPath>
</defs>
</svg>
