<svg width="23" height="27" viewBox="0 0 23 27" fill="none" xmlns="http://www.w3.org/2000/svg">
<g clip-path="url(#clip0_667_192140)">
<path d="M19.454 0.363281C19.8544 0.485813 20.2408 0.632381 20.5726 0.902654C21.2146 1.4262 21.5587 2.10393 21.5616 2.92413C21.5734 6.23013 21.5675 9.53613 21.5663 12.8421C21.5663 12.9142 21.5933 13.0069 21.5165 13.0491C21.4315 13.0954 21.3858 13.0022 21.3307 12.9594C21.126 12.8011 20.9332 12.6258 20.718 12.4845C20.5445 12.3702 20.4841 12.2383 20.4847 12.0313C20.4911 9.08411 20.4888 6.1375 20.4893 3.1903C20.4893 3.01441 20.48 2.84088 20.4495 2.66734C20.3264 1.95912 19.7442 1.44965 19.0225 1.42678C18.8888 1.42268 18.7551 1.42327 18.6221 1.42327C13.3456 1.42327 8.06971 1.42327 2.79324 1.42327C2.5429 1.42327 2.29549 1.42502 2.05395 1.51707C1.48174 1.73634 1.09421 2.26574 1.08307 2.87899C1.07545 3.2882 1.07956 3.69684 1.07956 4.10606C1.07956 10.4923 1.0819 16.8792 1.07663 23.2655C1.07604 23.9831 1.35862 24.5014 2.0176 24.8039C2.2779 24.9235 2.55462 24.91 2.82959 24.91C8.06384 24.9112 13.2987 24.9141 18.5329 24.903C18.8859 24.9024 19.1245 24.9757 19.2535 25.3204C19.3021 25.4511 19.3954 25.5655 19.4645 25.6892C19.5789 25.8944 19.556 25.9436 19.3156 25.9712C19.1169 25.9934 18.9164 26.0093 18.7164 26.0093C13.4236 26.011 8.13068 26.0087 2.83779 26.0128C1.88803 26.0134 1.08542 25.7144 0.503836 24.9352C0.180798 24.5025 0.00139836 24.0124 0.00139836 23.4689C0.000225814 16.5984 -0.00153298 9.72726 0.00257094 2.85671C0.00315721 1.76741 0.806939 0.739083 1.85872 0.444187C1.94666 0.419564 2.03343 0.39025 2.12078 0.363281C7.89793 0.363281 13.6762 0.363281 19.454 0.363281Z" fill="#091316" style="fill:#091316;fill:color(display-p3 0.0353 0.0745 0.0863);fill-opacity:1;"/>
<path d="M8.96328 7.04091C9.41765 7.19686 9.82218 7.36923 10.1734 7.64477C10.6465 8.01706 11.0416 8.44856 11.2445 9.03073C11.4198 9.53375 11.3283 9.74891 10.8306 9.94766C10.2009 10.1986 9.53197 10.2525 8.86713 10.2854C7.94199 10.3311 7.01509 10.317 6.09875 10.147C5.84372 10.0995 5.59338 10.0362 5.35242 9.93945C4.90275 9.75771 4.7978 9.53434 4.9561 9.07235C5.22168 8.29671 5.77043 7.76848 6.46458 7.36923C6.70202 7.23262 6.96292 7.14996 7.23202 7.03212C6.75831 6.62466 6.45813 6.14215 6.34967 5.54181C6.1732 4.56566 6.79641 3.63407 7.76201 3.45115C8.74402 3.2653 9.66623 3.87737 9.85208 4.85411C10.0045 5.65555 9.69613 6.3069 9.1503 6.86972C9.10399 6.91838 9.05181 6.96059 8.96328 7.04091ZM7.80129 7.31412C8.00531 7.48941 7.96017 7.66588 7.86988 7.86521C7.71511 8.20584 7.57557 8.5535 7.43721 8.90175C7.19742 9.50502 7.17221 9.29924 7.60899 9.75595C7.71276 9.86441 7.8306 9.95997 7.92382 10.0761C8.0569 10.2408 8.1636 10.2015 8.2879 10.0684C8.45264 9.89196 8.61973 9.71726 8.79795 9.55544C8.92693 9.43819 8.95683 9.3309 8.88238 9.1644C8.69653 8.74638 8.5353 8.31782 8.3559 7.89687C8.27265 7.70164 8.17943 7.51462 8.39342 7.31939C8.1894 7.35047 8.00297 7.34812 7.80129 7.31412Z" fill="#091316" style="fill:#091316;fill:color(display-p3 0.0353 0.0745 0.0863);fill-opacity:1;"/>
<path d="M17.349 12.5256C20.0054 12.5526 22.1588 14.7177 22.1171 17.3466C22.0749 20.013 19.9884 22.0796 17.3789 22.0907C14.5935 22.1024 12.5661 19.9438 12.548 17.3143C12.5298 14.6685 14.733 12.4987 17.349 12.5256ZM21.2606 17.3307C21.2846 15.1328 19.5317 13.354 17.2862 13.3728C15.0232 13.3922 13.4139 15.2331 13.3981 17.244C13.3811 19.4542 15.083 21.2189 17.2763 21.2447C19.4941 21.2711 21.2366 19.5592 21.2606 17.3307Z" fill="#091316" style="fill:#091316;fill:color(display-p3 0.0353 0.0745 0.0863);fill-opacity:1;"/>
<path d="M15.7375 11.5381C15.68 11.6559 15.5956 11.653 15.5282 11.6752C15.0011 11.8464 14.5046 12.0809 14.0479 12.3958C13.9042 12.4949 13.7553 12.5406 13.5806 12.5406C10.9183 12.5377 8.25604 12.5394 5.59377 12.5382C5.15641 12.5382 4.94418 12.4016 4.90373 12.1126C4.86621 11.8394 4.99343 11.6348 5.25901 11.5638C5.36219 11.5363 5.473 11.5269 5.58029 11.5269C8.88512 11.5252 12.1899 11.5252 15.4948 11.5257C15.5692 11.5252 15.6425 11.5328 15.7375 11.5381Z" fill="#091316" style="fill:#091316;fill:color(display-p3 0.0353 0.0745 0.0863);fill-opacity:1;"/>
<path d="M22.4734 23.8213C22.4804 23.9157 22.4113 23.9397 22.355 23.972C21.7775 24.3056 21.1983 24.6356 20.6231 24.9733C20.4906 25.0513 20.4056 25.0525 20.3212 24.9042C19.8633 24.1004 19.4002 23.2989 18.9335 22.4998C18.8532 22.3621 18.8707 22.2812 19.0126 22.2008C19.593 21.8725 20.1693 21.5366 20.7462 21.2018C20.8465 21.1438 20.9292 21.1297 20.9972 21.2476C21.4803 22.0854 21.9645 22.922 22.4476 23.7598C22.4605 23.7809 22.467 23.8055 22.4734 23.8213Z" fill="#091316" style="fill:#091316;fill:color(display-p3 0.0353 0.0745 0.0863);fill-opacity:1;"/>
<path d="M8.93111 13.6751C10.0573 13.6751 11.1842 13.674 12.3104 13.6769C12.3954 13.6769 12.5127 13.6312 12.5572 13.7361C12.593 13.8194 12.4998 13.8844 12.4587 13.9536C12.4118 14.0322 12.3385 14.1002 12.3098 14.184C12.1679 14.6026 11.876 14.6753 11.4597 14.6706C9.46579 14.6478 7.47128 14.6613 5.47736 14.6618C5.12032 14.6618 4.90164 14.4836 4.89109 14.187C4.88054 13.8915 5.11505 13.6781 5.47678 13.6769C6.62822 13.6734 7.77966 13.6757 8.93111 13.6751Z" fill="#091316" style="fill:#091316;fill:color(display-p3 0.0353 0.0745 0.0863);fill-opacity:1;"/>
<path d="M8.38547 15.8263C9.354 15.8263 10.3225 15.8257 11.2905 15.8269C11.5953 15.8275 11.6024 15.838 11.5426 16.1411C11.5361 16.174 11.525 16.2056 11.5185 16.2385C11.4071 16.8118 11.4071 16.8118 10.8115 16.8118C9.09194 16.8118 7.37181 16.8118 5.65226 16.8118C5.57722 16.8118 5.50218 16.8136 5.42713 16.8107C5.09472 16.796 4.88307 16.5955 4.89187 16.3059C4.90007 16.0309 5.11524 15.8304 5.42948 15.8293C6.41442 15.8246 7.39995 15.8275 8.38489 15.8275C8.38547 15.8269 8.38547 15.8269 8.38547 15.8263Z" fill="#091316" style="fill:#091316;fill:color(display-p3 0.0353 0.0745 0.0863);fill-opacity:1;"/>
<path d="M16.228 23.1217C16.0973 23.2337 15.9935 23.2073 15.8974 23.2079C14.8139 23.2096 13.7305 23.2102 12.6471 23.2073C12.5228 23.2067 12.395 23.2002 12.2759 23.168C12.052 23.1076 11.9236 22.9534 11.9154 22.7154C11.9072 22.4832 12.0444 22.3032 12.2718 22.2317C12.4348 22.1801 12.6025 22.2042 12.7684 22.1948C13.4819 22.1526 14.1643 22.1918 14.7934 22.6187C15.2032 22.8977 15.7103 22.9915 16.228 23.1217Z" fill="#091316" style="fill:#091316;fill:color(display-p3 0.0353 0.0745 0.0863);fill-opacity:1;"/>
<path d="M21.7811 26.0296C21.2892 26.0361 20.9832 25.8719 20.7352 25.5864C20.6384 25.475 20.642 25.3917 20.7838 25.3108C21.3719 24.9778 21.9581 24.6407 22.5391 24.296C22.7138 24.1922 22.7566 24.2978 22.8047 24.4238C23.0955 25.193 22.5081 26.0284 21.7811 26.0296Z" fill="#091316" style="fill:#091316;fill:color(display-p3 0.0353 0.0745 0.0863);fill-opacity:1;"/>
<path d="M11.058 18.9628C10.9472 18.9575 10.7801 18.9839 10.6194 18.9217C10.4054 18.8397 10.2665 18.6304 10.2905 18.4193C10.3169 18.1865 10.4963 18.0101 10.7338 17.9843C10.7666 17.9808 10.8 17.979 10.8334 17.9813C11.0298 17.9948 11.3013 17.8905 11.4068 18.0329C11.5692 18.2522 11.5481 18.5682 11.6067 18.8426C11.6284 18.9446 11.5422 18.9622 11.4619 18.9634C11.3447 18.9639 11.2286 18.9628 11.058 18.9628Z" fill="#091316" style="fill:#091316;fill:color(display-p3 0.0353 0.0745 0.0863);fill-opacity:1;"/>
</g>
<defs>
<clipPath id="clip0_667_192140">
<rect width="22.8811" height="25.6667" fill="white" style="fill:white;fill-opacity:1;" transform="translate(0 0.363281)"/>
</clipPath>
</defs>
</svg>
