<svg width="26" height="25" viewBox="0 0 26 25" fill="none" xmlns="http://www.w3.org/2000/svg">
<mask id="mask0_1411_1460" style="mask-type:luminance" maskUnits="userSpaceOnUse" x="0" y="0" width="26" height="25">
<path d="M0.117188 0H25.1172V25H0.117188V0Z" fill="white" style="fill:white;fill-opacity:1;"/>
</mask>
<g mask="url(#mask0_1411_1460)">
<path d="M14.9727 3.38286C15.836 3.60566 16.6515 3.94771 17.4003 4.39058C17.4003 4.39058 17.7611 4.02969 18.1664 3.62446C18.4606 3.32993 18.8599 3.16475 19.2761 3.16475C19.6918 3.16475 20.0912 3.32993 20.3854 3.62446C20.7423 3.98145 21.1377 4.37681 21.4946 4.73379C21.7892 5.02798 21.9543 5.4273 21.9543 5.84307C21.9543 6.25928 21.7892 6.65854 21.4946 6.95273C21.0894 7.35796 20.7286 7.7188 20.7286 7.7188C21.1714 8.46763 21.5134 9.2831 21.7363 10.1465H22.8177C23.6842 10.1465 24.3867 10.849 24.3867 11.7155V13.2845C24.3867 14.151 23.6842 14.8535 22.8177 14.8535H21.7363C21.5134 15.7168 21.1714 16.5324 20.7286 17.2812C20.7286 17.2812 21.0894 17.642 21.4946 18.0472C21.7892 18.3415 21.9543 18.7407 21.9543 19.1569C21.9543 19.5727 21.7892 19.972 21.4946 20.2662C21.1377 20.6231 20.7423 21.0186 20.3854 21.3755C20.0912 21.6701 19.6918 21.8352 19.2761 21.8352C18.8599 21.8352 18.4606 21.6701 18.1664 21.3755C17.7611 20.9703 17.4003 20.6094 17.4003 20.6094C16.6515 21.0522 15.836 21.3943 14.9727 21.6171V22.6985C14.9727 23.565 14.2701 24.2676 13.4036 24.2676H11.8346C10.9681 24.2676 10.2656 23.565 10.2656 22.6985V21.6171C9.4023 21.3943 8.58677 21.0522 7.83794 20.6094C7.83794 20.6094 7.4771 20.9703 7.07188 21.3755C6.77769 21.6701 6.37837 21.8352 5.96221 21.8352C5.54644 21.8352 5.14707 21.6701 4.85293 21.3755C4.496 21.0186 4.10059 20.6231 3.7436 20.2662C3.44907 19.972 3.28389 19.5727 3.28389 19.1569C3.28389 18.7407 3.44907 18.3415 3.7436 18.0472C4.14883 17.642 4.50972 17.2812 4.50972 17.2812C4.06685 16.5324 3.72485 15.7168 3.502 14.8535H2.42061C1.5541 14.8535 0.851562 14.151 0.851562 13.2845V11.7155C0.851562 10.849 1.5541 10.1465 2.42061 10.1465H3.502C3.72485 9.2831 4.06685 8.46763 4.50972 7.7188C4.50972 7.7188 4.14883 7.35796 3.7436 6.95273C3.44907 6.65854 3.28389 6.25928 3.28389 5.84307C3.28389 5.4273 3.44907 5.02798 3.7436 4.73379C4.10059 4.37681 4.496 3.98145 4.85293 3.62446C5.14707 3.32993 5.54644 3.16475 5.96221 3.16475C6.37837 3.16475 6.77769 3.32993 7.07188 3.62446C7.4771 4.02969 7.83794 4.39058 7.83794 4.39058C8.58677 3.94771 9.4023 3.60566 10.2656 3.38286V2.30142C10.2656 1.43491 10.9681 0.732422 11.8346 0.732422H13.4036C14.2701 0.732422 14.9727 1.43491 14.9727 2.30142V3.38286Z" stroke="white" style="stroke:white;stroke-opacity:1;" stroke-miterlimit="10" stroke-linecap="round" stroke-linejoin="round"/>
<path d="M12.6211 7.79297C15.219 7.79297 17.3281 9.9021 17.3281 12.5C17.3281 15.0979 15.219 17.207 12.6211 17.207C10.0232 17.207 7.91406 15.0979 7.91406 12.5C7.91406 9.9021 10.0232 7.79297 12.6211 7.79297Z" stroke="white" style="stroke:white;stroke-opacity:1;" stroke-miterlimit="10" stroke-linecap="round" stroke-linejoin="round"/>
</g>
</svg>
