<svg width="25" height="25" viewBox="0 0 25 25" fill="none" xmlns="http://www.w3.org/2000/svg">
<path d="M12.3315 0C12.3248 0.00669824 12.3114 0.00669824 12.2913 0.00669824C5.51265 0.00669824 0 5.51935 0 12.298C0 15.0643 0.944452 17.7503 2.6726 19.9139L0.884167 24.0668C0.736806 24.4084 0.897564 24.8036 1.23248 24.9442C1.35304 24.9978 1.48701 25.0112 1.61428 24.9911L8.17185 23.839C9.48471 24.3146 10.8645 24.5557 12.2578 24.549C19.0364 24.549 24.549 19.0364 24.549 12.2578C24.5624 5.49925 19.09 0.00669824 12.3315 0ZM12.2645 23.2161C10.9717 23.2161 9.69235 22.9817 8.47997 22.5262C8.3661 22.4793 8.24553 22.4726 8.12496 22.4927L2.60561 23.4572L4.06583 20.0612C4.1663 19.8268 4.12611 19.5522 3.95866 19.3579C3.16827 18.4403 2.53863 17.3953 2.09655 16.2633C1.60088 14.9974 1.34635 13.651 1.34635 12.2913C1.34635 6.24946 6.26285 1.33965 12.298 1.33965C18.3197 1.32625 23.2094 6.19587 23.2161 12.2176C23.2161 12.231 23.2161 12.2444 23.2161 12.2578C23.2161 18.3063 18.2996 23.2161 12.2645 23.2161Z" fill="white" style="fill:white;fill-opacity:1;"/>
<path d="M11.74 9.82617H8.12295C7.75455 9.82617 7.45312 10.1276 7.45312 10.496C7.45312 10.8644 7.75455 11.1658 8.12295 11.1658H11.74C12.1084 11.1658 12.4098 10.8644 12.4098 10.496C12.4098 10.1276 12.1084 9.82617 11.74 9.82617Z" fill="white" style="fill:white;fill-opacity:1;"/>
<path d="M16.4288 13.1738H8.12295C7.75455 13.1738 7.45312 13.4752 7.45312 13.8437C7.45312 14.2121 7.75455 14.5135 8.12295 14.5135H16.4288C16.7972 14.5135 17.0986 14.2121 17.0986 13.8437C17.0986 13.4752 16.7972 13.1738 16.4288 13.1738Z" fill="white" style="fill:white;fill-opacity:1;"/>
</svg>
