<svg width="20" height="20" viewBox="0 0 20 20" fill="none" xmlns="http://www.w3.org/2000/svg">
<path fill-rule="evenodd" clip-rule="evenodd" d="M10.0006 0C15.5234 0 20.0012 4.47632 20.0012 9.99914C20.0012 15.522 15.5234 20 10.0006 20C4.47772 20 0 15.522 0 9.99914C0 4.47628 4.47745 0 10.0006 0ZM9.16991 5.75514C9.33998 5.92573 9.55851 6.03972 9.79573 6.08157V6.90263H10.2056V6.08157C10.4647 6.03584 10.7011 5.90447 10.8767 5.70851C11.0523 5.51255 11.1571 5.26332 11.1743 5.00073C11.1915 4.73814 11.1201 4.47737 10.9715 4.26019C10.8229 4.043 10.6057 3.88196 10.3547 3.80284C10.1038 3.72372 9.8335 3.73111 9.58721 3.82381C9.34093 3.91652 9.13288 4.08918 8.99637 4.31416C8.85985 4.53913 8.80278 4.8034 8.83428 5.06467C8.86578 5.32593 8.98403 5.56906 9.17011 5.75514H9.16991ZM15.1583 8.87052V12.7692H15.4532C15.6178 12.7686 15.7754 12.7029 15.8917 12.5866C16.008 12.4702 16.0736 12.3126 16.0741 12.1481V9.49165C16.0736 9.32712 16.008 9.16949 15.8917 9.05313C15.7754 8.93677 15.6178 8.87113 15.4532 8.87052H15.1583ZM4.84271 12.7692V8.87052H4.54784C4.38334 8.87119 4.22577 8.93685 4.10948 9.0532C3.99318 9.16955 3.92758 9.32715 3.92699 9.49165V12.1481C3.92757 12.3126 3.99317 12.4702 4.10946 12.5865C4.22576 12.7029 4.38334 12.7685 4.54784 12.7692H4.84271ZM13.53 7.31258H6.471C6.1482 7.31359 5.8389 7.44228 5.61066 7.67055C5.38241 7.89882 5.25375 8.20812 5.25277 8.53093V13.1086C5.25387 13.4314 5.38256 13.7406 5.61078 13.9689C5.839 14.1972 6.14822 14.3259 6.471 14.3271H8.7727V14.3278C8.80859 14.3278 8.84385 14.3373 8.8749 14.3553C8.90595 14.3733 8.93169 14.3992 8.94951 14.4304L9.1719 14.8152C9.17409 14.8186 9.17628 14.822 9.17823 14.8257L10.0008 16.2503L11.0421 14.4467C11.0585 14.4111 11.0847 14.3808 11.1177 14.3596C11.1507 14.3384 11.1891 14.3271 11.2284 14.3271H13.53C13.8528 14.326 14.162 14.1972 14.3903 13.9689C14.6185 13.7406 14.7472 13.4313 14.7483 13.1085V8.53093C14.7473 8.20812 14.6186 7.8988 14.3904 7.67053C14.1621 7.44226 13.8528 7.31358 13.53 7.31258ZM8.42209 12.1551C8.57261 12.4437 8.79934 12.6854 9.07763 12.8541C9.35592 13.0228 9.67513 13.112 10.0006 13.112C10.326 13.112 10.6452 13.0228 10.9235 12.8541C11.2018 12.6854 11.4285 12.4437 11.579 12.1551C11.6041 12.1072 11.6091 12.0512 11.5929 11.9996C11.5767 11.948 11.5407 11.9049 11.4927 11.8798C11.4447 11.8548 11.3888 11.8498 11.3372 11.866C11.2856 11.8822 11.2425 11.9182 11.2174 11.9662C11.1013 12.1886 10.9265 12.3749 10.712 12.5049C10.4975 12.635 10.2514 12.7037 10.0005 12.7037C9.74968 12.7037 9.50361 12.635 9.28908 12.5049C9.07454 12.3749 8.89975 12.1886 8.78368 11.9662C8.77134 11.9423 8.75442 11.9211 8.73387 11.9038C8.71332 11.8865 8.68956 11.8734 8.66394 11.8653C8.63833 11.8572 8.61137 11.8543 8.58461 11.8566C8.55785 11.859 8.53182 11.8666 8.50801 11.8791C8.48421 11.8915 8.46309 11.9085 8.44588 11.9292C8.42868 11.9498 8.41571 11.9736 8.40773 11.9993C8.39976 12.0249 8.39693 12.0519 8.39941 12.0786C8.40188 12.1054 8.40962 12.1314 8.42217 12.1551H8.42209ZM12.4987 9.1276C12.2764 9.12767 12.0611 9.2048 11.8893 9.34585C11.7175 9.4869 11.6 9.68314 11.5567 9.90115C11.5134 10.1192 11.547 10.3454 11.6518 10.5414C11.7566 10.7374 11.9262 10.891 12.1315 10.976C12.3369 11.061 12.5654 11.0722 12.7781 11.0076C12.9907 10.943 13.1745 10.8067 13.2979 10.6219C13.4213 10.4371 13.4769 10.2152 13.4551 9.99397C13.4332 9.77278 13.3354 9.56601 13.1782 9.40887C13.0891 9.3195 12.9832 9.24864 12.8665 9.20037C12.7499 9.1521 12.6249 9.12737 12.4987 9.1276ZM12.8884 9.69865C12.7983 9.60843 12.6796 9.55227 12.5527 9.53973C12.4258 9.52719 12.2984 9.55905 12.1923 9.62989C12.0863 9.70073 12.008 9.80616 11.971 9.92821C11.9339 10.0503 11.9404 10.1814 11.9892 10.2992C12.0379 10.4171 12.1261 10.5144 12.2386 10.5745C12.3511 10.6346 12.4809 10.6539 12.606 10.629C12.7311 10.6042 12.8437 10.5367 12.9246 10.4381C13.0056 10.3395 13.0498 10.2159 13.0498 10.0883C13.0499 10.016 13.0357 9.94427 13.008 9.8774C12.9803 9.81053 12.9397 9.74979 12.8884 9.69865ZM7.50231 9.1276C7.27996 9.12756 7.06448 9.20463 6.89258 9.34566C6.72068 9.4867 6.60301 9.68298 6.55962 9.90105C6.51622 10.1191 6.54979 10.3455 6.65461 10.5416C6.75942 10.7377 6.92899 10.8914 7.13442 10.9765C7.33985 11.0615 7.56843 11.0727 7.7812 11.0082C7.99397 10.9436 8.17776 10.8073 8.30126 10.6224C8.42476 10.4375 8.48032 10.2155 8.45848 9.99418C8.43663 9.7729 8.33873 9.56605 8.18146 9.40887C8.09236 9.31956 7.9865 9.24874 7.86995 9.20047C7.7534 9.1522 7.62846 9.12744 7.50231 9.1276ZM7.89195 9.69865C7.80178 9.60843 7.68313 9.55227 7.55619 9.53973C7.42926 9.52719 7.30191 9.55905 7.19584 9.62989C7.08977 9.70073 7.01154 9.80616 6.97449 9.92821C6.93744 10.0503 6.94386 10.1814 6.99265 10.2992C7.04144 10.4171 7.12959 10.5144 7.24208 10.5745C7.35456 10.6346 7.48442 10.6539 7.60952 10.629C7.73462 10.6042 7.84722 10.5367 7.92814 10.4381C8.00906 10.3395 8.05329 10.2159 8.05328 10.0883C8.05334 10.016 8.03911 9.9443 8.01144 9.87745C7.98376 9.81059 7.94317 9.74984 7.89199 9.69869L7.89195 9.69865Z" fill="url(#paint0_linear_6922_395113)" style=""/>
<defs>
<linearGradient id="paint0_linear_6922_395113" x1="0.242983" y1="10.2412" x2="19.7562" y2="9.75885" gradientUnits="userSpaceOnUse">
<stop stop-color="#58C8DD" style="stop-color:#58C8DD;stop-color:color(display-p3 0.3451 0.7843 0.8667);stop-opacity:1;"/>
<stop offset="1" stop-color="#53A7DD" style="stop-color:#53A7DD;stop-color:color(display-p3 0.3255 0.6549 0.8667);stop-opacity:1;"/>
</linearGradient>
</defs>
</svg>
