<svg width="27" height="27" viewBox="0 0 27 27" fill="none" xmlns="http://www.w3.org/2000/svg">
<path d="M26 18.1568V24.4909C26 25.3244 25.3244 26 24.4909 26H2.50905C1.6756 26 1 25.3244 1 24.4909V2.50905C1 1.6756 1.6756 1 2.50905 1H24.4909C25.3244 1 26 1.6756 26 2.50905V16.3962" stroke="#091316" style="stroke:#091316;stroke:color(display-p3 0.0353 0.0745 0.0863);stroke-opacity:1;" stroke-width="0.8" stroke-miterlimit="10" stroke-linecap="round" stroke-linejoin="round"/>
<path d="M7.21875 5.52734H26.0012" stroke="#091316" style="stroke:#091316;stroke:color(display-p3 0.0353 0.0745 0.0863);stroke-opacity:1;" stroke-width="0.8" stroke-miterlimit="10" stroke-linecap="round" stroke-linejoin="round"/>
<path d="M1 5.52734H5.45694" stroke="#091316" style="stroke:#091316;stroke:color(display-p3 0.0353 0.0745 0.0863);stroke-opacity:1;" stroke-width="0.8" stroke-miterlimit="10" stroke-linecap="round" stroke-linejoin="round"/>
<path d="M3.26234 4.01687C3.67905 4.01687 4.01687 3.67905 4.01687 3.26234C4.01687 2.84563 3.67905 2.50781 3.26234 2.50781C2.84563 2.50781 2.50781 2.84563 2.50781 3.26234C2.50781 3.67905 2.84563 4.01687 3.26234 4.01687Z" stroke="#091316" style="stroke:#091316;stroke:color(display-p3 0.0353 0.0745 0.0863);stroke-opacity:1;" stroke-width="0.8" stroke-miterlimit="10" stroke-linecap="round" stroke-linejoin="round"/>
<path d="M6.27796 4.01687C6.69468 4.01687 7.03249 3.67905 7.03249 3.26234C7.03249 2.84563 6.69468 2.50781 6.27796 2.50781C5.86125 2.50781 5.52344 2.84563 5.52344 3.26234C5.52344 3.67905 5.86125 4.01687 6.27796 4.01687Z" stroke="#091316" style="stroke:#091316;stroke:color(display-p3 0.0353 0.0745 0.0863);stroke-opacity:1;" stroke-width="0.8" stroke-miterlimit="10" stroke-linecap="round" stroke-linejoin="round"/>
<path d="M9.3014 4.01687C9.71812 4.01687 10.0559 3.67905 10.0559 3.26234C10.0559 2.84563 9.71812 2.50781 9.3014 2.50781C8.88469 2.50781 8.54688 2.84563 8.54688 3.26234C8.54688 3.67905 8.88469 4.01687 9.3014 4.01687Z" stroke="#091316" style="stroke:#091316;stroke:color(display-p3 0.0353 0.0745 0.0863);stroke-opacity:1;" stroke-width="0.8" stroke-miterlimit="10" stroke-linecap="round" stroke-linejoin="round"/>
<path d="M9.21094 10.3203H22.9815" stroke="#0A66C2" style="stroke:#0A66C2;stroke:color(display-p3 0.0392 0.4000 0.7608);stroke-opacity:1;" stroke-width="0.8" stroke-miterlimit="10" stroke-linecap="round" stroke-linejoin="round"/>
<path d="M9.21094 11.8281H19.2089" stroke="#0A66C2" style="stroke:#0A66C2;stroke:color(display-p3 0.0392 0.4000 0.7608);stroke-opacity:1;" stroke-width="0.8" stroke-miterlimit="10" stroke-linecap="round" stroke-linejoin="round"/>
<path d="M6.20904 13.0167H4.51864C4.24083 13.0167 4.01562 12.7915 4.01562 12.5137V10.8233C4.01562 10.5455 4.24083 10.3203 4.51864 10.3203H6.20904C6.48685 10.3203 6.71205 10.5455 6.71205 10.8233V12.5137C6.71205 12.7915 6.4868 13.0167 6.20904 13.0167Z" stroke="#0A66C2" style="stroke:#0A66C2;stroke:color(display-p3 0.0392 0.4000 0.7608);stroke-opacity:1;" stroke-width="0.8" stroke-miterlimit="10" stroke-linecap="round" stroke-linejoin="round"/>
<path d="M9.21094 14.8477H22.9815" stroke="#0A66C2" style="stroke:#0A66C2;stroke:color(display-p3 0.0392 0.4000 0.7608);stroke-opacity:1;" stroke-width="0.8" stroke-miterlimit="10" stroke-linecap="round" stroke-linejoin="round"/>
<path d="M9.21094 16.3555H19.2089" stroke="#0A66C2" style="stroke:#0A66C2;stroke:color(display-p3 0.0392 0.4000 0.7608);stroke-opacity:1;" stroke-width="0.8" stroke-miterlimit="10" stroke-linecap="round" stroke-linejoin="round"/>
<path d="M6.20904 17.5441H4.51864C4.24083 17.5441 4.01562 17.3189 4.01562 17.0411V15.3507C4.01562 15.0729 4.24083 14.8477 4.51864 14.8477H6.20904C6.48685 14.8477 6.71205 15.0729 6.71205 15.3507V17.0411C6.71205 17.3189 6.4868 17.5441 6.20904 17.5441Z" stroke="#0A66C2" style="stroke:#0A66C2;stroke:color(display-p3 0.0392 0.4000 0.7608);stroke-opacity:1;" stroke-width="0.8" stroke-miterlimit="10" stroke-linecap="round" stroke-linejoin="round"/>
<path d="M9.21094 19.375H22.9815" stroke="#0A66C2" style="stroke:#0A66C2;stroke:color(display-p3 0.0392 0.4000 0.7608);stroke-opacity:1;" stroke-width="0.8" stroke-miterlimit="10" stroke-linecap="round" stroke-linejoin="round"/>
<path d="M9.21094 20.8828H19.2089" stroke="#0A66C2" style="stroke:#0A66C2;stroke:color(display-p3 0.0392 0.4000 0.7608);stroke-opacity:1;" stroke-width="0.8" stroke-miterlimit="10" stroke-linecap="round" stroke-linejoin="round"/>
<path d="M6.20904 22.0714H4.51864C4.24083 22.0714 4.01562 21.8462 4.01562 21.5684V19.878C4.01562 19.6002 4.24083 19.375 4.51864 19.375H6.20904C6.48685 19.375 6.71205 19.6002 6.71205 19.878V21.5684C6.71205 21.8462 6.4868 22.0714 6.20904 22.0714Z" stroke="#0A66C2" style="stroke:#0A66C2;stroke:color(display-p3 0.0392 0.4000 0.7608);stroke-opacity:1;" stroke-width="0.8" stroke-miterlimit="10" stroke-linecap="round" stroke-linejoin="round"/>
</svg>
