<svg width="25" height="25" viewBox="0 0 25 25" fill="none" xmlns="http://www.w3.org/2000/svg">
<path d="M22.6562 0H2.34375C1.05133 0 0 1.05133 0 2.34375V11.9919C0 12.4237 0.349805 12.7731 0.78125 12.7731C1.2127 12.7731 1.5625 12.4237 1.5625 11.9919V2.34375C1.5625 1.91269 1.91307 1.5625 2.34375 1.5625H22.6562C23.0869 1.5625 23.4375 1.91269 23.4375 2.34375V22.6562C23.4375 23.0873 23.0869 23.4375 22.6562 23.4375H13.0077C12.5763 23.4375 12.2265 23.7869 12.2265 24.2188C12.2265 24.6506 12.5763 25 13.0077 25H22.6562C23.9487 25 25 23.9487 25 22.6562V2.34375C25 1.05133 23.9487 0 22.6562 0Z" fill="#002B55" style="fill:#002B55;fill:color(display-p3 0.0000 0.1686 0.3333);fill-opacity:1;"/>
<path d="M8.59375 14.0625H2.34375C1.05133 14.0625 0 15.1138 0 16.4062V22.6562C0 23.9487 1.05133 25 2.34375 25H8.59375C9.88617 25 10.9375 23.9487 10.9375 22.6562V16.4062C10.9375 15.1138 9.88617 14.0625 8.59375 14.0625ZM9.375 22.6562C9.375 23.0873 9.02443 23.4375 8.59375 23.4375H2.34375C1.91307 23.4375 1.5625 23.0873 1.5625 22.6562V16.4062C1.5625 15.9752 1.91307 15.625 2.34375 15.625H8.59375C9.02443 15.625 9.375 15.9752 9.375 16.4062V22.6562Z" fill="#002B55" style="fill:#002B55;fill:color(display-p3 0.0000 0.1686 0.3333);fill-opacity:1;"/>
<path d="M13.0524 13.0524L17.9688 8.13598V9.375C17.9688 9.80682 18.3186 10.1562 18.75 10.1562C19.1814 10.1562 19.5312 9.80682 19.5312 9.375V6.25C19.5312 5.8315 19.175 5.46875 18.75 5.46875H15.625C15.1936 5.46875 14.8438 5.81818 14.8438 6.25C14.8438 6.68182 15.1936 7.03125 15.625 7.03125H16.864L11.9476 11.9476C11.6425 12.2528 11.6425 12.7472 11.9476 13.0524C12.2426 13.3473 12.7479 13.3569 13.0524 13.0524Z" fill="#002B55" style="fill:#002B55;fill:color(display-p3 0.0000 0.1686 0.3333);fill-opacity:1;"/>
</svg>
