<svg width="37" height="36" viewBox="0 0 37 36" fill="none" xmlns="http://www.w3.org/2000/svg">
<g clip-path="url(#clip0_6922_403665)">
<path d="M18.3182 6.67053C16.6547 7.84046 14.7694 9.16649 13.7593 11.3603C12.0047 15.1878 17.3496 19.3628 17.578 19.5386C17.6311 19.5795 17.6947 19.5999 17.758 19.5999C17.8253 19.5999 17.8927 19.5769 17.9474 19.531C18.0535 19.4423 18.0836 19.2915 18.0199 19.1688C18.0005 19.1315 16.082 15.4049 16.1533 12.7315C16.1785 11.8003 17.4816 10.744 18.8611 9.6257C20.1247 8.60139 21.5569 7.44045 22.3949 6.08236C24.2346 3.09294 22.1899 0.153448 22.169 0.124057C22.0878 0.0100096 21.9379 -0.031264 21.8097 0.0249159C21.6817 0.0814473 21.6107 0.219893 21.64 0.356792C21.6441 0.376269 22.0417 2.32014 20.9353 4.32285C20.4795 5.15044 19.478 5.85483 18.3182 6.67053Z" fill="#DB380E" style="fill:#DB380E;fill:color(display-p3 0.8588 0.2196 0.0549);fill-opacity:1;"/>
<path d="M25.3272 7.98784C25.4446 7.89946 25.479 7.73823 25.4081 7.60956C25.337 7.48089 25.1823 7.42414 25.0449 7.47632C24.7623 7.58375 18.125 10.1422 18.125 13.2335C18.125 15.3645 19.0353 16.4902 19.6999 17.3123C19.9607 17.6348 20.1857 17.9132 20.2599 18.1509C20.4687 18.836 19.974 20.0742 19.766 20.4935C19.706 20.614 19.7354 20.7602 19.8374 20.8482C19.8925 20.8958 19.9614 20.92 20.0303 20.92C20.0889 20.92 20.1478 20.9025 20.1987 20.8671C20.3129 20.7878 22.9878 18.8965 22.5081 16.6179C22.3294 15.7518 21.9037 15.119 21.5282 14.5605C20.9464 13.6953 20.5263 13.0704 21.1637 11.9161C21.9106 10.5698 25.293 8.01344 25.3272 7.98784Z" fill="#DB380E" style="fill:#DB380E;fill:color(display-p3 0.8588 0.2196 0.0549);fill-opacity:1;"/>
<path d="M8.05038 20.9716C7.93662 21.3123 7.99033 21.6502 8.20556 21.9492C8.92507 22.9481 11.4737 23.4981 15.3822 23.4981C15.3825 23.4981 15.3826 23.4981 15.3827 23.4981C15.9123 23.4981 16.4715 23.4877 17.0442 23.4672C23.2932 23.2435 25.611 21.2967 25.7066 21.2139C25.8108 21.1237 25.8387 20.9735 25.7739 20.852C25.7091 20.7306 25.5694 20.6696 25.4358 20.7063C23.235 21.3072 19.1254 21.5206 16.2749 21.5206C13.0853 21.5206 11.461 21.2908 11.0633 21.1211C11.2673 20.8409 12.5259 20.3406 14.0855 20.0338C14.2346 20.0045 14.337 19.8669 14.3223 19.7157C14.3075 19.5645 14.1805 19.4492 14.0286 19.4492C13.1144 19.4492 8.52963 19.5226 8.05038 20.9716Z" fill="#73A1FB" style="fill:#73A1FB;fill:color(display-p3 0.4510 0.6314 0.9843);fill-opacity:1;"/>
<path d="M28.9649 18.9648C27.676 18.9648 26.4537 19.6109 26.4023 19.6382C26.2831 19.7021 26.2226 19.8388 26.2553 19.9701C26.2881 20.1012 26.4061 20.1934 26.5413 20.1936C26.5686 20.1936 29.2906 20.2158 29.5371 21.7711C29.7555 23.1128 26.9617 25.2867 25.8667 26.0112C25.7484 26.0895 25.7025 26.2407 25.7574 26.3715C25.8042 26.4828 25.9125 26.5524 26.0294 26.5524C26.0498 26.5524 26.0704 26.5503 26.091 26.5459C26.3509 26.4903 32.4477 25.1467 31.803 21.597C31.4098 19.4215 30.0425 18.9648 28.9649 18.9648Z" fill="#73A1FB" style="fill:#73A1FB;fill:color(display-p3 0.4510 0.6314 0.9843);fill-opacity:1;"/>
<path d="M24.7764 25.5765C24.7977 25.4628 24.7504 25.3472 24.6557 25.2807L23.1938 24.2568C23.1225 24.2068 23.0325 24.1912 22.9488 24.2133C22.9335 24.2172 21.4048 24.6191 19.1853 24.8655C18.3044 24.9643 17.3178 25.0165 16.3319 25.0165C14.1129 25.0165 12.6621 24.7558 12.4508 24.5645C12.4228 24.5108 12.4317 24.4864 12.4367 24.4728C12.4751 24.3661 12.6808 24.2393 12.8134 24.189C12.9599 24.1348 13.0388 23.9758 12.9933 23.8264C12.9479 23.6769 12.7938 23.5889 12.6418 23.6254C11.1753 23.9793 10.4583 24.4742 10.5105 25.0962C10.6031 26.1992 13.1577 26.7652 15.3174 26.9149C15.628 26.9361 15.9639 26.9469 16.3155 26.9469C16.3157 26.9469 16.3158 26.9469 16.3161 26.9469C19.9072 26.9469 24.511 25.8201 24.557 25.8086C24.6694 25.7812 24.7551 25.6904 24.7764 25.5765Z" fill="#73A1FB" style="fill:#73A1FB;fill:color(display-p3 0.4510 0.6314 0.9843);fill-opacity:1;"/>
<path d="M13.7596 27.9445C13.8704 27.8725 13.9194 27.7356 13.8801 27.6095C13.841 27.4834 13.7231 27.4006 13.5906 27.4024C13.3941 27.4076 11.6676 27.4855 11.5467 28.5847C11.5102 28.9132 11.6043 29.2133 11.8265 29.4767C12.4464 30.2113 14.1197 30.6479 16.9411 30.8115C17.2749 30.8315 17.614 30.8416 17.949 30.8416C21.536 30.8416 23.9518 29.7185 24.053 29.6707C24.1511 29.6243 24.2158 29.5279 24.2215 29.4196C24.2273 29.3113 24.1732 29.2086 24.0807 29.152L22.2332 28.0241C22.1691 27.9851 22.0924 27.9721 22.0193 27.9871C22.0076 27.9896 20.8346 28.2328 19.0643 28.4732C18.7293 28.5187 18.3098 28.5419 17.8177 28.5419C16.0493 28.5419 14.0824 28.2529 13.7051 28.0637C13.6997 28.0284 13.7066 27.9836 13.7596 27.9445Z" fill="#73A1FB" style="fill:#73A1FB;fill:color(display-p3 0.4510 0.6314 0.9843);fill-opacity:1;"/>
<path d="M16.2765 34.2337C24.4929 34.2267 28.9027 32.7656 29.7522 31.8461C30.0529 31.5208 30.0854 31.2129 30.0599 31.0117C29.9967 30.5167 29.5458 30.2136 29.4947 30.1807C29.3714 30.1014 29.2059 30.1222 29.1097 30.2331C29.0137 30.3441 29.0115 30.5062 29.1078 30.6171C29.1596 30.6838 29.1896 30.7953 29.038 30.947C28.6984 31.2642 25.2731 32.227 19.57 32.5162C18.7887 32.5568 17.9693 32.5775 17.1346 32.5776C12.0283 32.5776 8.29126 31.8782 7.80069 31.4706C7.98976 31.1989 9.31164 30.7649 10.7174 30.5194C10.8758 30.4917 10.9828 30.3425 10.9583 30.1835C10.9338 30.0247 10.7873 29.9154 10.6272 29.9361C10.5875 29.9415 10.453 29.9495 10.2971 29.9591C7.97767 30.1007 5.29727 30.4164 5.15742 31.6115C5.11495 31.9756 5.22317 32.3062 5.47917 32.5939C6.10559 33.2978 7.90609 34.2336 16.2763 34.2336C16.2764 34.2337 16.2764 34.2337 16.2765 34.2337Z" fill="#73A1FB" style="fill:#73A1FB;fill:color(display-p3 0.4510 0.6314 0.9843);fill-opacity:1;"/>
<path d="M31.3642 32.1015C31.248 32.0478 31.1108 32.075 31.0242 32.1685C31.0121 32.1815 29.7768 33.4732 26.0626 34.2317C24.6407 34.5166 21.9716 34.6611 18.1295 34.6611C14.2802 34.6611 10.6174 34.5097 10.5809 34.5081C10.4279 34.5007 10.2971 34.6119 10.2763 34.7625C10.2554 34.913 10.3524 35.0549 10.5001 35.09C10.5382 35.099 14.3768 35.9983 19.6253 35.9983C22.1425 35.9983 24.5921 35.7939 26.906 35.3905C31.2205 34.6341 31.5225 32.4948 31.5333 32.4041C31.5483 32.2773 31.4801 32.1553 31.3642 32.1015Z" fill="#73A1FB" style="fill:#73A1FB;fill:color(display-p3 0.4510 0.6314 0.9843);fill-opacity:1;"/>
</g>
<defs>
<clipPath id="clip0_6922_403665">
<rect width="36" height="36" fill="white" style="fill:white;fill-opacity:1;" transform="translate(0.5)"/>
</clipPath>
</defs>
</svg>
