<svg width="27" height="25" viewBox="0 0 27 25" fill="none" xmlns="http://www.w3.org/2000/svg">
<path d="M17.4464 16.75H9.55328C9.51341 16.75 9.47393 16.7578 9.4371 16.7731C9.40026 16.7883 9.36679 16.8107 9.3386 16.8389C9.31041 16.8671 9.28805 16.9006 9.2728 16.9374C9.25755 16.9742 9.2497 17.0137 9.24971 17.0536V20.6964C9.2497 20.7363 9.25755 20.7758 9.2728 20.8126C9.28805 20.8494 9.31041 20.8829 9.3386 20.9111C9.36679 20.9393 9.40026 20.9617 9.4371 20.9769C9.47393 20.9922 9.51341 21 9.55328 21H17.4464C17.4863 21 17.5257 20.9922 17.5626 20.9769C17.5994 20.9617 17.6329 20.9393 17.6611 20.9111C17.6893 20.8829 17.7116 20.8494 17.7269 20.8126C17.7421 20.7758 17.75 20.7363 17.75 20.6964V17.0536C17.75 17.0137 17.7421 16.9742 17.7269 16.9374C17.7116 16.9006 17.6893 16.8671 17.6611 16.8389C17.6329 16.8107 17.5994 16.7883 17.5626 16.7731C17.5257 16.7578 17.4863 16.75 17.4464 16.75ZM17.1428 20.3929H9.85685V17.3571H17.1428V20.3929ZM17.4467 10.375H9.55328C9.51341 10.375 9.47393 10.3828 9.4371 10.3981C9.40026 10.4133 9.36679 10.4357 9.3386 10.4639C9.31041 10.4921 9.28805 10.5256 9.2728 10.5624C9.25755 10.5992 9.2497 10.6387 9.24971 10.6786V14.3214C9.2497 14.3613 9.25755 14.4008 9.2728 14.4376C9.28805 14.4744 9.31041 14.5079 9.3386 14.5361C9.36679 14.5643 9.40026 14.5867 9.4371 14.6019C9.47393 14.6172 9.51341 14.625 9.55328 14.625H17.4467C17.4866 14.625 17.526 14.6172 17.5629 14.6019C17.5997 14.5867 17.6332 14.5643 17.6614 14.5361C17.6896 14.5079 17.7119 14.4744 17.7272 14.4376C17.7424 14.4008 17.7503 14.3613 17.7503 14.3214V10.6786C17.7503 10.6387 17.7424 10.5992 17.7272 10.5624C17.7119 10.5256 17.6896 10.4921 17.6614 10.4639C17.6332 10.4357 17.5997 10.4133 17.5629 10.3981C17.526 10.3828 17.4866 10.375 17.4467 10.375ZM17.1431 14.0179H9.85685V10.9821H17.1431V14.0179ZM17.4467 4H9.55328C9.51341 3.99999 9.47393 4.00783 9.4371 4.02309C9.40026 4.03834 9.36679 4.0607 9.3386 4.08889C9.31041 4.11708 9.28805 4.15055 9.2728 4.18739C9.25755 4.22422 9.2497 4.2637 9.24971 4.30357V7.94643C9.2497 7.9863 9.25755 8.02578 9.2728 8.06261C9.28805 8.09945 9.31041 8.13292 9.3386 8.16111C9.36679 8.1893 9.40026 8.21166 9.4371 8.22691C9.47393 8.24217 9.51341 8.25001 9.55328 8.25H17.4467C17.4866 8.25001 17.526 8.24217 17.5629 8.22691C17.5997 8.21166 17.6332 8.1893 17.6614 8.16111C17.6896 8.13292 17.7119 8.09945 17.7272 8.06261C17.7424 8.02578 17.7503 7.9863 17.7503 7.94643V4.30357C17.7503 4.2637 17.7424 4.22422 17.7272 4.18739C17.7119 4.15055 17.6896 4.11708 17.6614 4.08889C17.6332 4.0607 17.5997 4.03834 17.5629 4.02309C17.526 4.00783 17.4866 3.99999 17.4467 4ZM17.1431 7.64286H9.85685V4.60714H17.1431V7.64286ZM10.4643 12.5C10.4643 12.4601 10.4721 12.4207 10.4874 12.3838C10.5026 12.347 10.525 12.3135 10.5532 12.2853C10.5814 12.2571 10.6148 12.2348 10.6517 12.2195C10.6885 12.2043 10.728 12.1964 10.7679 12.1964H16.2321C16.3126 12.1964 16.3898 12.2284 16.4468 12.2853C16.5037 12.3423 16.5357 12.4195 16.5357 12.5C16.5357 12.5805 16.5037 12.6577 16.4468 12.7147C16.3898 12.7716 16.3126 12.8036 16.2321 12.8036H10.7679C10.728 12.8036 10.6885 12.7957 10.6517 12.7805C10.6148 12.7652 10.5814 12.7429 10.5532 12.7147C10.525 12.6865 10.5026 12.653 10.4874 12.6162C10.4721 12.5793 10.4643 12.5399 10.4643 12.5ZM10.4643 18.875C10.4643 18.8351 10.4721 18.7957 10.4874 18.7588C10.5026 18.722 10.525 18.6885 10.5532 18.6603C10.5814 18.6321 10.6148 18.6098 10.6517 18.5945C10.6885 18.5793 10.728 18.5714 10.7679 18.5714H16.2321C16.3126 18.5714 16.3898 18.6034 16.4468 18.6603C16.5037 18.7173 16.5357 18.7945 16.5357 18.875C16.5357 18.9555 16.5037 19.0327 16.4468 19.0897C16.3898 19.1466 16.3126 19.1786 16.2321 19.1786H10.7679C10.728 19.1786 10.6885 19.1707 10.6517 19.1555C10.6148 19.1402 10.5814 19.1179 10.5532 19.0897C10.525 19.0615 10.5026 19.028 10.4874 18.9912C10.4721 18.9543 10.4643 18.9149 10.4643 18.875ZM10.4643 6.125C10.4643 6.08513 10.4721 6.04565 10.4874 6.00882C10.5026 5.97198 10.525 5.93851 10.5532 5.91032C10.5814 5.88213 10.6148 5.85977 10.6517 5.84452C10.6885 5.82926 10.728 5.82142 10.7679 5.82143H16.2321C16.3126 5.82143 16.3898 5.85341 16.4468 5.91034C16.5037 5.96727 16.5357 6.04449 16.5357 6.125C16.5357 6.20551 16.5037 6.28273 16.4468 6.33966C16.3898 6.39659 16.3126 6.42857 16.2321 6.42857H10.7679C10.728 6.42858 10.6885 6.42074 10.6517 6.40548C10.6148 6.39023 10.5814 6.36787 10.5532 6.33968C10.525 6.31149 10.5026 6.27802 10.4874 6.24118C10.4721 6.20435 10.4643 6.16487 10.4643 6.125ZM21.9703 19.002C21.9455 18.9504 21.9067 18.9068 21.8582 18.8762C21.8098 18.8457 21.7537 18.8295 21.6964 18.8295H21.3655V12.5C21.3655 12.4601 21.3577 12.4207 21.3424 12.3838C21.3272 12.347 21.3048 12.3135 21.2766 12.2853C21.2484 12.2571 21.215 12.2348 21.1781 12.2195C21.1413 12.2043 21.1018 12.1964 21.062 12.1964H19.8112C19.7713 12.1964 19.7319 12.2043 19.695 12.2195C19.6582 12.2348 19.6247 12.2571 19.5965 12.2853C19.5683 12.3135 19.546 12.347 19.5307 12.3838C19.5155 12.4207 19.5076 12.4601 19.5076 12.5V18.8295H19.1768C19.1195 18.8295 19.0634 18.8456 19.0149 18.8762C18.9664 18.9067 18.9276 18.9503 18.9029 19.002C18.8782 19.0537 18.8686 19.1113 18.8753 19.1682C18.8819 19.2251 18.9045 19.279 18.9405 19.3235L20.2002 20.8869C20.2286 20.9222 20.2646 20.9507 20.3055 20.9703C20.3464 20.9898 20.3911 21 20.4364 21C20.4818 21 20.5265 20.9898 20.5674 20.9703C20.6083 20.9507 20.6443 20.9222 20.6727 20.8869L21.9326 19.3235C21.9686 19.279 21.9913 19.2251 21.9979 19.1682C22.0046 19.1113 21.995 19.0537 21.9703 19.002ZM20.4364 20.2126L19.8112 19.4366C19.8511 19.4366 19.8906 19.4288 19.9274 19.4136C19.9642 19.3983 19.9977 19.3759 20.0259 19.3477C20.0541 19.3196 20.0764 19.2861 20.0917 19.2492C20.1069 19.2124 20.1148 19.1729 20.1148 19.1331V12.8036H20.7584V19.1331C20.7584 19.1729 20.7662 19.2124 20.7815 19.2492C20.7967 19.2861 20.8191 19.3196 20.8473 19.3477C20.8755 19.3759 20.9089 19.3983 20.9458 19.4136C20.9826 19.4288 21.0221 19.4366 21.0619 19.4366L20.4364 20.2126ZM6.79982 4.1131C6.77139 4.07779 6.73541 4.0493 6.69452 4.02973C6.65363 4.01016 6.60887 4 6.56354 4C6.51821 4 6.47346 4.01016 6.43257 4.02973C6.39168 4.0493 6.3557 4.07779 6.32727 4.1131L5.06734 5.67646C5.03135 5.72104 5.00872 5.77489 5.00206 5.83178C4.9954 5.88868 5.00498 5.9463 5.02969 5.99798C5.05441 6.04967 5.09325 6.09329 5.14173 6.12382C5.1902 6.15435 5.24632 6.17054 5.30361 6.17051H5.63445V12.5C5.63444 12.5399 5.64229 12.5793 5.65754 12.6162C5.67279 12.653 5.69515 12.6865 5.72334 12.7147C5.75153 12.7429 5.785 12.7652 5.82184 12.7805C5.85868 12.7957 5.89815 12.8036 5.93802 12.8036H7.18878C7.22865 12.8036 7.26813 12.7957 7.30496 12.7805C7.3418 12.7652 7.37527 12.7429 7.40346 12.7147C7.43165 12.6865 7.45401 12.653 7.46926 12.6162C7.48451 12.5793 7.49236 12.5399 7.49235 12.5V6.17051H7.82318C7.88046 6.17054 7.93659 6.15435 7.98506 6.12382C8.03354 6.0933 8.07238 6.04967 8.0971 5.99799C8.12181 5.94631 8.13139 5.88868 8.12473 5.83178C8.11807 5.77489 8.09544 5.72104 8.05946 5.67646L6.79982 4.1131ZM6.88521 5.86693V12.1964H6.24159V5.86693C6.2416 5.82707 6.23376 5.78759 6.21851 5.75075C6.20325 5.71391 6.18089 5.68044 6.1527 5.65225C6.12451 5.62406 6.09104 5.6017 6.05421 5.58645C6.01737 5.5712 5.97789 5.56335 5.93802 5.56336L6.56354 4.78739L7.18878 5.56336C7.14891 5.56335 7.10943 5.5712 7.0726 5.58645C7.03576 5.6017 7.00229 5.62406 6.9741 5.65225C6.94591 5.68044 6.92355 5.71391 6.9083 5.75075C6.89304 5.78759 6.8852 5.82707 6.88521 5.86693Z" fill="#0A66C2" style="fill:#0A66C2;fill:color(display-p3 0.0392 0.4000 0.7608);fill-opacity:1;"/>
<path d="M0.5 2C0.5 1.17157 1.17157 0.5 2 0.5H24.087C24.9154 0.5 25.587 1.17157 25.587 2V23C25.587 23.8284 24.9154 24.5 24.087 24.5H2C1.17157 24.5 0.5 23.8284 0.5 23V2Z" stroke="#091316" style="stroke:#091316;stroke:color(display-p3 0.0353 0.0745 0.0863);stroke-opacity:1;"/>
</svg>
