<svg width="25" height="25" viewBox="0 0 25 25" fill="none" xmlns="http://www.w3.org/2000/svg">
<g clip-path="url(#clip0_1590_58701)">
<path d="M12.3491 0.000204355C11.3294 0.00494068 10.3557 0.0919036 9.499 0.243515C6.97513 0.689413 6.51688 1.62267 6.51688 3.34381V5.6169H12.4811V6.37457H6.51688H4.27855C2.5452 6.37457 1.02737 7.41642 0.552668 9.3984C0.00506029 11.6702 -0.0192073 13.0879 0.552668 15.46C0.976642 17.2256 1.98909 18.4837 3.72244 18.4837H5.77308V15.7588C5.77308 13.7902 7.47635 12.0538 9.499 12.0538H15.4563C17.1146 12.0538 18.4384 10.6884 18.4384 9.02301V3.34381C18.4384 1.7275 17.0748 0.51329 15.4563 0.243515C14.4317 0.0729583 13.3686 -0.00453197 12.3491 0.000204355ZM9.12361 1.82843C9.73968 1.82843 10.2428 2.33976 10.2428 2.96842C10.2428 3.59488 9.73968 4.10147 9.12361 4.10147C8.50535 4.10147 8.00447 3.59488 8.00447 2.96842C8.00447 2.33971 8.50535 1.82843 9.12361 1.82843Z" fill="url(#paint0_linear_1590_58701)" style=""/>
<path d="M19.1809 6.3751V9.02354C19.1809 11.0769 17.4401 12.805 15.455 12.805H9.49775C7.86597 12.805 6.51562 14.2016 6.51562 15.8358V21.515C6.51562 23.1313 7.92114 24.082 9.49775 24.5458C11.3857 25.1009 13.1961 25.2012 15.455 24.5458C16.9565 24.111 18.4371 23.2361 18.4371 21.515V19.2419H12.4798V18.4842H18.4371H21.4192C23.1526 18.4842 23.7985 17.2751 24.4014 15.4604C25.0241 13.5921 24.9976 11.7955 24.4014 9.39883C23.973 7.67324 23.1548 6.375 21.4192 6.375H19.1809V6.3751ZM15.8304 20.7573C16.4487 20.7573 16.9496 21.2639 16.9496 21.8904C16.9496 22.5191 16.4487 23.0304 15.8304 23.0304C15.2144 23.0304 14.7113 22.5191 14.7113 21.8904C14.7112 21.2639 15.2143 20.7573 15.8304 20.7573Z" fill="url(#paint1_linear_1590_58701)" style=""/>
</g>
<defs>
<linearGradient id="paint0_linear_1590_58701" x1="-0.451731" y1="0.710966" x2="13.3042" y2="12.4419" gradientUnits="userSpaceOnUse">
<stop stop-color="#5A9FD4" style="stop-color:#5A9FD4;stop-color:color(display-p3 0.3529 0.6235 0.8314);stop-opacity:1;"/>
<stop offset="1" stop-color="#306998" style="stop-color:#306998;stop-color:color(display-p3 0.1882 0.4118 0.5961);stop-opacity:1;"/>
</linearGradient>
<linearGradient id="paint1_linear_1590_58701" x1="18.4787" y1="19.7345" x2="13.5456" y2="12.8166" gradientUnits="userSpaceOnUse">
<stop stop-color="#FFD43B" style="stop-color:#FFD43B;stop-color:color(display-p3 1.0000 0.8314 0.2314);stop-opacity:1;"/>
<stop offset="1" stop-color="#FFE873" style="stop-color:#FFE873;stop-color:color(display-p3 1.0000 0.9098 0.4510);stop-opacity:1;"/>
</linearGradient>
<clipPath id="clip0_1590_58701">
<rect width="25" height="25" fill="white" style="fill:white;fill-opacity:1;"/>
</clipPath>
</defs>
</svg>
