<svg width="29" height="25" viewBox="0 0 29 25" fill="none" xmlns="http://www.w3.org/2000/svg">
<path d="M27.949 17.8183C28.1781 17.8183 28.3639 17.6326 28.3639 17.4035V1.06664C28.3639 0.47853 27.8854 5.53678e-05 27.2973 5.53678e-05H7.86987C7.64074 5.53678e-05 7.45499 0.185806 7.45499 0.414933C7.45499 0.64406 7.64074 0.82981 7.86987 0.82981H27.2973C27.4279 0.82981 27.5342 0.936064 27.5342 1.06669V3.92973H0.829699V1.06664C0.829699 0.936008 0.935953 0.829755 1.06658 0.829755H5.93315C6.16228 0.829755 6.34803 0.644004 6.34803 0.414877C6.34803 0.18575 6.16228 0 5.93315 0H1.06658C0.478474 5.53982e-05 0 0.47853 0 1.06664V23.9334C0 24.5215 0.478474 25 1.06658 25H27.2973C27.8854 25 28.3639 24.5215 28.3639 23.9334V19.3054C28.3639 19.0763 28.1781 18.8906 27.949 18.8906C27.7199 18.8906 27.5341 19.0763 27.5341 19.3054V23.9334C27.5341 24.064 27.4279 24.1703 27.2973 24.1703H1.06658C0.935953 24.1703 0.829699 24.064 0.829699 23.9334V4.75943H27.5341V17.4035C27.5342 17.6326 27.7199 17.8183 27.949 17.8183Z" fill="#091316" style="fill:#091316;fill:color(display-p3 0.0353 0.0745 0.0863);fill-opacity:1;"/>
<path d="M8.26792 8.8125H6.57113C6.342 8.8125 6.15625 8.99825 6.15625 9.22738C6.15625 9.4565 6.342 9.64225 6.57113 9.64225H8.26792C8.49705 9.64225 8.6828 9.4565 8.6828 9.22738C8.68274 8.99825 8.49705 8.8125 8.26792 8.8125Z" fill="#091316" style="fill:#091316;fill:color(display-p3 0.0353 0.0745 0.0863);fill-opacity:1;"/>
<path d="M8.2724 10.8789H2.35238C2.12325 10.8789 1.9375 11.0647 1.9375 11.2938C1.9375 11.5229 2.12325 11.7087 2.35238 11.7087H8.2724C8.50152 11.7087 8.68727 11.5229 8.68727 11.2938C8.68722 11.0647 8.50152 10.8789 8.2724 10.8789Z" fill="#091316" style="fill:#091316;fill:color(display-p3 0.0353 0.0745 0.0863);fill-opacity:1;"/>
<path d="M8.2724 12.9453H2.35238C2.12325 12.9453 1.9375 13.1311 1.9375 13.3602C1.9375 13.5893 2.12325 13.7751 2.35238 13.7751H8.2724C8.50152 13.7751 8.68727 13.5893 8.68727 13.3602C8.68722 13.1311 8.50152 12.9453 8.2724 12.9453Z" fill="#091316" style="fill:#091316;fill:color(display-p3 0.0353 0.0745 0.0863);fill-opacity:1;"/>
<path d="M2.27872 9.61288C2.50419 9.65344 2.71997 9.50381 2.76069 9.27828L2.93907 8.28981L3.23794 9.30271C3.23938 9.30764 3.24094 9.31257 3.2426 9.31745C3.30736 9.51023 3.48701 9.63931 3.69022 9.63931H3.69271C3.89691 9.63826 4.07645 9.50707 4.13944 9.31279C4.14099 9.30808 4.14243 9.30326 4.14382 9.2985L4.43222 8.28693L4.62246 9.28249C4.66545 9.50757 4.88283 9.65521 5.1078 9.61211C5.33288 9.56912 5.48041 9.35179 5.43742 9.12677L4.9636 6.64764C4.92083 6.43762 4.74145 6.28245 4.5275 6.27038C4.31284 6.25753 4.11783 6.3922 4.05169 6.59612C4.05014 6.60088 4.0487 6.60565 4.04731 6.61041L3.68434 7.88363L3.30752 6.60637C3.30608 6.60144 3.30453 6.59656 3.30293 6.59174C3.23468 6.38849 3.03718 6.25603 2.82373 6.27082C2.60978 6.28511 2.43207 6.44217 2.39063 6.6575L1.94417 9.13092C1.90346 9.35639 2.05325 9.57217 2.27872 9.61288Z" fill="#0A66C2" style="fill:#0A66C2;fill:color(display-p3 0.0392 0.4000 0.7608);fill-opacity:1;"/>
<path d="M26.0101 8.8125H24.3133C24.0842 8.8125 23.8984 8.99825 23.8984 9.22738C23.8984 9.4565 24.0842 9.64225 24.3133 9.64225H26.0101C26.2392 9.64225 26.4249 9.4565 26.4249 9.22738C26.4249 8.99825 26.2392 8.8125 26.0101 8.8125Z" fill="#091316" style="fill:#091316;fill:color(display-p3 0.0353 0.0745 0.0863);fill-opacity:1;"/>
<path d="M26.0145 10.8789H20.0946C19.8654 10.8789 19.6797 11.0647 19.6797 11.2938C19.6797 11.5229 19.8654 11.7087 20.0946 11.7087H26.0145C26.2437 11.7087 26.4294 11.5229 26.4294 11.2938C26.4294 11.0647 26.2437 10.8789 26.0145 10.8789Z" fill="#091316" style="fill:#091316;fill:color(display-p3 0.0353 0.0745 0.0863);fill-opacity:1;"/>
<path d="M26.0145 12.9453H20.0946C19.8654 12.9453 19.6797 13.1311 19.6797 13.3602C19.6797 13.5893 19.8654 13.7751 20.0946 13.7751H26.0145C26.2437 13.7751 26.4294 13.5893 26.4294 13.3602C26.4294 13.1311 26.2437 12.9453 26.0145 12.9453Z" fill="#091316" style="fill:#091316;fill:color(display-p3 0.0353 0.0745 0.0863);fill-opacity:1;"/>
<path d="M20.6044 9.63926H20.6077C20.8085 9.63787 20.9869 9.50924 21.0515 9.31905C21.0527 9.31545 21.0539 9.3118 21.055 9.3082L21.4312 8.09282L21.8057 9.30842C21.8074 9.31407 21.8093 9.31966 21.8112 9.32526C21.8782 9.51345 22.0566 9.63931 22.2561 9.63931H22.2594C22.4602 9.63793 22.6385 9.50929 22.7032 9.31911C22.709 9.30194 23.2141 6.77013 23.2141 6.77013C23.2588 6.54543 23.1129 6.327 22.8882 6.28224C22.6634 6.23753 22.4451 6.38345 22.4004 6.60814L22.1812 7.70935L21.8279 6.56233C21.7604 6.34334 21.5281 6.22063 21.3093 6.288C21.1633 6.33298 21.0604 6.45131 21.0278 6.58997L20.6812 7.70974L20.4625 6.60399C20.4181 6.37918 20.1996 6.23299 19.9751 6.27753C19.7503 6.32196 19.6041 6.54023 19.6486 6.76498C19.6486 6.76498 20.1528 9.3062 20.1595 9.32532C20.2264 9.51339 20.4049 9.63926 20.6044 9.63926Z" fill="#0A66C2" style="fill:#0A66C2;fill:color(display-p3 0.0392 0.4000 0.7608);fill-opacity:1;"/>
<path d="M8.26792 17.6953H6.57113C6.342 17.6953 6.15625 17.8811 6.15625 18.1102C6.15625 18.3393 6.342 18.5251 6.57113 18.5251H8.26792C8.49705 18.5251 8.6828 18.3393 8.6828 18.1102C8.68274 17.8811 8.49705 17.6953 8.26792 17.6953Z" fill="#091316" style="fill:#091316;fill:color(display-p3 0.0353 0.0745 0.0863);fill-opacity:1;"/>
<path d="M8.2724 19.7617H2.35238C2.12325 19.7617 1.9375 19.9475 1.9375 20.1766C1.9375 20.4057 2.12325 20.5915 2.35238 20.5915H8.2724C8.50152 20.5915 8.68727 20.4057 8.68727 20.1766C8.68722 19.9475 8.50152 19.7617 8.2724 19.7617Z" fill="#091316" style="fill:#091316;fill:color(display-p3 0.0353 0.0745 0.0863);fill-opacity:1;"/>
<path d="M8.2724 21.8281H2.35238C2.12325 21.8281 1.9375 22.0139 1.9375 22.243C1.9375 22.4721 2.12325 22.6579 2.35238 22.6579H8.2724C8.50152 22.6579 8.68727 22.4721 8.68727 22.243C8.68722 22.0139 8.50152 21.8281 8.2724 21.8281Z" fill="#091316" style="fill:#091316;fill:color(display-p3 0.0353 0.0745 0.0863);fill-opacity:1;"/>
<path d="M3.68365 18.526C3.91278 18.526 4.09853 18.3402 4.09853 18.1111V15.986H4.38787C4.617 15.986 4.80275 15.8003 4.80275 15.5711C4.80275 15.342 4.617 15.1562 4.38787 15.1562H2.98519C2.75606 15.1562 2.57031 15.342 2.57031 15.5711C2.57031 15.8003 2.75606 15.986 2.98519 15.986H3.26883V18.1111C3.26877 18.3402 3.45452 18.526 3.68365 18.526Z" fill="#0A66C2" style="fill:#0A66C2;fill:color(display-p3 0.0392 0.4000 0.7608);fill-opacity:1;"/>
<path d="M17.1429 17.6953H15.4461C15.217 17.6953 15.0312 17.8811 15.0312 18.1102C15.0312 18.3393 15.217 18.5251 15.4461 18.5251H17.1429C17.372 18.5251 17.5578 18.3393 17.5578 18.1102C17.5578 17.8811 17.372 17.6953 17.1429 17.6953Z" fill="#091316" style="fill:#091316;fill:color(display-p3 0.0353 0.0745 0.0863);fill-opacity:1;"/>
<path d="M17.1395 19.7617H11.2196C10.9904 19.7617 10.8047 19.9475 10.8047 20.1766C10.8047 20.4057 10.9904 20.5915 11.2196 20.5915H17.1396C17.3687 20.5915 17.5545 20.4057 17.5545 20.1766C17.5544 19.9475 17.3687 19.7617 17.1395 19.7617Z" fill="#091316" style="fill:#091316;fill:color(display-p3 0.0353 0.0745 0.0863);fill-opacity:1;"/>
<path d="M17.1395 21.8281H11.2196C10.9904 21.8281 10.8047 22.0139 10.8047 22.243C10.8047 22.4721 10.9904 22.6579 11.2196 22.6579H17.1396C17.3687 22.6579 17.5545 22.4721 17.5545 22.243C17.5544 22.0139 17.3687 21.8281 17.1395 21.8281Z" fill="#091316" style="fill:#091316;fill:color(display-p3 0.0353 0.0745 0.0863);fill-opacity:1;"/>
<path d="M13.0696 16.0016C13.2987 16.0016 13.4845 15.8159 13.4845 15.5868C13.4845 15.3576 13.2987 15.1719 13.0696 15.1719H12.0477C11.8186 15.1719 11.6328 15.3576 11.6328 15.5868V18.1081C11.6328 18.3372 11.8186 18.523 12.0477 18.523C12.2768 18.523 12.4626 18.3372 12.4626 18.1081V17.2384H12.9885C13.2176 17.2384 13.4033 17.0526 13.4033 16.8235C13.4033 16.5944 13.2176 16.4086 12.9885 16.4086H12.4626V16.0016H13.0696V16.0016Z" fill="#0A66C2" style="fill:#0A66C2;fill:color(display-p3 0.0392 0.4000 0.7608);fill-opacity:1;"/>
<path d="M26.0101 17.6953H24.3133C24.0842 17.6953 23.8984 17.8811 23.8984 18.1102C23.8984 18.3393 24.0842 18.5251 24.3133 18.5251H26.0101C26.2392 18.5251 26.4249 18.3393 26.4249 18.1102C26.4249 17.8811 26.2392 17.6953 26.0101 17.6953Z" fill="#091316" style="fill:#091316;fill:color(display-p3 0.0353 0.0745 0.0863);fill-opacity:1;"/>
<path d="M26.0145 19.7617H20.0946C19.8654 19.7617 19.6797 19.9475 19.6797 20.1766C19.6797 20.4057 19.8654 20.5915 20.0946 20.5915H26.0145C26.2437 20.5915 26.4294 20.4057 26.4294 20.1766C26.4294 19.9475 26.2437 19.7617 26.0145 19.7617Z" fill="#091316" style="fill:#091316;fill:color(display-p3 0.0353 0.0745 0.0863);fill-opacity:1;"/>
<path d="M26.0145 21.8281H20.0946C19.8654 21.8281 19.6797 22.0139 19.6797 22.243C19.6797 22.4721 19.8654 22.6579 20.0946 22.6579H26.0145C26.2437 22.6579 26.4294 22.4721 26.4294 22.243C26.4294 22.0139 26.2437 21.8281 26.0145 21.8281Z" fill="#091316" style="fill:#091316;fill:color(display-p3 0.0353 0.0745 0.0863);fill-opacity:1;"/>
<path d="M21.4953 17.6954C21.2699 17.6954 21.0539 17.6056 20.9176 17.4552C20.7637 17.2855 20.5014 17.2725 20.3316 17.4264C20.1618 17.5803 20.1489 17.8426 20.3028 18.0124C20.5981 18.3382 21.0328 18.5251 21.4953 18.5251C22.0778 18.5251 22.5676 18.1498 22.6599 17.6327C22.73 17.2398 22.5566 16.7283 21.8594 16.4711C21.5649 16.3625 21.2895 16.2446 21.1875 16.2001C21.1708 16.1826 21.1643 16.1596 21.1683 16.1316C21.1762 16.0759 21.225 16.0307 21.302 16.0075C21.6076 15.9154 21.9003 16.1426 21.9115 16.1514C22.0869 16.2962 22.3466 16.2728 22.4932 16.0984C22.6406 15.923 22.6179 15.6613 22.4425 15.5139C22.2094 15.318 21.6564 15.0341 21.0627 15.213C20.6754 15.3297 20.4012 15.6365 20.347 16.0137C20.2958 16.3699 20.4504 16.7127 20.7503 16.9082C20.7686 16.9201 20.7878 16.9306 20.8078 16.9395C20.8227 16.9461 21.1753 17.1031 21.5722 17.2495C21.7078 17.2995 21.8601 17.3917 21.8431 17.4869C21.8282 17.571 21.7072 17.6954 21.4953 17.6954Z" fill="#0A66C2" style="fill:#0A66C2;fill:color(display-p3 0.0392 0.4000 0.7608);fill-opacity:1;"/>
<path d="M17.1429 8.8125H15.4461C15.217 8.8125 15.0312 8.99825 15.0312 9.22738C15.0312 9.4565 15.217 9.64225 15.4461 9.64225H17.1429C17.372 9.64225 17.5578 9.4565 17.5578 9.22738C17.5578 8.99825 17.372 8.8125 17.1429 8.8125Z" fill="#091316" style="fill:#091316;fill:color(display-p3 0.0353 0.0745 0.0863);fill-opacity:1;"/>
<path d="M17.1395 10.8789H11.2196C10.9904 10.8789 10.8047 11.0647 10.8047 11.2938C10.8047 11.5229 10.9904 11.7087 11.2196 11.7087H17.1396C17.3687 11.7087 17.5545 11.5229 17.5545 11.2938C17.5544 11.0647 17.3687 10.8789 17.1395 10.8789Z" fill="#091316" style="fill:#091316;fill:color(display-p3 0.0353 0.0745 0.0863);fill-opacity:1;"/>
<path d="M17.1395 12.9453H11.2196C10.9904 12.9453 10.8047 13.1311 10.8047 13.3602C10.8047 13.5893 10.9904 13.7751 11.2196 13.7751H17.1396C17.3687 13.7751 17.5545 13.5893 17.5545 13.3602C17.5544 13.1311 17.3687 12.9453 17.1395 12.9453Z" fill="#091316" style="fill:#091316;fill:color(display-p3 0.0353 0.0745 0.0863);fill-opacity:1;"/>
<path d="M12.5587 9.63929C12.7878 9.63929 12.9736 9.45354 12.9736 9.22442V7.09929H13.2629C13.4921 7.09929 13.6778 6.91354 13.6778 6.68441C13.6778 6.45528 13.4921 6.26953 13.2629 6.26953H11.8602C11.6311 6.26953 11.4453 6.45528 11.4453 6.68441C11.4453 6.91354 11.6311 7.09929 11.8602 7.09929H12.1438V9.22442C12.1438 9.45354 12.3296 9.63929 12.5587 9.63929Z" fill="#0A66C2" style="fill:#0A66C2;fill:color(display-p3 0.0392 0.4000 0.7608);fill-opacity:1;"/>
</svg>
