<svg width="26" height="25" viewBox="0 0 26 25" fill="none" xmlns="http://www.w3.org/2000/svg">
<path d="M0.379786 18.4744C0.589459 18.4744 0.759572 18.3045 0.759572 18.0946V7.03316H23.1988V11.2078C23.1988 11.4177 23.3689 11.5876 23.5786 11.5876C23.7884 11.5876 23.9584 11.4177 23.9584 11.2078V3.70212C23.9584 2.42885 22.9225 1.39294 21.6494 1.39294H20.6534V0.922563C20.6534 0.413808 20.2396 0 19.7309 0H19.0253C18.5167 0 18.1029 0.413808 18.1029 0.922563V1.39294H15.5841V0.922563C15.5841 0.413808 15.1703 0 14.6615 0H13.9559C13.4474 0 13.0336 0.413808 13.0336 0.922563V1.39294H10.5145V0.922563C10.5145 0.413808 10.1007 0 9.59197 0H8.88659C8.37784 0 7.96403 0.413808 7.96403 0.922563V1.39294H5.44518V0.922563C5.44518 0.413808 5.03137 0 4.52262 0H3.81724C3.30849 0 2.89468 0.413808 2.89468 0.922563V1.39294H2.30918C1.03591 1.39294 0 2.42885 0 3.70212V18.0946C0 18.3045 0.170112 18.4744 0.379786 18.4744ZM18.8625 0.922563C18.8625 0.83276 18.9357 0.759572 19.0255 0.759572H19.7311C19.8209 0.759572 19.8939 0.83276 19.8939 0.922563V2.76769C19.8939 2.85749 19.8209 2.93068 19.7311 2.93068H19.0255C18.9357 2.93068 18.8625 2.85769 18.8625 2.76769V0.922563ZM13.7932 0.922563C13.7932 0.83276 13.8661 0.759572 13.9559 0.759572H14.6615C14.7513 0.759572 14.8245 0.83276 14.8245 0.922563V2.76769C14.8245 2.85749 14.7513 2.93068 14.6615 2.93068H13.9559C13.8661 2.93068 13.7932 2.85769 13.7932 2.76769V0.922563ZM8.7236 0.922563C8.7236 0.83276 8.79679 0.759572 8.88659 0.759572H9.59217C9.68197 0.759572 9.75516 0.83276 9.75516 0.922563V2.76769C9.75516 2.85749 9.68197 2.93068 9.59217 2.93068H8.88659C8.79679 2.93068 8.7236 2.85769 8.7236 2.76769V0.922563ZM3.65425 0.922563C3.65425 0.83276 3.72744 0.759572 3.81724 0.759572H4.52281C4.61262 0.759572 4.68561 0.83276 4.68561 0.922563V2.76769C4.68561 2.85749 4.61262 2.93068 4.52281 2.93068H3.81724C3.72744 2.93068 3.65425 2.85769 3.65425 2.76769V0.922563ZM2.30918 2.15252H2.89468V2.76769C2.89468 3.27644 3.30849 3.69025 3.81724 3.69025H4.52281C5.03137 3.69025 5.44518 3.27644 5.44518 2.76769V2.15252H7.96423V2.76769C7.96423 3.27644 8.37804 3.69025 8.88659 3.69025H9.59217C10.1009 3.69025 10.5147 3.27644 10.5147 2.76769V2.15252H13.0336V2.76769C13.0336 3.27644 13.4474 3.69025 13.9561 3.69025H14.6617C15.1703 3.69025 15.5841 3.27644 15.5841 2.76769V2.15252H18.1029V2.76769C18.1029 3.27644 18.5167 3.69025 19.0255 3.69025H19.7311C20.2396 3.69025 20.6534 3.27644 20.6534 2.76769V2.15252H21.6494C22.5039 2.15252 23.199 2.8476 23.199 3.70212V6.27359H0.759572V3.70212C0.759572 2.8476 1.45466 2.15252 2.30918 2.15252Z" fill="#091316" style="fill:#091316;fill:color(display-p3 0.0353 0.0745 0.0863);fill-opacity:1;"/>
<path d="M4.29969 22.0061H0.988037C0.862035 22.0061 0.759572 21.9036 0.759572 21.7776V19.8251C0.759572 19.6152 0.589459 19.4453 0.379786 19.4453C0.170112 19.4453 0 19.6152 0 19.8251V21.7776C0 22.3224 0.443281 22.7657 0.988037 22.7657H4.29969C4.50936 22.7657 4.67948 22.5956 4.67948 22.3859C4.67948 22.176 4.50936 22.0061 4.29969 22.0061Z" fill="#091316" style="fill:#091316;fill:color(display-p3 0.0353 0.0745 0.0863);fill-opacity:1;"/>
<path d="M4.28587 8.14062H2.96572C2.75605 8.14062 2.58594 8.31074 2.58594 8.52041C2.58594 8.73028 2.75605 8.9002 2.96572 8.9002H4.28587C4.49555 8.9002 4.66566 8.73028 4.66566 8.52041C4.66566 8.31074 4.49555 8.14062 4.28587 8.14062Z" fill="#091316" style="fill:#091316;fill:color(display-p3 0.0353 0.0745 0.0863);fill-opacity:1;"/>
<path d="M7.02041 8.9002H8.34056C8.55024 8.9002 8.72035 8.73028 8.72035 8.52041C8.72035 8.31074 8.55024 8.14062 8.34056 8.14062H7.02041C6.81074 8.14062 6.64062 8.31074 6.64062 8.52041C6.64062 8.73028 6.81074 8.9002 7.02041 8.9002Z" fill="#0A66C2" style="fill:#0A66C2;fill:color(display-p3 0.0392 0.4000 0.7608);fill-opacity:1;"/>
<path d="M11.0829 8.9002H12.4029C12.6125 8.9002 12.7827 8.73028 12.7827 8.52041C12.7827 8.31074 12.6125 8.14062 12.4029 8.14062H11.0829C10.873 8.14062 10.7031 8.31074 10.7031 8.52041C10.7031 8.73028 10.873 8.9002 11.0829 8.9002Z" fill="#0A66C2" style="fill:#0A66C2;fill:color(display-p3 0.0392 0.4000 0.7608);fill-opacity:1;"/>
<path d="M15.1376 8.9002H16.4577C16.6674 8.9002 16.8375 8.73028 16.8375 8.52041C16.8375 8.31074 16.6674 8.14062 16.4577 8.14062H15.1376C14.9279 8.14062 14.7578 8.31074 14.7578 8.52041C14.7578 8.73028 14.9279 8.9002 15.1376 8.9002Z" fill="#0A66C2" style="fill:#0A66C2;fill:color(display-p3 0.0392 0.4000 0.7608);fill-opacity:1;"/>
<path d="M20.5122 8.14062H19.1923C18.9824 8.14062 18.8125 8.31074 18.8125 8.52041C18.8125 8.73028 18.9824 8.9002 19.1923 8.9002H20.5122C20.7219 8.9002 20.892 8.73028 20.892 8.52041C20.892 8.31074 20.7219 8.14062 20.5122 8.14062Z" fill="#091316" style="fill:#091316;fill:color(display-p3 0.0353 0.0745 0.0863);fill-opacity:1;"/>
<path d="M4.28587 10.0508H2.96572C2.75605 10.0508 2.58594 10.2207 2.58594 10.4306C2.58594 10.6404 2.75605 10.8104 2.96572 10.8104H4.28587C4.49555 10.8104 4.66566 10.6404 4.66566 10.4306C4.66566 10.2207 4.49555 10.0508 4.28587 10.0508Z" fill="#0A66C2" style="fill:#0A66C2;fill:color(display-p3 0.0392 0.4000 0.7608);fill-opacity:1;"/>
<path d="M7.02041 10.8104H8.34056C8.55024 10.8104 8.72035 10.6404 8.72035 10.4306C8.72035 10.2207 8.55024 10.0508 8.34056 10.0508H7.02041C6.81074 10.0508 6.64062 10.2207 6.64062 10.4306C6.64062 10.6404 6.81074 10.8104 7.02041 10.8104Z" fill="#091316" style="fill:#091316;fill:color(display-p3 0.0353 0.0745 0.0863);fill-opacity:1;"/>
<path d="M11.0829 10.8104H12.4029C12.6125 10.8104 12.7827 10.6404 12.7827 10.4306C12.7827 10.2207 12.6125 10.0508 12.4029 10.0508H11.0829C10.873 10.0508 10.7031 10.2207 10.7031 10.4306C10.7031 10.6404 10.873 10.8104 11.0829 10.8104Z" fill="#091316" style="fill:#091316;fill:color(display-p3 0.0353 0.0745 0.0863);fill-opacity:1;"/>
<path d="M15.1376 10.8104H16.4577C16.6674 10.8104 16.8375 10.6404 16.8375 10.4306C16.8375 10.2207 16.6674 10.0508 16.4577 10.0508H15.1376C14.9279 10.0508 14.7578 10.2207 14.7578 10.4306C14.7578 10.6404 14.9279 10.8104 15.1376 10.8104Z" fill="#091316" style="fill:#091316;fill:color(display-p3 0.0353 0.0745 0.0863);fill-opacity:1;"/>
<path d="M20.5122 10.0508H19.1923C18.9824 10.0508 18.8125 10.2207 18.8125 10.4306C18.8125 10.6404 18.9824 10.8104 19.1923 10.8104H20.5122C20.7219 10.8104 20.892 10.6404 20.892 10.4306C20.892 10.2207 20.7219 10.0508 20.5122 10.0508Z" fill="#0A66C2" style="fill:#0A66C2;fill:color(display-p3 0.0392 0.4000 0.7608);fill-opacity:1;"/>
<path d="M7.03112 18.2677L8.98385 20.2205C9.26632 20.5029 9.64175 20.6584 10.0413 20.6584C10.4409 20.6584 10.8165 20.5029 11.0988 20.2205L16.4464 14.8728C17.0296 14.2897 17.0296 13.3408 16.4464 12.7577C15.8633 12.1745 14.9144 12.1745 14.3313 12.7577L10.0413 17.0477L9.14605 16.1526C8.56312 15.5695 7.61425 15.5695 7.03092 16.1526C6.44799 16.7357 6.44799 17.6846 7.03112 18.2677ZM7.56816 16.6896C7.71157 16.5462 7.90008 16.4744 8.08859 16.4744C8.2771 16.4744 8.4656 16.5462 8.60901 16.6896L9.7727 17.8533C9.92106 18.0017 10.1614 18.0017 10.3097 17.8533L14.8684 13.2949C15.1556 13.0079 15.6224 13.0079 15.9092 13.2947C16.1962 13.5817 16.1962 14.0487 15.9092 14.3357L10.5617 19.6832C10.4227 19.8223 10.2379 19.8988 10.0413 19.8988C9.8447 19.8988 9.65995 19.8223 9.5209 19.6832L7.56816 17.7305C7.28115 17.4435 7.28115 16.9766 7.56816 16.6896Z" fill="#0A66C2" style="fill:#0A66C2;fill:color(display-p3 0.0392 0.4000 0.7608);fill-opacity:1;"/>
<path d="M23.9563 15.969V12.9384C23.9563 12.7285 23.7864 12.5586 23.5765 12.5586C23.3668 12.5586 23.1967 12.7285 23.1967 12.9384V15.4845C22.5042 15.1255 21.7183 14.9224 20.886 14.9224C18.1076 14.9224 15.8473 17.1827 15.8473 19.9611C15.8473 20.6888 16.0025 21.3807 16.2813 22.0062H6.02822C5.81855 22.0062 5.64844 22.1761 5.64844 22.386C5.64844 22.5956 5.81855 22.7657 6.02822 22.7657H16.702C17.6073 24.1122 19.1449 24.9997 20.886 24.9997C23.6643 24.9997 25.9247 22.7394 25.9247 19.9611C25.9247 18.3375 25.1524 16.8909 23.9563 15.969ZM20.886 24.2402C18.5263 24.2402 16.6068 22.3207 16.6068 19.9611C16.6068 17.6014 18.5265 15.6819 20.886 15.6819C23.2454 15.6819 25.1651 17.6014 25.1651 19.9611C25.1651 22.3207 23.2454 24.2402 20.886 24.2402Z" fill="#091316" style="fill:#091316;fill:color(display-p3 0.0353 0.0745 0.0863);fill-opacity:1;"/>
<path d="M20.8867 16.2305C18.8297 16.2305 17.1562 17.9041 17.1562 19.9609C17.1562 22.0179 18.8297 23.6913 20.8867 23.6913C22.9436 23.6913 24.6169 22.0179 24.6169 19.9609C24.6169 17.9041 22.9434 16.2305 20.8867 16.2305ZM21.2267 22.9115C21.2518 22.8607 21.2664 22.8037 21.2664 22.7432V22.2805C21.2664 22.0709 21.0963 21.9008 20.8867 21.9008C20.677 21.9008 20.5069 22.0709 20.5069 22.2805V22.7432C20.5069 22.8037 20.5213 22.8607 20.5466 22.9115C19.1798 22.7551 18.0925 21.6677 17.936 20.3009C17.9866 20.3262 18.0438 20.3407 18.1043 20.3407H18.5668C18.7767 20.3407 18.9466 20.1707 18.9466 19.9609C18.9466 19.751 18.7767 19.5811 18.5668 19.5811H18.1043C18.0438 19.5811 17.9866 19.5957 17.936 19.6208C18.0925 18.254 19.1798 17.1667 20.5466 17.0102C20.5213 17.0611 20.5069 17.118 20.5069 17.1785V17.6412C20.5069 17.8511 20.677 18.021 20.8867 18.021C21.0963 18.021 21.2664 17.8511 21.2664 17.6412V17.1785C21.2664 17.118 21.2518 17.0611 21.2267 17.0102C22.5935 17.1667 23.6809 18.254 23.8373 19.6208C23.7865 19.5957 23.7295 19.5811 23.669 19.5811H23.2063C22.9966 19.5811 22.8265 19.751 22.8265 19.9609C22.8265 20.1707 22.9966 20.3407 23.2063 20.3407H23.669C23.7295 20.3407 23.7865 20.3262 23.8373 20.3009C23.6807 21.6677 22.5935 22.7551 21.2267 22.9115Z" fill="#091316" style="fill:#091316;fill:color(display-p3 0.0353 0.0745 0.0863);fill-opacity:1;"/>
<path d="M21.7247 19.5818H21.2674V19.1923C21.2674 18.9826 21.0973 18.8125 20.8876 18.8125C20.6777 18.8125 20.5078 18.9826 20.5078 19.1923V19.9616C20.5078 20.1714 20.6777 20.3413 20.8876 20.3413H21.7247C21.9344 20.3413 22.1045 20.1714 22.1045 19.9616C22.1045 19.7517 21.9344 19.5818 21.7247 19.5818Z" fill="#091316" style="fill:#091316;fill:color(display-p3 0.0353 0.0745 0.0863);fill-opacity:1;"/>
</svg>
