<svg width="18" height="25" viewBox="0 0 18 25" fill="none" xmlns="http://www.w3.org/2000/svg">
<path fill-rule="evenodd" clip-rule="evenodd" d="M0 24.9996L8.87019 19.5622L17.7404 24.9996V3.625H0V24.9996Z" fill="#C7E9FF" style="fill:#C7E9FF;fill:color(display-p3 0.7804 0.9137 1.0000);fill-opacity:1;"/>
<path fill-rule="evenodd" clip-rule="evenodd" d="M9.28698 6.79267L10.245 9.76054C10.2725 9.84874 10.3277 9.92571 10.4025 9.98002C10.4772 10.0343 10.5675 10.0631 10.6599 10.062L13.7786 10.056C13.8706 10.0558 13.9604 10.0848 14.0349 10.1389C14.1094 10.1929 14.1648 10.2691 14.1933 10.3567C14.2217 10.4442 14.2217 10.5385 14.1931 10.626C14.1646 10.7135 14.1091 10.7897 14.0345 10.8436L11.5079 12.6719C11.4325 12.7253 11.3764 12.8016 11.3478 12.8895C11.3193 12.9774 11.3198 13.0721 11.3494 13.1597L12.3189 16.1239C12.3475 16.2114 12.3476 16.3056 12.3193 16.3932C12.2909 16.4808 12.2355 16.5571 12.1611 16.6112C12.0866 16.6653 11.9969 16.6944 11.9049 16.6943C11.8129 16.6942 11.7232 16.6649 11.6489 16.6107L9.12932 14.7727C9.05521 14.7175 8.96529 14.6877 8.87291 14.6877C8.78052 14.6877 8.6906 14.7175 8.6165 14.7727L6.09688 16.6107C6.02253 16.6649 5.9329 16.6942 5.84086 16.6943C5.74883 16.6944 5.65913 16.6653 5.58468 16.6112C5.51022 16.5571 5.45483 16.4808 5.42648 16.3932C5.39813 16.3056 5.39828 16.2114 5.4269 16.1239L6.39633 13.1597C6.42592 13.0721 6.42648 12.9774 6.39793 12.8895C6.36938 12.8016 6.31324 12.7253 6.23786 12.6719L3.71128 10.8436C3.63673 10.7897 3.5812 10.7135 3.55267 10.626C3.52415 10.5385 3.52411 10.4442 3.55255 10.3567C3.58099 10.2691 3.63645 10.1929 3.71095 10.1389C3.78546 10.0848 3.87517 10.0558 3.9672 10.056L7.08588 10.062C7.17827 10.0631 7.26854 10.0343 7.34328 9.98002C7.41802 9.92571 7.47325 9.84874 7.50076 9.76054L8.45884 6.79267C8.48711 6.70509 8.54242 6.62873 8.61682 6.57456C8.69122 6.52039 8.78088 6.49121 8.87291 6.49121C8.96494 6.49121 9.0546 6.52039 9.129 6.57456C9.2034 6.62873 9.25871 6.70509 9.28698 6.79267Z" fill="#0A66C2" style="fill:#0A66C2;fill:color(display-p3 0.0392 0.4000 0.7608);fill-opacity:1;"/>
<path fill-rule="evenodd" clip-rule="evenodd" d="M1.73904 0H16.0013C16.4622 0.00133347 16.9037 0.184987 17.2296 0.510842C17.5554 0.836696 17.7391 1.27827 17.7404 1.73909V3.62492H0V1.73909C0.0013334 1.27828 0.184979 0.836714 0.510822 0.510861C0.836665 0.185008 1.27822 0.0013478 1.73904 0Z" fill="#7ACBFF" style="fill:#7ACBFF;fill:color(display-p3 0.4784 0.7961 1.0000);fill-opacity:1;"/>
</svg>
