<svg width="28" height="28" viewBox="0 0 28 28" fill="none" xmlns="http://www.w3.org/2000/svg">
<path d="M22.3542 0H4.88266C2.19898 0 0.015625 2.18335 0.015625 4.86703V22.3386C0.015625 25.0222 2.19898 27.2056 4.88266 27.2056H22.3542C25.0378 27.2056 27.2212 25.0222 27.2212 22.3385V4.86703C27.2212 2.18335 25.0378 0 22.3542 0ZM25.6271 22.3385C25.6271 24.1432 24.1589 25.6115 22.3542 25.6115H4.88266C3.07795 25.6115 1.6097 24.1432 1.6097 22.3385V4.86703C1.6097 3.06233 3.07795 1.59408 4.88266 1.59408H22.3542C24.1589 1.59408 25.6271 3.06233 25.6271 4.86703V22.3385Z" fill="#0A66C2" style="fill:#0A66C2;fill:color(display-p3 0.0392 0.4000 0.7608);fill-opacity:1;"/>
<path d="M23.0084 5.97695H10.869C10.5352 4.9857 9.59765 4.26953 8.49529 4.26953C7.39293 4.26953 6.45535 4.9857 6.1216 5.97695H4.22673C3.78655 5.97695 3.42969 6.33381 3.42969 6.77398C3.42969 7.21416 3.78655 7.57102 4.22673 7.57102H6.12166C6.4554 8.56227 7.39299 9.27844 8.49534 9.27844C9.5977 9.27844 10.5353 8.56227 10.869 7.57102H23.0085C23.4487 7.57102 23.8055 7.21416 23.8055 6.77398C23.8055 6.33381 23.4487 5.97695 23.0084 5.97695ZM8.49529 7.68436C7.99332 7.68436 7.58491 7.27596 7.58491 6.77398C7.58491 6.27201 7.99332 5.86361 8.49529 5.86361C8.99726 5.86361 9.40567 6.27201 9.40567 6.77398C9.40567 7.27596 8.99726 7.68436 8.49529 7.68436Z" fill="#0A66C2" style="fill:#0A66C2;fill:color(display-p3 0.0392 0.4000 0.7608);fill-opacity:1;"/>
<path d="M23.0084 12.8051H21.1135C20.7798 11.8138 19.8421 11.0977 18.7398 11.0977C17.6375 11.0977 16.6999 11.8138 16.3662 12.8051H4.22673C3.78655 12.8051 3.42969 13.1619 3.42969 13.6021C3.42969 14.0423 3.78655 14.3991 4.22673 14.3991H16.3662C16.6999 15.3904 17.6376 16.1066 18.7399 16.1066C19.8422 16.1066 20.7798 15.3904 21.1136 14.3991H23.0085C23.4487 14.3991 23.8055 14.0423 23.8055 13.6021C23.8055 13.1619 23.4487 12.8051 23.0084 12.8051ZM18.7399 14.5125C18.2379 14.5125 17.8295 14.1041 17.8295 13.6021C17.8295 13.1001 18.2379 12.6917 18.7399 12.6917C19.2419 12.6917 19.6503 13.1001 19.6503 13.6021C19.6503 14.1041 19.2419 14.5125 18.7399 14.5125Z" fill="#0A66C2" style="fill:#0A66C2;fill:color(display-p3 0.0392 0.4000 0.7608);fill-opacity:1;"/>
<path d="M23.0084 19.6351H14.2839C13.9501 18.6439 13.0125 17.9277 11.9102 17.9277C10.8078 17.9277 9.87023 18.6439 9.53649 19.6351H4.22673C3.78655 19.6351 3.42969 19.992 3.42969 20.4322C3.42969 20.8724 3.78655 21.2292 4.22673 21.2292H9.53649C9.87023 22.2205 10.8078 22.9366 11.9102 22.9366C13.0125 22.9366 13.9501 22.2205 14.2839 21.2292H23.0085C23.4487 21.2292 23.8055 20.8724 23.8055 20.4322C23.8055 19.992 23.4487 19.6351 23.0084 19.6351ZM11.9102 21.3426C11.4082 21.3426 10.9998 20.9342 10.9998 20.4322C10.9998 19.9303 11.4082 19.5219 11.9102 19.5219C12.4121 19.5219 12.8205 19.9302 12.8205 20.4322C12.8205 20.9342 12.4121 21.3426 11.9102 21.3426Z" fill="#0A66C2" style="fill:#0A66C2;fill:color(display-p3 0.0392 0.4000 0.7608);fill-opacity:1;"/>
</svg>
