<svg width="26" height="25" viewBox="0 0 26 25" fill="none" xmlns="http://www.w3.org/2000/svg">
<path d="M13.2148 0C10.7426 0 8.32583 0.733112 6.27022 2.10663C4.21461 3.48015 2.61245 5.43238 1.66636 7.71645C0.72026 10.0005 0.472718 12.5139 0.955033 14.9386C1.43735 17.3634 2.62786 19.5907 4.37601 21.3388C6.12417 23.087 8.35146 24.2775 10.7762 24.7598C13.201 25.2421 15.7143 24.9946 17.9984 24.0485C20.2825 23.1024 22.2347 21.5002 23.6082 19.4446C24.9817 17.389 25.7148 14.9723 25.7148 12.5C25.7109 9.18599 24.3927 6.00884 22.0494 3.66548C19.706 1.32213 16.5289 0.00390963 13.2148 0ZM18.0353 15.7148C18.1438 15.8196 18.2304 15.945 18.29 16.0836C18.3495 16.2223 18.3809 16.3714 18.3822 16.5223C18.3835 16.6732 18.3547 16.8228 18.2976 16.9624C18.2405 17.1021 18.1561 17.229 18.0494 17.3357C17.9427 17.4424 17.8158 17.5267 17.6762 17.5839C17.5365 17.641 17.3869 17.6698 17.236 17.6685C17.0851 17.6672 16.936 17.6358 16.7973 17.5762C16.6587 17.5167 16.5333 17.4301 16.4285 17.3216L13.2148 14.1068L10.0012 17.3216C9.78689 17.5286 9.49984 17.6431 9.20189 17.6405C8.90394 17.6379 8.61893 17.5184 8.40824 17.3077C8.19754 17.0971 8.07803 16.812 8.07545 16.5141C8.07286 16.2161 8.1874 15.9291 8.39439 15.7148L11.608 12.5L8.39439 9.28522C8.28586 9.1804 8.19929 9.05501 8.13973 8.91637C8.08018 8.77773 8.04883 8.62861 8.04752 8.47773C8.04621 8.32684 8.07496 8.17721 8.1321 8.03755C8.18923 7.8979 8.27361 7.77102 8.38031 7.66432C8.487 7.55763 8.61388 7.47325 8.75354 7.41611C8.89319 7.35897 9.04283 7.33022 9.19371 7.33153C9.3446 7.33284 9.49371 7.36419 9.63235 7.42375C9.77099 7.4833 9.89639 7.56987 10.0012 7.67841L13.2148 10.8932L16.4285 7.67841C16.5333 7.56987 16.6587 7.4833 16.7973 7.42375C16.936 7.36419 17.0851 7.33284 17.236 7.33153C17.3869 7.33022 17.5365 7.35897 17.6762 7.41611C17.8158 7.47325 17.9427 7.55763 18.0494 7.66432C18.1561 7.77102 18.2405 7.8979 18.2976 8.03755C18.3547 8.17721 18.3835 8.32684 18.3822 8.47773C18.3809 8.62861 18.3495 8.77773 18.29 8.91637C18.2304 9.05501 18.1438 9.1804 18.0353 9.28522L14.8217 12.5L18.0353 15.7148Z" fill="#0A66C2" style="fill:#0A66C2;fill:color(display-p3 0.0392 0.4000 0.7608);fill-opacity:1;"/>
</svg>
