<svg width="81" height="13" viewBox="0 0 81 13" fill="none" xmlns="http://www.w3.org/2000/svg">
<path d="M12.544 0.927999V12H11.088V3.744L7.408 12H6.384L2.688 3.728V12H1.232V0.927999H2.8L6.896 10.08L10.992 0.927999H12.544ZM18.8373 12.144C18.0159 12.144 17.2693 11.9573 16.5973 11.584C15.9359 11.2107 15.4133 10.6827 15.0293 10C14.6559 9.30667 14.4693 8.50667 14.4693 7.6C14.4693 6.704 14.6613 5.91467 15.0453 5.232C15.4399 4.53867 15.9733 4.01067 16.6453 3.648C17.3173 3.27467 18.0693 3.088 18.9013 3.088C19.7333 3.088 20.4853 3.27467 21.1573 3.648C21.8293 4.01067 22.3573 4.53333 22.7413 5.216C23.1359 5.89867 23.3333 6.69333 23.3333 7.6C23.3333 8.50667 23.1306 9.30667 22.7253 10C22.3306 10.6827 21.7919 11.2107 21.1093 11.584C20.4266 11.9573 19.6693 12.144 18.8373 12.144ZM18.8373 10.864C19.3599 10.864 19.8506 10.7413 20.3093 10.496C20.7679 10.2507 21.1359 9.88267 21.4133 9.392C21.7013 8.90133 21.8453 8.304 21.8453 7.6C21.8453 6.896 21.7066 6.29867 21.4293 5.808C21.1519 5.31733 20.7893 4.95467 20.3413 4.72C19.8933 4.47467 19.4079 4.352 18.8853 4.352C18.3519 4.352 17.8613 4.47467 17.4133 4.72C16.9759 4.95467 16.6239 5.31733 16.3573 5.808C16.0906 6.29867 15.9573 6.896 15.9573 7.6C15.9573 8.31467 16.0853 8.91733 16.3413 9.408C16.6079 9.89867 16.9599 10.2667 17.3973 10.512C17.8346 10.7467 18.3146 10.864 18.8373 10.864ZM29.5196 3.072C30.5863 3.072 31.4503 3.39733 32.1116 4.048C32.773 4.688 33.1036 5.616 33.1036 6.832V12H31.6636V7.04C31.6636 6.16533 31.445 5.49867 31.0076 5.04C30.5703 4.57067 29.973 4.336 29.2156 4.336C28.4476 4.336 27.8343 4.576 27.3756 5.056C26.9276 5.536 26.7036 6.23467 26.7036 7.152V12H25.2476V3.232H26.7036V4.48C26.9916 4.032 27.381 3.68533 27.8716 3.44C28.373 3.19467 28.9223 3.072 29.5196 3.072ZM37.258 4.432V9.6C37.258 10.0267 37.3487 10.3307 37.53 10.512C37.7113 10.6827 38.026 10.768 38.474 10.768H39.546V12H38.234C37.4233 12 36.8153 11.8133 36.41 11.44C36.0047 11.0667 35.802 10.4533 35.802 9.6V4.432H34.666V3.232H35.802V1.024H37.258V3.232H39.546V4.432H37.258ZM45.6621 3.072C46.3235 3.072 46.9208 3.216 47.4541 3.504C47.9875 3.78133 48.4035 4.20267 48.7021 4.768C49.0115 5.33333 49.1661 6.02133 49.1661 6.832V12H47.7261V7.04C47.7261 6.16533 47.5075 5.49867 47.0701 5.04C46.6328 4.57067 46.0355 4.336 45.2781 4.336C44.5101 4.336 43.8968 4.576 43.4381 5.056C42.9901 5.536 42.7661 6.23467 42.7661 7.152V12H41.3101V0.16H42.7661V4.48C43.0541 4.032 43.4488 3.68533 43.9501 3.44C44.4621 3.19467 45.0328 3.072 45.6621 3.072Z" fill="black" style="fill:black;fill-opacity:1;"/>
<path d="M79.2131 1H68C67.176 1 66.7056 1.94076 67.2 2.6L73.3672 10.8229C73.7908 11.3877 74.6503 11.3476 75.0195 10.746L80.0654 2.52302C80.4743 1.85671 79.9949 1 79.2131 1Z" fill="#091316" style="fill:#091316;fill:color(display-p3 0.0353 0.0745 0.0863);fill-opacity:1;"/>
</svg>
