<svg width="20" height="18" viewBox="0 0 20 18" fill="none" xmlns="http://www.w3.org/2000/svg">
<path d="M18 18H1.28571C0.944841 17.9996 0.618041 17.864 0.377007 17.623C0.135974 17.382 0.000389631 17.0552 0 16.7143V1.28571C0.000389631 0.944841 0.135974 0.618041 0.377007 0.377007C0.618041 0.135974 0.944841 0.000389631 1.28571 0H18C18.3409 0.000389631 18.6677 0.135974 18.9087 0.377007C19.1497 0.618041 19.2853 0.944841 19.2857 1.28571V16.7143C19.2853 17.0552 19.1497 17.382 18.9087 17.623C18.6677 17.864 18.3409 17.9996 18 18ZM1.28571 1.28571V16.7143H18.0006L18 1.28571H1.28571Z" fill="#0A66C2" style="fill:#0A66C2;fill:color(display-p3 0.0392 0.4000 0.7608);fill-opacity:1;"/>
<path d="M12 13.4971C11.9156 13.4972 11.8319 13.4806 11.7539 13.4483C11.6759 13.4159 11.6051 13.3685 11.5455 13.3087L7.68834 9.45159C7.62863 9.39191 7.58127 9.32106 7.54895 9.24307C7.51663 9.16508 7.5 9.08149 7.5 8.99707C7.5 8.91265 7.51663 8.82906 7.54895 8.75107C7.58127 8.67308 7.62863 8.60223 7.68834 8.54255L11.5455 4.68541C11.6663 4.56612 11.8294 4.49947 11.9992 4.5C12.1689 4.50054 12.3316 4.56822 12.4517 4.68828C12.5717 4.80833 12.6394 4.971 12.6399 5.14078C12.6404 5.31055 12.5738 5.47364 12.4545 5.59445L9.05188 8.99709L12.4545 12.3997C12.5444 12.4896 12.6056 12.6042 12.6304 12.7289C12.6552 12.8536 12.6425 12.9828 12.5938 13.1002C12.5452 13.2177 12.4628 13.3181 12.3571 13.3887C12.2514 13.4594 12.1271 13.4971 12 13.4971Z" fill="#0A66C2" style="fill:#0A66C2;fill:color(display-p3 0.0392 0.4000 0.7608);fill-opacity:1;"/>
<path d="M16.6429 9.64509H7.64286C7.47236 9.64509 7.30885 9.57736 7.18829 9.4568C7.06773 9.33624 7 9.17273 7 9.00223C7 8.83174 7.06773 8.66822 7.18829 8.54766C7.30885 8.4271 7.47236 8.35938 7.64286 8.35938H16.6429C16.8134 8.35938 16.9769 8.4271 17.0974 8.54766C17.218 8.66822 17.2857 8.83174 17.2857 9.00223C17.2857 9.17273 17.218 9.33624 17.0974 9.4568C16.9769 9.57736 16.8134 9.64509 16.6429 9.64509Z" fill="#0A66C2" style="fill:#0A66C2;fill:color(display-p3 0.0392 0.4000 0.7608);fill-opacity:1;"/>
</svg>
