<svg width="15" height="20" viewBox="0 0 15 20" fill="none" xmlns="http://www.w3.org/2000/svg">
<path fill-rule="evenodd" clip-rule="evenodd" d="M0 20.0004L7.0963 15.6504L14.1926 20.0004V2.90039H0V20.0004Z" fill="#C7E9FF" style="fill:#C7E9FF;fill:color(display-p3 0.7804 0.9137 1.0000);fill-opacity:1;"/>
<path fill-rule="evenodd" clip-rule="evenodd" d="M7.42499 5.43471L8.19143 7.80906C8.21344 7.87962 8.25762 7.9412 8.31742 7.98465C8.37721 8.0281 8.44943 8.0511 8.52334 8.05024L11.0184 8.04545C11.092 8.04531 11.1638 8.06851 11.2234 8.11173C11.283 8.15495 11.3274 8.21595 11.3501 8.28597C11.3729 8.35599 11.3728 8.43142 11.35 8.50142C11.3272 8.57142 11.2828 8.63238 11.2231 8.67554L9.20177 10.1382C9.14147 10.1809 9.09656 10.242 9.07372 10.3123C9.05088 10.3826 9.05132 10.4584 9.07499 10.5284L9.85056 12.8998C9.87345 12.9698 9.87357 13.0453 9.85089 13.1153C9.82821 13.1854 9.7839 13.2464 9.72433 13.2897C9.66476 13.333 9.59301 13.3562 9.51938 13.3562C9.44575 13.3561 9.37404 13.3327 9.31456 13.2893L7.29886 11.8188C7.23958 11.7747 7.16764 11.7509 7.09373 11.7509C7.01982 11.7509 6.94788 11.7747 6.8886 11.8188L4.87286 13.2893C4.81338 13.3327 4.74167 13.3561 4.66804 13.3562C4.59441 13.3562 4.52266 13.333 4.46309 13.2897C4.40352 13.2464 4.35921 13.1854 4.33653 13.1153C4.31385 13.0453 4.31397 12.9698 4.33686 12.8998L5.11243 10.5284C5.1361 10.4584 5.13654 10.3826 5.1137 10.3123C5.09086 10.242 5.04595 10.1809 4.98565 10.1382L2.96434 8.67554C2.90469 8.63238 2.86027 8.57142 2.83745 8.50142C2.81463 8.43142 2.8146 8.35599 2.83735 8.28597C2.8601 8.21595 2.90447 8.15495 2.96408 8.11173C3.02368 8.06851 3.09546 8.04531 3.16908 8.04545L5.66408 8.05024C5.73799 8.0511 5.81021 8.0281 5.87 7.98465C5.9298 7.9412 5.97398 7.87962 5.99599 7.80906L6.76247 5.43471C6.78508 5.36465 6.82933 5.30356 6.88886 5.26022C6.94838 5.21689 7.02011 5.19354 7.09373 5.19354C7.16736 5.19354 7.23909 5.21689 7.29861 5.26022C7.35813 5.30356 7.40238 5.36465 7.42499 5.43471Z" fill="#0A66C2" style="fill:#0A66C2;fill:color(display-p3 0.0392 0.4000 0.7608);fill-opacity:1;"/>
<path fill-rule="evenodd" clip-rule="evenodd" d="M1.39126 0H12.8013C13.17 0.0010668 13.5233 0.147993 13.784 0.408682C14.0447 0.669371 14.1916 1.02264 14.1927 1.3913V2.9H0V1.3913C0.00106674 1.02264 0.147987 0.669385 0.408667 0.408697C0.669346 0.148009 1.0226 0.00107827 1.39126 0Z" fill="#7ACBFF" style="fill:#7ACBFF;fill:color(display-p3 0.4784 0.7961 1.0000);fill-opacity:1;"/>
</svg>
