<svg width="30" height="25" viewBox="0 0 30 25" fill="none" xmlns="http://www.w3.org/2000/svg">
<path d="M20.0645 0H10.3528C8.34978 0 6.71094 1.63885 6.71094 3.64188V18.2094H23.7064V3.64188C23.7064 1.63885 22.0675 0 20.0645 0ZM19.7125 12.4917L18.0008 14.2033L15.2208 11.4234L12.4408 14.2033L10.7291 12.4917L13.5091 9.71168L10.7291 6.93171L12.4408 5.22003L15.2208 8L18.0008 5.22003L19.7125 6.93171L16.9325 9.71168L19.7125 12.4917Z" fill="#FF755C" style="fill:#FF755C;fill:color(display-p3 1.0000 0.4588 0.3608);fill-opacity:1;"/>
<path d="M29.7601 25.0009V16.5032C29.7601 14.5002 28.1212 12.8613 26.1182 12.8613V21.3591H4.26688V12.8613C2.26385 12.8613 0.625 14.5002 0.625 16.5032V25.0009H29.7601Z" fill="#002B55" style="fill:#002B55;fill:color(display-p3 0.0000 0.1686 0.3333);fill-opacity:1;"/>
</svg>
