<svg width="18" height="13" viewBox="0 0 18 13" fill="none" xmlns="http://www.w3.org/2000/svg">
<path d="M0.192256 3.5977C0.315228 3.71696 0.474041 3.77628 0.632853 3.77628C0.797846 3.77628 0.962838 3.71202 1.08705 3.5841L2.43359 2.19634L2.43386 12.3095C2.43386 12.6593 2.71719 12.9423 3.06664 12.9423C3.41609 12.9423 3.69942 12.6593 3.69942 12.3095L3.69915 2.19634L5.04593 3.5841C5.28971 3.83499 5.69014 3.84117 5.94072 3.5977C6.19161 3.35422 6.19748 2.95379 5.95432 2.70291L3.52053 0.194654C3.52033 0.194422 3.51999 0.194383 3.51979 0.194152C3.40474 0.075158 3.24496 0 3.06633 0C2.88771 0 2.72793 0.075158 2.61288 0.194152C2.61268 0.194383 2.61234 0.194422 2.61214 0.194654L0.178661 2.70291C-0.0648105 2.95379 -0.0586309 3.35422 0.192256 3.5977Z" fill="#3E3E3E" style="fill:#3E3E3E;fill:color(display-p3 0.2431 0.2431 0.2431);fill-opacity:1;"/>
<path d="M15.7416 4.5234C15.7416 4.17365 15.4582 3.89062 15.1088 3.89062H8.24215C7.8927 3.89062 7.60938 4.17365 7.60938 4.5234C7.60938 4.87316 7.8927 5.15618 8.24215 5.15618H15.1088C15.4582 5.15618 15.7416 4.87316 15.7416 4.5234Z" fill="#3E3E3E" style="fill:#3E3E3E;fill:color(display-p3 0.2431 0.2431 0.2431);fill-opacity:1;"/>
<path d="M13.7711 8.41598C13.7711 8.06622 13.4878 7.7832 13.1384 7.7832H8.24606C7.89661 7.7832 7.61328 8.06622 7.61328 8.41598C7.61328 8.76574 7.89661 9.04876 8.24606 9.04876H13.1384C13.4878 9.04876 13.7711 8.76574 13.7711 8.41598Z" fill="#3E3E3E" style="fill:#3E3E3E;fill:color(display-p3 0.2431 0.2431 0.2431);fill-opacity:1;"/>
<path d="M8.24606 11.6777C7.89661 11.6777 7.61328 11.9608 7.61328 12.3105C7.61328 12.6603 7.89661 12.9433 8.24606 12.9433H11.1643C11.5138 12.9433 11.7971 12.6603 11.7971 12.3105C11.7971 11.9608 11.5138 11.6777 11.1643 11.6777H8.24606Z" fill="#3E3E3E" style="fill:#3E3E3E;fill:color(display-p3 0.2431 0.2431 0.2431);fill-opacity:1;"/>
<path d="M17.087 0H8.24606C7.89661 0 7.61328 0.28302 7.61328 0.632779C7.61328 0.982538 7.89661 1.26556 8.24606 1.26556H17.087C17.4365 1.26556 17.7198 0.982538 17.7198 0.632779C17.7198 0.28302 17.4365 0 17.087 0Z" fill="#3E3E3E" style="fill:#3E3E3E;fill:color(display-p3 0.2431 0.2431 0.2431);fill-opacity:1;"/>
</svg>
