<svg width="19" height="13" viewBox="0 0 19 13" fill="none" xmlns="http://www.w3.org/2000/svg">
<path d="M9.44188 12.1656C3.26438 12.1656 0.201673 6.78022 0.0743548 6.5511C-0.0247849 6.37274 -0.0247849 6.15602 0.0743548 5.97766C0.201673 5.74869 3.26438 0.363281 9.44188 0.363281C15.6194 0.363281 18.6821 5.74869 18.8094 5.9778C18.9085 6.15617 18.9085 6.37289 18.8094 6.55125C18.6821 6.78022 15.6194 12.1656 9.44188 12.1656ZM1.28454 6.26357C1.98648 7.3274 4.74248 10.9854 9.44188 10.9854C14.1562 10.9854 16.8999 7.33035 17.5992 6.26534C16.8973 5.2015 14.1413 1.54352 9.44188 1.54352C4.72758 1.54352 1.98383 5.19855 1.28454 6.26357ZM9.44188 9.80516C7.48947 9.80516 5.90117 8.21686 5.90117 6.26445C5.90117 4.31205 7.48947 2.72375 9.44188 2.72375C11.3943 2.72375 12.9826 4.31205 12.9826 6.26445C12.9826 8.21686 11.3943 9.80516 9.44188 9.80516ZM9.44188 3.90399C8.14037 3.90399 7.08141 4.96295 7.08141 6.26445C7.08141 7.56596 8.14037 8.62492 9.44188 8.62492C10.7434 8.62492 11.8023 7.56596 11.8023 6.26445C11.8023 4.96295 10.7434 3.90399 9.44188 3.90399Z" fill="#3E3E3E" style="fill:#3E3E3E;fill:color(display-p3 0.2431 0.2431 0.2431);fill-opacity:1;"/>
</svg>
