<svg width="64" height="64" viewBox="0 0 64 64" fill="none" xmlns="http://www.w3.org/2000/svg">
<path d="M48 48C56.8366 39.1634 56.8366 24.8366 48 16C39.1634 7.16345 24.8366 7.16344 16 16C7.16344 24.8366 7.16344 39.1634 16 48C24.8366 56.8366 39.1634 56.8366 48 48Z" fill="#46CC6B" style="fill:#46CC6B;fill:color(display-p3 0.2745 0.8000 0.4196);fill-opacity:1;"/>
<path fill-rule="evenodd" clip-rule="evenodd" d="M54.3091 35.8392C52.6988 45.2612 45.2648 52.6948 35.8432 54.3052L23.6601 42.1221C20.7448 39.7162 18.8867 36.0752 18.8867 32.0001C18.8867 24.7555 24.7594 18.8828 32.004 18.8828C36.0791 18.8828 39.7201 20.741 42.126 23.6562L54.3091 35.8392Z" fill="#179C5F" style="fill:#179C5F;fill:color(display-p3 0.0902 0.6118 0.3725);fill-opacity:1;"/>
<path fill-rule="evenodd" clip-rule="evenodd" d="M25.8641 32.779L29.5999 36.2096C30.1448 36.7113 30.9883 36.6846 31.5008 36.1562L38.1655 29.7751C38.7076 29.2539 38.724 28.3914 38.2025 27.8491C37.6811 27.3075 36.8191 27.2905 36.277 27.8118L30.5041 33.3391L27.7096 30.7731C27.156 30.2637 26.2935 30.2994 25.7838 30.8536C25.2743 31.4072 25.3102 32.2691 25.8641 32.779ZM32.004 18.8828C39.2486 18.8828 45.1213 24.7555 45.1213 32.0001C45.1213 39.2447 39.2486 45.1174 32.004 45.1174C24.7594 45.1174 18.8867 39.2447 18.8867 32.0001C18.8867 24.7555 24.7594 18.8828 32.004 18.8828Z" fill="white" style="fill:white;fill-opacity:1;"/>
</svg>
