<svg width="15" height="21" viewBox="0 0 15 21" fill="none" xmlns="http://www.w3.org/2000/svg">
<path d="M7.35761 15.7522L7.0963 15.592L6.83499 15.7522L0.5 19.6355V3.92847H13.6926V19.6355L7.35761 15.7522Z" fill="white" stroke="black" style="fill:white;fill-opacity:1;stroke:black;stroke-opacity:1;"/>
<path d="M5.6612 9.07837C5.84166 9.07985 6.01787 9.0234 6.16391 8.91728L6.16391 8.91728C6.30995 8.81117 6.41806 8.66103 6.47241 8.48895L7.09373 6.56428L7.71501 8.48897C7.76936 8.66104 7.87748 8.81118 8.02351 8.91728L8.31742 8.51279C8.37721 8.55624 8.44943 8.57924 8.52334 8.57837L8.5243 9.07837L8.52622 9.07837L10.5487 9.07449L8.9102 10.2601C8.76334 10.365 8.65397 10.5142 8.59819 10.6859L9.07372 10.8404L8.59819 10.6859C8.54241 10.8576 8.54318 11.0426 8.60035 11.2138L9.22905 13.1361L7.59507 11.9442C7.44996 11.8369 7.27424 11.779 7.09373 11.779C6.91321 11.779 6.73749 11.8369 6.59236 11.9442L4.95837 13.1361L5.58707 11.2138C5.64423 11.0426 5.64501 10.8576 5.58923 10.6859C5.53346 10.5143 5.42409 10.365 5.27724 10.2602L3.63872 9.07449L5.6612 9.07837ZM5.6612 9.07837C5.66021 9.07836 5.65922 9.07835 5.65823 9.07834L5.66408 8.57837M5.6612 9.07837L5.66312 9.07837L5.66408 8.57837M5.66408 8.57837C5.73799 8.57924 5.81021 8.55624 5.87 8.51279C5.9298 8.46934 5.97398 8.40776 5.99599 8.3372L5.66408 8.57837ZM6.94916 6.11643L6.94917 6.11645L6.94916 6.11643ZM9.60927 13.4135L9.60923 13.4135L9.60927 13.4135ZM4.57815 13.4135C4.57823 13.4135 4.5783 13.4134 4.57837 13.4133L4.57819 13.4135L4.57815 13.4135ZM3.25746 8.79861C3.25751 8.79865 3.25757 8.79869 3.25763 8.79873L3.25746 8.79861L3.16841 8.92166L3.25746 8.79861Z" fill="white" stroke="black" style="fill:white;fill-opacity:1;stroke:black;stroke-opacity:1;"/>
<path d="M0.762225 1.29032C0.929341 1.1232 1.15575 1.02894 1.39207 1.02808H12.8005C13.0369 1.02893 13.2633 1.12319 13.4304 1.29031L13.7827 0.937982L13.4304 1.29031C13.5976 1.45745 13.6918 1.68389 13.6927 1.92024V2.92808H0.5V1.92019C0.500853 1.68386 0.595107 1.45744 0.762225 1.29032Z" fill="white" stroke="black" style="fill:white;fill-opacity:1;stroke:black;stroke-opacity:1;"/>
</svg>
