<svg width="19" height="13" viewBox="0 0 19 13" fill="none" xmlns="http://www.w3.org/2000/svg">
<path d="M1.05163 3.62504C1.1746 3.7443 1.33342 3.80363 1.49223 3.80363C1.65722 3.80363 1.82221 3.73936 1.94642 3.61144L3.29297 2.22369L3.29324 12.3369C3.29324 12.6866 3.57657 12.9697 3.92602 12.9697C4.27547 12.9697 4.5588 12.6866 4.5588 12.3369L4.55853 2.22369L5.90531 3.61144C6.14909 3.86233 6.54952 3.86851 6.8001 3.62504C7.05098 3.38157 7.05685 2.98114 6.81369 2.73025L4.3799 0.221997C4.37971 0.221766 4.37936 0.221727 4.37917 0.221495C4.26411 0.102502 4.10434 0.0273438 3.92571 0.0273438C3.74708 0.0273438 3.58731 0.102502 3.47225 0.221495C3.47206 0.221727 3.47171 0.221766 3.47152 0.221997L1.03804 2.73025C0.794565 2.98114 0.800744 3.38157 1.05163 3.62504Z" fill="#3E3E3E" style="fill:#3E3E3E;fill:color(display-p3 0.2431 0.2431 0.2431);fill-opacity:1;"/>
<path d="M16.601 4.55075C16.601 4.20099 16.3176 3.91797 15.9682 3.91797H9.10153C8.75208 3.91797 8.46875 4.20099 8.46875 4.55075C8.46875 4.90051 8.75208 5.18353 9.10153 5.18353H15.9682C16.3176 5.18353 16.601 4.90051 16.601 4.55075Z" fill="#3E3E3E" style="fill:#3E3E3E;fill:color(display-p3 0.2431 0.2431 0.2431);fill-opacity:1;"/>
<path d="M14.6266 8.44137C14.6266 8.09161 14.3433 7.80859 13.9938 7.80859H9.10153C8.75208 7.80859 8.46875 8.09161 8.46875 8.44137C8.46875 8.79113 8.75208 9.07415 9.10153 9.07415H13.9938C14.3433 9.07415 14.6266 8.79113 14.6266 8.44137Z" fill="#3E3E3E" style="fill:#3E3E3E;fill:color(display-p3 0.2431 0.2431 0.2431);fill-opacity:1;"/>
<path d="M9.10153 11.7031C8.75208 11.7031 8.46875 11.9861 8.46875 12.3359C8.46875 12.6857 8.75208 12.9687 9.10153 12.9687H12.0198C12.3692 12.9687 12.6526 12.6857 12.6526 12.3359C12.6526 11.9861 12.3692 11.7031 12.0198 11.7031H9.10153Z" fill="#3E3E3E" style="fill:#3E3E3E;fill:color(display-p3 0.2431 0.2431 0.2431);fill-opacity:1;"/>
<path d="M17.9425 0.0273438H9.10153C8.75208 0.0273438 8.46875 0.310364 8.46875 0.660123C8.46875 1.00988 8.75208 1.2929 9.10153 1.2929H17.9425C18.292 1.2929 18.5753 1.00988 18.5753 0.660123C18.5753 0.310364 18.292 0.0273438 17.9425 0.0273438Z" fill="#3E3E3E" style="fill:#3E3E3E;fill:color(display-p3 0.2431 0.2431 0.2431);fill-opacity:1;"/>
</svg>
