<svg width="21" height="25" viewBox="0 0 21 25" fill="none" xmlns="http://www.w3.org/2000/svg">
<g clip-path="url(#clip0_667_207813)">
<path d="M0.833447 8.29736C0.742676 8.20649 0.616699 8.1543 0.488281 8.1543C0.359863 8.1543 0.233936 8.20654 0.143066 8.29736C0.0521973 8.38818 0 8.51416 0 8.64258C0 8.771 0.0521973 8.89697 0.143066 8.98774C0.233887 9.07861 0.359863 9.13086 0.488281 9.13086C0.616699 9.13086 0.742676 9.07861 0.833447 8.98774C0.924316 8.89697 0.976562 8.771 0.976562 8.64258C0.976562 8.51416 0.924316 8.38818 0.833447 8.29736Z" fill="#0A66C2" style="fill:#0A66C2;fill:color(display-p3 0.0392 0.4000 0.7608);fill-opacity:1;"/>
<path d="M19.2383 0H9.35874C9.08911 0 8.87046 0.218652 8.87046 0.488281C8.87046 0.75791 9.08911 0.976562 9.35874 0.976562H19.2383C19.5075 0.976562 19.7266 1.19561 19.7266 1.46484V23.5352C19.7266 23.8044 19.5075 24.0234 19.2383 24.0234H1.46484C1.19561 24.0234 0.976562 23.8044 0.976562 23.5352V10.4655C0.976562 10.1958 0.75791 9.9772 0.488281 9.9772C0.218652 9.9772 0 10.1958 0 10.4655V23.5352C0 24.3429 0.657129 25 1.46484 25H19.2383C20.046 25 20.7031 24.3429 20.7031 23.5352V1.46484C20.7031 0.657129 20.046 0 19.2383 0Z" fill="#0A66C2" style="fill:#0A66C2;fill:color(display-p3 0.0392 0.4000 0.7608);fill-opacity:1;"/>
<path d="M10.3527 1.95312C10.0205 1.95312 9.68663 1.97852 9.36036 2.02852C9.09381 2.06943 8.91085 2.3186 8.95172 2.58516C8.99259 2.85171 9.2419 3.03442 9.50836 2.9938C9.78585 2.95122 10.0699 2.92969 10.3527 2.92969C13.3952 2.92969 15.8704 5.40488 15.8704 8.44731C15.8704 9.79839 15.382 11.0373 14.5728 11.9976C14.2148 11.3819 13.7257 10.8508 13.1321 10.4388C12.7857 10.1984 12.4134 10.0065 12.0238 9.86445C12.4685 9.42974 12.7453 8.82393 12.7453 8.15439V7.67832C12.7453 6.35898 11.672 5.28569 10.3527 5.28569C9.03346 5.28569 7.96017 6.35898 7.96017 7.67832V8.15439C7.96017 8.82393 8.23692 9.42974 8.6817 9.86445C8.2921 10.0065 7.91988 10.1984 7.5734 10.4388C6.97696 10.8528 6.48595 11.3869 6.12745 12.0063C5.5109 11.2736 5.07994 10.3725 4.91134 9.36714C4.86676 9.10127 4.61475 8.92188 4.34903 8.96636C4.08307 9.01094 3.90362 9.2627 3.9482 9.52866C4.19928 11.0257 4.97647 12.396 6.13668 13.3871C7.31007 14.3895 8.80738 14.9416 10.3527 14.9416C13.9336 14.9416 16.8469 12.0283 16.8469 8.44736C16.8469 4.86646 13.9337 1.95312 10.3527 1.95312ZM8.93673 7.67827C8.93673 6.89746 9.57198 6.26221 10.3527 6.26221C11.1335 6.26221 11.7688 6.89746 11.7688 7.67827V8.15435C11.7688 8.93511 11.1335 9.57036 10.3527 9.57036C9.57198 9.57036 8.93673 8.93511 8.93673 8.15435V7.67827ZM10.3527 13.9649C9.03077 13.9649 7.8086 13.5033 6.85206 12.7207C7.50772 11.39 8.8481 10.5469 10.3527 10.5469C11.8543 10.5469 13.1921 11.3866 13.8492 12.7124C12.8967 13.4947 11.6786 13.9649 10.3527 13.9649Z" fill="#0A66C2" style="fill:#0A66C2;fill:color(display-p3 0.0392 0.4000 0.7608);fill-opacity:1;"/>
<path d="M14.8613 19.4336H7.92773C7.65811 19.4336 7.43945 19.6522 7.43945 19.9219C7.43945 20.1915 7.65811 20.4102 7.92773 20.4102H14.8613C15.131 20.4102 15.3496 20.1915 15.3496 19.9219C15.3496 19.6522 15.131 19.4336 14.8613 19.4336Z" fill="#0A66C2" style="fill:#0A66C2;fill:color(display-p3 0.0392 0.4000 0.7608);fill-opacity:1;"/>
<path d="M6.18701 16.8423C6.09619 16.7514 5.97021 16.6992 5.8418 16.6992C5.71338 16.6992 5.5874 16.7515 5.49658 16.8423C5.40576 16.9331 5.35352 17.0591 5.35352 17.1875C5.35352 17.3164 5.40581 17.4419 5.49658 17.5327C5.5874 17.6235 5.71338 17.6758 5.8418 17.6758C5.97021 17.6758 6.09619 17.6235 6.18701 17.5327C6.27832 17.4419 6.33008 17.3159 6.33008 17.1875C6.33008 17.0591 6.27832 16.9331 6.18701 16.8423Z" fill="#0A66C2" style="fill:#0A66C2;fill:color(display-p3 0.0392 0.4000 0.7608);fill-opacity:1;"/>
<path d="M6.18701 19.5767C6.09619 19.4858 5.9707 19.4336 5.8418 19.4336C5.71338 19.4336 5.5874 19.4858 5.49658 19.5767C5.40576 19.6675 5.35352 19.7935 5.35352 19.9219C5.35352 20.0507 5.40581 20.1763 5.49658 20.267C5.5874 20.3579 5.71338 20.4102 5.8418 20.4102C5.97021 20.4102 6.09619 20.3579 6.18701 20.267C6.27832 20.1763 6.33008 20.0508 6.33008 19.9219C6.33008 19.7935 6.27832 19.6675 6.18701 19.5767Z" fill="#0A66C2" style="fill:#0A66C2;fill:color(display-p3 0.0392 0.4000 0.7608);fill-opacity:1;"/>
<path d="M14.8613 16.6992H7.92773C7.65811 16.6992 7.43945 16.9179 7.43945 17.1875C7.43945 17.4571 7.65811 17.6758 7.92773 17.6758H14.8613C15.131 17.6758 15.3496 17.4571 15.3496 17.1875C15.3496 16.9179 15.131 16.6992 14.8613 16.6992Z" fill="#0A66C2" style="fill:#0A66C2;fill:color(display-p3 0.0392 0.4000 0.7608);fill-opacity:1;"/>
<path d="M5.74364 2.81484C5.55287 2.62422 5.24379 2.62422 5.05306 2.81484L3.46293 4.40498L2.91952 3.86157C2.72875 3.67095 2.41967 3.67095 2.22894 3.86157C2.03827 4.05229 2.03827 4.36147 2.22894 4.55215L3.11761 5.44082C3.21298 5.53613 3.33788 5.58384 3.46288 5.58384C3.58788 5.58384 3.71278 5.53613 3.80819 5.44087L5.74364 3.50542C5.93431 3.3147 5.93431 3.00552 5.74364 2.81484Z" fill="#0A66C2" style="fill:#0A66C2;fill:color(display-p3 0.0392 0.4000 0.7608);fill-opacity:1;"/>
<path d="M4.00391 0C1.79614 0 0 1.79614 0 4.00391C0 6.21167 1.79614 8.00781 4.00391 8.00781C6.21167 8.00781 8.00781 6.21167 8.00781 4.00391C8.00781 1.79614 6.21167 0 4.00391 0ZM4.00391 7.03125C2.33462 7.03125 0.976562 5.67319 0.976562 4.00391C0.976562 2.33462 2.33462 0.976562 4.00391 0.976562C5.67319 0.976562 7.03125 2.33462 7.03125 4.00391C7.03125 5.67319 5.67319 7.03125 4.00391 7.03125Z" fill="#0A66C2" style="fill:#0A66C2;fill:color(display-p3 0.0392 0.4000 0.7608);fill-opacity:1;"/>
</g>
<defs>
<clipPath id="clip0_667_207813">
<rect width="20.7031" height="25" fill="white" style="fill:white;fill-opacity:1;"/>
</clipPath>
</defs>
</svg>
