<svg width="21" height="25" viewBox="0 0 21 25" fill="none" xmlns="http://www.w3.org/2000/svg">
<path d="M0.833447 8.29541C0.742676 8.20454 0.616699 8.15234 0.488281 8.15234C0.359863 8.15234 0.233936 8.20459 0.143066 8.29541C0.0521973 8.38623 0 8.51221 0 8.64062C0 8.76904 0.0521973 8.89502 0.143066 8.98579C0.233887 9.07666 0.359863 9.12891 0.488281 9.12891C0.616699 9.12891 0.742676 9.07666 0.833447 8.98579C0.924316 8.89502 0.976562 8.76904 0.976562 8.64062C0.976562 8.51221 0.924316 8.38623 0.833447 8.29541Z" fill="#0A66C2" style="fill:#0A66C2;fill:color(display-p3 0.0392 0.4000 0.7608);fill-opacity:1;"/>
<path d="M19.2383 0H9.35874C9.08911 0 8.87046 0.218652 8.87046 0.488281C8.87046 0.75791 9.08911 0.976562 9.35874 0.976562H19.2383C19.5075 0.976562 19.7266 1.19561 19.7266 1.46484V23.5352C19.7266 23.8044 19.5075 24.0234 19.2383 24.0234H1.46484C1.19561 24.0234 0.976562 23.8044 0.976562 23.5352V10.4655C0.976562 10.1958 0.75791 9.9772 0.488281 9.9772C0.218652 9.9772 0 10.1958 0 10.4655V23.5352C0 24.3429 0.657129 25 1.46484 25H19.2383C20.046 25 20.7031 24.3429 20.7031 23.5352V1.46484C20.7031 0.657129 20.046 0 19.2383 0Z" fill="#0A66C2" style="fill:#0A66C2;fill:color(display-p3 0.0392 0.4000 0.7608);fill-opacity:1;"/>
<path d="M10.3488 1.95312C10.0166 1.95312 9.68272 1.97852 9.35645 2.02852C9.0899 2.06943 8.90694 2.3186 8.94781 2.58516C8.98868 2.85171 9.238 3.03442 9.50445 2.9938C9.78194 2.95122 10.066 2.92969 10.3488 2.92969C13.3913 2.92969 15.8665 5.40488 15.8665 8.44731C15.8665 9.79839 15.3781 11.0373 14.5689 11.9976C14.2108 11.3819 13.7218 10.8508 13.1282 10.4388C12.7817 10.1984 12.4095 10.0065 12.0199 9.86445C12.4646 9.42974 12.7414 8.82393 12.7414 8.15439V7.67832C12.7414 6.35898 11.6681 5.28569 10.3488 5.28569C9.02955 5.28569 7.95626 6.35898 7.95626 7.67832V8.15439C7.95626 8.82393 8.23302 9.42974 8.67779 9.86445C8.28819 10.0065 7.91598 10.1984 7.56949 10.4388C6.97306 10.8528 6.48204 11.3869 6.12354 12.0063C5.50699 11.2736 5.07603 10.3725 4.90743 9.36714C4.86285 9.10127 4.61085 8.92188 4.34513 8.96636C4.07916 9.01094 3.89972 9.2627 3.9443 9.52866C4.19537 11.0257 4.97257 12.396 6.13277 13.3871C7.30616 14.3895 8.80347 14.9416 10.3488 14.9416C13.9297 14.9416 16.843 12.0283 16.843 8.44736C16.843 4.86646 13.9297 1.95312 10.3488 1.95312ZM8.93282 7.67827C8.93282 6.89746 9.56807 6.26221 10.3488 6.26221C11.1296 6.26221 11.7649 6.89746 11.7649 7.67827V8.15435C11.7649 8.93511 11.1296 9.57036 10.3488 9.57036C9.56807 9.57036 8.93282 8.93511 8.93282 8.15435V7.67827ZM10.3488 13.9649C9.02686 13.9649 7.8047 13.5033 6.84815 12.7207C7.50382 11.39 8.8442 10.5469 10.3488 10.5469C11.8503 10.5469 13.1882 11.3866 13.8453 12.7124C12.8928 13.4947 11.6747 13.9649 10.3488 13.9649Z" fill="#0A66C2" style="fill:#0A66C2;fill:color(display-p3 0.0392 0.4000 0.7608);fill-opacity:1;"/>
<path d="M14.8594 19.4336H7.92578C7.65615 19.4336 7.4375 19.6522 7.4375 19.9219C7.4375 20.1915 7.65615 20.4102 7.92578 20.4102H14.8594C15.1291 20.4102 15.3477 20.1915 15.3477 19.9219C15.3477 19.6522 15.129 19.4336 14.8594 19.4336Z" fill="#0A66C2" style="fill:#0A66C2;fill:color(display-p3 0.0392 0.4000 0.7608);fill-opacity:1;"/>
<path d="M6.18506 16.8423C6.09424 16.7514 5.96826 16.6992 5.83984 16.6992C5.71143 16.6992 5.58545 16.7515 5.49463 16.8423C5.40381 16.9331 5.35156 17.0591 5.35156 17.1875C5.35156 17.3164 5.40386 17.4419 5.49463 17.5327C5.58545 17.6235 5.71143 17.6758 5.83984 17.6758C5.96826 17.6758 6.09424 17.6235 6.18506 17.5327C6.27637 17.4419 6.32812 17.3159 6.32812 17.1875C6.32812 17.0591 6.27637 16.9331 6.18506 16.8423Z" fill="#0A66C2" style="fill:#0A66C2;fill:color(display-p3 0.0392 0.4000 0.7608);fill-opacity:1;"/>
<path d="M6.18506 19.5767C6.09424 19.4858 5.96875 19.4336 5.83984 19.4336C5.71143 19.4336 5.58545 19.4858 5.49463 19.5767C5.40381 19.6675 5.35156 19.7935 5.35156 19.9219C5.35156 20.0507 5.40386 20.1763 5.49463 20.267C5.58545 20.3579 5.71143 20.4102 5.83984 20.4102C5.96826 20.4102 6.09424 20.3579 6.18506 20.267C6.27637 20.1763 6.32812 20.0508 6.32812 19.9219C6.32812 19.7935 6.27637 19.6675 6.18506 19.5767Z" fill="#0A66C2" style="fill:#0A66C2;fill:color(display-p3 0.0392 0.4000 0.7608);fill-opacity:1;"/>
<path d="M14.8594 16.6992H7.92578C7.65615 16.6992 7.4375 16.9179 7.4375 17.1875C7.4375 17.4571 7.65615 17.6758 7.92578 17.6758H14.8594C15.1291 17.6758 15.3477 17.4571 15.3477 17.1875C15.3477 16.9179 15.129 16.6992 14.8594 16.6992Z" fill="#0A66C2" style="fill:#0A66C2;fill:color(display-p3 0.0392 0.4000 0.7608);fill-opacity:1;"/>
<path d="M5.74364 2.81484C5.55287 2.62422 5.24379 2.62422 5.05306 2.81484L3.46293 4.40498L2.91952 3.86157C2.72875 3.67095 2.41967 3.67095 2.22894 3.86157C2.03827 4.05229 2.03827 4.36147 2.22894 4.55215L3.11761 5.44082C3.21298 5.53613 3.33788 5.58384 3.46288 5.58384C3.58788 5.58384 3.71278 5.53613 3.80819 5.44087L5.74364 3.50542C5.93431 3.3147 5.93431 3.00552 5.74364 2.81484Z" fill="#0A66C2" style="fill:#0A66C2;fill:color(display-p3 0.0392 0.4000 0.7608);fill-opacity:1;"/>
<path d="M4.00391 0C1.79614 0 0 1.79614 0 4.00391C0 6.21167 1.79614 8.00781 4.00391 8.00781C6.21167 8.00781 8.00781 6.21167 8.00781 4.00391C8.00781 1.79614 6.21167 0 4.00391 0ZM4.00391 7.03125C2.33462 7.03125 0.976562 5.67319 0.976562 4.00391C0.976562 2.33462 2.33462 0.976562 4.00391 0.976562C5.67319 0.976562 7.03125 2.33462 7.03125 4.00391C7.03125 5.67319 5.67319 7.03125 4.00391 7.03125Z" fill="#0A66C2" style="fill:#0A66C2;fill:color(display-p3 0.0392 0.4000 0.7608);fill-opacity:1;"/>
</svg>
