<svg width="26" height="25" viewBox="0 0 26 25" fill="none" xmlns="http://www.w3.org/2000/svg">
<g clip-path="url(#clip0_667_180370)">
<path d="M2.59124 11.5079H9.28767C9.95344 11.5072 10.5917 11.2472 11.0625 10.7848C11.5333 10.3225 11.7981 9.69574 11.7988 9.04195V2.46599C11.7981 1.81219 11.5333 1.18539 11.0625 0.723088C10.5917 0.260786 9.95344 0.000739709 9.28767 0H2.59124C1.92547 0.000739709 1.28718 0.260786 0.816412 0.723088C0.345641 1.18539 0.0808314 1.81219 0.0800781 2.46599V9.04195C0.0808314 9.69574 0.345641 10.3225 0.816412 10.7848C1.28718 11.2472 1.92547 11.5072 2.59124 11.5079ZM1.75419 2.46599C1.75419 2.24798 1.84237 2.0389 1.99935 1.88475C2.15633 1.73059 2.36924 1.64399 2.59124 1.64399H9.28767C9.50967 1.64399 9.72258 1.73059 9.87955 1.88475C10.0365 2.0389 10.1247 2.24798 10.1247 2.46599V9.04195C10.1247 9.25996 10.0365 9.46903 9.87955 9.62319C9.72258 9.77734 9.50967 9.86395 9.28767 9.86395H2.59124C2.36924 9.86395 2.15633 9.77734 1.99935 9.62319C1.84237 9.46903 1.75419 9.25996 1.75419 9.04195V2.46599Z" fill="#0A66C2" style="fill:#0A66C2;fill:color(display-p3 0.0392 0.4000 0.7608);fill-opacity:1;"/>
<path d="M2.59124 25.0001H9.28767C9.95344 24.9994 10.5917 24.7393 11.0625 24.277C11.5333 23.8147 11.7981 23.1879 11.7988 22.5341V15.9582C11.7981 15.3044 11.5333 14.6776 11.0625 14.2153C10.5917 13.753 9.95344 13.4929 9.28767 13.4922H2.59124C1.92547 13.4929 1.28718 13.753 0.816412 14.2153C0.345641 14.6776 0.0808314 15.3044 0.0800781 15.9582V22.5341C0.0808314 23.1879 0.345641 23.8147 0.816412 24.277C1.28718 24.7393 1.92547 24.9994 2.59124 25.0001ZM1.75419 15.9582C1.75419 15.7402 1.84237 15.5311 1.99935 15.3769C2.15633 15.2228 2.36924 15.1362 2.59124 15.1362H9.28767C9.50967 15.1362 9.72258 15.2228 9.87955 15.3769C10.0365 15.5311 10.1247 15.7402 10.1247 15.9582V22.5341C10.1247 22.7521 10.0365 22.9612 9.87955 23.1154C9.72258 23.2695 9.50967 23.3561 9.28767 23.3561H2.59124C2.36924 23.3561 2.15633 23.2695 1.99935 23.1154C1.84237 22.9612 1.75419 22.7521 1.75419 22.5341V15.9582Z" fill="#0A66C2" style="fill:#0A66C2;fill:color(display-p3 0.0392 0.4000 0.7608);fill-opacity:1;"/>
<path d="M22.5689 0H15.8725C15.2067 0.000739709 14.5684 0.260786 14.0977 0.723088C13.6269 1.18539 13.3621 1.81219 13.3613 2.46599V9.04195C13.3621 9.69574 13.6269 10.3225 14.0977 10.7848C14.5684 11.2472 15.2067 11.5072 15.8725 11.5079H22.5689C23.2347 11.5072 23.873 11.2472 24.3437 10.7848C24.8145 10.3225 25.0793 9.69574 25.0801 9.04195V2.46599C25.0793 1.81219 24.8145 1.18539 24.3437 0.723088C23.873 0.260786 23.2347 0.000739709 22.5689 0ZM23.406 9.04195C23.406 9.25996 23.3178 9.46903 23.1608 9.62319C23.0038 9.77734 22.7909 9.86395 22.5689 9.86395H15.8725C15.6505 9.86395 15.4376 9.77734 15.2806 9.62319C15.1236 9.46903 15.0354 9.25996 15.0354 9.04195V2.46599C15.0354 2.24798 15.1236 2.0389 15.2806 1.88475C15.4376 1.73059 15.6505 1.64399 15.8725 1.64399H22.5689C22.7909 1.64399 23.0038 1.73059 23.1608 1.88475C23.3178 2.0389 23.406 2.24798 23.406 2.46599V9.04195Z" fill="#0A66C2" style="fill:#0A66C2;fill:color(display-p3 0.0392 0.4000 0.7608);fill-opacity:1;"/>
<path d="M19.2207 13.4922C18.0618 13.4922 16.929 13.8297 15.9654 14.4619C15.0018 15.0942 14.2508 15.9928 13.8073 17.0442C13.3639 18.0956 13.2478 19.2525 13.4739 20.3687C13.7 21.4849 14.2581 22.5101 15.0775 23.3148C15.897 24.1195 16.941 24.6675 18.0776 24.8896C19.2142 25.1116 20.3923 24.9976 21.463 24.5621C22.5337 24.1266 23.4488 23.3891 24.0926 22.4429C24.7364 21.4967 25.0801 20.3842 25.0801 19.2462C25.0782 17.7207 24.4603 16.2582 23.3619 15.1795C22.2634 14.1008 20.7741 13.494 19.2207 13.4922ZM19.2207 23.3561C18.3929 23.3561 17.5838 23.1151 16.8955 22.6635C16.2072 22.2119 15.6708 21.57 15.354 20.819C15.0372 20.068 14.9544 19.2416 15.1159 18.4443C15.2773 17.6471 15.676 16.9148 16.2613 16.34C16.8466 15.7652 17.5923 15.3737 18.4042 15.2151C19.2161 15.0566 20.0576 15.138 20.8223 15.449C21.5871 15.7601 22.2407 16.2869 22.7006 16.9628C23.1605 17.6387 23.406 18.4333 23.406 19.2462C23.4046 20.3358 22.9633 21.3804 22.1787 22.1509C21.3941 22.9214 20.3303 23.3548 19.2207 23.3561Z" fill="#0A66C2" style="fill:#0A66C2;fill:color(display-p3 0.0392 0.4000 0.7608);fill-opacity:1;"/>
</g>
<defs>
<clipPath id="clip0_667_180370">
<rect width="25" height="25" fill="white" style="fill:white;fill-opacity:1;" transform="translate(0.0800781)"/>
</clipPath>
</defs>
</svg>
