<svg width="25" height="26" viewBox="0 0 25 26" fill="none" xmlns="http://www.w3.org/2000/svg">
<g clip-path="url(#clip0_667_193933)">
<path d="M14.3589 20.8728L11.3047 21.7348L11.8405 18.6098L22.0214 7.13355C22.6644 6.43312 23.736 6.37924 24.4326 6.97192C25.1292 7.61847 25.1828 8.69605 24.5934 9.39648L14.3589 20.8728Z" stroke="#0A66C2" style="stroke:#0A66C2;stroke:color(display-p3 0.0392 0.4000 0.7608);stroke-opacity:1;" stroke-miterlimit="10" stroke-linecap="round" stroke-linejoin="round"/>
<path d="M12.5918 17.6953L15.1102 19.9582" stroke="#0A66C2" style="stroke:#0A66C2;stroke:color(display-p3 0.0392 0.4000 0.7608);stroke-opacity:1;" stroke-miterlimit="10" stroke-linecap="round" stroke-linejoin="round"/>
<path d="M13.6641 16.5098L16.1825 18.7727" stroke="#0A66C2" style="stroke:#0A66C2;stroke:color(display-p3 0.0392 0.4000 0.7608);stroke-opacity:1;" stroke-miterlimit="10" stroke-linecap="round" stroke-linejoin="round"/>
<path d="M22.9325 11.175L20.4141 8.91211" stroke="#0A66C2" style="stroke:#0A66C2;stroke:color(display-p3 0.0392 0.4000 0.7608);stroke-opacity:1;" stroke-miterlimit="10" stroke-linecap="round" stroke-linejoin="round"/>
<path d="M21.7547 12.5227L19.2363 10.2598" stroke="#0A66C2" style="stroke:#0A66C2;stroke:color(display-p3 0.0392 0.4000 0.7608);stroke-opacity:1;" stroke-miterlimit="10" stroke-linecap="round" stroke-linejoin="round"/>
<path d="M20.6832 13.7074V23.8367C20.6832 24.7527 19.9866 25.4531 19.0757 25.4531H1.6075C0.750167 25.4531 0 24.7527 0 23.8367V2.0695C0 1.20744 0.696584 0.453125 1.6075 0.453125H19.0757C19.933 0.453125 20.6832 1.15356 20.6832 2.0695V8.64278" stroke="#0A66C2" style="stroke:#0A66C2;stroke:color(display-p3 0.0392 0.4000 0.7608);stroke-opacity:1;" stroke-miterlimit="10" stroke-linecap="round" stroke-linejoin="round"/>
<path d="M12.2168 12.9531H14.0386" stroke="#0A66C2" style="stroke:#0A66C2;stroke:color(display-p3 0.0392 0.4000 0.7608);stroke-opacity:1;" stroke-miterlimit="10" stroke-linecap="round" stroke-linejoin="round"/>
<path d="M2.67969 12.9531H3.2691" stroke="#0A66C2" style="stroke:#0A66C2;stroke:color(display-p3 0.0392 0.4000 0.7608);stroke-opacity:1;" stroke-miterlimit="10" stroke-linecap="round" stroke-linejoin="round"/>
<path d="M2.73242 16.0781H11.145" stroke="#0A66C2" style="stroke:#0A66C2;stroke:color(display-p3 0.0392 0.4000 0.7608);stroke-opacity:1;" stroke-miterlimit="10" stroke-linecap="round" stroke-linejoin="round"/>
<path d="M2.73242 19.1484H9.16243" stroke="#0A66C2" style="stroke:#0A66C2;stroke:color(display-p3 0.0392 0.4000 0.7608);stroke-opacity:1;" stroke-miterlimit="10" stroke-linecap="round" stroke-linejoin="round"/>
<path d="M13.9844 22.2734H18.0031" stroke="#0A66C2" style="stroke:#0A66C2;stroke:color(display-p3 0.0392 0.4000 0.7608);stroke-opacity:1;" stroke-miterlimit="10" stroke-linecap="round" stroke-linejoin="round"/>
<path d="M2.73242 22.2734H9.5911" stroke="#0A66C2" style="stroke:#0A66C2;stroke:color(display-p3 0.0392 0.4000 0.7608);stroke-opacity:1;" stroke-miterlimit="10" stroke-linecap="round" stroke-linejoin="round"/>
<path d="M15.4316 3.68555H18.0036" stroke="#0A66C2" style="stroke:#0A66C2;stroke:color(display-p3 0.0392 0.4000 0.7608);stroke-opacity:1;" stroke-miterlimit="10" stroke-linecap="round" stroke-linejoin="round"/>
<path d="M12.5918 3.68555H13.2884" stroke="#0A66C2" style="stroke:#0A66C2;stroke:color(display-p3 0.0392 0.4000 0.7608);stroke-opacity:1;" stroke-miterlimit="10" stroke-linecap="round" stroke-linejoin="round"/>
<path d="M14.3594 6.75781H18.003" stroke="#0A66C2" style="stroke:#0A66C2;stroke:color(display-p3 0.0392 0.4000 0.7608);stroke-opacity:1;" stroke-miterlimit="10" stroke-linecap="round" stroke-linejoin="round"/>
<path d="M13.5566 9.88281H18.0041" stroke="#0A66C2" style="stroke:#0A66C2;stroke:color(display-p3 0.0392 0.4000 0.7608);stroke-opacity:1;" stroke-miterlimit="10" stroke-linecap="round" stroke-linejoin="round"/>
<path d="M11.0914 9.18124C10.9843 9.66615 10.8235 10.0972 10.5556 10.5282L11.2522 11.4442L10.4484 12.2524L9.53751 11.5519C9.16243 11.8213 8.68018 11.983 8.19793 12.0907L8.03718 13.2222H6.91193L6.75118 12.0907C6.26893 11.983 5.84026 11.8213 5.41159 11.5519L4.50067 12.2524L3.69692 11.4442L4.39351 10.5282C4.12559 10.1511 3.96484 9.66615 3.85767 9.18124L2.73242 9.0196V7.88813L3.85767 7.7265C3.96484 7.24158 4.12559 6.81055 4.39351 6.37951L3.69692 5.46356L4.50067 4.65537L5.41159 5.35581C5.78668 5.08641 6.26893 4.92477 6.75118 4.81701L6.91193 3.68555H8.03718L8.19793 4.81701C8.68018 4.92477 9.10885 5.08641 9.53751 5.35581L10.4484 4.65537L11.2522 5.46356L10.5556 6.37951C10.8235 6.75667 10.9843 7.24158 11.0914 7.7265L12.2167 7.88813V9.0196L11.0914 9.18124Z" stroke="#0A66C2" style="stroke:#0A66C2;stroke:color(display-p3 0.0392 0.4000 0.7608);stroke-opacity:1;" stroke-miterlimit="10" stroke-linecap="round" stroke-linejoin="round"/>
<path d="M7.44726 9.66595C8.12791 9.66595 8.67968 9.11113 8.67968 8.42672C8.67968 7.74232 8.12791 7.1875 7.44726 7.1875C6.76662 7.1875 6.21484 7.74232 6.21484 8.42672C6.21484 9.11113 6.76662 9.66595 7.44726 9.66595Z" stroke="#0A66C2" style="stroke:#0A66C2;stroke:color(display-p3 0.0392 0.4000 0.7608);stroke-opacity:1;" stroke-miterlimit="10" stroke-linecap="round" stroke-linejoin="round"/>
</g>
<defs>
<clipPath id="clip0_667_193933">
<rect width="24.9996" height="25" fill="white" style="fill:white;fill-opacity:1;" transform="translate(0 0.453125)"/>
</clipPath>
</defs>
</svg>
