<svg width="27" height="28" viewBox="0 0 27 28" fill="none" xmlns="http://www.w3.org/2000/svg">
<path d="M13.5096 4.19458C13.8029 4.19458 14.0407 3.9568 14.0407 3.66349V1.29476C14.0407 1.00145 13.8029 0.763672 13.5096 0.763672C13.2163 0.763672 12.9785 1.00145 12.9785 1.29476V3.66349C12.9786 3.9568 13.2163 4.19458 13.5096 4.19458Z" fill="#0A66C2" style="fill:#0A66C2;fill:color(display-p3 0.0392 0.4000 0.7608);fill-opacity:1;"/>
<path d="M26.4911 19.0087L25.5529 18.0732C25.2192 17.7398 24.7743 17.5562 24.3004 17.5562C23.9973 17.5562 23.7064 17.6316 23.4485 17.7729L21.6806 16.007L21.7667 15.921C22.4839 15.2024 22.4837 14.0345 21.7666 13.3183C21.5104 13.0616 21.1907 12.8904 20.8421 12.8184C20.8901 12.6527 20.9154 12.4792 20.9154 12.3017C20.9154 11.8084 20.7238 11.3458 20.3769 11.0003C20.1206 10.7436 19.8009 10.5724 19.4524 10.5004C19.5004 10.3347 19.5256 10.1613 19.5256 9.9837C19.5256 9.49031 19.334 9.02778 18.9865 8.68179C18.7241 8.4197 18.4015 8.25379 18.0628 8.18318C18.244 7.55844 18.0892 6.85554 17.5977 6.36321C17.1886 5.95584 16.6335 5.78076 16.0985 5.8375L12.595 5.17436C12.0607 5.07301 11.3935 5.00598 10.9723 5.39015C10.9457 5.41441 10.9186 5.44231 10.8919 5.47337C10.2389 5.23532 9.47718 5.37707 8.95421 5.89946C8.60727 6.24598 8.41616 6.70836 8.41616 7.20142C8.41616 7.37903 8.44131 7.55248 8.48925 7.71817C8.1411 7.79015 7.82179 7.96112 7.56639 8.21698C7.21877 8.56319 7.02708 9.02503 7.02671 9.51752C7.02655 9.69555 7.05181 9.86958 7.10001 10.0357C6.7517 10.1075 6.43218 10.2782 6.176 10.534C5.82837 10.8813 5.63694 11.3439 5.63694 11.8367C5.63694 12.2142 5.74964 12.5738 5.95847 12.8776C5.69479 12.9669 5.45327 13.1157 5.25103 13.3177C4.53332 14.0345 4.53305 15.2024 5.25151 15.9221L5.33731 16.0076L3.56912 17.7725C2.912 17.4631 2.10236 17.579 1.56009 18.1206L0.621316 19.0568C0.287401 19.3903 0.103568 19.8351 0.103516 20.3094C0.103516 20.7837 0.287401 21.2286 0.621316 21.5621L1.79292 22.7323C2.00043 22.9396 2.33672 22.9394 2.54396 22.7319C2.75126 22.5244 2.75105 22.1881 2.54354 21.9808L1.37194 20.8107C1.23894 20.6778 1.16569 20.4998 1.16569 20.3094C1.16569 20.1191 1.23894 19.9411 1.37162 19.8086L2.31045 18.8724C2.54502 18.6381 2.90403 18.6032 3.17667 18.7662C3.19587 18.795 3.21807 18.8225 3.24348 18.8479C3.28899 18.8936 3.34094 18.9285 3.3961 18.9541L8.77992 24.33C8.8055 24.3857 8.84062 24.4382 8.88644 24.4841C8.93106 24.5288 8.98195 24.5633 9.03595 24.5887C9.1498 24.7174 9.21271 24.8819 9.21271 25.0573C9.21271 25.2476 9.13946 25.4256 9.00647 25.5585L8.06858 26.4952C7.79146 26.7711 7.34069 26.7711 7.06441 26.4961L5.89281 25.3244C5.68541 25.117 5.34917 25.117 5.14177 25.3244C4.93436 25.5318 4.93436 25.868 5.14177 26.0754L6.31421 27.248C6.65931 27.5916 7.11251 27.7634 7.56592 27.7634C8.01944 27.7634 8.47316 27.5914 8.81868 27.2474L9.75714 26.31C10.0911 25.9765 10.2749 25.5316 10.2749 25.0573C10.2749 24.7188 10.1808 24.3955 10.0058 24.1167L11.9958 22.1292C11.9979 22.127 12 22.1249 12.0022 22.1227C12.23 21.8871 12.8646 21.9312 13.4782 21.9738C13.9143 22.0042 14.4004 22.0378 14.8753 21.9831L17.0545 24.1597C16.9133 24.4171 16.838 24.7077 16.838 25.0103C16.838 25.4841 17.0218 25.9287 17.3558 26.2623L18.2943 27.1996C18.628 27.5329 19.0728 27.7166 19.5468 27.7166C20.0207 27.7166 20.4655 27.533 20.7993 27.1996L26.4915 21.5143C26.8254 21.1808 27.0093 20.7359 27.0093 20.2616C27.0092 19.7874 26.8253 19.3425 26.4911 19.0087ZM12.3973 6.21798L14.7011 6.65404L13.3222 8.03247C13.1088 7.92995 12.8165 7.73874 12.4957 7.43193C12.0567 7.01195 11.7427 6.52706 11.7141 6.22462C11.7141 6.22446 11.7141 6.22431 11.7141 6.22415C11.7141 6.2241 11.714 6.22404 11.714 6.22399C11.712 6.20226 11.7114 6.18491 11.7117 6.17168C11.7811 6.1548 11.9656 6.13608 12.3973 6.21798ZM9.70478 6.65098C9.97383 6.38219 10.3918 6.35119 10.6958 6.55706C10.8681 7.27942 11.4843 7.93412 11.7615 8.19937C11.967 8.39597 12.6262 8.98538 13.2916 9.14738C13.3816 9.27642 13.4306 9.43025 13.4306 9.59256C13.4306 9.80166 13.3502 9.99714 13.2037 10.1435C13.0575 10.2899 12.8617 10.3705 12.6523 10.3705C12.4428 10.3705 12.2469 10.2899 12.1001 10.1428L12.1001 10.1428L12.0998 10.1425L9.70473 7.75176C9.5587 7.60595 9.47828 7.41046 9.47828 7.20142C9.47834 6.99233 9.55876 6.79685 9.70478 6.65098ZM8.31702 8.9685C8.46314 8.82217 8.65874 8.74153 8.86788 8.74153C9.07729 8.74153 9.27351 8.82232 9.42059 8.96924L11.3492 10.894C11.6529 11.1982 11.6529 11.6931 11.3503 11.9963C11.2033 12.1426 11.0068 12.2232 10.797 12.2232C10.5872 12.2232 10.3907 12.1426 10.2444 11.9969L10.2444 11.9968L8.78124 10.534C8.77897 10.5318 8.77649 10.5297 8.77417 10.5273L8.31644 10.0698C8.16957 9.9231 8.08873 9.72725 8.08889 9.51831C8.0891 9.31006 8.16968 9.11521 8.31702 8.9685ZM6.92662 11.2856C7.07285 11.1395 7.26887 11.0591 7.47864 11.0591C7.68668 11.0591 7.88101 11.1384 8.02661 11.2819L9.49421 12.7488C9.64055 12.8945 9.72118 13.0898 9.72118 13.2986C9.72118 13.5074 9.64055 13.7027 9.49363 13.849C9.34745 13.995 9.15165 14.0754 8.94224 14.0754C8.73251 14.0754 8.53608 13.9948 8.38969 13.849L7.85765 13.3176C7.85754 13.3175 7.85738 13.3174 7.85728 13.3173L6.92667 12.3878C6.77997 12.2412 6.69918 12.0455 6.69918 11.8366C6.69918 11.6279 6.77996 11.432 6.92662 11.2856ZM6.00166 14.0692C6.14852 13.9225 6.3448 13.8417 6.55431 13.8417C6.76378 13.8417 6.96 13.9224 7.10681 14.069L7.63959 14.6012C7.78598 14.7469 7.86656 14.9422 7.86656 15.151C7.86656 15.3599 7.78593 15.5551 7.63848 15.702C7.49236 15.8484 7.29655 15.929 7.08709 15.929C6.87758 15.929 6.68177 15.8484 6.53459 15.701L6.46788 15.6345C6.46699 15.6336 6.4663 15.6327 6.46546 15.6318C6.46445 15.6309 6.4634 15.63 6.4624 15.6291L6.00218 15.1707C5.69849 14.8663 5.69822 14.3723 6.00166 14.0692ZM16.8246 20.1051C16.6173 19.8975 16.281 19.8974 16.0735 20.1046L15.601 20.5765C15.152 21.0255 14.3385 20.969 13.5518 20.9144C12.6974 20.855 11.8139 20.7937 11.2423 21.3807L9.28607 23.3345L4.39426 18.4498L6.12542 16.7218C6.41156 16.8972 6.74173 16.9912 7.0872 16.9912C7.58074 16.9912 8.04354 16.7999 8.38921 16.4536C8.73721 16.107 8.92889 15.6445 8.92889 15.1511C8.92889 15.1465 8.92858 15.142 8.92858 15.1374C8.93317 15.1374 8.93775 15.1377 8.94234 15.1377C9.4352 15.1377 9.89763 14.947 10.2438 14.6012C10.5918 14.2547 10.7835 13.7921 10.7835 13.2987C10.7835 13.2942 10.7831 13.2896 10.7831 13.285C10.7878 13.285 10.7924 13.2853 10.7971 13.2853C11.2898 13.2853 11.7525 13.0948 12.101 12.7478C12.4627 12.3854 12.6417 11.9084 12.6382 11.4324C12.643 11.4324 12.6477 11.4327 12.6525 11.4327C13.146 11.4326 13.6088 11.2414 13.955 10.8945C14.3019 10.548 14.493 10.0856 14.493 9.59256C14.493 9.24773 14.3993 8.91809 14.2244 8.63253L15.7418 7.11584C15.8548 7.00325 15.9943 6.93258 16.1404 6.90342C16.1562 6.90173 16.1718 6.8992 16.1873 6.89614C16.4217 6.86382 16.6679 6.93617 16.8472 7.11473C17.1509 7.41895 17.1509 7.91392 16.8483 8.21704L16.3862 8.67725C16.3847 8.67878 16.3831 8.68015 16.3815 8.68168L15.8493 9.21303C15.6417 9.42028 15.6415 9.75657 15.8488 9.96408C16.0562 10.1716 16.3924 10.1718 16.5999 9.96455L17.0638 9.50123C17.0639 9.50112 17.064 9.50102 17.0641 9.50091L17.1343 9.43104C17.4388 9.12929 17.9322 9.12992 18.2364 9.43373C18.3828 9.57948 18.4634 9.77476 18.4634 9.98359C18.4634 10.1924 18.3828 10.3876 18.2353 10.5346L17.7705 11.0003C17.7705 11.0003 17.7704 11.0004 17.7704 11.0005L17.2382 11.5305C17.0303 11.7375 17.0296 12.0738 17.2366 12.2815C17.4436 12.4894 17.7799 12.49 17.9877 12.2831L18.5223 11.7506C18.6684 11.6042 18.8642 11.5236 19.0737 11.5236C19.2832 11.5236 19.4791 11.6042 19.6262 11.7517C19.7726 11.8975 19.8532 12.0928 19.8532 12.3016C19.8532 12.5104 19.7726 12.7056 19.6254 12.8522L18.6989 13.7792C18.4915 13.9866 18.4916 14.3228 18.699 14.5302C18.8027 14.6339 18.9385 14.6857 19.0744 14.6857C19.2104 14.6857 19.3463 14.6338 19.45 14.53L19.9041 14.0758C19.9067 14.0733 19.9095 14.0711 19.9121 14.0686C20.0582 13.9222 20.254 13.8416 20.4635 13.8416C20.673 13.8416 20.8688 13.9222 21.0154 14.0691C21.3188 14.3722 21.3185 14.8663 21.0154 15.1699L20.5537 15.6311C20.5536 15.6312 20.5534 15.6314 20.5532 15.6316C20.5531 15.6317 20.5529 15.6319 20.5527 15.6321L19.8199 16.364C19.6124 16.5713 19.6122 16.9076 19.8195 17.1151C19.9232 17.2189 20.0592 17.2709 20.1952 17.2709C20.331 17.2709 20.4669 17.2191 20.5706 17.1156L20.929 16.7575L22.6469 18.4735L17.7555 23.3589L16.003 21.6084C16.1251 21.5299 16.2421 21.4375 16.3518 21.3277L16.824 20.8561C17.0317 20.6489 17.0319 20.3126 16.8246 20.1051ZM25.7408 20.7628L20.0486 26.4481C19.9154 26.5811 19.7372 26.6543 19.5467 26.6543C19.3562 26.6543 19.178 26.5811 19.0448 26.448L18.1063 25.5107C17.9733 25.3779 17.9 25.2002 17.9 25.0103C17.9 24.8204 17.9733 24.6427 18.1063 24.5099L23.7985 18.8246C23.9317 18.6915 24.1099 18.6183 24.3004 18.6183C24.4909 18.6183 24.6691 18.6915 24.8027 18.8249L25.7409 19.7605C25.8739 19.8933 25.9471 20.0712 25.9471 20.2616C25.9471 20.452 25.8738 20.63 25.7408 20.7628Z" fill="#0A66C2" style="fill:#0A66C2;fill:color(display-p3 0.0392 0.4000 0.7608);fill-opacity:1;"/>
<path d="M6.45641 3.74664C6.56008 3.85011 6.69582 3.90179 6.83156 3.90179C6.96762 3.90179 7.10372 3.84979 7.20745 3.74585C7.41465 3.53824 7.41433 3.202 7.20671 2.99481L5.27146 1.06341C5.0639 0.856214 4.72761 0.856477 4.52042 1.06415C4.31323 1.27176 4.31354 1.608 4.52116 1.81519L6.45641 3.74664Z" fill="#0A66C2" style="fill:#0A66C2;fill:color(display-p3 0.0392 0.4000 0.7608);fill-opacity:1;"/>
<path d="M20.1854 3.90177C20.3212 3.90177 20.457 3.84998 20.5607 3.74647L22.4945 1.81501C22.702 1.60777 22.7022 1.27148 22.4949 1.06397C22.2876 0.856457 21.9514 0.856247 21.7438 1.06355L19.8101 2.995C19.6026 3.20225 19.6023 3.53853 19.8096 3.74604C19.9134 3.84988 20.0494 3.90177 20.1854 3.90177Z" fill="#0A66C2" style="fill:#0A66C2;fill:color(display-p3 0.0392 0.4000 0.7608);fill-opacity:1;"/>
<path d="M3.36915 23.608C3.16354 23.8171 3.16639 24.1534 3.37559 24.359L3.37712 24.3605C3.48032 24.462 3.61432 24.5125 3.74826 24.5125C3.88574 24.5125 4.02322 24.4593 4.12737 24.3533C4.33298 24.1442 4.32934 23.8072 4.1202 23.6016C3.91111 23.3959 3.57487 23.3988 3.36915 23.608Z" fill="#0A66C2" style="fill:#0A66C2;fill:color(display-p3 0.0392 0.4000 0.7608);fill-opacity:1;"/>
<path d="M18.1242 19.3399C18.205 19.3399 18.287 19.3215 18.3639 19.2827C18.6258 19.1506 18.731 18.8313 18.5989 18.5694C18.4668 18.3075 18.1474 18.2023 17.8856 18.3344L17.8827 18.3358C17.6208 18.4679 17.517 18.7866 17.6491 19.0484C17.7423 19.2334 17.9299 19.3399 18.1242 19.3399Z" fill="#0A66C2" style="fill:#0A66C2;fill:color(display-p3 0.0392 0.4000 0.7608);fill-opacity:1;"/>
</svg>
