<svg width="25" height="26" viewBox="0 0 25 26" fill="none" xmlns="http://www.w3.org/2000/svg">
<g clip-path="url(#clip0_667_219587)">
<path d="M18.3835 22.3057C17.3444 22.3057 16.498 21.4498 16.498 20.399C16.498 19.3481 17.3444 18.4922 18.3835 18.4922C19.4226 18.4922 20.2689 19.3481 20.2689 20.399C20.2689 21.4498 19.4226 22.3057 18.3835 22.3057ZM18.3835 19.7634C18.0374 19.7634 17.755 20.049 17.755 20.399C17.755 20.749 18.0374 21.0346 18.3835 21.0346C18.7296 21.0346 19.012 20.749 19.012 20.399C19.012 20.049 18.7296 19.7634 18.3835 19.7634Z" fill="#0A66C2" style="fill:#0A66C2;fill:color(display-p3 0.0392 0.4000 0.7608);fill-opacity:1;"/>
<path d="M24.7745 7.7171L23.4606 8.82557C23.2821 8.97642 23.0231 8.97642 22.8447 8.82557L21.5307 7.7171C21.2642 7.49252 21.2282 7.09167 21.4503 6.82218C21.6723 6.55269 22.0695 6.51625 22.336 6.74167L23.1522 7.43066L23.9684 6.74167C24.2349 6.51625 24.6312 6.55269 24.8541 6.82218C25.0762 7.09167 25.041 7.49252 24.7745 7.7171Z" fill="#0A66C2" style="fill:#0A66C2;fill:color(display-p3 0.0392 0.4000 0.7608);fill-opacity:1;"/>
<path d="M19.1715 10.8415C19.5186 10.8415 19.7999 10.5569 19.7999 10.2059C19.7999 9.85488 19.5186 9.57031 19.1715 9.57031C18.8243 9.57031 18.543 9.85488 18.543 10.2059C18.543 10.5569 18.8243 10.8415 19.1715 10.8415Z" fill="#0A66C2" style="fill:#0A66C2;fill:color(display-p3 0.0392 0.4000 0.7608);fill-opacity:1;"/>
<path d="M19.1715 13.2712C19.5186 13.2712 19.7999 12.9866 19.7999 12.6356C19.7999 12.2846 19.5186 12 19.1715 12C18.8243 12 18.543 12.2846 18.543 12.6356C18.543 12.9866 18.8243 13.2712 19.1715 13.2712Z" fill="#0A66C2" style="fill:#0A66C2;fill:color(display-p3 0.0392 0.4000 0.7608);fill-opacity:1;"/>
<path d="M23.7816 7.90763H22.5246C22.5246 4.9873 20.1749 2.61103 17.2873 2.61103H16.2398C15.8929 2.61103 15.6113 2.32628 15.6113 1.97544C15.6113 1.62459 15.8929 1.33984 16.2398 1.33984H17.2873C20.868 1.33984 23.7816 4.28645 23.7816 7.90763Z" fill="#0A66C2" style="fill:#0A66C2;fill:color(display-p3 0.0392 0.4000 0.7608);fill-opacity:1;"/>
<path d="M8.67383 12.5543C6.01661 12.5543 3.85547 10.3688 3.85547 7.68147C3.85547 4.99418 6.01661 2.80859 8.67383 2.80859C11.3311 2.80859 13.4922 4.99418 13.4922 7.68147C13.4922 10.3688 11.3311 12.5543 8.67383 12.5543ZM8.67383 4.07978C6.70962 4.07978 5.11243 5.69503 5.11243 7.68147C5.11243 9.66791 6.70962 11.2832 8.67383 11.2832C10.6381 11.2832 12.2352 9.66791 12.2352 7.68147C12.2352 5.69503 10.6381 4.07978 8.67383 4.07978Z" fill="#0A66C2" style="fill:#0A66C2;fill:color(display-p3 0.0392 0.4000 0.7608);fill-opacity:1;"/>
<path d="M14.3424 5.46647C13.4441 3.11647 11.1656 1.53681 8.67265 1.53681C6.19727 1.53681 3.99004 3.03342 3.05067 5.34952L1.88672 4.86647C3.02218 2.07155 5.68527 0.265625 8.67349 0.265625C11.681 0.265625 14.4304 2.17156 15.5147 5.00799L14.3424 5.46647Z" fill="#0A66C2" style="fill:#0A66C2;fill:color(display-p3 0.0392 0.4000 0.7608);fill-opacity:1;"/>
<path d="M14.5388 11.0864C13.2676 11.0864 12.2344 10.0415 12.2344 8.75589V7.06097C12.2344 5.77538 13.2676 4.73047 14.5388 4.73047C15.81 4.73047 16.8432 5.77538 16.8432 7.06097V8.75589C16.8432 10.0415 15.81 11.0864 14.5388 11.0864ZM14.5388 6.00165C13.9614 6.00165 13.4913 6.47708 13.4913 7.06097V8.75589C13.4913 9.33978 13.9614 9.81521 14.5388 9.81521C15.1162 9.81521 15.5863 9.33978 15.5863 8.75589V7.06097C15.5863 6.47708 15.1162 6.00165 14.5388 6.00165Z" fill="#0A66C2" style="fill:#0A66C2;fill:color(display-p3 0.0392 0.4000 0.7608);fill-opacity:1;"/>
<path d="M2.80834 11.0864C1.53713 11.0864 0.503906 10.0415 0.503906 8.75589V7.06097C0.503906 5.77538 1.53713 4.73047 2.80834 4.73047C4.07955 4.73047 5.11278 5.77538 5.11278 7.06097V8.75589C5.11278 10.0415 4.07955 11.0864 2.80834 11.0864ZM2.80834 6.00165C2.23098 6.00165 1.76087 6.47708 1.76087 7.06097V8.75589C1.76087 9.33978 2.23098 9.81521 2.80834 9.81521C3.38571 9.81521 3.85581 9.33978 3.85581 8.75589V7.06097C3.85581 6.47708 3.38571 6.00165 2.80834 6.00165Z" fill="#0A66C2" style="fill:#0A66C2;fill:color(display-p3 0.0392 0.4000 0.7608);fill-opacity:1;"/>
<path d="M21.5146 25.2661H13.2035C12.5088 25.2661 11.8586 24.9542 11.4186 24.4101C10.9787 23.8661 10.8069 23.1593 10.9452 22.4712L11.9407 17.5254C12.1585 16.4449 13.1088 15.6602 14.199 15.6602H22.5101C23.2048 15.6602 23.855 15.972 24.295 16.5161C24.7349 17.0602 24.9067 17.7669 24.7684 18.4551L23.7729 23.4C23.555 24.4813 22.6048 25.2661 21.5146 25.2661ZM14.199 16.9313C13.7029 16.9313 13.2714 17.2881 13.1725 17.7788L12.177 22.7246C12.1141 23.0373 12.1929 23.3585 12.3923 23.6059C12.5918 23.8534 12.8876 23.9949 13.2035 23.9949H21.5146C22.0106 23.9949 22.4422 23.6381 22.5411 23.1466L23.5366 18.2017C23.5994 17.889 23.5207 17.5678 23.3212 17.3203C23.1218 17.0729 22.826 16.9313 22.5101 16.9313H14.199Z" fill="#0A66C2" style="fill:#0A66C2;fill:color(display-p3 0.0392 0.4000 0.7608);fill-opacity:1;"/>
<path d="M13.2011 25.2634H8.08356C7.73664 25.2634 7.45508 24.9786 7.45508 24.6278C7.45508 24.2769 7.73664 23.9922 8.08356 23.9922H13.2011V25.2634Z" fill="#0A66C2" style="fill:#0A66C2;fill:color(display-p3 0.0392 0.4000 0.7608);fill-opacity:1;"/>
<path d="M4.86207 25.2662H3.14255C2.24256 25.2662 1.38363 24.8747 0.786994 24.1908C0.190355 23.5077 -0.0878535 22.5976 0.0244354 21.6942L0.414932 18.5391C0.497892 17.867 0.865764 17.2654 1.42302 16.8899L5.36737 14.2306C7.36846 12.8815 9.97625 12.8815 11.9773 14.2306L12.2941 14.4442C12.5832 14.6391 12.6611 15.0332 12.4684 15.3255C12.2757 15.6179 11.886 15.6967 11.5969 15.5018L11.2801 15.2882C9.70055 14.2238 7.64332 14.223 6.06373 15.2882L2.11854 17.9476C1.86547 18.1179 1.69871 18.3908 1.661 18.6959L1.27051 21.8509C1.20347 22.3933 1.37023 22.9391 1.72804 23.3501C2.0867 23.7594 2.60121 23.995 3.14171 23.995H4.86124C5.04978 23.995 5.21738 23.9052 5.32212 23.7467C5.42687 23.5891 5.44614 23.3976 5.37575 23.2213L4.06181 19.9552C3.93108 19.6298 4.08527 19.2594 4.40705 19.1272C4.728 18.995 5.09503 19.1518 5.22492 19.4764L6.53887 22.7433C6.7668 23.3094 6.70143 23.9501 6.36373 24.4569C6.02686 24.9637 5.46458 25.2662 4.8604 25.2662H4.86207Z" fill="#0A66C2" style="fill:#0A66C2;fill:color(display-p3 0.0392 0.4000 0.7608);fill-opacity:1;"/>
<path d="M8.67379 18.1543C7.70425 18.1543 6.83527 17.6492 6.34756 16.8017L5.16602 14.7484L6.25287 14.1094L7.43442 16.1628C7.69419 16.6136 8.15675 16.8831 8.67379 16.8831C9.19082 16.8831 9.65338 16.6145 9.91315 16.1628L11.0939 14.1094L12.1807 14.7484L11 16.8017C10.5123 17.6492 9.64249 18.1543 8.67379 18.1543Z" fill="#0A66C2" style="fill:#0A66C2;fill:color(display-p3 0.0392 0.4000 0.7608);fill-opacity:1;"/>
</g>
<defs>
<clipPath id="clip0_667_219587">
<rect width="25" height="25" fill="white" style="fill:white;fill-opacity:1;" transform="translate(0 0.265625)"/>
</clipPath>
</defs>
</svg>
