<svg width="28" height="25" viewBox="0 0 28 25" fill="none" xmlns="http://www.w3.org/2000/svg">
<g clip-path="url(#clip0_667_213384)">
<path d="M26.6 4.16667H20.5333V2.31481C20.5317 1.03692 19.4881 0.0015824 18.2 0H9.8C8.51188 0.0015824 7.46826 1.03692 7.46667 2.31481V4.16667H1.4C0.626855 4.16667 0 4.78855 0 5.55556V15.861C0.00296224 16.4483 0.375977 16.9707 0.933333 17.1681V23.6111C0.933333 24.3781 1.56019 25 2.33333 25H25.6667C26.4398 25 27.0667 24.3781 27.0667 23.6111V17.1685C27.624 16.9709 27.9973 16.4483 28 15.861V5.55556C28 4.78855 27.3731 4.16667 26.6 4.16667ZM8.4 2.31481C8.4 1.54781 9.02686 0.925926 9.8 0.925926H18.2C18.9731 0.925926 19.6 1.54781 19.6 2.31481V4.16667H18.6667V2.31481C18.6667 2.05915 18.4577 1.85185 18.2 1.85185H9.8C9.54228 1.85185 9.33333 2.05915 9.33333 2.31481V4.16667H8.4V2.31481ZM17.7333 4.16667H10.2667V2.77778H17.7333V4.16667ZM26.1333 23.6111C26.1333 23.8668 25.9244 24.0741 25.6667 24.0741H2.33333C2.07562 24.0741 1.86667 23.8668 1.86667 23.6111V17.3272L12.1333 18.7319V19.9074C12.1333 20.6744 12.7602 21.2963 13.5333 21.2963H14.4667C15.2398 21.2963 15.8667 20.6744 15.8667 19.9074V18.7319L26.1333 17.3272V23.6111ZM14.9333 19.9074C14.9333 20.1631 14.7244 20.3704 14.4667 20.3704H13.5333C13.2756 20.3704 13.0667 20.1631 13.0667 19.9074V17.1296C13.0667 16.874 13.2756 16.6667 13.5333 16.6667H14.4667C14.7244 16.6667 14.9333 16.874 14.9333 17.1296V19.9074ZM27.0667 15.861C27.0669 16.0918 26.8958 16.2876 26.6654 16.3199L26.536 16.3375L15.8667 17.7972V17.1296C15.8667 16.3626 15.2398 15.7407 14.4667 15.7407H13.5333C12.7602 15.7407 12.1333 16.3626 12.1333 17.1296V17.7972L1.33506 16.3199C1.10469 16.2878 0.933105 16.092 0.933333 15.861V5.55556C0.933333 5.29989 1.14229 5.09259 1.4 5.09259H26.6C26.8577 5.09259 27.0667 5.29989 27.0667 5.55556V15.861Z" fill="#0A66C2" style="fill:#0A66C2;fill:color(display-p3 0.0392 0.4000 0.7608);fill-opacity:1;"/>
</g>
<defs>
<clipPath id="clip0_667_213384">
<rect width="28" height="25" fill="white" style="fill:white;fill-opacity:1;"/>
</clipPath>
</defs>
</svg>
