<svg width="25" height="25" viewBox="0 0 25 25" fill="none" xmlns="http://www.w3.org/2000/svg">
<g clip-path="url(#clip0_667_221004)">
<path d="M24.2676 2.92969H20.483C20.1427 1.26016 18.6631 0 16.8945 0C15.126 0 13.6464 1.26016 13.3061 2.92969H0.732422C0.32793 2.92969 0 3.25762 0 3.66211C0 4.0666 0.32793 4.39453 0.732422 4.39453H13.3061C13.6463 6.06406 15.126 7.32422 16.8945 7.32422C18.6631 7.32422 20.1427 6.06406 20.483 4.39453H24.2676C24.6721 4.39453 25 4.0666 25 3.66211C25 3.25762 24.6721 2.92969 24.2676 2.92969ZM16.8945 5.85938C15.6832 5.85938 14.6976 4.87402 14.6973 3.66274C14.6973 3.66255 14.6973 3.66235 14.6973 3.66211C14.6973 3.66187 14.6973 3.66167 14.6973 3.66147C14.6976 2.4502 15.6832 1.46484 16.8945 1.46484C18.1061 1.46484 19.0918 2.45054 19.0918 3.66211C19.0918 4.87368 18.1061 5.85938 16.8945 5.85938Z" fill="#0A66C2" style="fill:#0A66C2;fill:color(display-p3 0.0392 0.4000 0.7608);fill-opacity:1;"/>
<path d="M24.2676 11.7656H11.6939C11.3537 10.0961 9.87402 8.83594 8.10547 8.83594C6.33691 8.83594 4.85732 10.0961 4.51704 11.7656H0.732422C0.32793 11.7656 0 12.0936 0 12.498C0 12.9025 0.32793 13.2305 0.732422 13.2305H4.51704C4.85728 14.9 6.33691 16.1602 8.10547 16.1602C9.87402 16.1602 11.3536 14.9 11.6939 13.2305H24.2676C24.6721 13.2305 25 12.9025 25 12.498C25 12.0936 24.6721 11.7656 24.2676 11.7656ZM8.10547 14.6953C6.89409 14.6953 5.90855 13.71 5.9082 12.4987C5.9082 12.4985 5.90825 12.4983 5.90825 12.498C5.90825 12.4978 5.9082 12.4976 5.9082 12.4974C5.90855 11.2861 6.89409 10.3008 8.10547 10.3008C9.31704 10.3008 10.3027 11.2865 10.3027 12.498C10.3027 13.7096 9.31704 14.6953 8.10547 14.6953Z" fill="#0A66C2" style="fill:#0A66C2;fill:color(display-p3 0.0392 0.4000 0.7608);fill-opacity:1;"/>
<path d="M24.2676 20.6055H20.483C20.1427 18.9359 18.6631 17.6758 16.8945 17.6758C15.126 17.6758 13.6464 18.9359 13.3061 20.6055H0.732422C0.32793 20.6055 0 20.9334 0 21.3379C0 21.7424 0.32793 22.0703 0.732422 22.0703H13.3061C13.6463 23.7398 15.126 25 16.8945 25C18.6631 25 20.1427 23.7398 20.483 22.0703H24.2676C24.6721 22.0703 25 21.7424 25 21.3379C25 20.9334 24.6721 20.6055 24.2676 20.6055ZM16.8945 23.5352C15.6832 23.5352 14.6976 22.5498 14.6973 21.3385C14.6973 21.3383 14.6973 21.3381 14.6973 21.3379C14.6973 21.3376 14.6973 21.3375 14.6973 21.3373C14.6976 20.126 15.6832 19.1406 16.8945 19.1406C18.1061 19.1406 19.0918 20.1263 19.0918 21.3379C19.0918 22.5495 18.1061 23.5352 16.8945 23.5352Z" fill="#0A66C2" style="fill:#0A66C2;fill:color(display-p3 0.0392 0.4000 0.7608);fill-opacity:1;"/>
</g>
<defs>
<clipPath id="clip0_667_221004">
<rect width="25" height="25" fill="white" style="fill:white;fill-opacity:1;"/>
</clipPath>
</defs>
</svg>
