<svg width="23" height="26" viewBox="0 0 23 26" fill="none" xmlns="http://www.w3.org/2000/svg">
<g clip-path="url(#clip0_667_216396)">
<path d="M19.454 0C19.8544 0.122531 20.2408 0.2691 20.5726 0.539373C21.2146 1.06292 21.5587 1.74065 21.5616 2.56085C21.5734 5.86685 21.5675 9.17285 21.5663 12.4789C21.5663 12.551 21.5933 12.6436 21.5165 12.6858C21.4315 12.7321 21.3858 12.6389 21.3307 12.5961C21.126 12.4378 20.9332 12.2625 20.718 12.1212C20.5445 12.0069 20.4841 11.875 20.4847 11.668C20.4911 8.72083 20.4888 5.77422 20.4893 2.82702C20.4893 2.65113 20.48 2.4776 20.4495 2.30406C20.3264 1.59584 19.7442 1.08637 19.0225 1.0635C18.8888 1.0594 18.7551 1.05998 18.6221 1.05998C13.3456 1.05998 8.06971 1.05998 2.79324 1.05998C2.5429 1.05998 2.29549 1.06174 2.05395 1.15379C1.48174 1.37305 1.09421 1.90246 1.08307 2.5157C1.07545 2.92492 1.07956 3.33356 1.07956 3.74278C1.07956 10.1291 1.0819 16.5159 1.07663 22.9022C1.07604 23.6198 1.35862 24.1381 2.0176 24.4406C2.2779 24.5602 2.55462 24.5467 2.82959 24.5467C8.06384 24.5479 13.2987 24.5508 18.5329 24.5397C18.8859 24.5391 19.1245 24.6124 19.2535 24.9571C19.3021 25.0879 19.3954 25.2022 19.4645 25.3259C19.5789 25.5311 19.556 25.5803 19.3156 25.6079C19.1169 25.6302 18.9164 25.646 18.7164 25.646C13.4236 25.6477 8.13068 25.6454 2.83779 25.6495C1.88803 25.6501 1.08542 25.3511 0.503836 24.5719C0.180798 24.1393 0.00139836 23.6491 0.00139836 23.1057C0.000225814 16.2351 -0.00153298 9.36398 0.00257094 2.49343C0.00315721 1.40413 0.806939 0.375802 1.85872 0.0809059C1.94666 0.0562824 2.03343 0.0269686 2.12078 0C7.89793 0 13.6762 0 19.454 0Z" fill="#0B74AD" style="fill:#0B74AD;fill:color(display-p3 0.0431 0.4549 0.6784);fill-opacity:1;"/>
<path d="M8.96322 6.67763C9.41758 6.83358 9.82211 7.00594 10.1733 7.28149C10.6464 7.65378 11.0416 8.08528 11.2444 8.66745C11.4197 9.17047 11.3283 9.38563 10.8305 9.58438C10.2008 9.83531 9.53191 9.88924 8.86707 9.92207C7.94193 9.9678 7.01503 9.95373 6.09869 9.78371C5.84366 9.73622 5.59332 9.67291 5.35236 9.57617C4.90269 9.39443 4.79774 9.17106 4.95604 8.70907C5.22162 7.93343 5.77037 7.4052 6.46452 7.00594C6.70196 6.86934 6.96285 6.78668 7.23195 6.66884C6.75824 6.26138 6.45807 5.77887 6.34961 5.17853C6.17314 4.20238 6.79635 3.27079 7.76195 3.08787C8.74396 2.90202 9.66617 3.51409 9.85201 4.49083C10.0044 5.29226 9.69607 5.94362 9.15024 6.50644C9.10393 6.5551 9.05175 6.59731 8.96322 6.67763ZM7.80123 6.95084C8.00525 7.12613 7.96011 7.3026 7.86982 7.50193C7.71504 7.84256 7.57551 8.19022 7.43715 8.53847C7.19736 9.14174 7.17215 8.93596 7.60893 9.39267C7.7127 9.50113 7.83054 9.59669 7.92376 9.71277C8.05684 9.87752 8.16354 9.83824 8.28783 9.70515C8.45258 9.52868 8.61966 9.35397 8.79789 9.19216C8.92687 9.07491 8.95677 8.96762 8.88232 8.80112C8.69647 8.3831 8.53524 7.95454 8.35584 7.53359C8.27259 7.33836 8.17937 7.15134 8.39336 6.95611C8.18934 6.98718 8.0029 6.98484 7.80123 6.95084Z" fill="#0B74AD" style="fill:#0B74AD;fill:color(display-p3 0.0431 0.4549 0.6784);fill-opacity:1;"/>
<path d="M17.348 12.1643C20.0044 12.1913 22.1578 14.3564 22.1162 16.9852C22.0739 19.6516 19.9874 21.7182 17.3779 21.7294C14.5925 21.7411 12.5652 19.5824 12.547 16.953C12.5288 14.3071 14.732 12.1373 17.348 12.1643ZM21.2596 16.9694C21.2836 14.7715 19.5307 12.9927 17.2853 13.0115C15.0222 13.0308 13.4129 14.8717 13.3971 16.8826C13.3801 19.0929 15.082 20.8576 17.2753 20.8834C19.4932 20.9098 21.2356 19.1978 21.2596 16.9694Z" fill="#0B74AD" style="fill:#0B74AD;fill:color(display-p3 0.0431 0.4549 0.6784);fill-opacity:1;"/>
<path d="M15.7367 11.1767C15.6792 11.2946 15.5948 11.2916 15.5274 11.3139C15.0003 11.4851 14.5038 11.7196 14.0471 12.0344C13.9034 12.1335 13.7545 12.1793 13.5798 12.1793C10.9175 12.1763 8.25525 12.1781 5.59298 12.1769C5.15562 12.1769 4.94339 12.0403 4.90293 11.7513C4.86541 11.4781 4.99263 11.2735 5.25822 11.2025C5.3614 11.175 5.47221 11.1656 5.57949 11.1656C8.88432 11.1638 12.1892 11.1638 15.494 11.1644C15.5684 11.1638 15.6417 11.1714 15.7367 11.1767Z" fill="#0B74AD" style="fill:#0B74AD;fill:color(display-p3 0.0431 0.4549 0.6784);fill-opacity:1;"/>
<path d="M22.4744 23.46C22.4814 23.5544 22.4122 23.5784 22.3559 23.6107C21.7785 23.9442 21.1992 24.2743 20.6241 24.612C20.4916 24.69 20.4066 24.6912 20.3222 24.5428C19.8643 23.739 19.4011 22.9376 18.9345 22.1385C18.8541 22.0007 18.8717 21.9198 19.0136 21.8395C19.594 21.5112 20.1703 21.1753 20.7472 20.8405C20.8475 20.7825 20.9301 20.7684 20.9981 20.8862C21.4812 21.724 21.9655 22.5606 22.4486 23.3984C22.4615 23.4195 22.4679 23.4442 22.4744 23.46Z" fill="#0B74AD" style="fill:#0B74AD;fill:color(display-p3 0.0431 0.4549 0.6784);fill-opacity:1;"/>
<path d="M8.93098 13.3128C10.0572 13.3128 11.184 13.3117 12.3103 13.3146C12.3953 13.3146 12.5125 13.2689 12.5571 13.3738C12.5929 13.4571 12.4996 13.5221 12.4586 13.5913C12.4117 13.6699 12.3384 13.7379 12.3097 13.8217C12.1678 14.2403 11.8758 14.313 11.4596 14.3083C9.46567 14.2855 7.47116 14.299 5.47724 14.2995C5.1202 14.2995 4.90152 14.1213 4.89097 13.8247C4.88041 13.5292 5.11492 13.3158 5.47666 13.3146C6.6281 13.3111 7.77954 13.3134 8.93098 13.3128Z" fill="#0B74AD" style="fill:#0B74AD;fill:color(display-p3 0.0431 0.4549 0.6784);fill-opacity:1;"/>
<path d="M8.3845 15.4611C9.35302 15.4611 10.3215 15.4605 11.2895 15.4617C11.5944 15.4623 11.6014 15.4728 11.5416 15.7759C11.5351 15.8087 11.524 15.8404 11.5175 15.8732C11.4062 16.4466 11.4062 16.4466 10.8105 16.4466C9.09096 16.4466 7.37083 16.4466 5.65129 16.4466C5.57624 16.4466 5.5012 16.4484 5.42616 16.4454C5.09374 16.4308 4.88209 16.2303 4.89089 15.9407C4.8991 15.6657 5.11426 15.4652 5.4285 15.464C6.41344 15.4593 7.39897 15.4623 8.38391 15.4623C8.3845 15.4617 8.3845 15.4617 8.3845 15.4611Z" fill="#0B74AD" style="fill:#0B74AD;fill:color(display-p3 0.0431 0.4549 0.6784);fill-opacity:1;"/>
<path d="M16.227 22.7603C16.0963 22.8723 15.9925 22.8459 15.8964 22.8465C14.813 22.8483 13.7295 22.8489 12.6461 22.8459C12.5218 22.8454 12.394 22.8389 12.275 22.8067C12.051 22.7463 11.9226 22.5921 11.9144 22.3541C11.9062 22.1219 12.0434 21.9419 12.2709 21.8704C12.4339 21.8188 12.6015 21.8428 12.7674 21.8334C13.4809 21.7912 14.1634 21.8305 14.7924 22.2573C15.2022 22.5364 15.7094 22.6302 16.227 22.7603Z" fill="#0B74AD" style="fill:#0B74AD;fill:color(display-p3 0.0431 0.4549 0.6784);fill-opacity:1;"/>
<path d="M21.7801 25.6663C21.2882 25.6728 20.9822 25.5086 20.7342 25.2231C20.6375 25.1117 20.641 25.0285 20.7829 24.9476C21.3709 24.6146 21.9572 24.2774 22.5382 23.9327C22.7129 23.8289 22.7557 23.9345 22.8037 24.0605C23.0945 24.8297 22.5071 25.6652 21.7801 25.6663Z" fill="#0B74AD" style="fill:#0B74AD;fill:color(display-p3 0.0431 0.4549 0.6784);fill-opacity:1;"/>
<path d="M11.0572 18.5995C10.9464 18.5942 10.7793 18.6206 10.6187 18.5584C10.4047 18.4764 10.2658 18.2671 10.2898 18.056C10.3162 17.8233 10.4956 17.6468 10.733 17.621C10.7659 17.6175 10.7993 17.6157 10.8327 17.6181C11.0291 17.6315 11.3005 17.5272 11.4061 17.6697C11.5685 17.8889 11.5474 18.2049 11.606 18.4793C11.6277 18.5813 11.5415 18.5989 11.4612 18.6001C11.3439 18.6007 11.2278 18.5995 11.0572 18.5995Z" fill="#0B74AD" style="fill:#0B74AD;fill:color(display-p3 0.0431 0.4549 0.6784);fill-opacity:1;"/>
</g>
<defs>
<clipPath id="clip0_667_216396">
<rect width="22.8811" height="25.6667" fill="white" style="fill:white;fill-opacity:1;"/>
</clipPath>
</defs>
</svg>
