<svg width="33" height="26" viewBox="0 0 33 26" fill="none" xmlns="http://www.w3.org/2000/svg">
<path d="M19.7937 16.6073C22.5634 14.7125 23.3341 10.8377 21.5151 7.95268C19.696 5.06736 15.9761 4.2646 13.2063 6.15938C10.4366 8.05417 9.66568 11.929 11.4847 14.814C11.9349 15.5282 12.5208 16.1384 13.2063 16.6073C10.6665 17.6847 9.00428 20.2548 9 23.1115V24.674C9 25.1054 9.33561 25.455 9.75003 25.455H23.25C23.6642 25.455 24 25.1054 24 24.674V23.1115C23.9958 20.2548 22.3336 17.6847 19.7937 16.6073ZM11.9999 11.3929C11.9999 8.80422 14.0148 6.7054 16.5 6.7054C18.9853 6.7054 21.0002 8.80395 21.0002 11.3929C21.0002 13.9816 18.9853 16.0802 16.5 16.0802C14.0158 16.0773 12.0026 13.9806 11.9999 11.3929ZM22.5 23.8927H10.5001V23.1115C10.5036 20.0927 12.8519 17.6464 15.75 17.6427H17.25C20.1482 17.6464 22.4967 20.0927 22.5002 23.1115V23.8927H22.5Z" fill="#0A66C2" style="fill:#0A66C2;fill:color(display-p3 0.0392 0.4000 0.7608);fill-opacity:1;"/>
<path d="M28.7979 11.9181C31.5684 10.0356 32.3491 6.16972 30.5417 3.28388C28.7344 0.398036 25.0231 -0.415214 22.2526 1.46751C21.4061 2.04263 20.713 2.83175 20.2382 3.76118C20.0418 4.14119 20.1785 4.61508 20.5433 4.81938C20.9084 5.02367 21.3631 4.88127 21.5592 4.50126C22.7327 2.22595 25.4549 1.37231 27.6392 2.59468C29.8236 3.81704 30.6431 6.65253 29.4696 8.92759C28.6854 10.4481 27.1611 11.3951 25.5042 11.3912C25.2874 11.3852 25.0714 11.3618 24.8582 11.3217L24.8317 11.3172C24.4259 11.2596 24.0515 11.5533 23.9926 11.9755C23.9364 12.4059 24.2232 12.8032 24.6356 12.8666C24.9226 12.9186 25.2129 12.9474 25.5042 12.9537H26.2542C29.1521 12.9574 31.5007 15.4034 31.5042 18.4222V19.2035H25.7298C25.3156 19.2035 24.9798 19.5533 24.9798 19.9847C24.9798 20.4162 25.3156 20.766 25.7298 20.766H32.2542C32.6684 20.766 33.0042 20.4162 33.0042 19.9847V18.4222C33 15.5658 31.3378 12.9957 28.7979 11.9181Z" fill="#0A66C2" style="fill:#0A66C2;fill:color(display-p3 0.0392 0.4000 0.7608);fill-opacity:1;"/>
<path d="M8.1725 11.3176L8.14606 11.3221C7.93281 11.3624 7.71679 11.3855 7.50002 11.3916C5.01478 11.4073 2.98802 9.32132 2.97292 6.73261C2.95781 4.1439 4.9604 2.03249 7.44564 2.01702C9.11866 2.00626 10.659 2.96349 11.445 4.50161C11.6414 4.88162 12.0961 5.02402 12.4609 4.81973C12.8257 4.61517 12.9625 4.14154 12.7663 3.76153C11.2071 0.724365 7.57958 -0.421161 4.66381 1.20298C1.7483 2.82686 0.648563 6.60568 2.20753 9.64284C2.68036 10.5636 3.36769 11.3462 4.20635 11.9184C1.66648 12.996 0.00428011 15.5661 0 18.4226V19.9851C0 20.4165 0.335863 20.7663 0.750027 20.7663H7.27443C7.6886 20.7663 8.02446 20.4165 8.02446 19.9851C8.02446 19.5537 7.6886 19.2038 7.27443 19.2038H1.50005V18.4226C1.50358 15.404 3.8521 12.9577 6.74999 12.9541H7.50002C7.79132 12.948 8.08161 12.9189 8.36863 12.867C8.78103 12.8035 9.0678 12.4062 9.01165 11.9759C8.95274 11.5536 8.5781 11.2599 8.1725 11.3176Z" fill="#0A66C2" style="fill:#0A66C2;fill:color(display-p3 0.0392 0.4000 0.7608);fill-opacity:1;"/>
</svg>
