<svg width="21" height="25" viewBox="0 0 21 25" fill="none" xmlns="http://www.w3.org/2000/svg">
<path d="M13.6089 9.05859C13.2855 9.05859 13.0234 9.32069 13.0234 9.64407V20.7096C13.0234 21.0328 13.2855 21.2951 13.6089 21.2951C13.9323 21.2951 14.1944 21.0328 14.1944 20.7096V9.64407C14.1944 9.32069 13.9323 9.05859 13.6089 9.05859Z" fill="#DB380E" style="fill:#DB380E;fill:color(display-p3 0.8588 0.2196 0.0549);fill-opacity:1;"/>
<path d="M6.69485 9.05859C6.37147 9.05859 6.10938 9.32069 6.10938 9.64407V20.7096C6.10938 21.0328 6.37147 21.2951 6.69485 21.2951C7.01824 21.2951 7.28033 21.0328 7.28033 20.7096V9.64407C7.28033 9.32069 7.01824 9.05859 6.69485 9.05859Z" fill="#DB380E" style="fill:#DB380E;fill:color(display-p3 0.8588 0.2196 0.0549);fill-opacity:1;"/>
<path d="M1.66285 7.44274V21.8677C1.66285 22.7203 1.97549 23.521 2.52163 24.0955C3.06526 24.6716 3.82181 24.9986 4.61357 25H15.691C16.483 24.9986 17.2395 24.6716 17.7829 24.0955C18.3291 23.521 18.6417 22.7203 18.6417 21.8677V7.44274C19.7274 7.15458 20.4309 6.10575 20.2856 4.99174C20.1402 3.87796 19.1913 3.04479 18.0679 3.04456H15.0703V2.31272C15.0737 1.69728 14.8304 1.10631 14.3947 0.671547C13.959 0.237013 13.3672 -0.00495453 12.7517 7.6927e-05H7.55286C6.93742 -0.00495453 6.34554 0.237013 5.90986 0.671547C5.47418 1.10631 5.23084 1.69728 5.23427 2.31272V3.04456H2.23667C1.11328 3.04479 0.164395 3.87796 0.0189405 4.99174C-0.126285 6.10575 0.577203 7.15458 1.66285 7.44274ZM15.691 23.829H4.61357C3.61254 23.829 2.83381 22.9691 2.83381 21.8677V7.4942H17.4708V21.8677C17.4708 22.9691 16.692 23.829 15.691 23.829ZM6.40523 2.31272C6.40134 2.00786 6.52118 1.71443 6.73753 1.49922C6.95366 1.28401 7.24777 1.16577 7.55286 1.17103H12.7517C13.0568 1.16577 13.3509 1.28401 13.567 1.49922C13.7834 1.7142 13.9032 2.00786 13.8993 2.31272V3.04456H6.40523V2.31272ZM2.23667 4.21552H18.0679C18.65 4.21552 19.1218 4.68733 19.1218 5.26938C19.1218 5.85143 18.65 6.32324 18.0679 6.32324H2.23667C1.65462 6.32324 1.18281 5.85143 1.18281 5.26938C1.18281 4.68733 1.65462 4.21552 2.23667 4.21552Z" fill="#DB380E" style="fill:#DB380E;fill:color(display-p3 0.8588 0.2196 0.0549);fill-opacity:1;"/>
<path d="M10.1558 9.05859C9.83241 9.05859 9.57031 9.32069 9.57031 9.64407V20.7096C9.57031 21.0328 9.83241 21.2951 10.1558 21.2951C10.4792 21.2951 10.7413 21.0328 10.7413 20.7096V9.64407C10.7413 9.32069 10.4792 9.05859 10.1558 9.05859Z" fill="#DB380E" style="fill:#DB380E;fill:color(display-p3 0.8588 0.2196 0.0549);fill-opacity:1;"/>
</svg>
