<svg width="68" height="80" viewBox="0 0 68 80" fill="none" xmlns="http://www.w3.org/2000/svg">
<path d="M50.0509 0H4.63434C2.07897 0 0 2.07897 0 4.63435V20.3911C0 21.2443 0.691753 21.9359 1.54478 21.9359C2.39781 21.9359 3.08956 21.2443 3.08956 20.3911V4.63435C3.08956 3.78255 3.78255 3.08956 4.63434 3.08956H50.0509C50.9027 3.08956 51.5957 3.78255 51.5957 4.63435V62.1002C51.5957 62.952 50.9027 63.645 50.0509 63.645H4.63434C3.78255 63.645 3.08956 62.952 3.08956 62.1002V33.4187C3.08956 32.5655 2.39781 31.8739 1.54478 31.8739C0.691753 31.8739 0 32.5655 0 33.4187V62.1002C0 64.6556 2.07897 66.7346 4.63434 66.7346H50.0509C52.6063 66.7346 54.6853 64.6556 54.6853 62.1002V4.63435C54.6853 2.07897 52.6063 0 50.0509 0Z" fill="#091316" style="fill:#091316;fill:color(display-p3 0.0353 0.0745 0.0863);fill-opacity:1;"/>
<path d="M2.63679 26.2147C2.34961 25.9274 1.95106 25.7637 1.54478 25.7637C1.1385 25.7637 0.73995 25.9274 0.452621 26.2147C0.165137 26.5036 0 26.9022 0 27.3069C0 27.7147 0.165292 28.1117 0.452621 28.4006C0.73995 28.6879 1.1385 28.8532 1.54478 28.8532C1.9509 28.8532 2.34946 28.6879 2.63679 28.4006C2.92427 28.1133 3.08956 27.7147 3.08956 27.3069C3.08956 26.9006 2.92412 26.5036 2.63679 26.2147Z" fill="#0B74AD" style="fill:#0B74AD;fill:color(display-p3 0.0431 0.4549 0.6784);fill-opacity:1;"/>
<path d="M8.82444 70.2856C8.53711 69.9983 8.14026 69.833 7.73228 69.833C7.326 69.833 6.92745 69.9983 6.64028 70.2856C6.35279 70.573 6.1875 70.9715 6.1875 71.3778C6.1875 71.7856 6.35295 72.1826 6.64028 72.47C6.92745 72.7588 7.326 72.9226 7.73228 72.9226C8.14026 72.9226 8.53711 72.7588 8.82444 72.47C9.11193 72.1826 9.27706 71.7856 9.27706 71.3778C9.27706 70.9715 9.11177 70.573 8.82444 70.2856Z" fill="#0B74AD" style="fill:#0B74AD;fill:color(display-p3 0.0431 0.4549 0.6784);fill-opacity:1;"/>
<path d="M59.3286 6.18848C58.4755 6.18848 57.7838 6.88008 57.7838 7.73326V68.2887C57.7838 69.1405 57.0908 69.8335 56.239 69.8335H13.912C13.0589 69.8335 12.3672 70.5251 12.3672 71.3783C12.3672 72.2315 13.0589 72.923 13.912 72.923H56.239C58.7944 72.923 60.8733 70.8441 60.8733 68.2887V7.73326C60.8733 6.88008 60.1816 6.18848 59.3286 6.18848Z" fill="#091316" style="fill:#091316;fill:color(display-p3 0.0353 0.0745 0.0863);fill-opacity:1;"/>
<path d="M65.5174 12.3584C64.6644 12.3584 63.9727 13.05 63.9727 13.9032V74.4586C63.9727 75.3104 63.2797 76.0034 62.4279 76.0034H13.9217C13.0687 76.0034 12.377 76.695 12.377 77.5482C12.377 78.4014 13.0687 79.093 13.9217 79.093H62.4279C64.9833 79.093 67.0622 77.014 67.0622 74.4586V13.9032C67.0622 13.05 66.3705 12.3584 65.5174 12.3584Z" fill="#091316" style="fill:#091316;fill:color(display-p3 0.0353 0.0745 0.0863);fill-opacity:1;"/>
<path d="M25.0251 11.4316H10.1952C9.34214 11.4316 8.65039 12.1232 8.65039 12.9764V27.8063C8.65039 28.6595 9.34214 29.3511 10.1952 29.3511H25.0251C25.8781 29.3511 26.5699 28.6595 26.5699 27.8063V12.9764C26.5699 12.1232 25.8781 11.4316 25.0251 11.4316ZM23.4803 26.2615H11.74V14.5212H23.4803V26.2615Z" fill="#0B74AD" style="fill:#0B74AD;fill:color(display-p3 0.0431 0.4549 0.6784);fill-opacity:1;"/>
<path d="M20.0546 36.3645C19.4512 35.7614 18.4734 35.7612 17.8699 36.3645L13.7634 40.471L11.854 38.5615C11.2508 37.9582 10.2729 37.9584 9.66922 38.5615C9.06599 39.1647 9.06599 40.1429 9.66922 40.7461L12.671 43.7479C12.9608 44.0376 13.3537 44.2004 13.7634 44.2004C14.1732 44.2004 14.5659 44.0376 14.8558 43.7479L20.0546 38.5491C20.6579 37.9459 20.6579 36.9677 20.0546 36.3645Z" fill="#0B74AD" style="fill:#0B74AD;fill:color(display-p3 0.0431 0.4549 0.6784);fill-opacity:1;"/>
<path d="M45.3661 38.4648H27.3436C26.4906 38.4648 25.7988 39.1564 25.7988 40.0096C25.7988 40.8628 26.4906 41.5544 27.3436 41.5544H45.3661C46.2191 41.5544 46.9109 40.8628 46.9109 40.0096C46.9109 39.1564 46.2191 38.4648 45.3661 38.4648Z" fill="#5994CE" style="fill:#5994CE;fill:color(display-p3 0.3503 0.5793 0.8083);fill-opacity:1;"/>
<path d="M44.4891 11.4316H33.6756C32.8226 11.4316 32.1309 12.1232 32.1309 12.9764C32.1309 13.8296 32.8226 14.5212 33.6756 14.5212H44.4891C45.3421 14.5212 46.0339 13.8296 46.0339 12.9764C46.0339 12.1232 45.3421 11.4316 44.4891 11.4316Z" fill="#5994CE" style="fill:#5994CE;fill:color(display-p3 0.3503 0.5793 0.8083);fill-opacity:1;"/>
<path d="M44.4891 18.8467H33.6756C32.8226 18.8467 32.1309 19.5383 32.1309 20.3915C32.1309 21.2446 32.8226 21.9362 33.6756 21.9362H44.4891C45.3421 21.9362 46.0339 21.2446 46.0339 20.3915C46.0339 19.5383 45.3421 18.8467 44.4891 18.8467Z" fill="#0B74AD" style="fill:#0B74AD;fill:color(display-p3 0.0431 0.4549 0.6784);fill-opacity:1;"/>
<path d="M44.4891 26.2617H33.6756C32.8226 26.2617 32.1309 26.9533 32.1309 27.8065C32.1309 28.6597 32.8226 29.3513 33.6756 29.3513H44.4891C45.3421 29.3513 46.0339 28.6597 46.0339 27.8065C46.0339 26.9533 45.3421 26.2617 44.4891 26.2617Z" fill="#5994CE" style="fill:#5994CE;fill:color(display-p3 0.3503 0.5793 0.8083);fill-opacity:1;"/>
<path d="M20.0546 48.1614C19.4512 47.5583 18.4734 47.5581 17.8699 48.1614L13.7634 52.2678L11.854 50.3583C11.2508 49.7551 10.2729 49.7553 9.66922 50.3583C9.06599 50.9616 9.06599 51.9397 9.66922 52.543L12.671 55.5448C12.9608 55.8344 13.3537 55.9973 13.7634 55.9973C14.1732 55.9973 14.5659 55.8344 14.8558 55.5448L20.0546 50.346C20.6579 49.7427 20.6579 48.7646 20.0546 48.1614Z" fill="#0B74AD" style="fill:#0B74AD;fill:color(display-p3 0.0431 0.4549 0.6784);fill-opacity:1;"/>
<path d="M45.3642 50.2051H27.3417C26.4886 50.2051 25.7969 50.8967 25.7969 51.7499C25.7969 52.603 26.4886 53.2946 27.3417 53.2946H45.3642C46.2172 53.2946 46.9089 52.603 46.9089 51.7499C46.9089 50.8967 46.2172 50.2051 45.3642 50.2051Z" fill="#5994CE" style="fill:#5994CE;fill:color(display-p3 0.3503 0.5793 0.8083);fill-opacity:1;"/>
</svg>
