<svg width="13" height="17" viewBox="0 0 13 17" fill="none" xmlns="http://www.w3.org/2000/svg">
<g clip-path="url(#clip0_865_11795)">
<path d="M12.3884 7.08429C12.2308 7.08429 12.0822 7.02366 11.9701 6.9115L6.48635 1.42474L0.999591 6.9115C0.766176 7.13885 0.390287 7.13279 0.165967 6.89634C-0.0553223 6.66899 -0.0553223 6.30523 0.165967 6.07484L6.06802 0.172787C6.29841 -0.0575958 6.67126 -0.0575958 6.90165 0.172787L12.8067 6.07787C13.0371 6.30826 13.0371 6.68111 12.8067 6.9115C12.6946 7.02366 12.546 7.08429 12.3884 7.08429Z" fill="#00B85E" style="fill:#00B85E;fill:color(display-p3 0.0000 0.7216 0.3686);fill-opacity:1;"/>
<path d="M6.48565 14.7597C6.15826 14.7597 5.89453 14.496 5.89453 14.1686V0.591115C5.89453 0.263728 6.15826 0 6.48565 0C6.81303 0 7.07676 0.263728 7.07676 0.591115V14.1686C7.07676 14.496 6.81303 14.7597 6.48565 14.7597Z" fill="#00B85E" style="fill:#00B85E;fill:color(display-p3 0.0000 0.7216 0.3686);fill-opacity:1;"/>
<path d="M6.48565 16.5299C6.81211 16.5299 7.07676 16.2652 7.07676 15.9388C7.07676 15.6123 6.81211 15.3477 6.48565 15.3477C6.15918 15.3477 5.89453 15.6123 5.89453 15.9388C5.89453 16.2652 6.15918 16.5299 6.48565 16.5299Z" fill="#00B85E" style="fill:#00B85E;fill:color(display-p3 0.0000 0.7216 0.3686);fill-opacity:1;"/>
</g>
<defs>
<clipPath id="clip0_865_11795">
<rect width="12.9803" height="16.53" fill="white" style="fill:white;fill-opacity:1;"/>
</clipPath>
</defs>
</svg>
