<svg width="59" height="81" viewBox="0 0 59 81" fill="none" xmlns="http://www.w3.org/2000/svg">
<path d="M56.6144 80.1867H3.14501C1.8642 80.1867 0.835938 79.1404 0.835938 77.8777V3.12157C0.835938 1.8588 1.88223 0.8125 3.14501 0.8125H47.3781C47.6126 0.8125 47.8471 0.902698 48.0095 1.08309L58.6529 11.7265C58.8152 11.8888 58.9235 12.1233 58.9235 12.3578V77.8777C58.9235 79.1404 57.8772 80.1867 56.6144 80.1867ZM3.14501 2.61646C2.85637 2.61646 2.6399 2.85097 2.6399 3.12157V77.8596C2.6399 78.1483 2.87441 78.3647 3.14501 78.3647H56.5963C56.885 78.3647 57.1015 78.1302 57.1015 77.8596V12.7367L46.9993 2.61646H3.14501Z" fill="#091316" style="fill:#091316;fill:color(display-p3 0.0353 0.0745 0.0863);fill-opacity:1;"/>
<path d="M58.0219 13.2598H48.7676C47.5048 13.2598 46.4766 12.2316 46.4766 10.9688V1.71448C46.4766 1.20937 46.8734 0.8125 47.3785 0.8125C47.8837 0.8125 48.2805 1.20937 48.2805 1.71448V10.9688C48.2805 11.2394 48.497 11.4559 48.7676 11.4559H58.0219C58.527 11.4559 58.9239 11.8527 58.9239 12.3578C58.9239 12.863 58.527 13.2598 58.0219 13.2598Z" fill="#091316" style="fill:#091316;fill:color(display-p3 0.0353 0.0745 0.0863);fill-opacity:1;"/>
<path d="M41.8536 37.3789H17.915C16.4538 37.3789 15.2812 36.1883 15.2812 34.7451V18.9605C15.2812 17.5173 16.4538 16.3447 17.897 16.3447H41.8897C43.3328 16.3447 44.5054 17.5173 44.5054 18.9605V34.7451C44.4874 36.1883 43.2968 37.3789 41.8536 37.3789ZM17.879 18.1487C17.428 18.1487 17.0672 18.5095 17.0672 18.9605V34.7271C17.0672 35.1961 17.446 35.5569 17.897 35.5569H41.8355C42.3046 35.5569 42.6654 35.1781 42.6654 34.7271V18.9424C42.6654 18.4914 42.3046 18.1306 41.8536 18.1306L17.879 18.1487Z" fill="#0A66C2" style="fill:#0A66C2;fill:color(display-p3 0.0392 0.4000 0.7608);fill-opacity:1;"/>
<path d="M35.2167 18.1484C34.7115 18.1484 34.3147 17.7515 34.3147 17.2464V11.7083H25.4211V17.2464C25.4211 17.7515 25.0243 18.1484 24.5192 18.1484C24.0141 18.1484 23.6172 17.7515 23.6172 17.2464V11.7083C23.6172 10.7161 24.429 9.9043 25.4211 9.9043H34.3147C35.3069 9.9043 36.1186 10.7161 36.1186 11.7083V17.2464C36.1186 17.7515 35.7218 18.1484 35.2167 18.1484Z" fill="#0A66C2" style="fill:#0A66C2;fill:color(display-p3 0.0392 0.4000 0.7608);fill-opacity:1;"/>
<path d="M43.5878 24.9309H16.1676C15.6625 24.9309 15.2656 24.534 15.2656 24.0289C15.2656 23.5238 15.6625 23.127 16.1676 23.127H43.5878C44.0929 23.127 44.4898 23.5238 44.4898 24.0289C44.4898 24.534 44.0929 24.9309 43.5878 24.9309Z" fill="#0A66C2" style="fill:#0A66C2;fill:color(display-p3 0.0392 0.4000 0.7608);fill-opacity:1;"/>
<path d="M29.8789 30.5953C27.8946 30.5953 26.2891 28.9898 26.2891 27.0055V24.0289C26.2891 23.5238 26.6859 23.127 27.191 23.127C27.6962 23.127 28.093 23.5238 28.093 24.0289V27.0055C28.093 27.9976 28.9048 28.7914 29.8789 28.7914C30.8711 28.7914 31.6649 27.9796 31.6649 27.0055V24.0289C31.6649 23.5238 32.0617 23.127 32.5668 23.127C33.072 23.127 33.4688 23.5238 33.4688 24.0289V27.0055C33.4688 28.9898 31.8633 30.5953 29.8789 30.5953Z" fill="#0A66C2" style="fill:#0A66C2;fill:color(display-p3 0.0392 0.4000 0.7608);fill-opacity:1;"/>
<path d="M11.7705 50.7462C11.536 50.7462 11.3015 50.656 11.1391 50.4756L9.33519 48.6716C8.99244 48.3108 8.99244 47.7516 9.33519 47.3908C9.67794 47.03 10.2552 47.03 10.616 47.3908L11.7705 48.5454L16.1361 44.1798C16.4789 43.819 17.0561 43.819 17.4169 44.1798C17.7597 44.5406 17.7597 45.0998 17.4169 45.4606L12.42 50.4576C12.2396 50.638 12.0051 50.7462 11.7705 50.7462Z" fill="#0A66C2" style="fill:#0A66C2;fill:color(display-p3 0.0392 0.4000 0.7608);fill-opacity:1;"/>
<path d="M49.798 48.2385H21.566C21.0609 48.2385 20.6641 47.8417 20.6641 47.3366C20.6641 46.8314 21.0609 46.4346 21.566 46.4346H49.798C50.3031 46.4346 50.7 46.8314 50.7 47.3366C50.7 47.8417 50.2851 48.2385 49.798 48.2385Z" fill="#091316" style="fill:#091316;fill:color(display-p3 0.0353 0.0745 0.0863);fill-opacity:1;"/>
<path d="M11.7705 60.8126C11.536 60.8126 11.3015 60.7224 11.1391 60.542L9.33519 58.738C8.99244 58.3772 8.99244 57.818 9.33519 57.4572C9.67794 57.0964 10.2552 57.0964 10.616 57.4572L11.7705 58.6118L16.1361 54.2462C16.4789 53.8854 17.0561 53.8854 17.4169 54.2462C17.7597 54.607 17.7597 55.1662 17.4169 55.527L12.42 60.524C12.2215 60.7404 12.0051 60.8126 11.7705 60.8126Z" fill="#0A66C2" style="fill:#0A66C2;fill:color(display-p3 0.0392 0.4000 0.7608);fill-opacity:1;"/>
<path d="M49.798 58.3235H21.566C21.0609 58.3235 20.6641 57.9266 20.6641 57.4215C20.6641 56.9164 21.0609 56.5195 21.566 56.5195H49.798C50.3031 56.5195 50.7 56.9164 50.7 57.4215C50.7 57.9266 50.2851 58.3235 49.798 58.3235Z" fill="#091316" style="fill:#091316;fill:color(display-p3 0.0353 0.0745 0.0863);fill-opacity:1;"/>
<path d="M11.7705 70.8966C11.536 70.8966 11.3015 70.8064 11.1391 70.626L9.33519 68.822C8.99244 68.4612 8.99244 67.902 9.33519 67.5412C9.67794 67.1804 10.2552 67.1804 10.616 67.5412L11.7705 68.6957L16.1361 64.3302C16.4789 63.9694 17.0561 63.9694 17.4169 64.3302C17.7597 64.691 17.7597 65.2502 17.4169 65.611L12.42 70.6079C12.2396 70.8064 12.0051 70.8966 11.7705 70.8966Z" fill="#0A66C2" style="fill:#0A66C2;fill:color(display-p3 0.0392 0.4000 0.7608);fill-opacity:1;"/>
<path d="M49.798 68.4075H21.566C21.0609 68.4075 20.6641 68.0106 20.6641 67.5055C20.6641 67.0004 21.0609 66.6035 21.566 66.6035H49.798C50.3031 66.6035 50.7 67.0004 50.7 67.5055C50.7 68.0106 50.2851 68.4075 49.798 68.4075Z" fill="#091316" style="fill:#091316;fill:color(display-p3 0.0353 0.0745 0.0863);fill-opacity:1;"/>
</svg>
