<svg width="26" height="25" viewBox="0 0 26 25" fill="none" xmlns="http://www.w3.org/2000/svg">
<path fill-rule="evenodd" clip-rule="evenodd" d="M10.0331 15.566V13.684C10.0331 13.4198 9.86959 13.3443 9.66286 13.5094L6.07632 16.4434C5.86959 16.6085 5.8744 16.8821 6.07632 17.0472L9.66286 19.9811C9.86959 20.1462 10.0331 20.0708 10.0331 19.8066V17.9245H16.7638V19.8066C16.7638 20.0708 16.9273 20.1462 17.134 19.9811L20.7254 17.0472C20.9273 16.8821 20.9321 16.6132 20.7254 16.4434L17.134 13.5094C16.9321 13.3443 16.7638 13.4198 16.7638 13.684V15.566H10.0331ZM22.0523 2.35849H23.9802C25.0427 2.35849 25.8984 3.20283 25.8984 4.25V23.1085C25.8984 24.1509 25.0379 25 23.9802 25H2.81671C1.75421 25 0.898438 24.1557 0.898438 23.1085V4.25C0.898438 3.20755 1.75901 2.35849 2.81671 2.35849H4.74459V4.71226C4.74459 5.75943 5.60998 6.60377 6.67248 6.60377H7.6244C8.69171 6.60377 9.55228 5.75943 9.55228 4.71226V2.35849H17.2446V4.71226C17.2446 5.75943 18.11 6.60377 19.1725 6.60377H20.1244C21.1917 6.60377 22.0523 5.75943 22.0523 4.71226V2.35849ZM2.34075 10.3774C2.34075 10.1179 2.5619 9.90566 2.82151 9.90566H23.9706C24.235 9.90566 24.4513 10.1226 24.4513 10.3774V23.1132C24.4513 23.3726 24.2302 23.5849 23.9706 23.5849H2.82151C2.55709 23.5849 2.34075 23.3679 2.34075 23.1132V10.3774ZM5.70613 0.948113C5.70613 0.424528 6.13882 0 6.66767 0H7.62921C8.15805 0 8.59074 0.424528 8.59074 0.948113V4.71226C8.59074 5.23585 8.15805 5.66038 7.62921 5.66038H6.66767C6.13882 5.66038 5.70613 5.23585 5.70613 4.71226V0.948113ZM18.2061 0.948113C18.2061 0.424528 18.6388 0 19.1677 0H20.1292C20.6581 0 21.0907 0.424528 21.0907 0.948113V4.71226C21.0907 5.23585 20.6581 5.66038 20.1292 5.66038H19.1677C18.6388 5.66038 18.2061 5.23585 18.2061 4.71226V0.948113Z" fill="#174461" style="fill:#174461;fill:color(display-p3 0.0902 0.2667 0.3804);fill-opacity:1;"/>
</svg>
