<svg width="26" height="25" viewBox="0 0 26 25" fill="none" xmlns="http://www.w3.org/2000/svg">
<path d="M12.7832 0C5.7369 0 0 5.60981 0 12.5C0 19.3902 5.7369 25 12.7832 25C19.8295 25 25.5664 19.3902 25.5664 12.5C25.5664 5.60981 19.8295 0 12.7832 0Z" fill="#E73B3B" fill-opacity="0.15" style="fill:#E73B3B;fill:color(display-p3 0.9042 0.2298 0.2298);fill-opacity:0.15;"/>
<path d="M17.4948 15.6316C17.9109 16.0385 17.9109 16.6949 17.4948 17.1073C17.2895 17.308 17.0121 17.4111 16.7402 17.4111C16.4683 17.4111 16.1965 17.308 15.9856 17.1073L12.7843 13.9768L9.58294 17.1073C9.37765 17.308 9.10024 17.4111 8.82837 17.4111C8.55651 17.4111 8.28464 17.308 8.07381 17.1073C7.65769 16.7004 7.65769 16.0439 8.07381 15.6316L11.2752 12.5011L8.07381 9.37071C7.65769 8.96381 7.65769 8.30735 8.07381 7.89502C8.48993 7.48812 9.16127 7.48812 9.58294 7.89502L12.7843 11.0254L15.9856 7.89502C16.4017 7.48812 17.0731 7.48812 17.4948 7.89502C17.9109 8.30192 17.9109 8.95839 17.4948 9.37071L14.2934 12.5011L17.4948 15.6316Z" fill="#D12323" style="fill:#D12323;fill:color(display-p3 0.8208 0.1368 0.1368);fill-opacity:1;"/>
</svg>
