<svg width="21" height="16" viewBox="0 0 21 16" fill="none" xmlns="http://www.w3.org/2000/svg">
<g clip-path="url(#clip0_865_12191)">
<path d="M16.8004 9.14314H4.20039C3.57148 9.14314 3.15039 8.6848 3.15039 8.00028C3.15039 7.31575 3.57148 6.85742 4.20039 6.85742H16.8004C17.4293 6.85742 17.8504 7.31575 17.8504 8.00028C17.8504 8.6848 17.4293 9.14314 16.8004 9.14314Z" fill="#0A66C2" style="fill:#0A66C2;fill:color(display-p3 0.0392 0.4000 0.7608);fill-opacity:1;"/>
<path d="M13.6488 16.0006H7.34883C6.71992 16.0006 6.29883 15.5422 6.29883 14.8577C6.29883 14.1732 6.71992 13.7148 7.34883 13.7148H13.6488C14.2777 13.7148 14.6988 14.1732 14.6988 14.8577C14.6988 15.5422 14.2777 16.0006 13.6488 16.0006Z" fill="#0A66C2" style="fill:#0A66C2;fill:color(display-p3 0.0392 0.4000 0.7608);fill-opacity:1;"/>
<path d="M19.95 2.28571H1.05C0.421094 2.28571 0 1.82738 0 1.14286C0 0.458333 0.421094 0 1.05 0H19.95C20.5789 0 21 0.458333 21 1.14286C21 1.82738 20.5789 2.28571 19.95 2.28571Z" fill="#0A66C2" style="fill:#0A66C2;fill:color(display-p3 0.0392 0.4000 0.7608);fill-opacity:1;"/>
</g>
<defs>
<clipPath id="clip0_865_12191">
<rect width="21" height="16" fill="white" style="fill:white;fill-opacity:1;"/>
</clipPath>
</defs>
</svg>
