<svg width="61" height="61" viewBox="0 0 61 61" fill="none" xmlns="http://www.w3.org/2000/svg">
<path d="M44.7289 14.2294C44.7289 22.0881 38.3586 28.4584 30.5004 28.4584C22.6418 28.4584 16.2715 22.0881 16.2715 14.2294C16.2715 6.37128 22.6418 0.000976562 30.5004 0.000976562C38.3586 0.000976562 44.7289 6.37128 44.7289 14.2294Z" fill="#00D66A" style="fill:#00D66A;fill:color(display-p3 0.0000 0.8392 0.4157);fill-opacity:1;"/>
<path d="M44.7303 14.2308C44.7303 22.0876 38.3596 28.4588 30.5 28.4588V0C38.3596 0 44.7303 6.37123 44.7303 14.2308Z" fill="#00B85E" style="fill:#00B85E;fill:color(display-p3 0.0000 0.7216 0.3686);fill-opacity:1;"/>
<path d="M16.5783 37.0401C16.5783 40.5818 13.7073 43.4528 10.1661 43.4528C6.62492 43.4528 3.75391 40.5818 3.75391 37.0401C3.75391 33.4989 6.62492 30.6279 10.1661 30.6279C13.7073 30.6279 16.5783 33.4989 16.5783 37.0401Z" fill="#F9BCAA" style="fill:#F9BCAA;fill:color(display-p3 0.9765 0.7373 0.6667);fill-opacity:1;"/>
<path d="M10.0893 43.4529C4.4836 43.4948 0 48.1413 0 53.747V59.213C0 60.2001 0.800011 61.0001 1.78711 61.0001H18.5459C19.533 61.0001 20.333 60.2001 20.333 59.213V53.6194C20.333 47.9789 15.7396 43.411 10.0893 43.4529Z" fill="#FF7579" style="fill:#FF7579;fill:color(display-p3 1.0000 0.4588 0.4745);fill-opacity:1;"/>
<path d="M16.5791 37.0406C16.5791 40.5813 13.7081 43.4527 10.166 43.4527V30.6274C13.7081 30.6274 16.5791 33.4989 16.5791 37.0406Z" fill="#F4AB97" style="fill:#F4AB97;fill:color(display-p3 0.9569 0.6706 0.5922);fill-opacity:1;"/>
<path d="M20.3335 53.6187V59.2127C20.3335 60.1993 19.5325 60.9998 18.5463 60.9998H10.166V43.4526C15.781 43.4526 20.3335 48.0037 20.3335 53.6187Z" fill="#FE4A60" style="fill:#FE4A60;fill:color(display-p3 0.9961 0.2902 0.3765);fill-opacity:1;"/>
<path d="M36.9127 37.0401C36.9127 40.5818 34.0417 43.4528 30.5001 43.4528C26.9589 43.4528 24.0879 40.5818 24.0879 37.0401C24.0879 33.4989 26.9589 30.6279 30.5001 30.6279C34.0417 30.6279 36.9127 33.4989 36.9127 37.0401Z" fill="#FFCFBE" style="fill:#FFCFBE;fill:color(display-p3 1.0000 0.8118 0.7451);fill-opacity:1;"/>
<path d="M30.4218 43.4529C24.8161 43.4948 20.332 48.1413 20.332 53.747V59.213C20.332 60.2001 21.1325 61.0001 22.1191 61.0001H38.8779C39.865 61.0001 40.6651 60.2001 40.6651 59.213V53.6194C40.6651 47.9789 36.0721 43.411 30.4218 43.4529Z" fill="#3AB4FB" style="fill:#3AB4FB;fill:color(display-p3 0.2275 0.7059 0.9843);fill-opacity:1;"/>
<path d="M36.9131 37.0406C36.9131 40.5813 34.0416 43.4527 30.5 43.4527V30.6274C34.0416 30.6274 36.9131 33.4989 36.9131 37.0406Z" fill="#F9BCAA" style="fill:#F9BCAA;fill:color(display-p3 0.9765 0.7373 0.6667);fill-opacity:1;"/>
<path d="M40.6674 53.6187V59.2127C40.6674 60.1993 39.867 60.9998 38.8803 60.9998H30.5V43.4526C36.1154 43.4526 40.6674 48.0037 40.6674 53.6187Z" fill="#1D9CFD" style="fill:#1D9CFD;fill:color(display-p3 0.1137 0.6118 0.9922);fill-opacity:1;"/>
<path d="M57.2462 37.0401C57.2462 40.5818 54.3757 43.4528 50.8341 43.4528C47.2929 43.4528 44.4219 40.5818 44.4219 37.0401C44.4219 33.4989 47.2929 30.6279 50.8341 30.6279C54.3757 30.6279 57.2462 33.4989 57.2462 37.0401Z" fill="#F4AB97" style="fill:#F4AB97;fill:color(display-p3 0.9569 0.6706 0.5922);fill-opacity:1;"/>
<path d="M50.7557 43.4529C45.1501 43.4948 40.666 48.1413 40.666 53.747V59.213C40.666 60.2001 41.4665 61.0001 42.4531 61.0001H59.2119C60.199 61.0001 60.999 60.2001 60.999 59.213V53.6194C60.999 47.9789 56.4056 43.411 50.7557 43.4529Z" fill="#00D66A" style="fill:#00D66A;fill:color(display-p3 0.0000 0.8392 0.4157);fill-opacity:1;"/>
<path d="M57.2456 37.0406C57.2456 40.5813 54.3741 43.4527 50.832 43.4527V30.6274C54.3741 30.6274 57.2456 33.4989 57.2456 37.0406Z" fill="#E79A85" style="fill:#E79A85;fill:color(display-p3 0.9059 0.6039 0.5216);fill-opacity:1;"/>
<path d="M60.9995 53.6187V59.2127C60.9995 60.1993 60.199 60.9998 59.2124 60.9998H50.832V43.4526C56.447 43.4526 60.9995 48.0037 60.9995 53.6187Z" fill="#00B85E" style="fill:#00B85E;fill:color(display-p3 0.0000 0.7216 0.3686);fill-opacity:1;"/>
<path d="M28.2778 19.3211C29.049 20.0927 30.3218 19.9959 30.971 19.1298L36.7135 11.4732C38.1316 9.58273 35.2745 7.43587 33.8541 9.32862L29.3482 15.3368L26.9766 12.9657C25.3058 11.2949 22.7764 13.8201 24.4495 15.4928L28.2778 19.3211Z" fill="#EFF6FE" style="fill:#EFF6FE;fill:color(display-p3 0.9373 0.9647 0.9961);fill-opacity:1;"/>
<path d="M33.8555 9.32862L30.5 13.8029V19.5649C30.6768 19.4523 30.8383 19.3085 30.9724 19.1298L36.7149 11.4732C38.1329 9.58273 35.2759 7.43587 33.8555 9.32862Z" fill="#D9E4EF" style="fill:#D9E4EF;fill:color(display-p3 0.8510 0.8941 0.9373);fill-opacity:1;"/>
</svg>
