<svg width="61" height="61" viewBox="0 0 61 61" fill="none" xmlns="http://www.w3.org/2000/svg">
<path d="M26.672 28.4588H53.4707C57.6225 28.4588 61.0003 25.081 61.0003 20.9292V7.52959C61.0003 3.37782 57.6225 0 53.4707 0H38.1569C33.9982 0 30.6273 3.36479 30.6273 7.52959V18.4193L25.2423 25.5994C24.836 26.1407 24.7708 26.8653 25.0733 27.4708C25.3763 28.0762 25.9948 28.4588 26.672 28.4588Z" fill="#EFF6FE" style="fill:#EFF6FE;fill:color(display-p3 0.9373 0.9647 0.9961);fill-opacity:1;"/>
<path d="M53.4711 0H45.6953V28.4588H53.4711C57.6229 28.4588 61.0007 25.081 61.0007 20.9292V7.52959C61.0007 3.37782 57.6229 0 53.4711 0Z" fill="#D9E4EF" style="fill:#D9E4EF;fill:color(display-p3 0.8510 0.8941 0.9373);fill-opacity:1;"/>
<path d="M34.3283 32.541H7.52959C3.37782 32.541 0 35.9188 0 40.0706V53.4702C0 57.622 3.37782 60.9998 7.52959 60.9998H22.8434C27.0021 60.9998 30.3729 57.635 30.3729 53.4702V42.5805L35.758 35.4004C36.1643 34.8591 36.2295 34.1345 35.9269 33.529C35.624 32.9236 35.0055 32.541 34.3283 32.541Z" fill="#EFF6FE" style="fill:#EFF6FE;fill:color(display-p3 0.9373 0.9647 0.9961);fill-opacity:1;"/>
<path d="M34.3272 32.541H16.9727V60.9998H22.8422C27.0009 60.9998 30.3718 57.635 30.3718 53.4702V42.5805L35.7569 35.4004C36.1631 34.8591 36.2288 34.1345 35.9258 33.529C35.6228 32.9236 35.0043 32.541 34.3272 32.541Z" fill="#D9E4EF" style="fill:#D9E4EF;fill:color(display-p3 0.8510 0.8941 0.9373);fill-opacity:1;"/>
<path d="M9.44336 52.3857H15.1863C16.1729 52.3857 16.9734 51.5857 16.9734 50.5986C16.9734 49.6115 16.1729 48.8115 15.1863 48.8115H9.44336C8.45673 48.8115 7.65625 49.6115 7.65625 50.5986C7.65625 51.5857 8.45626 52.3857 9.44336 52.3857Z" fill="#3AB4FB" style="fill:#3AB4FB;fill:color(display-p3 0.2275 0.7059 0.9843);fill-opacity:1;"/>
<path d="M17.7689 6.40986C17.7689 9.94964 14.8993 12.8197 11.3591 12.8197C7.8193 12.8197 4.94922 9.94964 4.94922 6.40986C4.94922 2.86961 7.8193 0 11.3591 0C14.8993 0 17.7689 2.86961 17.7689 6.40986Z" fill="#FFCFBE" style="fill:#FFCFBE;fill:color(display-p3 1.0000 0.8118 0.7451);fill-opacity:1;"/>
<path d="M17.7677 6.40986C17.7677 9.9501 14.8977 12.8193 11.3574 12.8193V0C14.8977 0 17.7677 2.87008 17.7677 6.40986Z" fill="#F9BCAA" style="fill:#F9BCAA;fill:color(display-p3 0.9765 0.7373 0.6667);fill-opacity:1;"/>
<path d="M11.3579 12.8193C5.08488 12.8193 0 17.9042 0 24.1773V26.6718C0 27.6589 0.800011 28.4589 1.78711 28.4589H20.9283C21.9154 28.4589 22.7154 27.6589 22.7154 26.6718V24.1773C22.7154 17.9042 17.6305 12.8193 11.3579 12.8193Z" fill="#3AB4FB" style="fill:#3AB4FB;fill:color(display-p3 0.2275 0.7059 0.9843);fill-opacity:1;"/>
<path d="M11.3594 12.8193V28.4589H20.9297C21.9168 28.4589 22.7168 27.6589 22.7168 26.6718V24.1773C22.7168 17.9042 17.6319 12.8193 11.3594 12.8193Z" fill="#1D9CFD" style="fill:#1D9CFD;fill:color(display-p3 0.1137 0.6118 0.9922);fill-opacity:1;"/>
<path d="M56.0517 38.9509C56.0517 42.4907 53.1821 45.3607 49.6423 45.3607C46.102 45.3607 43.2324 42.4907 43.2324 38.9509C43.2324 35.4106 46.102 32.541 49.6423 32.541C53.1821 32.541 56.0517 35.4106 56.0517 38.9509Z" fill="#F4AB97" style="fill:#F4AB97;fill:color(display-p3 0.9569 0.6706 0.5922);fill-opacity:1;"/>
<path d="M56.0524 38.9509C56.0524 42.4911 53.1824 45.3603 49.6426 45.3603V32.541C53.1824 32.541 56.0524 35.4111 56.0524 38.9509Z" fill="#E79A85" style="fill:#E79A85;fill:color(display-p3 0.9059 0.6039 0.5216);fill-opacity:1;"/>
<path d="M49.6431 45.3604C43.3705 45.3604 38.2852 50.4452 38.2852 56.7183V59.2128C38.2852 60.1999 39.0856 60.9999 40.0723 60.9999H59.2139C60.201 60.9999 61.001 60.1999 61.001 59.2128V56.7183C61.001 50.4452 55.9161 45.3604 49.6431 45.3604Z" fill="#00D66A" style="fill:#00D66A;fill:color(display-p3 0.0000 0.8392 0.4157);fill-opacity:1;"/>
<path d="M49.6426 45.3604V60.9999H59.2129C60.2 60.9999 61 60.1999 61 59.2128V56.7183C61 50.4452 55.9151 45.3604 49.6426 45.3604Z" fill="#00B85E" style="fill:#00B85E;fill:color(display-p3 0.0000 0.7216 0.3686);fill-opacity:1;"/>
<path d="M47.6016 20.9297C47.6016 21.9168 46.8016 22.7168 45.8145 22.7168C44.8278 22.7168 44.0273 21.9168 44.0273 20.9297C44.0273 19.9426 44.8278 19.1426 45.8145 19.1426C46.8016 19.1426 47.6016 19.9426 47.6016 20.9297Z" fill="#FF7579" style="fill:#FF7579;fill:color(display-p3 1.0000 0.4588 0.4745);fill-opacity:1;"/>
<path d="M45.8108 5.74219C42.7155 5.74219 40.1973 8.26043 40.1973 11.3558V11.3576C40.1973 12.3447 40.9977 13.1438 41.9844 13.1438C42.9715 13.1438 43.7715 12.3429 43.7715 11.3558C43.7715 10.2314 44.6864 9.31641 45.8127 9.31641C46.3581 9.31641 46.8701 9.52863 47.2568 9.91583C47.6422 10.3002 47.8539 10.8126 47.8539 11.3576C47.8539 12.4834 46.9385 13.3988 45.8127 13.3988C44.8261 13.3988 44.0256 14.1993 44.0256 15.1859C44.0256 16.173 44.8261 16.9731 45.8127 16.9731C48.9094 16.9731 51.4281 14.4539 51.4281 11.3576C51.4281 9.85673 50.8436 8.44659 49.7839 7.38828C48.7242 6.32672 47.3141 5.74219 45.8108 5.74219Z" fill="#FF7579" style="fill:#FF7579;fill:color(display-p3 1.0000 0.4588 0.4745);fill-opacity:1;"/>
<path d="M45.814 19.1426C45.774 19.1426 45.7349 19.1458 45.6953 19.1486V22.7107C45.7349 22.7135 45.774 22.7168 45.814 22.7168C46.8006 22.7168 47.6011 21.9163 47.6011 20.9297C47.6011 19.9431 46.8006 19.1426 45.814 19.1426Z" fill="#FE4A60" style="fill:#FE4A60;fill:color(display-p3 0.9961 0.2902 0.3765);fill-opacity:1;"/>
<path d="M9.44336 44.7295H20.9288C21.9154 44.7295 22.7159 43.9295 22.7159 42.9424C22.7159 41.9553 21.9154 41.1553 20.9288 41.1553H9.44336C8.45673 41.1553 7.65625 41.9553 7.65625 42.9424C7.65625 43.9295 8.45626 44.7295 9.44336 44.7295Z" fill="#3AB4FB" style="fill:#3AB4FB;fill:color(display-p3 0.2275 0.7059 0.9843);fill-opacity:1;"/>
<path d="M20.93 41.1553H16.9746V44.7295H20.93C21.9166 44.7295 22.7171 43.9295 22.7171 42.9424C22.7171 41.9553 21.9166 41.1553 20.93 41.1553Z" fill="#1D9CFD" style="fill:#1D9CFD;fill:color(display-p3 0.1137 0.6118 0.9922);fill-opacity:1;"/>
<path d="M45.8121 5.74219C45.773 5.74219 45.7344 5.74451 45.6953 5.74545V9.32246C45.7349 9.32013 45.774 9.31641 45.814 9.31641C46.3594 9.31641 46.8714 9.52863 47.2581 9.91583C47.6434 10.3002 47.8552 10.8126 47.8552 11.3576C47.8552 12.4834 46.9398 13.3988 45.814 13.3988C45.774 13.3988 45.7349 13.4026 45.6953 13.4049V16.967C45.7349 16.9698 45.774 16.9735 45.814 16.9735C48.9107 16.9735 51.4294 14.4543 51.4294 11.3581C51.4294 9.85673 50.8449 8.44659 49.7852 7.38828C48.7255 6.32672 47.3153 5.74219 45.8121 5.74219Z" fill="#FE4A60" style="fill:#FE4A60;fill:color(display-p3 0.9961 0.2902 0.3765);fill-opacity:1;"/>
</svg>
