<svg width="371" height="424" viewBox="0 0 371 424" fill="none" xmlns="http://www.w3.org/2000/svg">
<path d="M60.5587 149.42C65.0787 137.36 71.7787 124.29 81.8287 111.73C89.6987 102.01 114.329 74.2102 156.369 65.0002C162.399 63.6602 185.009 59.1402 213.319 65.5002C213.489 65.5002 213.819 65.6701 213.989 65.6701C227.889 68.8501 255.529 77.5601 279.649 101.68C316.329 138.36 318.509 184.93 318.679 195.98V255.28C318.679 271.86 325.209 287.61 336.939 299.33C343.139 305.53 350.169 312.56 356.869 319.26C364.409 326.97 366.749 338.36 362.569 348.41C358.549 358.29 348.829 364.83 337.949 364.83H246.999C242.639 394.98 216.679 418.1 185.359 418.1C154.039 418.1 128.069 394.98 123.719 364.83H32.5987C21.8787 364.83 12.1587 358.3 7.97869 348.41C3.95869 338.36 6.13871 326.97 13.8387 319.26C20.5387 312.56 27.5787 305.52 33.7687 299.33C45.4987 287.6 52.0287 271.86 52.0287 255.28V195.98C52.0287 191.79 52.3687 184.25 53.8687 174.54" stroke="white" style="stroke:white;stroke-opacity:1;" stroke-width="11.73" stroke-miterlimit="10" stroke-linecap="round"/>
<path d="M213.404 65.47C218.594 59.1 221.784 51.23 221.784 42.35C221.784 22.25 205.364 6 185.264 6C165.164 6 148.914 22.25 148.914 42.35C148.914 50.89 151.764 58.6 156.784 64.8" stroke="white" style="stroke:white;stroke-opacity:1;" stroke-width="10.42" stroke-miterlimit="10" stroke-linecap="round"/>
<path d="M254.53 358.98H116.07V370.04H254.53V358.98Z" fill="white" style="fill:white;fill-opacity:1;"/>
</svg>
