<?xml version="1.0" encoding="UTF-8"?>
<svg id="Layer_1" data-name="Layer 1" xmlns="http://www.w3.org/2000/svg" version="1.1" viewBox="0 0 512 512">
  <defs>
    <style>
      .cls-1 {
        fill: #000;
        stroke-width: 0px;
      }

      .cls-2 {
        stroke-width: 10.42px;
      }

      .cls-2, .cls-3 {
        fill: none;
        fill-rule: evenodd;
        stroke: #000;
        stroke-linecap: round;
        stroke-miterlimit: 10;
      }

      .cls-3 {
        stroke-width: 11.73px;
      }
    </style>
  </defs>
  <g>
    <g id="Icon">
      <path class="cls-3" d="M137.61,199.62c4.52-12.06,11.22-25.13,21.27-37.69,7.87-9.72,32.5-37.52,74.54-46.73,6.03-1.34,28.64-5.86,56.95.5.17,0,.5.17.67.17,13.9,3.18,41.54,11.89,65.66,36.01,36.68,36.68,38.86,83.25,39.03,94.3v59.3c0,16.58,6.53,32.33,18.26,44.05,6.2,6.2,13.23,13.23,19.93,19.93,7.54,7.71,9.88,19.1,5.7,29.15-4.02,9.88-13.74,16.42-24.62,16.42h-90.95c-4.36,30.15-30.32,53.27-61.64,53.27s-57.29-23.12-61.64-53.27h-91.12c-10.72,0-20.44-6.53-24.62-16.42-4.02-10.05-1.84-21.44,5.86-29.15,6.7-6.7,13.74-13.74,19.93-19.93,11.73-11.73,18.26-27.47,18.26-44.05v-59.3c0-4.19.34-11.73,1.84-21.44"/>
    </g>
    <path class="cls-2" d="M290.46,115.67c5.19-6.37,8.38-14.24,8.38-23.12,0-20.1-16.42-36.35-36.52-36.35s-36.35,16.25-36.35,36.35c0,8.54,2.85,16.25,7.87,22.45"/>
  </g>
  <rect class="cls-1" x="193.13" y="409.19" width="138.46" height="11.06"/>
</svg>