<svg width="26" height="25" viewBox="0 0 26 25" fill="none" xmlns="http://www.w3.org/2000/svg">
<path d="M23.0312 0H2.71875C1.42633 0 0.375 1.05133 0.375 2.34375V11.9919C0.375 12.4237 0.724805 12.7731 1.15625 12.7731C1.5877 12.7731 1.9375 12.4237 1.9375 11.9919V2.34375C1.9375 1.91269 2.28807 1.5625 2.71875 1.5625H23.0312C23.4619 1.5625 23.8125 1.91269 23.8125 2.34375V22.6562C23.8125 23.0873 23.4619 23.4375 23.0312 23.4375H13.3827C12.9513 23.4375 12.6015 23.7869 12.6015 24.2188C12.6015 24.6506 12.9513 25 13.3827 25H23.0312C24.3237 25 25.375 23.9487 25.375 22.6562V2.34375C25.375 1.05133 24.3237 0 23.0312 0Z" fill="#002B55" style="fill:#002B55;fill:color(display-p3 0.0000 0.1686 0.3333);fill-opacity:1;"/>
<path d="M8.96875 14.0625H2.71875C1.42633 14.0625 0.375 15.1138 0.375 16.4062V22.6562C0.375 23.9487 1.42633 25 2.71875 25H8.96875C10.2612 25 11.3125 23.9487 11.3125 22.6562V16.4062C11.3125 15.1138 10.2612 14.0625 8.96875 14.0625ZM9.75 22.6562C9.75 23.0873 9.39943 23.4375 8.96875 23.4375H2.71875C2.28807 23.4375 1.9375 23.0873 1.9375 22.6562V16.4062C1.9375 15.9752 2.28807 15.625 2.71875 15.625H8.96875C9.39943 15.625 9.75 15.9752 9.75 16.4062V22.6562Z" fill="#002B55" style="fill:#002B55;fill:color(display-p3 0.0000 0.1686 0.3333);fill-opacity:1;"/>
<path d="M13.4274 13.0524L18.3438 8.13598V9.375C18.3438 9.80682 18.6936 10.1562 19.125 10.1562C19.5564 10.1562 19.9062 9.80682 19.9062 9.375V6.25C19.9062 5.8315 19.55 5.46875 19.125 5.46875H16C15.5686 5.46875 15.2188 5.81818 15.2188 6.25C15.2188 6.68182 15.5686 7.03125 16 7.03125H17.239L12.3226 11.9476C12.0175 12.2528 12.0175 12.7472 12.3226 13.0524C12.6176 13.3473 13.1229 13.3569 13.4274 13.0524Z" fill="#002B55" style="fill:#002B55;fill:color(display-p3 0.0000 0.1686 0.3333);fill-opacity:1;"/>
</svg>
