<svg width="22" height="20" viewBox="0 0 22 20" fill="none" xmlns="http://www.w3.org/2000/svg">
<path fill-rule="evenodd" clip-rule="evenodd" d="M17.376 15.0169C17.544 14.7709 17.8795 14.7075 18.1256 14.8754C18.3717 15.0433 18.435 15.3789 18.2671 15.625C17.351 16.9691 16.1151 18.0785 14.6684 18.844C13.2735 19.582 11.6848 20 10 20C7.23869 20 4.73869 18.8807 2.92901 17.071C1.11932 15.2614 0 12.7614 0 10C0 7.23865 1.11932 4.73865 2.92901 2.92896C4.73865 1.11932 7.23869 0 10 0C11.6848 0 13.2735 0.417973 14.6683 1.15599C16.115 1.92149 17.351 3.0309 18.2671 4.375C18.435 4.62104 18.3717 4.95667 18.1256 5.12459C17.8795 5.29252 17.5439 5.22919 17.376 4.98315C16.558 3.78288 15.4554 2.79279 14.1658 2.11045C12.9238 1.45324 11.5063 1.08108 10 1.08108C7.53712 1.08108 5.30734 2.07937 3.69338 3.69333C2.07941 5.3073 1.08113 7.53707 1.08113 10C1.08113 12.4629 2.07941 14.6927 3.69338 16.3067C5.30734 17.9206 7.53712 18.9189 10 18.9189C11.5063 18.9189 12.9239 18.5468 14.1659 17.8896C15.4555 17.2073 16.558 16.2172 17.376 15.0169ZM21.0947 10.2129C21.1595 10.1579 21.1932 10.0849 21.1932 10C21.1932 9.91518 21.1595 9.84216 21.0948 9.78725L16.5671 5.94302C16.4822 5.87095 16.3702 5.85568 16.2691 5.90248C16.168 5.94923 16.1072 6.04455 16.1072 6.15586V7.94631L7.69766 7.9464C7.39018 7.9464 7.13919 8.1973 7.13919 8.50486V11.4955C7.13919 11.803 7.39009 12.0539 7.69766 12.0539L16.1072 12.0539V13.8443C16.1072 13.9557 16.1681 14.051 16.2691 14.0977C16.3702 14.1445 16.4822 14.1292 16.5671 14.0572L21.0947 10.2129Z" fill="#3E3E3E" style="fill:#3E3E3E;fill:color(display-p3 0.2431 0.2431 0.2431);fill-opacity:1;"/>
</svg>
