<svg width="26" height="26" viewBox="0 0 26 26" fill="none" xmlns="http://www.w3.org/2000/svg">
<path d="M13.0352 0.896484C6.14278 0.896484 0.535156 6.50411 0.535156 13.3965C0.535156 20.2889 6.14278 25.8965 13.0352 25.8965C19.9275 25.8965 25.5352 20.2889 25.5352 13.3965C25.5352 6.50411 19.9275 0.896484 13.0352 0.896484ZM13.0352 24.334C7.00411 24.334 2.09766 19.4275 2.09766 13.3965C2.09766 7.36544 7.00411 2.45899 13.0352 2.45899C19.0662 2.45899 23.9727 7.36544 23.9727 13.3965C23.9727 19.4275 19.0662 24.334 13.0352 24.334Z" fill="#0A66C2" style="fill:#0A66C2;fill:color(display-p3 0.0392 0.4000 0.7608);fill-opacity:1;"/>
<path d="M13.8164 5.58398H12.2539V13.72L17.1703 18.6363L18.275 17.5316L13.8164 13.073V5.58398Z" fill="#0A66C2" style="fill:#0A66C2;fill:color(display-p3 0.0392 0.4000 0.7608);fill-opacity:1;"/>
</svg>
