<svg width="26" height="26" viewBox="0 0 26 26" fill="none" xmlns="http://www.w3.org/2000/svg">
<path d="M24.1691 13.0087L24.4035 12.6261L24.1691 12.2433C24.1298 12.1794 23.1868 10.6573 21.3548 9.13203C18.9181 7.10356 16.0476 6.03125 13.0532 6.03125C10.0596 6.03125 7.18203 7.10299 4.73147 9.1305C2.88897 10.655 1.9353 12.176 1.89562 12.24L1.65625 12.6261L1.89562 13.0121C1.9353 13.0762 2.88897 14.5971 4.73147 16.1217C7.18203 18.1492 10.0596 19.2209 13.0532 19.2209C16.0476 19.2209 18.9181 18.1486 21.3548 16.1202C23.1868 14.5949 24.1298 13.0728 24.1691 13.0087ZM20.3786 15.0265C18.1867 16.8377 15.722 17.7559 13.0532 17.7559C10.3835 17.7559 7.91083 16.8371 5.70403 15.0248C4.56267 14.0875 3.78886 13.1384 3.40987 12.6261C3.78905 12.1134 4.56286 11.1645 5.70403 10.2272C7.91083 8.41505 10.3833 7.49609 13.0532 7.49609C15.722 7.49609 18.1865 8.41448 20.3786 10.2255C21.5148 11.1643 22.2819 12.1147 22.6558 12.6261C22.2816 13.1376 21.5146 14.0881 20.3786 15.0265Z" fill="white" style="fill:white;fill-opacity:1;"/>
<path d="M13.0338 8.22656C10.6071 8.22656 8.63281 10.2009 8.63281 12.6276C8.63281 15.0543 10.6071 17.0286 13.0338 17.0286C15.4605 17.0286 17.4348 15.0543 17.4348 12.6276C17.4348 10.2009 15.4605 8.22656 13.0338 8.22656ZM13.0338 15.5637C11.4149 15.5637 10.0977 14.2465 10.0977 12.6276C10.0977 11.0086 11.4149 9.69141 13.0338 9.69141C14.6528 9.69141 15.97 11.0086 15.97 12.6276C15.97 14.2465 14.6528 15.5637 13.0338 15.5637Z" fill="white" style="fill:white;fill-opacity:1;"/>
<path d="M1.99609 1.5918H5.05395V0.126953H0.53125V4.59473H1.99609V1.5918Z" fill="white" style="fill:white;fill-opacity:1;"/>
<path d="M21.0078 0.126953V1.5918H24.0657V4.59473H25.5305V0.126953H21.0078Z" fill="white" style="fill:white;fill-opacity:1;"/>
<path d="M1.99609 20.6582H0.53125V25.126H5.05395V23.6611H1.99609V20.6582Z" fill="white" style="fill:white;fill-opacity:1;"/>
<path d="M24.0657 23.6631H21.0078V25.1279H25.5305V20.6602H24.0657V23.6631Z" fill="white" style="fill:white;fill-opacity:1;"/>
</svg>
