<svg width="25" height="25" viewBox="0 0 25 25" fill="none" xmlns="http://www.w3.org/2000/svg">
<path d="M23.6378 12.8827L23.8722 12.5001L23.6378 12.1173C23.5985 12.0534 22.6555 10.5314 20.8235 9.00605C18.3869 6.97758 15.5163 5.90527 12.522 5.90527C9.5284 5.90527 6.65078 6.97701 4.20022 9.00452C2.35772 10.5291 1.40405 12.05 1.36437 12.1141L1.125 12.5001L1.36437 12.8862C1.40405 12.9503 2.35772 14.4712 4.20022 15.9957C6.65078 18.0232 9.5284 19.095 12.522 19.095C15.5163 19.095 18.3869 18.0227 20.8235 15.9942C22.6555 14.4689 23.5985 12.9468 23.6378 12.8827ZM19.8473 14.9005C17.6554 16.7117 15.1907 17.6299 12.522 17.6299C9.85226 17.6299 7.37958 16.7112 5.17278 14.8988C4.03142 13.9615 3.25761 13.0124 2.87862 12.5001C3.2578 11.9874 4.03161 11.0385 5.17278 10.1012C7.37958 8.28908 9.85207 7.37012 12.522 7.37012C15.1907 7.37012 17.6552 8.2885 19.8473 10.0995C20.9836 11.0383 21.7507 11.9888 22.1245 12.5001C21.7503 13.0117 20.9834 13.9621 19.8473 14.9005Z" fill="#091316" style="fill:#091316;fill:color(display-p3 0.0353 0.0745 0.0863);fill-opacity:1;"/>
<path d="M12.4987 8.09961C10.072 8.09961 8.09766 10.0739 8.09766 12.5006C8.09766 14.9273 10.072 16.9016 12.4987 16.9016C14.9254 16.9016 16.8997 14.9273 16.8997 12.5006C16.8997 10.0739 14.9254 8.09961 12.4987 8.09961ZM12.4987 15.4368C10.8797 15.4368 9.5625 14.1196 9.5625 12.5006C9.5625 10.8817 10.8797 9.56445 12.4987 9.56445C14.1176 9.56445 15.4348 10.8817 15.4348 12.5006C15.4348 14.1196 14.1176 15.4368 12.4987 15.4368Z" fill="#091316" style="fill:#091316;fill:color(display-p3 0.0353 0.0745 0.0863);fill-opacity:1;"/>
<path d="M1.46484 1.46484H4.5227V0H0V4.46777H1.46484V1.46484Z" fill="#091316" style="fill:#091316;fill:color(display-p3 0.0353 0.0745 0.0863);fill-opacity:1;"/>
<path d="M20.4766 0V1.46484H23.5344V4.46777H24.9993V0H20.4766Z" fill="#091316" style="fill:#091316;fill:color(display-p3 0.0353 0.0745 0.0863);fill-opacity:1;"/>
<path d="M1.46484 20.5322H0V25H4.5227V23.5352H1.46484V20.5322Z" fill="#091316" style="fill:#091316;fill:color(display-p3 0.0353 0.0745 0.0863);fill-opacity:1;"/>
<path d="M23.5344 23.5352H20.4766V25H24.9993V20.5322H23.5344V23.5352Z" fill="#091316" style="fill:#091316;fill:color(display-p3 0.0353 0.0745 0.0863);fill-opacity:1;"/>
</svg>
