<svg width="25" height="25" viewBox="0 0 25 25" fill="none" xmlns="http://www.w3.org/2000/svg">
<path d="M12.3184 12.0426C13.9728 12.0426 15.4052 11.4492 16.5759 10.2785C17.7463 9.10795 18.3399 7.67573 18.3399 6.02111C18.3399 4.36706 17.7465 2.93464 16.5757 1.76372C15.405 0.593375 13.9726 0 12.3184 0C10.6637 0 9.23152 0.593375 8.06098 1.76391C6.89044 2.93445 6.29688 4.36687 6.29688 6.02111C6.29688 7.67573 6.89044 9.10814 8.06098 10.2787C9.2319 11.449 10.6643 12.0426 12.3184 12.0426ZM9.09705 2.79979C9.99522 1.90162 11.0488 1.46503 12.3184 1.46503C13.5877 1.46503 14.6415 1.90162 15.5399 2.79979C16.438 3.69815 16.8748 4.75196 16.8748 6.02111C16.8748 7.29064 16.438 8.34425 15.5399 9.24261C14.6415 10.141 13.5877 10.5776 12.3184 10.5776C11.0492 10.5776 9.9956 10.1408 9.09705 9.24261C8.19869 8.34444 7.76191 7.29064 7.76191 6.02111C7.76191 4.75196 8.19869 3.69815 9.09705 2.79979Z" fill="#091316" style="fill:#091316;fill:color(display-p3 0.0353 0.0745 0.0863);fill-opacity:1;"/>
<path d="M22.8539 19.222C22.8202 18.7349 22.7519 18.2035 22.6514 17.6423C22.5499 17.077 22.4192 16.5426 22.2628 16.0541C22.1011 15.5492 21.8815 15.0506 21.6097 14.5728C21.328 14.0769 20.9969 13.6451 20.6254 13.2898C20.2368 12.918 19.7612 12.6191 19.2111 12.4011C18.6629 12.1843 18.0554 12.0744 17.4056 12.0744C17.1504 12.0744 16.9036 12.1791 16.4269 12.4894C16.1336 12.6808 15.7904 12.902 15.4074 13.1467C15.08 13.3554 14.6363 13.5509 14.0883 13.7279C13.5537 13.9009 13.0109 13.9886 12.4749 13.9886C11.9393 13.9886 11.3965 13.9009 10.8615 13.7279C10.3141 13.5511 9.87023 13.3556 9.54331 13.1469C9.16394 12.9045 8.82062 12.6832 8.52288 12.4893C8.04662 12.1789 7.79981 12.0742 7.54461 12.0742C6.89458 12.0742 6.28728 12.1843 5.7393 12.4013C5.18961 12.619 4.71372 12.9178 4.32482 13.29C3.95327 13.6455 3.62215 14.0771 3.34063 14.5728C3.06921 15.0506 2.84949 15.549 2.68774 16.0543C2.53153 16.5427 2.40088 17.077 2.29941 17.6423C2.1987 18.2027 2.13061 18.7343 2.09685 19.2226C2.06366 19.7 2.04688 20.1968 2.04688 20.6989C2.04688 22.0039 2.46172 23.0603 3.27978 23.8395C4.08773 24.6083 5.15661 24.9982 6.45685 24.9982H18.4945C19.7943 24.9982 20.8632 24.6083 21.6714 23.8395C22.4896 23.0609 22.9045 22.004 22.9045 20.6987C22.9043 20.1949 22.8873 19.6981 22.8539 19.222ZM20.6612 22.778C20.1274 23.2862 19.4186 23.5332 18.4943 23.5332H6.45685C5.53236 23.5332 4.82359 23.2862 4.28991 22.7782C3.76635 22.2799 3.51191 21.5995 3.51191 20.6989C3.51191 20.2304 3.52736 19.7679 3.55826 19.3238C3.58839 18.8882 3.65 18.4097 3.74136 17.9012C3.83158 17.399 3.9464 16.9276 4.08297 16.501C4.214 16.0919 4.39272 15.6867 4.61435 15.2965C4.82588 14.9246 5.06925 14.6055 5.33781 14.3483C5.58901 14.1078 5.90562 13.911 6.2787 13.7634C6.62374 13.6268 7.0115 13.552 7.43245 13.5408C7.48376 13.5681 7.57512 13.6201 7.72313 13.7166C8.0243 13.9129 8.37144 14.1368 8.7552 14.3819C9.18778 14.6577 9.74511 14.9068 10.411 15.1218C11.0917 15.3419 11.786 15.4537 12.4751 15.4537C13.1642 15.4537 13.8587 15.3419 14.539 15.122C15.2055 14.9066 15.7626 14.6577 16.1958 14.3815C16.5885 14.1305 16.9259 13.9131 17.2271 13.7166C17.3751 13.6203 17.4664 13.5681 17.5177 13.5408C17.9389 13.552 18.3266 13.6268 18.6719 13.7634C19.0448 13.911 19.3614 14.108 19.6126 14.3483C19.8811 14.6053 20.1245 14.9244 20.336 15.2967C20.5578 15.6867 20.7368 16.092 20.8676 16.5008C21.0044 16.928 21.1194 17.3991 21.2094 17.901C21.3006 18.4104 21.3624 18.8892 21.3925 19.324V19.3244C21.4236 19.7667 21.4392 20.2291 21.4394 20.6989C21.4392 21.5997 21.1848 22.2799 20.6612 22.778Z" fill="#091316" style="fill:#091316;fill:color(display-p3 0.0353 0.0745 0.0863);fill-opacity:1;"/>
</svg>
