<svg width="25" height="25" viewBox="0 0 25 25" fill="none" xmlns="http://www.w3.org/2000/svg">
<g clip-path="url(#clip0_1489_159696)">
<path d="M14.1676 17.6146C13.9121 17.6385 13.6555 17.5808 13.4347 17.4498C13.2733 17.2842 13.196 17.0543 13.2245 16.8248C13.2304 16.6338 13.2532 16.4437 13.2926 16.2567C13.3308 16.0421 13.38 15.8297 13.4403 15.6203L14.1108 13.3135C14.1799 13.0858 14.2256 12.8516 14.2472 12.6146C14.2472 12.3589 14.2812 12.1828 14.2812 12.0805C14.2955 11.6248 14.1009 11.1875 13.7528 10.893C13.3247 10.5643 12.7915 10.4027 12.2528 10.4385C11.8668 10.4443 11.4838 10.5075 11.1165 10.626C10.7149 10.751 10.2926 10.9006 9.84941 11.0748L9.65625 11.8248C9.78691 11.7794 9.94605 11.7283 10.1278 11.6714C10.3013 11.6201 10.4811 11.5933 10.6619 11.5919C10.9156 11.5644 11.171 11.6267 11.3835 11.768C11.5278 11.9402 11.5956 12.164 11.571 12.3873C11.5704 12.5784 11.5494 12.7689 11.5085 12.9555C11.4687 13.1544 11.4176 13.3646 11.3551 13.5862L10.679 15.9043C10.6245 16.1198 10.5809 16.3379 10.5483 16.5578C10.5217 16.746 10.5084 16.9358 10.5085 17.1259C10.5057 17.5848 10.7155 18.019 11.0767 18.302C11.5114 18.6359 12.0522 18.8014 12.5994 18.768C12.9846 18.7759 13.3686 18.7202 13.7357 18.6032C14.0577 18.4933 14.4876 18.3361 15.0255 18.1316L15.2074 17.4157C15.0617 17.4761 14.9116 17.5255 14.7585 17.5634C14.5648 17.6076 14.366 17.6248 14.1676 17.6146Z" fill="#091316" style="fill:#091316;fill:color(display-p3 0.0353 0.0745 0.0863);fill-opacity:1;"/>
<path d="M14.8846 6.67664C14.5753 6.39266 14.1679 6.23988 13.7482 6.25052C13.3287 6.24105 12.9217 6.39369 12.6118 6.67664C12.0438 7.16639 11.9804 8.02386 12.4702 8.59188C12.5139 8.64251 12.5612 8.68983 12.6118 8.73348C13.2589 9.31224 14.2375 9.31224 14.8845 8.73348C15.4525 8.2389 15.512 7.37757 15.0174 6.8096C14.9763 6.76229 14.9319 6.71786 14.8846 6.67664Z" fill="#091316" style="fill:#091316;fill:color(display-p3 0.0353 0.0745 0.0863);fill-opacity:1;"/>
<path d="M12.5 0C5.59644 0 0 5.59644 0 12.5C0 19.4036 5.59644 25 12.5 25C19.4036 25 25 19.4036 25 12.5C25 5.59644 19.4036 0 12.5 0ZM12.5 23.8636C6.22402 23.8636 1.13638 18.776 1.13638 12.5C1.13638 6.22402 6.22402 1.13638 12.5 1.13638C18.776 1.13638 23.8636 6.22402 23.8636 12.5C23.8636 18.776 18.776 23.8636 12.5 23.8636Z" fill="#091316" style="fill:#091316;fill:color(display-p3 0.0353 0.0745 0.0863);fill-opacity:1;"/>
</g>
<defs>
<clipPath id="clip0_1489_159696">
<rect width="25" height="25" fill="white" style="fill:white;fill-opacity:1;"/>
</clipPath>
</defs>
</svg>
