<svg width="25" height="25" viewBox="0 0 25 25" fill="none" xmlns="http://www.w3.org/2000/svg">
<g clip-path="url(#clip0_1489_159682)">
<path d="M10.4141 25C8.26105 25 6.50781 23.2479 6.50781 21.0938C6.50781 20.6625 6.85781 20.3125 7.28906 20.3125C7.72031 20.3125 8.07031 20.6625 8.07031 21.0938C8.07031 22.3866 9.12241 23.4375 10.4141 23.4375C11.7057 23.4375 12.7578 22.3866 12.7578 21.0938C12.7578 20.6625 13.1078 20.3125 13.5391 20.3125C13.9703 20.3125 14.3203 20.6625 14.3203 21.0938C14.3203 23.2479 12.5673 25 10.4141 25Z" fill="#091316" style="fill:#091316;fill:color(display-p3 0.0353 0.0745 0.0863);fill-opacity:1;"/>
<path d="M19.0104 21.8746H1.82285C0.81768 21.8746 0 21.0569 0 20.0518C0 19.5183 0.232315 19.0132 0.637436 18.6663C0.663567 18.6434 0.691605 18.6226 0.720787 18.6037C2.24991 17.2693 3.125 15.3496 3.125 13.3224V10.4162C3.125 7.02362 5.42393 4.11109 8.71563 3.3329C9.13639 3.236 9.55734 3.4933 9.65633 3.91426C9.75513 4.33406 9.49478 4.75482 9.07612 4.85382C6.49166 5.46417 4.6875 7.75165 4.6875 10.4162V13.3224C4.6875 15.8392 3.58429 18.2205 1.66359 19.8547C1.64795 19.8673 1.63441 19.8788 1.61762 19.8902C1.58958 19.9257 1.5625 19.9799 1.5625 20.0518C1.5625 20.1933 1.68133 20.3121 1.82285 20.3121H19.0104C19.1521 20.3121 19.2709 20.1933 19.2709 20.0518C19.2709 19.9787 19.2438 19.9257 19.2146 19.8902C19.199 19.8788 19.1843 19.8673 19.1698 19.8547C18.2365 19.059 17.4999 18.0986 16.9813 16.9996C16.7959 16.61 16.9624 16.1444 17.3531 15.959C17.7469 15.7736 18.2083 15.9424 18.3928 16.3319C18.8051 17.2028 19.3832 17.9674 20.1145 18.6069C20.1416 18.6256 20.1698 18.6455 20.1937 18.6663C20.6011 19.0132 20.8334 19.5183 20.8334 20.0518C20.8334 21.0569 20.0157 21.8746 19.0104 21.8746Z" fill="#091316" style="fill:#091316;fill:color(display-p3 0.0353 0.0745 0.0863);fill-opacity:1;"/>
<path d="M18.2316 13.5416C14.4984 13.5416 11.4609 10.5042 11.4609 6.7709C11.4609 3.03745 14.4984 0 18.2316 0C21.9651 0 25.0025 3.03745 25.0025 6.7709C25.0025 10.5042 21.9651 13.5416 18.2316 13.5416ZM18.2316 1.5625C15.3597 1.5625 13.0234 3.899 13.0234 6.7709C13.0234 9.64279 15.3597 11.9791 18.2316 11.9791C21.1035 11.9791 23.44 9.64279 23.44 6.7709C23.44 3.899 21.1035 1.5625 18.2316 1.5625Z" fill="#091316" style="fill:#091316;fill:color(display-p3 0.0353 0.0745 0.0863);fill-opacity:1;"/>
<path d="M18.4896 9.89726C18.0584 9.89726 17.7084 9.54726 17.7084 9.11601V5.73047H17.1875C16.7562 5.73047 16.4062 5.38047 16.4062 4.94922C16.4062 4.51797 16.7562 4.16797 17.1875 4.16797H18.4896C18.9209 4.16797 19.2709 4.51797 19.2709 4.94922V9.11601C19.2709 9.54726 18.9209 9.89726 18.4896 9.89726Z" fill="#091316" style="fill:#091316;fill:color(display-p3 0.0353 0.0745 0.0863);fill-opacity:1;"/>
</g>
<defs>
<clipPath id="clip0_1489_159682">
<rect width="25" height="25" fill="white" style="fill:white;fill-opacity:1;"/>
</clipPath>
</defs>
</svg>
