<svg width="20" height="27" viewBox="0 0 20 27" fill="none" xmlns="http://www.w3.org/2000/svg">
<path fill-rule="evenodd" clip-rule="evenodd" d="M3.38812 0H12.0893L19.4638 7.6867V22.6374C19.4638 24.5103 17.9486 26.0255 16.0822 26.0255H3.38812C1.51522 26.0255 5.35209e-10 24.5103 5.35209e-10 22.6374V3.38812C-3.28826e-05 1.51522 1.51519 0 3.38812 0Z" fill="#E5252A" style="fill:#E5252A;fill:color(display-p3 0.8980 0.1451 0.1647);fill-opacity:1;"/>
<path opacity="0.302" fill-rule="evenodd" clip-rule="evenodd" d="M12.0859 0V7.62817H19.467L12.0859 0Z" fill="white" style="fill:white;fill-opacity:1;"/>
<path d="M3.76562 19.4178V14.6641H5.7881C6.28885 14.6641 6.68555 14.8006 6.98469 15.0803C7.28383 15.3534 7.43341 15.7241 7.43341 16.1858C7.43341 16.6475 7.28383 17.0182 6.98469 17.2913C6.68555 17.571 6.28885 17.7075 5.7881 17.7075H4.98171V19.4178H3.76562ZM4.98171 16.6736H5.65154C5.83361 16.6736 5.97669 16.6345 6.07425 16.5435C6.17178 16.459 6.22384 16.3419 6.22384 16.1858C6.22384 16.0298 6.17182 15.9127 6.07425 15.8282C5.97672 15.7371 5.83365 15.6981 5.65154 15.6981H4.98171V16.6736ZM7.93412 19.4178V14.6641H9.61843C9.95009 14.6641 10.2622 14.7096 10.5549 14.8071C10.8475 14.9047 11.1142 15.0413 11.3482 15.2298C11.5824 15.4119 11.771 15.659 11.9075 15.9712C12.0376 16.2834 12.1091 16.641 12.1091 17.0442C12.1091 17.4409 12.0376 17.7986 11.9075 18.1107C11.771 18.4229 11.5824 18.67 11.3482 18.8521C11.1141 19.0406 10.8475 19.1772 10.5549 19.2748C10.2622 19.3723 9.95009 19.4178 9.61843 19.4178H7.93412ZM9.1242 18.3839H9.47536C9.66394 18.3839 9.83954 18.3644 10.0021 18.3188C10.1582 18.2733 10.3078 18.2018 10.4508 18.1042C10.5874 18.0067 10.698 17.8701 10.776 17.688C10.854 17.506 10.893 17.2913 10.893 17.0442C10.893 16.7906 10.854 16.576 10.776 16.3939C10.698 16.2118 10.5874 16.0753 10.4508 15.9777C10.3078 15.8802 10.1582 15.8086 10.0021 15.7631C9.83954 15.7176 9.66394 15.6981 9.47536 15.6981H9.1242V18.3839ZM12.7204 19.4178V14.6641H16.1021V15.6981H13.9365V16.4589H15.6663V17.4864H13.9365V19.4178H12.7204Z" fill="white" style="fill:white;fill-opacity:1;"/>
</svg>
