<svg width="21" height="20" viewBox="0 0 21 20" fill="none" xmlns="http://www.w3.org/2000/svg">
<path d="M19.8568 5.39929C20.6559 4.60803 20.6698 3.29267 19.8568 2.4876L17.9721 0.60292C17.1721 -0.200973 15.8643 -0.200973 15.0605 0.60292L13.4453 2.2181L18.2417 7.01447L19.8568 5.39929Z" fill="#CFCFCF" style="fill:#CFCFCF;fill:color(display-p3 0.8125 0.8125 0.8125);fill-opacity:1;"/>
<path d="M12.3587 3.30469L1.09949 14.5676C0.972578 14.6906 0.89561 14.856 0.876408 15.033L0.46482 19.1524C0.441707 19.3832 0.522507 19.6101 0.687939 19.7717C0.830219 19.9178 1.02635 19.9986 1.23023 19.9986C1.25718 19.9986 1.28025 19.9986 1.30712 19.9948L5.42659 19.5832C5.60352 19.5679 5.76891 19.4871 5.89582 19.3601L17.1549 8.10102L12.3587 3.30469Z" fill="#CFCFCF" style="fill:#CFCFCF;fill:color(display-p3 0.8125 0.8125 0.8125);fill-opacity:1;"/>
</svg>
