<svg width="28" height="25" viewBox="0 0 28 25" fill="none" xmlns="http://www.w3.org/2000/svg">
<path d="M22.5413 13.1739C21.1731 13.1739 20.0623 14.2847 20.0623 15.6529C20.0623 17.0211 21.1731 18.1319 22.5413 18.1319C23.9095 18.1319 25.0203 17.0211 25.0203 15.6529C25.0271 14.2847 23.9163 13.1739 22.5413 13.1739ZM20.2181 13.3229C21.505 12.036 23.5844 12.036 24.8713 13.3229C26.1582 14.6099 26.1582 16.6892 24.8713 17.9762C23.5844 19.2631 21.4982 19.2631 20.2181 17.9762C18.9312 16.696 18.9312 14.6099 20.2181 13.3229ZM27.0929 15.6529C27.0929 13.1401 25.0542 11.1013 22.5413 11.1013C20.7803 11.1013 19.175 12.1173 18.4232 13.7158C18.3555 13.8648 18.2064 13.9461 18.0574 13.9461H9.96342L7.70794 15.68L9.95665 17.3666H10.9455L11.5958 16.2422C11.7516 15.9713 12.1444 15.9713 12.3002 16.249L12.9436 17.3666H14.0274L14.6776 16.2422C14.8334 15.9713 15.2262 15.9713 15.382 16.249L16.0255 17.3666H18.0574C18.2335 17.3666 18.3758 17.4749 18.4367 17.6239C18.8093 18.3961 19.3918 19.0463 20.1097 19.5069C21.8979 20.6448 24.2549 20.3874 25.7654 18.877C26.5849 18.0507 27.0929 16.9128 27.0929 15.6529ZM26.3343 11.8599C28.4273 13.9596 28.4273 17.353 26.3343 19.4527C24.9119 20.8751 22.7919 21.3966 20.8412 20.7532V22.0672C20.8412 22.2907 20.6584 22.4736 20.4348 22.4736H19.6424V24.5936C19.6424 24.8171 19.4595 25 19.236 25H2.16743C1.94392 25 1.76104 24.8171 1.76104 24.5936V7.25413H0.406394C0.182877 7.25413 0 7.07125 0 6.84774V2.27581C0 1.02276 1.02276 0 2.27581 0H18.5722C19.8253 0 20.848 1.02276 20.848 2.27581V10.5662C22.7987 9.90924 24.9187 10.4376 26.3343 11.8599ZM20.0352 20.401C19.0937 19.8998 18.3148 19.1276 17.8068 18.1794H15.7952C15.6529 18.1794 15.5175 18.1048 15.443 17.9762L15.0298 17.2582L14.637 17.9423C14.576 18.0845 14.4338 18.1794 14.2644 18.1794H12.7066C12.5643 18.1794 12.4289 18.1048 12.3544 17.9762L11.9412 17.2582L11.5484 17.9423C11.4874 18.0845 11.3452 18.1794 11.1826 18.1794H9.82796C9.74668 18.1794 9.65863 18.1523 9.58412 18.0981L6.81387 16.0187C6.59035 15.8629 6.57003 15.5378 6.79355 15.3617L9.55026 13.2349C9.62476 13.1672 9.71959 13.1333 9.82119 13.1333H17.8001C18.308 12.185 19.087 11.4129 20.0284 10.9117V2.26903C20.0284 1.42915 19.3173 0.758602 18.4774 0.812788C18.4503 0.812788 18.43 0.812788 18.4029 0.812788H4.01653C4.36196 1.21918 4.55161 1.74072 4.55161 2.27581V21.6608H20.0352V20.401ZM14.2577 8.45977C14.4812 8.45977 14.664 8.64264 14.664 8.86616C14.664 9.08968 14.4812 9.27255 14.2577 9.27255H7.0848C6.86128 9.27255 6.67841 9.08968 6.67841 8.86616C6.67841 8.64264 6.86128 8.45977 7.0848 8.45977H14.2577ZM12.3679 11.1149C12.5914 11.1149 12.7743 11.2978 12.7743 11.5213C12.7743 11.7448 12.5914 11.9277 12.3679 11.9277H7.0848C6.86128 11.9277 6.67841 11.7448 6.67841 11.5213C6.67841 11.2978 6.86128 11.1149 7.0848 11.1149H12.3679ZM16.3235 5.81143C16.547 5.81143 16.7299 5.99431 16.7299 6.21783C16.7299 6.44134 16.547 6.62422 16.3235 6.62422H7.0848C6.86128 6.62422 6.67841 6.44134 6.67841 6.21783C6.67841 5.99431 6.86128 5.81143 7.0848 5.81143H16.3235ZM17.8339 3.15633C18.0574 3.15633 18.2403 3.3392 18.2403 3.56272C18.2403 3.78624 18.0574 3.96911 17.8339 3.96911H7.0848C6.86128 3.96911 6.67841 3.78624 6.67841 3.56272C6.67841 3.3392 6.86128 3.15633 7.0848 3.15633H17.8339ZM18.8364 22.4668H4.14522C3.9217 22.4668 3.73882 22.2839 3.73882 22.0604V3.02086H2.57383V24.1737H18.8296V22.4668H18.8364ZM1.76104 6.44134V2.61447C1.76104 2.39095 1.94392 2.20807 2.16743 2.20807H3.73205C3.69818 1.43593 3.07505 0.812788 2.27581 0.812788C1.46979 0.812788 0.812788 1.46979 0.812788 2.27581V6.44134H1.76104Z" fill="#091316" style="fill:#091316;fill:color(display-p3 0.0353 0.0745 0.0863);fill-opacity:1;"/>
</svg>
