<svg width="25" height="25" viewBox="0 0 25 25" fill="none" xmlns="http://www.w3.org/2000/svg">
<g clip-path="url(#clip0_1489_159670)">
<path d="M22.777 4.31695C19.3373 3.37447 15.8774 1.90694 12.7713 0.0730589C12.6063 -0.024353 12.4016 -0.024353 12.2366 0.0730589C9.04095 1.95963 5.76801 3.34776 2.23066 4.31695C2.00215 4.3795 1.84375 4.58721 1.84375 4.82417V10.1975C1.84375 15.7308 4.39643 19.3935 6.53793 21.4917C8.84339 23.7507 11.5289 25 12.504 25C13.4789 25 16.1645 23.7507 18.4699 21.4917C20.6114 19.3936 23.1639 15.7309 23.1639 10.1975V4.82412C23.1639 4.58721 23.0055 4.3795 22.777 4.31695ZM22.1122 10.1975C22.1122 15.3656 19.7313 18.7833 17.7338 20.7404C15.4667 22.9618 13.0427 23.9482 12.504 23.9482C11.9653 23.9482 9.54115 22.9618 7.27396 20.7404C5.27656 18.7832 2.89555 15.3656 2.89555 10.1975V5.22334C6.27826 4.26289 9.42855 2.92252 12.5041 1.13526C15.5028 2.8751 18.8103 4.28213 22.1122 5.22315V10.1975Z" fill="#0A66C2" style="fill:#0A66C2;fill:color(display-p3 0.0392 0.4000 0.7608);fill-opacity:1;"/>
<path d="M7.84623 5.16532C7.73979 4.89506 7.43447 4.7623 7.16415 4.86879C6.2247 5.23896 5.26045 5.57968 4.29819 5.88153C4.07891 5.95038 3.92969 6.15351 3.92969 6.38329V8.4141C3.92969 8.70453 4.16518 8.93998 4.45557 8.93998C4.74595 8.93998 4.98144 8.70453 4.98144 8.4141V6.76762C5.84467 6.48832 6.70698 6.17938 7.5497 5.84731C7.81996 5.74091 7.95273 5.43559 7.84623 5.16532Z" fill="#0A66C2" style="fill:#0A66C2;fill:color(display-p3 0.0392 0.4000 0.7608);fill-opacity:1;"/>
<path d="M8.83958 5.26597C8.91014 5.26597 8.98177 5.25176 9.05047 5.22178L9.06014 5.21758C9.3262 5.10098 9.44602 4.79127 9.32942 4.5253C9.21272 4.25923 8.90125 4.13887 8.63548 4.25538L8.62698 4.25904C8.36077 4.3753 8.24056 4.68477 8.35682 4.95088C8.4431 5.14844 8.6367 5.26597 8.83958 5.26597Z" fill="#0A66C2" style="fill:#0A66C2;fill:color(display-p3 0.0392 0.4000 0.7608);fill-opacity:1;"/>
<path d="M18.7671 16.9568C18.5241 16.7979 18.1982 16.8663 18.0392 17.1094C17.6059 17.7726 17.0975 18.4078 16.5279 18.997C16.0596 19.4815 15.5521 19.933 15.0195 20.3391C14.7886 20.5151 14.7442 20.8451 14.9202 21.0761C15.0237 21.2118 15.1803 21.2832 15.3387 21.2832C15.45 21.2832 15.562 21.2481 15.6572 21.1754C16.2317 20.7374 16.7791 20.2504 17.284 19.7281C17.8998 19.0912 18.4501 18.4037 18.9197 17.6847C19.0787 17.4415 19.0103 17.1156 18.7671 16.9568Z" fill="#0A66C2" style="fill:#0A66C2;fill:color(display-p3 0.0392 0.4000 0.7608);fill-opacity:1;"/>
<path d="M13.8005 21.1659L13.7703 21.1836C13.519 21.3292 13.4331 21.6509 13.5786 21.9022C13.6761 22.0707 13.8527 22.1647 14.0343 22.1647C14.1236 22.1647 14.2143 22.1419 14.2972 22.0938L14.332 22.0733C14.5826 21.9266 14.6668 21.6044 14.52 21.3538C14.3732 21.1033 14.051 21.0192 13.8005 21.1659Z" fill="#0A66C2" style="fill:#0A66C2;fill:color(display-p3 0.0392 0.4000 0.7608);fill-opacity:1;"/>
<path d="M8.91834 11.4248C8.59544 11.1018 8.166 10.9241 7.70926 10.9241C7.25252 10.9241 6.82303 11.1019 6.49999 11.4248C5.83334 12.0916 5.83334 13.1766 6.49999 13.8433L9.60525 16.9485C9.9282 17.2713 10.3576 17.4491 10.8144 17.4491C11.2712 17.4491 11.7007 17.2713 12.0237 16.9484L18.5061 10.4659C19.1727 9.79892 19.1727 8.71411 18.506 8.04756C18.1831 7.72461 17.7536 7.54688 17.2968 7.54688C16.84 7.54688 16.4106 7.72466 16.0876 8.04756L10.8144 13.3207L8.91834 11.4248ZM16.8313 8.79131C16.9556 8.66704 17.121 8.59863 17.2968 8.59863C17.4728 8.59863 17.6381 8.66704 17.7624 8.79131C18.019 9.0479 18.019 9.46557 17.7623 9.72226L11.28 16.2047C11.1557 16.3289 10.9903 16.3973 10.8144 16.3973C10.6386 16.3973 10.4732 16.3289 10.3489 16.2047L7.24369 13.0996C6.987 12.8429 6.987 12.4252 7.24359 12.1686C7.3679 12.0444 7.53329 11.9759 7.70921 11.9759C7.88514 11.9759 8.05042 12.0443 8.17469 12.1685L10.4425 14.4364C10.5412 14.535 10.6749 14.5904 10.8144 14.5904C10.9539 14.5904 11.0876 14.535 11.1862 14.4364L16.8313 8.79131Z" fill="#0A66C2" style="fill:#0A66C2;fill:color(display-p3 0.0392 0.4000 0.7608);fill-opacity:1;"/>
</g>
<defs>
<clipPath id="clip0_1489_159670">
<rect width="25" height="25" fill="white" style="fill:white;fill-opacity:1;"/>
</clipPath>
</defs>
</svg>
