<svg width="25" height="25" viewBox="0 0 25 25" fill="none" xmlns="http://www.w3.org/2000/svg">
<g clip-path="url(#clip0_1489_159705)">
<path d="M0.648438 21.5466V24.4687C0.648438 24.7639 0.884558 24.9705 1.17972 25H16.9707C17.2659 25 17.4725 24.7639 17.502 24.4687V21.5466C17.502 18.0638 15.1998 15.0236 11.8645 14.0496C12.8975 13.4888 13.724 12.6033 14.2257 11.5702C14.6685 11.9245 15.1702 12.1901 15.672 12.3672V13.0166C15.672 13.7544 16.2624 14.3743 17.0298 14.3743H18.2104C18.9483 14.3743 19.5682 13.784 19.5682 13.0166V12.3672C20.1585 12.1606 20.6898 11.8359 21.1916 11.4522L21.7524 11.7768C22.4017 12.1311 23.2282 11.9244 23.5823 11.2751L24.1727 10.2716C24.5564 9.62218 24.3202 8.79573 23.6709 8.41206L23.1101 8.08737C23.1691 7.79221 23.1987 7.46752 23.1987 7.17235C23.1987 6.87719 23.1691 6.5525 23.1101 6.25733L23.6709 5.93265C24.3203 5.57844 24.5564 4.75199 24.1727 4.10267C24.1431 4.07315 24.0546 3.9256 23.5823 3.09914C23.1986 2.44977 22.4017 2.24317 21.7524 2.59738L21.1916 2.92207C20.7193 2.53834 20.1585 2.21371 19.5682 2.00705V1.35774C19.5682 0.619853 18.9778 0 18.2104 0H17.0298C16.2919 0 15.672 0.590331 15.672 1.35774V2.00711C15.0817 2.21371 14.5504 2.5384 14.0487 2.92213L13.4879 2.59744C12.8385 2.24323 12.012 2.44989 11.6579 3.09921L11.2447 3.80757C10.5658 3.5124 9.8279 3.39437 9.09002 3.39437C5.96135 3.39437 3.39343 5.90325 3.39343 9.03191C3.39343 11.098 4.51505 13.0166 6.3155 14.0201C2.95071 14.9941 0.648438 18.0638 0.648438 21.5466ZM12.5139 3.63049C12.6024 3.48294 12.7795 3.42389 12.9566 3.5124L13.8421 4.01416C14.0487 4.13225 14.2848 4.10273 14.4619 3.95512C14.9932 3.45336 15.6131 3.09914 16.3214 2.89255C16.528 2.8335 16.7052 2.6269 16.7052 2.39078V1.38726C16.7052 1.21018 16.8527 1.06257 17.0298 1.06257H18.2105C18.3876 1.06257 18.5352 1.21012 18.5352 1.38726V2.39078C18.5352 2.6269 18.6827 2.8335 18.9189 2.89255C19.5978 3.09914 20.2471 3.45336 20.7784 3.95512C20.9555 4.10267 21.1916 4.13219 21.3983 4.01416L22.2838 3.5124C22.4313 3.42383 22.638 3.48288 22.7265 3.63049L23.3167 4.63402C23.4053 4.78157 23.3462 4.98823 23.1986 5.04721L22.3131 5.54897C22.1065 5.66706 22.0179 5.90318 22.077 6.10978C22.2541 6.81814 22.2541 7.52656 22.077 8.23492C22.0179 8.47104 22.136 8.70716 22.3131 8.79573L23.1986 9.29749C23.3462 9.38606 23.4052 9.56314 23.3167 9.74021L22.7264 10.7437C22.6378 10.8913 22.4607 10.9503 22.3132 10.8618L21.4277 10.3601C21.2211 10.242 20.985 10.2715 20.8078 10.4191C20.2765 10.9209 19.6567 11.2751 18.9483 11.4817C18.7122 11.5407 18.5646 11.7473 18.5646 11.9834V12.987C18.5646 13.164 18.417 13.3117 18.2399 13.3117H17.0592C16.8822 13.3117 16.7346 13.1641 16.7346 12.987V11.9834C16.7346 11.7473 16.587 11.5407 16.3508 11.4817C15.7014 11.3046 15.1112 10.9799 14.6094 10.5372C14.7274 10.065 14.7864 9.50415 14.7864 9.0909C14.7864 7.08379 13.7239 5.31285 12.1595 4.30933L12.5139 3.63049ZM4.39696 9.06137C4.39696 6.49352 6.49258 4.42736 9.0605 4.42736C11.6284 4.42736 13.724 6.52298 13.724 9.06137C13.724 11.4817 11.8941 13.7249 9.03098 13.7249C6.49258 13.7249 4.39696 11.6293 4.39696 9.06137ZM8.47017 14.758C8.52921 14.758 9.70981 14.758 9.65083 14.758C13.3993 14.758 16.4395 17.7981 16.4395 21.5466V23.9374H1.68149V21.5466C1.68149 17.7981 4.72165 14.758 8.47017 14.758Z" fill="#091316" style="fill:#091316;fill:color(display-p3 0.0353 0.0745 0.0863);fill-opacity:1;"/>
<path d="M17.5879 10.0642C19.1817 10.0642 20.4509 8.76547 20.4509 7.17162C20.4509 5.57776 19.1522 4.30859 17.5583 4.30859C15.9645 4.30859 14.6953 5.60728 14.6953 7.20114C14.6953 8.76541 15.994 10.0642 17.5879 10.0642ZM17.5879 5.34158C18.6209 5.34158 19.4178 6.19755 19.4178 7.20108C19.4178 8.23413 18.5619 9.03106 17.5583 9.03106C16.5548 9.03106 15.7284 8.20461 15.7284 7.17156C15.7284 6.13851 16.5548 5.31206 17.5879 5.34158Z" fill="#0A66C2" style="fill:#0A66C2;fill:color(display-p3 0.0392 0.4000 0.7608);fill-opacity:1;"/>
</g>
<defs>
<clipPath id="clip0_1489_159705">
<rect width="25" height="25" fill="white" style="fill:white;fill-opacity:1;"/>
</clipPath>
</defs>
</svg>
