<svg width="16" height="15" viewBox="0 0 16 15" fill="none" xmlns="http://www.w3.org/2000/svg">
<path d="M16 12.6667V10C16 9.82319 15.9298 9.65362 15.8047 9.52859C15.6797 9.40357 15.5101 9.33333 15.3333 9.33333C15.1565 9.33333 14.987 9.40357 14.8619 9.52859C14.7369 9.65362 14.6667 9.82319 14.6667 10V12.6667C14.6667 12.8435 14.5964 13.013 14.4714 13.1381C14.3464 13.2631 14.1768 13.3333 14 13.3333H2C1.82319 13.3333 1.65362 13.2631 1.5286 13.1381C1.40357 13.013 1.33333 12.8435 1.33333 12.6667V10C1.33333 9.82319 1.2631 9.65362 1.13807 9.52859C1.01305 9.40357 0.843478 9.33333 0.666667 9.33333C0.489856 9.33333 0.320287 9.40357 0.195262 9.52859C0.070238 9.65362 0 9.82319 0 10V12.6667C0 13.1971 0.210714 13.7058 0.585787 14.0809C0.960859 14.456 1.46957 14.6667 2 14.6667H14C14.5304 14.6667 15.0391 14.456 15.4142 14.0809C15.7893 13.7058 16 13.1971 16 12.6667ZM11.7467 9.18667L8.41333 11.8533C8.29564 11.9463 8.15001 11.9969 8 11.9969C7.84999 11.9969 7.70436 11.9463 7.58667 11.8533L4.25333 9.18667C4.13188 9.07202 4.05788 8.91596 4.04598 8.74937C4.03408 8.58278 4.08514 8.41778 4.18907 8.28704C4.29299 8.15629 4.44221 8.06932 4.60719 8.04332C4.77218 8.01733 4.94091 8.05421 5.08 8.14667L7.33333 9.94667V0.666667C7.33333 0.489856 7.40357 0.320287 7.5286 0.195262C7.65362 0.070238 7.82319 0 8 0C8.17681 0 8.34638 0.070238 8.47141 0.195262C8.59643 0.320287 8.66667 0.489856 8.66667 0.666667V9.94667L10.92 8.14667C10.9871 8.0833 11.0667 8.03456 11.1536 8.00355C11.2406 7.97253 11.333 7.95992 11.4251 7.9665C11.5172 7.97307 11.6069 7.9987 11.6886 8.04176C11.7702 8.08482 11.8421 8.14437 11.8995 8.21664C11.9569 8.2889 11.9987 8.37231 12.0223 8.46158C12.0458 8.55085 12.0505 8.64403 12.0362 8.73522C12.0218 8.82641 11.9886 8.91363 11.9388 8.99134C11.889 9.06905 11.8235 9.13556 11.7467 9.18667Z" fill="#0B74AD" style="fill:#0B74AD;fill:color(display-p3 0.0431 0.4549 0.6784);fill-opacity:1;"/>
</svg>
