<svg width="22" height="12" viewBox="0 0 22 12" fill="none" xmlns="http://www.w3.org/2000/svg">
<path d="M10.7871 0C4.92944 0 0.284961 5.50422 0.0901436 5.7385C-0.0300479 5.88294 -0.0300479 6.0926 0.0901436 6.23704C0.284961 6.47134 4.92944 11.9755 10.7871 11.9755C16.6448 11.9755 21.2893 6.47134 21.4841 6.23704C21.6043 6.0926 21.6043 5.88294 21.4841 5.7385C21.2893 5.50419 16.6448 0 10.7871 0ZM10.7871 11.1957C5.984 11.1957 1.8887 7.05743 0.910794 5.98777C1.8887 4.9181 5.984 0.779789 10.7871 0.779789C15.5902 0.779789 19.6855 4.9181 20.6634 5.98777C19.6855 7.05743 15.5902 11.1957 10.7871 11.1957Z" fill="#0B74AD" style="fill:#0B74AD;fill:color(display-p3 0.0431 0.4549 0.6784);fill-opacity:1;"/>
<path d="M14.6286 4.66562C14.1544 3.28918 12.96 2.24507 11.4993 1.98634C11.2621 1.94368 11.0217 1.92188 10.7847 1.92188C8.5427 1.92188 6.71875 3.74596 6.71875 5.98785C6.71875 8.22975 8.5427 10.0538 10.7847 10.0538C13.0268 10.0538 14.8508 8.22972 14.8508 5.98783C14.8508 5.75176 14.8291 5.51138 14.7865 5.27455C14.7495 5.06567 14.6964 4.86225 14.6286 4.66562ZM11.5636 2.79789C12.7339 3.07329 13.6991 4.03872 13.9747 5.20895C13.6703 5.46085 13.2903 5.59793 12.8853 5.59793C11.9421 5.59793 11.1746 4.83033 11.1746 3.88707C11.1746 3.48223 11.3116 3.10232 11.5636 2.79789ZM10.7847 9.27401C8.9727 9.27401 7.49854 7.79972 7.49854 5.98783C7.49854 4.20783 8.9221 2.75708 10.6902 2.70645C10.4978 3.06388 10.3948 3.46614 10.3948 3.88707C10.3948 5.26033 11.5121 6.37772 12.8853 6.37772C13.3064 6.37772 13.7087 6.27471 14.0662 6.08223C14.0157 7.85025 12.5649 9.27401 10.7847 9.27401Z" fill="#0B74AD" style="fill:#0B74AD;fill:color(display-p3 0.0431 0.4549 0.6784);fill-opacity:1;"/>
</svg>
